%
M48
M72
T01C0.01575
T02C0.03150
T03C0.03937
T04C0.04000
T05C0.06299
T06C0.11024
T07C0.12992
%
T01
X24500Y55500
X31500Y78500
X45500Y98500
X67500Y96500
X67500Y80500
X67500Y66500
X76500Y58500
X87500Y58500
X101500Y58500
X117500Y58500
X124500Y45500
X135500Y59500
X138500Y73500
X131500Y83500
X121500Y86500
X109500Y76500
X99500Y84500
X84500Y89500
X84500Y74500
X83500Y104500
X83500Y121500
X83500Y137500
X84500Y153500
X67500Y160500
X66500Y144500
X66500Y128500
X66500Y112500
X51500Y120500
X27500Y150500
X22500Y172500
X43500Y173500
X54500Y185500
X34500Y197500
X28500Y217500
X27500Y236500
X50500Y236500
X51500Y217500
X72500Y236500
X76500Y222500
X75500Y203500
X95500Y215500
X95500Y236500
X84500Y261500
X96500Y274500
X96500Y284500
X96500Y294500
X96500Y304500
X96500Y314500
X96500Y324500
X87500Y334500
X81500Y318500
X69500Y333500
X63500Y322500
X63500Y301500
X57500Y286500
X44500Y299500
X28500Y288500
X26500Y305500
X39500Y322500
X40500Y337500
X53500Y341500
X35500Y353500
X22500Y346500
X22500Y327500
X53500Y378500
X66500Y386500
X77500Y382500
X91500Y385500
X101500Y373500
X84500Y357500
X101500Y348500
X125500Y349500
X136500Y335500
X136500Y324500
X126500Y324500
X126500Y314500
X126500Y304500
X136500Y304500
X136500Y314500
X146500Y313500
X146500Y305500
X154500Y305500
X154500Y313500
X154500Y321500
X146500Y321500
X154500Y335500
X154500Y342500
X164500Y352000
X156500Y365500
X146500Y367500
X132500Y375500
X126500Y367500
X132500Y392500
X173500Y376500
X185500Y375500
X187500Y364500
X180500Y357500
X188500Y349500
X193500Y353500
X202500Y362500
X213500Y363500
X209500Y349500
X218500Y349500
X228500Y349500
X242500Y367500
X250500Y354500
X250500Y346500
X250500Y338500
X260500Y342500
X260500Y346500
X260500Y350500
X264500Y350500
X264500Y346500
X264500Y342500
X263500Y330500
X270500Y315500
X280500Y307500
X282500Y329500
X279500Y347500
X274500Y363500
X260500Y371500
X274500Y382500
X286500Y393500
X250500Y392500
X226500Y374500
X213500Y382500
X199500Y383500
X179500Y392500
X202500Y340500
X194500Y334500
X192500Y324500
X192500Y314500
X192500Y304500
X192500Y294500
X192500Y284500
X192500Y274500
X182500Y274500
X172500Y274500
X163500Y274500
X154500Y274500
X145500Y274500
X136500Y274500
X126500Y274500
X126500Y284500
X126500Y294500
X136500Y294500
X145500Y294500
X145500Y284500
X136500Y284500
X154500Y284500
X163500Y284500
X172500Y284500
X172500Y294500
X163500Y294500
X154500Y294500
X162500Y305500
X162500Y313500
X162500Y321500
X172500Y324500
X182500Y324500
X182500Y314500
X182500Y304500
X172500Y304500
X172500Y314500
X182500Y294500
X182500Y284500
X168500Y262500
X182500Y261500
X184500Y246500
X184500Y235500
X198500Y242500
X208500Y241500
X216500Y236500
X226500Y222500
X226500Y209500
X230500Y206500
X237500Y215500
X250500Y214500
X250500Y207500
X267500Y214500
X265500Y220500
X274500Y229500
X279500Y234000
X284500Y242500
X277500Y247500
X296500Y253500
X302500Y260500
X307500Y265500
X308500Y274500
X319500Y277500
X329500Y274500
X346500Y273500
X365500Y271500
X365500Y292500
X355500Y313500
X337500Y323500
X317500Y330500
X315500Y308500
X314500Y290500
X339500Y300500
X359500Y334500
X341500Y347500
X361500Y359500
X381500Y341500
X384500Y312500
X395500Y281500
X396500Y271500
X396500Y251500
X395500Y231500
X395500Y211500
X395500Y191500
X396500Y171500
X395500Y151500
X382500Y151500
X370500Y141500
X356500Y141500
X352500Y146500
X350500Y153500
X343500Y160500
X339500Y143500
X339500Y136500
X339500Y130500
X339500Y120500
X351500Y130500
X351000Y136500
X329500Y143500
X321500Y151500
X317500Y141500
X313500Y130500
X326500Y130500
X326500Y111500
X311500Y114500
X297500Y113500
X292500Y124500
X284500Y114500
X266500Y116500
X255500Y110500
X264500Y98500
X281500Y90500
X297500Y90500
X310500Y91500
X325500Y79500
X342500Y80500
X355500Y91500
X365500Y106500
X363500Y115500
X382500Y97500
X394500Y96500
X395500Y112500
X396500Y131500
X368500Y156500
X357500Y196500
X351500Y202500
X345500Y208500
X338500Y214500
X320500Y213500
X314500Y216500
X311500Y206500
X305500Y206500
X305500Y200500
X305500Y194500
X311500Y194500
X311500Y200500
X311500Y188500
X311500Y182500
X305500Y182500
X305500Y188500
X299500Y188500
X299500Y182500
X293500Y182500
X293500Y188500
X293500Y194500
X293500Y200500
X299500Y200500
X299500Y194500
X299500Y206500
X293500Y206500
X287500Y206500
X287500Y200500
X287500Y194500
X287500Y188500
X287500Y182500
X285500Y172500
X279500Y172500
X278500Y176500
X276500Y181500
X269500Y190500
X275500Y200500
X277500Y213500
X289000Y220500
X288500Y226000
X315000Y247000
X318500Y250500
X332500Y249500
X349500Y249500
X368500Y250500
X368500Y242500
X322500Y182500
X328500Y179500
X321500Y172500
X313500Y160500
X307500Y167500
X301500Y170500
X299500Y159500
X308500Y150500
X301500Y138500
X291500Y148500
X286500Y159500
X278500Y162500
X277500Y145000
X266500Y145000
X255500Y149500
X254500Y136500
X266500Y132500
X277500Y132000
X260500Y163500
X245500Y163500
X230500Y175500
X215500Y176500
X214300Y180900
X203500Y178500
X202500Y164500
X193500Y166500
X178500Y178500
X170500Y187500
X173000Y194500
X170500Y203500
X180500Y212500
X191500Y213500
X202500Y218500
X215200Y211900
X216680Y208020
X217300Y196100
X217300Y192900
X213700Y192900
X213700Y196100
X203000Y195000
X185500Y194500
X164500Y171500
X157500Y181500
X154500Y194000
X155500Y206500
X142500Y205500
X130500Y192500
X128500Y176500
X139500Y171500
X126500Y152500
X122500Y142500
X125500Y126500
X138500Y119500
X126500Y104500
X139500Y94500
X161500Y104500
X164500Y97500
X159500Y78500
X154500Y64500
X161500Y45500
X147500Y23500
X181500Y23500
X198500Y44500
X218500Y21500
X236500Y45500
X251500Y66500
X270500Y74500
X294500Y74500
X278500Y45500
X255500Y22500
X289500Y19500
X325500Y58500
X344500Y58500
X350500Y38500
X367500Y50500
X384500Y36500
X366500Y21500
X387500Y61500
X362500Y70500
X372500Y90500
X259500Y182500
X247500Y181500
X224500Y194500
X254500Y232500
X243500Y235500
X243500Y246500
X234500Y257500
X230500Y246500
X215500Y251500
X215500Y264500
X213500Y276500
X205500Y282500
X214500Y290500
X207500Y297500
X213500Y307500
X208500Y314500
X206500Y325500
X220500Y322500
X229600Y310200
X228500Y300500
X231500Y285500
X241500Y284500
X252500Y283500
X264500Y285500
X274500Y284500
X258800Y307000
X249500Y269500
X228500Y268500
X254500Y247500
X199500Y261500
X163500Y236500
X159500Y222500
X173500Y223500
X142500Y225500
X127500Y234500
X130500Y261500
X116500Y274500
X106500Y274500
X106500Y284500
X106500Y294500
X116500Y294500
X116500Y284500
X116500Y304500
X116500Y314500
X106500Y314500
X106500Y304500
X106500Y324500
X116500Y324500
X79500Y297500
X78500Y279500
X63500Y261500
X42500Y261500
X22500Y260500
X94500Y185500
X108500Y173500
X103500Y155500
X104500Y126500
X104500Y103500
X139500Y145500
X160500Y134500
X164500Y123500
X182500Y129500
X188500Y144500
X202500Y124500
X182500Y106500
X205500Y90500
X224500Y108500
X242500Y90500
X217500Y68500
X188500Y68500
X164500Y145500
X159500Y159500
X228500Y143500
X151500Y261500
X109500Y261500
X49500Y59500
X66500Y44500
X77500Y25500
X93500Y42500
X113500Y23500
X314500Y353500
X350500Y387500
X380500Y377500
T02
X69500Y369311
X50602Y357500
T03
X69500Y345689
X377500Y296500
X377500Y286500
X377500Y276500
X377500Y266500
X377500Y256500
X377500Y246500
X377500Y236500
X377500Y226500
X377500Y216500
X377500Y206500
X377500Y196500
X377500Y186500
X377500Y176500
X377500Y166500
X377500Y156500
X377500Y146500
X377500Y136500
X377500Y126500
X377500Y116500
X377500Y106500
X387500Y106500
X387500Y116500
X387500Y126500
X387500Y136500
X387500Y146500
X387500Y156500
X387500Y166500
X387500Y176500
X387500Y186500
X387500Y196500
X387500Y206500
X387500Y216500
X387500Y226500
X387500Y236500
X387500Y246500
X387500Y256500
X387500Y266500
X387500Y276500
X387500Y286500
X387500Y296500
T04
X247500Y313500
X237500Y313500
X204500Y372500
X194500Y372500
X50500Y328500
X50500Y318500
T05
X75500Y162980
T06
X61996Y149476
X89004Y149476
X89004Y176484
X61996Y176484
T07
X24248Y21248
X32122Y115736
X114799Y210224
X24248Y383453
X323461Y383453
X323461Y21248
M30
