G75*
%MOIN*%
%OFA0B0*%
%FSLAX25Y25*%
%IPPOS*%
%LPD*%
%AMOC8*
5,1,8,0,0,1.08239X$1,22.5*
%
%ADD10C,0.00000*%
D10*
X0008500Y0005500D02*
X0008500Y0399201D01*
X0402201Y0399201D01*
X0402201Y0005500D01*
X0008500Y0005500D01*
X0017752Y0021248D02*
X0017754Y0021409D01*
X0017760Y0021569D01*
X0017770Y0021730D01*
X0017784Y0021890D01*
X0017802Y0022049D01*
X0017823Y0022209D01*
X0017849Y0022367D01*
X0017879Y0022525D01*
X0017912Y0022682D01*
X0017950Y0022839D01*
X0017991Y0022994D01*
X0018036Y0023148D01*
X0018085Y0023301D01*
X0018138Y0023453D01*
X0018194Y0023603D01*
X0018254Y0023752D01*
X0018318Y0023900D01*
X0018385Y0024046D01*
X0018456Y0024190D01*
X0018531Y0024332D01*
X0018609Y0024473D01*
X0018690Y0024611D01*
X0018775Y0024748D01*
X0018864Y0024882D01*
X0018955Y0025014D01*
X0019050Y0025144D01*
X0019148Y0025271D01*
X0019249Y0025396D01*
X0019353Y0025519D01*
X0019460Y0025638D01*
X0019570Y0025755D01*
X0019683Y0025870D01*
X0019799Y0025981D01*
X0019917Y0026090D01*
X0020038Y0026195D01*
X0020162Y0026298D01*
X0020288Y0026398D01*
X0020417Y0026494D01*
X0020548Y0026587D01*
X0020681Y0026677D01*
X0020816Y0026764D01*
X0020954Y0026847D01*
X0021093Y0026926D01*
X0021235Y0027003D01*
X0021378Y0027076D01*
X0021523Y0027145D01*
X0021670Y0027210D01*
X0021818Y0027272D01*
X0021968Y0027331D01*
X0022119Y0027385D01*
X0022271Y0027436D01*
X0022425Y0027483D01*
X0022580Y0027526D01*
X0022735Y0027565D01*
X0022892Y0027601D01*
X0023050Y0027633D01*
X0023208Y0027660D01*
X0023367Y0027684D01*
X0023526Y0027704D01*
X0023686Y0027720D01*
X0023847Y0027732D01*
X0024007Y0027740D01*
X0024168Y0027744D01*
X0024328Y0027744D01*
X0024489Y0027740D01*
X0024649Y0027732D01*
X0024810Y0027720D01*
X0024970Y0027704D01*
X0025129Y0027684D01*
X0025288Y0027660D01*
X0025446Y0027633D01*
X0025604Y0027601D01*
X0025761Y0027565D01*
X0025916Y0027526D01*
X0026071Y0027483D01*
X0026225Y0027436D01*
X0026377Y0027385D01*
X0026528Y0027331D01*
X0026678Y0027272D01*
X0026826Y0027210D01*
X0026973Y0027145D01*
X0027118Y0027076D01*
X0027261Y0027003D01*
X0027403Y0026926D01*
X0027542Y0026847D01*
X0027680Y0026764D01*
X0027815Y0026677D01*
X0027948Y0026587D01*
X0028079Y0026494D01*
X0028208Y0026398D01*
X0028334Y0026298D01*
X0028458Y0026195D01*
X0028579Y0026090D01*
X0028697Y0025981D01*
X0028813Y0025870D01*
X0028926Y0025755D01*
X0029036Y0025638D01*
X0029143Y0025519D01*
X0029247Y0025396D01*
X0029348Y0025271D01*
X0029446Y0025144D01*
X0029541Y0025014D01*
X0029632Y0024882D01*
X0029721Y0024748D01*
X0029806Y0024611D01*
X0029887Y0024473D01*
X0029965Y0024332D01*
X0030040Y0024190D01*
X0030111Y0024046D01*
X0030178Y0023900D01*
X0030242Y0023752D01*
X0030302Y0023603D01*
X0030358Y0023453D01*
X0030411Y0023301D01*
X0030460Y0023148D01*
X0030505Y0022994D01*
X0030546Y0022839D01*
X0030584Y0022682D01*
X0030617Y0022525D01*
X0030647Y0022367D01*
X0030673Y0022209D01*
X0030694Y0022049D01*
X0030712Y0021890D01*
X0030726Y0021730D01*
X0030736Y0021569D01*
X0030742Y0021409D01*
X0030744Y0021248D01*
X0030742Y0021087D01*
X0030736Y0020927D01*
X0030726Y0020766D01*
X0030712Y0020606D01*
X0030694Y0020447D01*
X0030673Y0020287D01*
X0030647Y0020129D01*
X0030617Y0019971D01*
X0030584Y0019814D01*
X0030546Y0019657D01*
X0030505Y0019502D01*
X0030460Y0019348D01*
X0030411Y0019195D01*
X0030358Y0019043D01*
X0030302Y0018893D01*
X0030242Y0018744D01*
X0030178Y0018596D01*
X0030111Y0018450D01*
X0030040Y0018306D01*
X0029965Y0018164D01*
X0029887Y0018023D01*
X0029806Y0017885D01*
X0029721Y0017748D01*
X0029632Y0017614D01*
X0029541Y0017482D01*
X0029446Y0017352D01*
X0029348Y0017225D01*
X0029247Y0017100D01*
X0029143Y0016977D01*
X0029036Y0016858D01*
X0028926Y0016741D01*
X0028813Y0016626D01*
X0028697Y0016515D01*
X0028579Y0016406D01*
X0028458Y0016301D01*
X0028334Y0016198D01*
X0028208Y0016098D01*
X0028079Y0016002D01*
X0027948Y0015909D01*
X0027815Y0015819D01*
X0027680Y0015732D01*
X0027542Y0015649D01*
X0027403Y0015570D01*
X0027261Y0015493D01*
X0027118Y0015420D01*
X0026973Y0015351D01*
X0026826Y0015286D01*
X0026678Y0015224D01*
X0026528Y0015165D01*
X0026377Y0015111D01*
X0026225Y0015060D01*
X0026071Y0015013D01*
X0025916Y0014970D01*
X0025761Y0014931D01*
X0025604Y0014895D01*
X0025446Y0014863D01*
X0025288Y0014836D01*
X0025129Y0014812D01*
X0024970Y0014792D01*
X0024810Y0014776D01*
X0024649Y0014764D01*
X0024489Y0014756D01*
X0024328Y0014752D01*
X0024168Y0014752D01*
X0024007Y0014756D01*
X0023847Y0014764D01*
X0023686Y0014776D01*
X0023526Y0014792D01*
X0023367Y0014812D01*
X0023208Y0014836D01*
X0023050Y0014863D01*
X0022892Y0014895D01*
X0022735Y0014931D01*
X0022580Y0014970D01*
X0022425Y0015013D01*
X0022271Y0015060D01*
X0022119Y0015111D01*
X0021968Y0015165D01*
X0021818Y0015224D01*
X0021670Y0015286D01*
X0021523Y0015351D01*
X0021378Y0015420D01*
X0021235Y0015493D01*
X0021093Y0015570D01*
X0020954Y0015649D01*
X0020816Y0015732D01*
X0020681Y0015819D01*
X0020548Y0015909D01*
X0020417Y0016002D01*
X0020288Y0016098D01*
X0020162Y0016198D01*
X0020038Y0016301D01*
X0019917Y0016406D01*
X0019799Y0016515D01*
X0019683Y0016626D01*
X0019570Y0016741D01*
X0019460Y0016858D01*
X0019353Y0016977D01*
X0019249Y0017100D01*
X0019148Y0017225D01*
X0019050Y0017352D01*
X0018955Y0017482D01*
X0018864Y0017614D01*
X0018775Y0017748D01*
X0018690Y0017885D01*
X0018609Y0018023D01*
X0018531Y0018164D01*
X0018456Y0018306D01*
X0018385Y0018450D01*
X0018318Y0018596D01*
X0018254Y0018744D01*
X0018194Y0018893D01*
X0018138Y0019043D01*
X0018085Y0019195D01*
X0018036Y0019348D01*
X0017991Y0019502D01*
X0017950Y0019657D01*
X0017912Y0019814D01*
X0017879Y0019971D01*
X0017849Y0020129D01*
X0017823Y0020287D01*
X0017802Y0020447D01*
X0017784Y0020606D01*
X0017770Y0020766D01*
X0017760Y0020927D01*
X0017754Y0021087D01*
X0017752Y0021248D01*
X0025626Y0115736D02*
X0025628Y0115897D01*
X0025634Y0116057D01*
X0025644Y0116218D01*
X0025658Y0116378D01*
X0025676Y0116537D01*
X0025697Y0116697D01*
X0025723Y0116855D01*
X0025753Y0117013D01*
X0025786Y0117170D01*
X0025824Y0117327D01*
X0025865Y0117482D01*
X0025910Y0117636D01*
X0025959Y0117789D01*
X0026012Y0117941D01*
X0026068Y0118091D01*
X0026128Y0118240D01*
X0026192Y0118388D01*
X0026259Y0118534D01*
X0026330Y0118678D01*
X0026405Y0118820D01*
X0026483Y0118961D01*
X0026564Y0119099D01*
X0026649Y0119236D01*
X0026738Y0119370D01*
X0026829Y0119502D01*
X0026924Y0119632D01*
X0027022Y0119759D01*
X0027123Y0119884D01*
X0027227Y0120007D01*
X0027334Y0120126D01*
X0027444Y0120243D01*
X0027557Y0120358D01*
X0027673Y0120469D01*
X0027791Y0120578D01*
X0027912Y0120683D01*
X0028036Y0120786D01*
X0028162Y0120886D01*
X0028291Y0120982D01*
X0028422Y0121075D01*
X0028555Y0121165D01*
X0028690Y0121252D01*
X0028828Y0121335D01*
X0028967Y0121414D01*
X0029109Y0121491D01*
X0029252Y0121564D01*
X0029397Y0121633D01*
X0029544Y0121698D01*
X0029692Y0121760D01*
X0029842Y0121819D01*
X0029993Y0121873D01*
X0030145Y0121924D01*
X0030299Y0121971D01*
X0030454Y0122014D01*
X0030609Y0122053D01*
X0030766Y0122089D01*
X0030924Y0122121D01*
X0031082Y0122148D01*
X0031241Y0122172D01*
X0031400Y0122192D01*
X0031560Y0122208D01*
X0031721Y0122220D01*
X0031881Y0122228D01*
X0032042Y0122232D01*
X0032202Y0122232D01*
X0032363Y0122228D01*
X0032523Y0122220D01*
X0032684Y0122208D01*
X0032844Y0122192D01*
X0033003Y0122172D01*
X0033162Y0122148D01*
X0033320Y0122121D01*
X0033478Y0122089D01*
X0033635Y0122053D01*
X0033790Y0122014D01*
X0033945Y0121971D01*
X0034099Y0121924D01*
X0034251Y0121873D01*
X0034402Y0121819D01*
X0034552Y0121760D01*
X0034700Y0121698D01*
X0034847Y0121633D01*
X0034992Y0121564D01*
X0035135Y0121491D01*
X0035277Y0121414D01*
X0035416Y0121335D01*
X0035554Y0121252D01*
X0035689Y0121165D01*
X0035822Y0121075D01*
X0035953Y0120982D01*
X0036082Y0120886D01*
X0036208Y0120786D01*
X0036332Y0120683D01*
X0036453Y0120578D01*
X0036571Y0120469D01*
X0036687Y0120358D01*
X0036800Y0120243D01*
X0036910Y0120126D01*
X0037017Y0120007D01*
X0037121Y0119884D01*
X0037222Y0119759D01*
X0037320Y0119632D01*
X0037415Y0119502D01*
X0037506Y0119370D01*
X0037595Y0119236D01*
X0037680Y0119099D01*
X0037761Y0118961D01*
X0037839Y0118820D01*
X0037914Y0118678D01*
X0037985Y0118534D01*
X0038052Y0118388D01*
X0038116Y0118240D01*
X0038176Y0118091D01*
X0038232Y0117941D01*
X0038285Y0117789D01*
X0038334Y0117636D01*
X0038379Y0117482D01*
X0038420Y0117327D01*
X0038458Y0117170D01*
X0038491Y0117013D01*
X0038521Y0116855D01*
X0038547Y0116697D01*
X0038568Y0116537D01*
X0038586Y0116378D01*
X0038600Y0116218D01*
X0038610Y0116057D01*
X0038616Y0115897D01*
X0038618Y0115736D01*
X0038616Y0115575D01*
X0038610Y0115415D01*
X0038600Y0115254D01*
X0038586Y0115094D01*
X0038568Y0114935D01*
X0038547Y0114775D01*
X0038521Y0114617D01*
X0038491Y0114459D01*
X0038458Y0114302D01*
X0038420Y0114145D01*
X0038379Y0113990D01*
X0038334Y0113836D01*
X0038285Y0113683D01*
X0038232Y0113531D01*
X0038176Y0113381D01*
X0038116Y0113232D01*
X0038052Y0113084D01*
X0037985Y0112938D01*
X0037914Y0112794D01*
X0037839Y0112652D01*
X0037761Y0112511D01*
X0037680Y0112373D01*
X0037595Y0112236D01*
X0037506Y0112102D01*
X0037415Y0111970D01*
X0037320Y0111840D01*
X0037222Y0111713D01*
X0037121Y0111588D01*
X0037017Y0111465D01*
X0036910Y0111346D01*
X0036800Y0111229D01*
X0036687Y0111114D01*
X0036571Y0111003D01*
X0036453Y0110894D01*
X0036332Y0110789D01*
X0036208Y0110686D01*
X0036082Y0110586D01*
X0035953Y0110490D01*
X0035822Y0110397D01*
X0035689Y0110307D01*
X0035554Y0110220D01*
X0035416Y0110137D01*
X0035277Y0110058D01*
X0035135Y0109981D01*
X0034992Y0109908D01*
X0034847Y0109839D01*
X0034700Y0109774D01*
X0034552Y0109712D01*
X0034402Y0109653D01*
X0034251Y0109599D01*
X0034099Y0109548D01*
X0033945Y0109501D01*
X0033790Y0109458D01*
X0033635Y0109419D01*
X0033478Y0109383D01*
X0033320Y0109351D01*
X0033162Y0109324D01*
X0033003Y0109300D01*
X0032844Y0109280D01*
X0032684Y0109264D01*
X0032523Y0109252D01*
X0032363Y0109244D01*
X0032202Y0109240D01*
X0032042Y0109240D01*
X0031881Y0109244D01*
X0031721Y0109252D01*
X0031560Y0109264D01*
X0031400Y0109280D01*
X0031241Y0109300D01*
X0031082Y0109324D01*
X0030924Y0109351D01*
X0030766Y0109383D01*
X0030609Y0109419D01*
X0030454Y0109458D01*
X0030299Y0109501D01*
X0030145Y0109548D01*
X0029993Y0109599D01*
X0029842Y0109653D01*
X0029692Y0109712D01*
X0029544Y0109774D01*
X0029397Y0109839D01*
X0029252Y0109908D01*
X0029109Y0109981D01*
X0028967Y0110058D01*
X0028828Y0110137D01*
X0028690Y0110220D01*
X0028555Y0110307D01*
X0028422Y0110397D01*
X0028291Y0110490D01*
X0028162Y0110586D01*
X0028036Y0110686D01*
X0027912Y0110789D01*
X0027791Y0110894D01*
X0027673Y0111003D01*
X0027557Y0111114D01*
X0027444Y0111229D01*
X0027334Y0111346D01*
X0027227Y0111465D01*
X0027123Y0111588D01*
X0027022Y0111713D01*
X0026924Y0111840D01*
X0026829Y0111970D01*
X0026738Y0112102D01*
X0026649Y0112236D01*
X0026564Y0112373D01*
X0026483Y0112511D01*
X0026405Y0112652D01*
X0026330Y0112794D01*
X0026259Y0112938D01*
X0026192Y0113084D01*
X0026128Y0113232D01*
X0026068Y0113381D01*
X0026012Y0113531D01*
X0025959Y0113683D01*
X0025910Y0113836D01*
X0025865Y0113990D01*
X0025824Y0114145D01*
X0025786Y0114302D01*
X0025753Y0114459D01*
X0025723Y0114617D01*
X0025697Y0114775D01*
X0025676Y0114935D01*
X0025658Y0115094D01*
X0025644Y0115254D01*
X0025634Y0115415D01*
X0025628Y0115575D01*
X0025626Y0115736D01*
X0108303Y0210224D02*
X0108305Y0210385D01*
X0108311Y0210545D01*
X0108321Y0210706D01*
X0108335Y0210866D01*
X0108353Y0211025D01*
X0108374Y0211185D01*
X0108400Y0211343D01*
X0108430Y0211501D01*
X0108463Y0211658D01*
X0108501Y0211815D01*
X0108542Y0211970D01*
X0108587Y0212124D01*
X0108636Y0212277D01*
X0108689Y0212429D01*
X0108745Y0212579D01*
X0108805Y0212728D01*
X0108869Y0212876D01*
X0108936Y0213022D01*
X0109007Y0213166D01*
X0109082Y0213308D01*
X0109160Y0213449D01*
X0109241Y0213587D01*
X0109326Y0213724D01*
X0109415Y0213858D01*
X0109506Y0213990D01*
X0109601Y0214120D01*
X0109699Y0214247D01*
X0109800Y0214372D01*
X0109904Y0214495D01*
X0110011Y0214614D01*
X0110121Y0214731D01*
X0110234Y0214846D01*
X0110350Y0214957D01*
X0110468Y0215066D01*
X0110589Y0215171D01*
X0110713Y0215274D01*
X0110839Y0215374D01*
X0110968Y0215470D01*
X0111099Y0215563D01*
X0111232Y0215653D01*
X0111367Y0215740D01*
X0111505Y0215823D01*
X0111644Y0215902D01*
X0111786Y0215979D01*
X0111929Y0216052D01*
X0112074Y0216121D01*
X0112221Y0216186D01*
X0112369Y0216248D01*
X0112519Y0216307D01*
X0112670Y0216361D01*
X0112822Y0216412D01*
X0112976Y0216459D01*
X0113131Y0216502D01*
X0113286Y0216541D01*
X0113443Y0216577D01*
X0113601Y0216609D01*
X0113759Y0216636D01*
X0113918Y0216660D01*
X0114077Y0216680D01*
X0114237Y0216696D01*
X0114398Y0216708D01*
X0114558Y0216716D01*
X0114719Y0216720D01*
X0114879Y0216720D01*
X0115040Y0216716D01*
X0115200Y0216708D01*
X0115361Y0216696D01*
X0115521Y0216680D01*
X0115680Y0216660D01*
X0115839Y0216636D01*
X0115997Y0216609D01*
X0116155Y0216577D01*
X0116312Y0216541D01*
X0116467Y0216502D01*
X0116622Y0216459D01*
X0116776Y0216412D01*
X0116928Y0216361D01*
X0117079Y0216307D01*
X0117229Y0216248D01*
X0117377Y0216186D01*
X0117524Y0216121D01*
X0117669Y0216052D01*
X0117812Y0215979D01*
X0117954Y0215902D01*
X0118093Y0215823D01*
X0118231Y0215740D01*
X0118366Y0215653D01*
X0118499Y0215563D01*
X0118630Y0215470D01*
X0118759Y0215374D01*
X0118885Y0215274D01*
X0119009Y0215171D01*
X0119130Y0215066D01*
X0119248Y0214957D01*
X0119364Y0214846D01*
X0119477Y0214731D01*
X0119587Y0214614D01*
X0119694Y0214495D01*
X0119798Y0214372D01*
X0119899Y0214247D01*
X0119997Y0214120D01*
X0120092Y0213990D01*
X0120183Y0213858D01*
X0120272Y0213724D01*
X0120357Y0213587D01*
X0120438Y0213449D01*
X0120516Y0213308D01*
X0120591Y0213166D01*
X0120662Y0213022D01*
X0120729Y0212876D01*
X0120793Y0212728D01*
X0120853Y0212579D01*
X0120909Y0212429D01*
X0120962Y0212277D01*
X0121011Y0212124D01*
X0121056Y0211970D01*
X0121097Y0211815D01*
X0121135Y0211658D01*
X0121168Y0211501D01*
X0121198Y0211343D01*
X0121224Y0211185D01*
X0121245Y0211025D01*
X0121263Y0210866D01*
X0121277Y0210706D01*
X0121287Y0210545D01*
X0121293Y0210385D01*
X0121295Y0210224D01*
X0121293Y0210063D01*
X0121287Y0209903D01*
X0121277Y0209742D01*
X0121263Y0209582D01*
X0121245Y0209423D01*
X0121224Y0209263D01*
X0121198Y0209105D01*
X0121168Y0208947D01*
X0121135Y0208790D01*
X0121097Y0208633D01*
X0121056Y0208478D01*
X0121011Y0208324D01*
X0120962Y0208171D01*
X0120909Y0208019D01*
X0120853Y0207869D01*
X0120793Y0207720D01*
X0120729Y0207572D01*
X0120662Y0207426D01*
X0120591Y0207282D01*
X0120516Y0207140D01*
X0120438Y0206999D01*
X0120357Y0206861D01*
X0120272Y0206724D01*
X0120183Y0206590D01*
X0120092Y0206458D01*
X0119997Y0206328D01*
X0119899Y0206201D01*
X0119798Y0206076D01*
X0119694Y0205953D01*
X0119587Y0205834D01*
X0119477Y0205717D01*
X0119364Y0205602D01*
X0119248Y0205491D01*
X0119130Y0205382D01*
X0119009Y0205277D01*
X0118885Y0205174D01*
X0118759Y0205074D01*
X0118630Y0204978D01*
X0118499Y0204885D01*
X0118366Y0204795D01*
X0118231Y0204708D01*
X0118093Y0204625D01*
X0117954Y0204546D01*
X0117812Y0204469D01*
X0117669Y0204396D01*
X0117524Y0204327D01*
X0117377Y0204262D01*
X0117229Y0204200D01*
X0117079Y0204141D01*
X0116928Y0204087D01*
X0116776Y0204036D01*
X0116622Y0203989D01*
X0116467Y0203946D01*
X0116312Y0203907D01*
X0116155Y0203871D01*
X0115997Y0203839D01*
X0115839Y0203812D01*
X0115680Y0203788D01*
X0115521Y0203768D01*
X0115361Y0203752D01*
X0115200Y0203740D01*
X0115040Y0203732D01*
X0114879Y0203728D01*
X0114719Y0203728D01*
X0114558Y0203732D01*
X0114398Y0203740D01*
X0114237Y0203752D01*
X0114077Y0203768D01*
X0113918Y0203788D01*
X0113759Y0203812D01*
X0113601Y0203839D01*
X0113443Y0203871D01*
X0113286Y0203907D01*
X0113131Y0203946D01*
X0112976Y0203989D01*
X0112822Y0204036D01*
X0112670Y0204087D01*
X0112519Y0204141D01*
X0112369Y0204200D01*
X0112221Y0204262D01*
X0112074Y0204327D01*
X0111929Y0204396D01*
X0111786Y0204469D01*
X0111644Y0204546D01*
X0111505Y0204625D01*
X0111367Y0204708D01*
X0111232Y0204795D01*
X0111099Y0204885D01*
X0110968Y0204978D01*
X0110839Y0205074D01*
X0110713Y0205174D01*
X0110589Y0205277D01*
X0110468Y0205382D01*
X0110350Y0205491D01*
X0110234Y0205602D01*
X0110121Y0205717D01*
X0110011Y0205834D01*
X0109904Y0205953D01*
X0109800Y0206076D01*
X0109699Y0206201D01*
X0109601Y0206328D01*
X0109506Y0206458D01*
X0109415Y0206590D01*
X0109326Y0206724D01*
X0109241Y0206861D01*
X0109160Y0206999D01*
X0109082Y0207140D01*
X0109007Y0207282D01*
X0108936Y0207426D01*
X0108869Y0207572D01*
X0108805Y0207720D01*
X0108745Y0207869D01*
X0108689Y0208019D01*
X0108636Y0208171D01*
X0108587Y0208324D01*
X0108542Y0208478D01*
X0108501Y0208633D01*
X0108463Y0208790D01*
X0108430Y0208947D01*
X0108400Y0209105D01*
X0108374Y0209263D01*
X0108353Y0209423D01*
X0108335Y0209582D01*
X0108321Y0209742D01*
X0108311Y0209903D01*
X0108305Y0210063D01*
X0108303Y0210224D01*
X0076390Y0343720D02*
X0062610Y0343720D01*
X0062610Y0347657D01*
X0076390Y0347657D01*
X0076390Y0343720D01*
X0075406Y0367736D02*
X0063594Y0367736D01*
X0063594Y0370886D01*
X0075406Y0370886D01*
X0075406Y0367736D01*
X0052177Y0363406D02*
X0052177Y0351594D01*
X0049028Y0351594D01*
X0049028Y0363406D01*
X0052177Y0363406D01*
X0017752Y0383453D02*
X0017754Y0383614D01*
X0017760Y0383774D01*
X0017770Y0383935D01*
X0017784Y0384095D01*
X0017802Y0384254D01*
X0017823Y0384414D01*
X0017849Y0384572D01*
X0017879Y0384730D01*
X0017912Y0384887D01*
X0017950Y0385044D01*
X0017991Y0385199D01*
X0018036Y0385353D01*
X0018085Y0385506D01*
X0018138Y0385658D01*
X0018194Y0385808D01*
X0018254Y0385957D01*
X0018318Y0386105D01*
X0018385Y0386251D01*
X0018456Y0386395D01*
X0018531Y0386537D01*
X0018609Y0386678D01*
X0018690Y0386816D01*
X0018775Y0386953D01*
X0018864Y0387087D01*
X0018955Y0387219D01*
X0019050Y0387349D01*
X0019148Y0387476D01*
X0019249Y0387601D01*
X0019353Y0387724D01*
X0019460Y0387843D01*
X0019570Y0387960D01*
X0019683Y0388075D01*
X0019799Y0388186D01*
X0019917Y0388295D01*
X0020038Y0388400D01*
X0020162Y0388503D01*
X0020288Y0388603D01*
X0020417Y0388699D01*
X0020548Y0388792D01*
X0020681Y0388882D01*
X0020816Y0388969D01*
X0020954Y0389052D01*
X0021093Y0389131D01*
X0021235Y0389208D01*
X0021378Y0389281D01*
X0021523Y0389350D01*
X0021670Y0389415D01*
X0021818Y0389477D01*
X0021968Y0389536D01*
X0022119Y0389590D01*
X0022271Y0389641D01*
X0022425Y0389688D01*
X0022580Y0389731D01*
X0022735Y0389770D01*
X0022892Y0389806D01*
X0023050Y0389838D01*
X0023208Y0389865D01*
X0023367Y0389889D01*
X0023526Y0389909D01*
X0023686Y0389925D01*
X0023847Y0389937D01*
X0024007Y0389945D01*
X0024168Y0389949D01*
X0024328Y0389949D01*
X0024489Y0389945D01*
X0024649Y0389937D01*
X0024810Y0389925D01*
X0024970Y0389909D01*
X0025129Y0389889D01*
X0025288Y0389865D01*
X0025446Y0389838D01*
X0025604Y0389806D01*
X0025761Y0389770D01*
X0025916Y0389731D01*
X0026071Y0389688D01*
X0026225Y0389641D01*
X0026377Y0389590D01*
X0026528Y0389536D01*
X0026678Y0389477D01*
X0026826Y0389415D01*
X0026973Y0389350D01*
X0027118Y0389281D01*
X0027261Y0389208D01*
X0027403Y0389131D01*
X0027542Y0389052D01*
X0027680Y0388969D01*
X0027815Y0388882D01*
X0027948Y0388792D01*
X0028079Y0388699D01*
X0028208Y0388603D01*
X0028334Y0388503D01*
X0028458Y0388400D01*
X0028579Y0388295D01*
X0028697Y0388186D01*
X0028813Y0388075D01*
X0028926Y0387960D01*
X0029036Y0387843D01*
X0029143Y0387724D01*
X0029247Y0387601D01*
X0029348Y0387476D01*
X0029446Y0387349D01*
X0029541Y0387219D01*
X0029632Y0387087D01*
X0029721Y0386953D01*
X0029806Y0386816D01*
X0029887Y0386678D01*
X0029965Y0386537D01*
X0030040Y0386395D01*
X0030111Y0386251D01*
X0030178Y0386105D01*
X0030242Y0385957D01*
X0030302Y0385808D01*
X0030358Y0385658D01*
X0030411Y0385506D01*
X0030460Y0385353D01*
X0030505Y0385199D01*
X0030546Y0385044D01*
X0030584Y0384887D01*
X0030617Y0384730D01*
X0030647Y0384572D01*
X0030673Y0384414D01*
X0030694Y0384254D01*
X0030712Y0384095D01*
X0030726Y0383935D01*
X0030736Y0383774D01*
X0030742Y0383614D01*
X0030744Y0383453D01*
X0030742Y0383292D01*
X0030736Y0383132D01*
X0030726Y0382971D01*
X0030712Y0382811D01*
X0030694Y0382652D01*
X0030673Y0382492D01*
X0030647Y0382334D01*
X0030617Y0382176D01*
X0030584Y0382019D01*
X0030546Y0381862D01*
X0030505Y0381707D01*
X0030460Y0381553D01*
X0030411Y0381400D01*
X0030358Y0381248D01*
X0030302Y0381098D01*
X0030242Y0380949D01*
X0030178Y0380801D01*
X0030111Y0380655D01*
X0030040Y0380511D01*
X0029965Y0380369D01*
X0029887Y0380228D01*
X0029806Y0380090D01*
X0029721Y0379953D01*
X0029632Y0379819D01*
X0029541Y0379687D01*
X0029446Y0379557D01*
X0029348Y0379430D01*
X0029247Y0379305D01*
X0029143Y0379182D01*
X0029036Y0379063D01*
X0028926Y0378946D01*
X0028813Y0378831D01*
X0028697Y0378720D01*
X0028579Y0378611D01*
X0028458Y0378506D01*
X0028334Y0378403D01*
X0028208Y0378303D01*
X0028079Y0378207D01*
X0027948Y0378114D01*
X0027815Y0378024D01*
X0027680Y0377937D01*
X0027542Y0377854D01*
X0027403Y0377775D01*
X0027261Y0377698D01*
X0027118Y0377625D01*
X0026973Y0377556D01*
X0026826Y0377491D01*
X0026678Y0377429D01*
X0026528Y0377370D01*
X0026377Y0377316D01*
X0026225Y0377265D01*
X0026071Y0377218D01*
X0025916Y0377175D01*
X0025761Y0377136D01*
X0025604Y0377100D01*
X0025446Y0377068D01*
X0025288Y0377041D01*
X0025129Y0377017D01*
X0024970Y0376997D01*
X0024810Y0376981D01*
X0024649Y0376969D01*
X0024489Y0376961D01*
X0024328Y0376957D01*
X0024168Y0376957D01*
X0024007Y0376961D01*
X0023847Y0376969D01*
X0023686Y0376981D01*
X0023526Y0376997D01*
X0023367Y0377017D01*
X0023208Y0377041D01*
X0023050Y0377068D01*
X0022892Y0377100D01*
X0022735Y0377136D01*
X0022580Y0377175D01*
X0022425Y0377218D01*
X0022271Y0377265D01*
X0022119Y0377316D01*
X0021968Y0377370D01*
X0021818Y0377429D01*
X0021670Y0377491D01*
X0021523Y0377556D01*
X0021378Y0377625D01*
X0021235Y0377698D01*
X0021093Y0377775D01*
X0020954Y0377854D01*
X0020816Y0377937D01*
X0020681Y0378024D01*
X0020548Y0378114D01*
X0020417Y0378207D01*
X0020288Y0378303D01*
X0020162Y0378403D01*
X0020038Y0378506D01*
X0019917Y0378611D01*
X0019799Y0378720D01*
X0019683Y0378831D01*
X0019570Y0378946D01*
X0019460Y0379063D01*
X0019353Y0379182D01*
X0019249Y0379305D01*
X0019148Y0379430D01*
X0019050Y0379557D01*
X0018955Y0379687D01*
X0018864Y0379819D01*
X0018775Y0379953D01*
X0018690Y0380090D01*
X0018609Y0380228D01*
X0018531Y0380369D01*
X0018456Y0380511D01*
X0018385Y0380655D01*
X0018318Y0380801D01*
X0018254Y0380949D01*
X0018194Y0381098D01*
X0018138Y0381248D01*
X0018085Y0381400D01*
X0018036Y0381553D01*
X0017991Y0381707D01*
X0017950Y0381862D01*
X0017912Y0382019D01*
X0017879Y0382176D01*
X0017849Y0382334D01*
X0017823Y0382492D01*
X0017802Y0382652D01*
X0017784Y0382811D01*
X0017770Y0382971D01*
X0017760Y0383132D01*
X0017754Y0383292D01*
X0017752Y0383453D01*
X0316965Y0383453D02*
X0316967Y0383614D01*
X0316973Y0383774D01*
X0316983Y0383935D01*
X0316997Y0384095D01*
X0317015Y0384254D01*
X0317036Y0384414D01*
X0317062Y0384572D01*
X0317092Y0384730D01*
X0317125Y0384887D01*
X0317163Y0385044D01*
X0317204Y0385199D01*
X0317249Y0385353D01*
X0317298Y0385506D01*
X0317351Y0385658D01*
X0317407Y0385808D01*
X0317467Y0385957D01*
X0317531Y0386105D01*
X0317598Y0386251D01*
X0317669Y0386395D01*
X0317744Y0386537D01*
X0317822Y0386678D01*
X0317903Y0386816D01*
X0317988Y0386953D01*
X0318077Y0387087D01*
X0318168Y0387219D01*
X0318263Y0387349D01*
X0318361Y0387476D01*
X0318462Y0387601D01*
X0318566Y0387724D01*
X0318673Y0387843D01*
X0318783Y0387960D01*
X0318896Y0388075D01*
X0319012Y0388186D01*
X0319130Y0388295D01*
X0319251Y0388400D01*
X0319375Y0388503D01*
X0319501Y0388603D01*
X0319630Y0388699D01*
X0319761Y0388792D01*
X0319894Y0388882D01*
X0320029Y0388969D01*
X0320167Y0389052D01*
X0320306Y0389131D01*
X0320448Y0389208D01*
X0320591Y0389281D01*
X0320736Y0389350D01*
X0320883Y0389415D01*
X0321031Y0389477D01*
X0321181Y0389536D01*
X0321332Y0389590D01*
X0321484Y0389641D01*
X0321638Y0389688D01*
X0321793Y0389731D01*
X0321948Y0389770D01*
X0322105Y0389806D01*
X0322263Y0389838D01*
X0322421Y0389865D01*
X0322580Y0389889D01*
X0322739Y0389909D01*
X0322899Y0389925D01*
X0323060Y0389937D01*
X0323220Y0389945D01*
X0323381Y0389949D01*
X0323541Y0389949D01*
X0323702Y0389945D01*
X0323862Y0389937D01*
X0324023Y0389925D01*
X0324183Y0389909D01*
X0324342Y0389889D01*
X0324501Y0389865D01*
X0324659Y0389838D01*
X0324817Y0389806D01*
X0324974Y0389770D01*
X0325129Y0389731D01*
X0325284Y0389688D01*
X0325438Y0389641D01*
X0325590Y0389590D01*
X0325741Y0389536D01*
X0325891Y0389477D01*
X0326039Y0389415D01*
X0326186Y0389350D01*
X0326331Y0389281D01*
X0326474Y0389208D01*
X0326616Y0389131D01*
X0326755Y0389052D01*
X0326893Y0388969D01*
X0327028Y0388882D01*
X0327161Y0388792D01*
X0327292Y0388699D01*
X0327421Y0388603D01*
X0327547Y0388503D01*
X0327671Y0388400D01*
X0327792Y0388295D01*
X0327910Y0388186D01*
X0328026Y0388075D01*
X0328139Y0387960D01*
X0328249Y0387843D01*
X0328356Y0387724D01*
X0328460Y0387601D01*
X0328561Y0387476D01*
X0328659Y0387349D01*
X0328754Y0387219D01*
X0328845Y0387087D01*
X0328934Y0386953D01*
X0329019Y0386816D01*
X0329100Y0386678D01*
X0329178Y0386537D01*
X0329253Y0386395D01*
X0329324Y0386251D01*
X0329391Y0386105D01*
X0329455Y0385957D01*
X0329515Y0385808D01*
X0329571Y0385658D01*
X0329624Y0385506D01*
X0329673Y0385353D01*
X0329718Y0385199D01*
X0329759Y0385044D01*
X0329797Y0384887D01*
X0329830Y0384730D01*
X0329860Y0384572D01*
X0329886Y0384414D01*
X0329907Y0384254D01*
X0329925Y0384095D01*
X0329939Y0383935D01*
X0329949Y0383774D01*
X0329955Y0383614D01*
X0329957Y0383453D01*
X0329955Y0383292D01*
X0329949Y0383132D01*
X0329939Y0382971D01*
X0329925Y0382811D01*
X0329907Y0382652D01*
X0329886Y0382492D01*
X0329860Y0382334D01*
X0329830Y0382176D01*
X0329797Y0382019D01*
X0329759Y0381862D01*
X0329718Y0381707D01*
X0329673Y0381553D01*
X0329624Y0381400D01*
X0329571Y0381248D01*
X0329515Y0381098D01*
X0329455Y0380949D01*
X0329391Y0380801D01*
X0329324Y0380655D01*
X0329253Y0380511D01*
X0329178Y0380369D01*
X0329100Y0380228D01*
X0329019Y0380090D01*
X0328934Y0379953D01*
X0328845Y0379819D01*
X0328754Y0379687D01*
X0328659Y0379557D01*
X0328561Y0379430D01*
X0328460Y0379305D01*
X0328356Y0379182D01*
X0328249Y0379063D01*
X0328139Y0378946D01*
X0328026Y0378831D01*
X0327910Y0378720D01*
X0327792Y0378611D01*
X0327671Y0378506D01*
X0327547Y0378403D01*
X0327421Y0378303D01*
X0327292Y0378207D01*
X0327161Y0378114D01*
X0327028Y0378024D01*
X0326893Y0377937D01*
X0326755Y0377854D01*
X0326616Y0377775D01*
X0326474Y0377698D01*
X0326331Y0377625D01*
X0326186Y0377556D01*
X0326039Y0377491D01*
X0325891Y0377429D01*
X0325741Y0377370D01*
X0325590Y0377316D01*
X0325438Y0377265D01*
X0325284Y0377218D01*
X0325129Y0377175D01*
X0324974Y0377136D01*
X0324817Y0377100D01*
X0324659Y0377068D01*
X0324501Y0377041D01*
X0324342Y0377017D01*
X0324183Y0376997D01*
X0324023Y0376981D01*
X0323862Y0376969D01*
X0323702Y0376961D01*
X0323541Y0376957D01*
X0323381Y0376957D01*
X0323220Y0376961D01*
X0323060Y0376969D01*
X0322899Y0376981D01*
X0322739Y0376997D01*
X0322580Y0377017D01*
X0322421Y0377041D01*
X0322263Y0377068D01*
X0322105Y0377100D01*
X0321948Y0377136D01*
X0321793Y0377175D01*
X0321638Y0377218D01*
X0321484Y0377265D01*
X0321332Y0377316D01*
X0321181Y0377370D01*
X0321031Y0377429D01*
X0320883Y0377491D01*
X0320736Y0377556D01*
X0320591Y0377625D01*
X0320448Y0377698D01*
X0320306Y0377775D01*
X0320167Y0377854D01*
X0320029Y0377937D01*
X0319894Y0378024D01*
X0319761Y0378114D01*
X0319630Y0378207D01*
X0319501Y0378303D01*
X0319375Y0378403D01*
X0319251Y0378506D01*
X0319130Y0378611D01*
X0319012Y0378720D01*
X0318896Y0378831D01*
X0318783Y0378946D01*
X0318673Y0379063D01*
X0318566Y0379182D01*
X0318462Y0379305D01*
X0318361Y0379430D01*
X0318263Y0379557D01*
X0318168Y0379687D01*
X0318077Y0379819D01*
X0317988Y0379953D01*
X0317903Y0380090D01*
X0317822Y0380228D01*
X0317744Y0380369D01*
X0317669Y0380511D01*
X0317598Y0380655D01*
X0317531Y0380801D01*
X0317467Y0380949D01*
X0317407Y0381098D01*
X0317351Y0381248D01*
X0317298Y0381400D01*
X0317249Y0381553D01*
X0317204Y0381707D01*
X0317163Y0381862D01*
X0317125Y0382019D01*
X0317092Y0382176D01*
X0317062Y0382334D01*
X0317036Y0382492D01*
X0317015Y0382652D01*
X0316997Y0382811D01*
X0316983Y0382971D01*
X0316973Y0383132D01*
X0316967Y0383292D01*
X0316965Y0383453D01*
X0316965Y0021248D02*
X0316967Y0021409D01*
X0316973Y0021569D01*
X0316983Y0021730D01*
X0316997Y0021890D01*
X0317015Y0022049D01*
X0317036Y0022209D01*
X0317062Y0022367D01*
X0317092Y0022525D01*
X0317125Y0022682D01*
X0317163Y0022839D01*
X0317204Y0022994D01*
X0317249Y0023148D01*
X0317298Y0023301D01*
X0317351Y0023453D01*
X0317407Y0023603D01*
X0317467Y0023752D01*
X0317531Y0023900D01*
X0317598Y0024046D01*
X0317669Y0024190D01*
X0317744Y0024332D01*
X0317822Y0024473D01*
X0317903Y0024611D01*
X0317988Y0024748D01*
X0318077Y0024882D01*
X0318168Y0025014D01*
X0318263Y0025144D01*
X0318361Y0025271D01*
X0318462Y0025396D01*
X0318566Y0025519D01*
X0318673Y0025638D01*
X0318783Y0025755D01*
X0318896Y0025870D01*
X0319012Y0025981D01*
X0319130Y0026090D01*
X0319251Y0026195D01*
X0319375Y0026298D01*
X0319501Y0026398D01*
X0319630Y0026494D01*
X0319761Y0026587D01*
X0319894Y0026677D01*
X0320029Y0026764D01*
X0320167Y0026847D01*
X0320306Y0026926D01*
X0320448Y0027003D01*
X0320591Y0027076D01*
X0320736Y0027145D01*
X0320883Y0027210D01*
X0321031Y0027272D01*
X0321181Y0027331D01*
X0321332Y0027385D01*
X0321484Y0027436D01*
X0321638Y0027483D01*
X0321793Y0027526D01*
X0321948Y0027565D01*
X0322105Y0027601D01*
X0322263Y0027633D01*
X0322421Y0027660D01*
X0322580Y0027684D01*
X0322739Y0027704D01*
X0322899Y0027720D01*
X0323060Y0027732D01*
X0323220Y0027740D01*
X0323381Y0027744D01*
X0323541Y0027744D01*
X0323702Y0027740D01*
X0323862Y0027732D01*
X0324023Y0027720D01*
X0324183Y0027704D01*
X0324342Y0027684D01*
X0324501Y0027660D01*
X0324659Y0027633D01*
X0324817Y0027601D01*
X0324974Y0027565D01*
X0325129Y0027526D01*
X0325284Y0027483D01*
X0325438Y0027436D01*
X0325590Y0027385D01*
X0325741Y0027331D01*
X0325891Y0027272D01*
X0326039Y0027210D01*
X0326186Y0027145D01*
X0326331Y0027076D01*
X0326474Y0027003D01*
X0326616Y0026926D01*
X0326755Y0026847D01*
X0326893Y0026764D01*
X0327028Y0026677D01*
X0327161Y0026587D01*
X0327292Y0026494D01*
X0327421Y0026398D01*
X0327547Y0026298D01*
X0327671Y0026195D01*
X0327792Y0026090D01*
X0327910Y0025981D01*
X0328026Y0025870D01*
X0328139Y0025755D01*
X0328249Y0025638D01*
X0328356Y0025519D01*
X0328460Y0025396D01*
X0328561Y0025271D01*
X0328659Y0025144D01*
X0328754Y0025014D01*
X0328845Y0024882D01*
X0328934Y0024748D01*
X0329019Y0024611D01*
X0329100Y0024473D01*
X0329178Y0024332D01*
X0329253Y0024190D01*
X0329324Y0024046D01*
X0329391Y0023900D01*
X0329455Y0023752D01*
X0329515Y0023603D01*
X0329571Y0023453D01*
X0329624Y0023301D01*
X0329673Y0023148D01*
X0329718Y0022994D01*
X0329759Y0022839D01*
X0329797Y0022682D01*
X0329830Y0022525D01*
X0329860Y0022367D01*
X0329886Y0022209D01*
X0329907Y0022049D01*
X0329925Y0021890D01*
X0329939Y0021730D01*
X0329949Y0021569D01*
X0329955Y0021409D01*
X0329957Y0021248D01*
X0329955Y0021087D01*
X0329949Y0020927D01*
X0329939Y0020766D01*
X0329925Y0020606D01*
X0329907Y0020447D01*
X0329886Y0020287D01*
X0329860Y0020129D01*
X0329830Y0019971D01*
X0329797Y0019814D01*
X0329759Y0019657D01*
X0329718Y0019502D01*
X0329673Y0019348D01*
X0329624Y0019195D01*
X0329571Y0019043D01*
X0329515Y0018893D01*
X0329455Y0018744D01*
X0329391Y0018596D01*
X0329324Y0018450D01*
X0329253Y0018306D01*
X0329178Y0018164D01*
X0329100Y0018023D01*
X0329019Y0017885D01*
X0328934Y0017748D01*
X0328845Y0017614D01*
X0328754Y0017482D01*
X0328659Y0017352D01*
X0328561Y0017225D01*
X0328460Y0017100D01*
X0328356Y0016977D01*
X0328249Y0016858D01*
X0328139Y0016741D01*
X0328026Y0016626D01*
X0327910Y0016515D01*
X0327792Y0016406D01*
X0327671Y0016301D01*
X0327547Y0016198D01*
X0327421Y0016098D01*
X0327292Y0016002D01*
X0327161Y0015909D01*
X0327028Y0015819D01*
X0326893Y0015732D01*
X0326755Y0015649D01*
X0326616Y0015570D01*
X0326474Y0015493D01*
X0326331Y0015420D01*
X0326186Y0015351D01*
X0326039Y0015286D01*
X0325891Y0015224D01*
X0325741Y0015165D01*
X0325590Y0015111D01*
X0325438Y0015060D01*
X0325284Y0015013D01*
X0325129Y0014970D01*
X0324974Y0014931D01*
X0324817Y0014895D01*
X0324659Y0014863D01*
X0324501Y0014836D01*
X0324342Y0014812D01*
X0324183Y0014792D01*
X0324023Y0014776D01*
X0323862Y0014764D01*
X0323702Y0014756D01*
X0323541Y0014752D01*
X0323381Y0014752D01*
X0323220Y0014756D01*
X0323060Y0014764D01*
X0322899Y0014776D01*
X0322739Y0014792D01*
X0322580Y0014812D01*
X0322421Y0014836D01*
X0322263Y0014863D01*
X0322105Y0014895D01*
X0321948Y0014931D01*
X0321793Y0014970D01*
X0321638Y0015013D01*
X0321484Y0015060D01*
X0321332Y0015111D01*
X0321181Y0015165D01*
X0321031Y0015224D01*
X0320883Y0015286D01*
X0320736Y0015351D01*
X0320591Y0015420D01*
X0320448Y0015493D01*
X0320306Y0015570D01*
X0320167Y0015649D01*
X0320029Y0015732D01*
X0319894Y0015819D01*
X0319761Y0015909D01*
X0319630Y0016002D01*
X0319501Y0016098D01*
X0319375Y0016198D01*
X0319251Y0016301D01*
X0319130Y0016406D01*
X0319012Y0016515D01*
X0318896Y0016626D01*
X0318783Y0016741D01*
X0318673Y0016858D01*
X0318566Y0016977D01*
X0318462Y0017100D01*
X0318361Y0017225D01*
X0318263Y0017352D01*
X0318168Y0017482D01*
X0318077Y0017614D01*
X0317988Y0017748D01*
X0317903Y0017885D01*
X0317822Y0018023D01*
X0317744Y0018164D01*
X0317669Y0018306D01*
X0317598Y0018450D01*
X0317531Y0018596D01*
X0317467Y0018744D01*
X0317407Y0018893D01*
X0317351Y0019043D01*
X0317298Y0019195D01*
X0317249Y0019348D01*
X0317204Y0019502D01*
X0317163Y0019657D01*
X0317125Y0019814D01*
X0317092Y0019971D01*
X0317062Y0020129D01*
X0317036Y0020287D01*
X0317015Y0020447D01*
X0316997Y0020606D01*
X0316983Y0020766D01*
X0316973Y0020927D01*
X0316967Y0021087D01*
X0316965Y0021248D01*
M02*
