<?xml version="1.0" encoding="iso-8859-1"?>
<!-- Generator: Adobe Illustrator 16.0.4, SVG Export Plug-In . SVG Version: 6.00 Build 0)  -->
<!DOCTYPE svg PUBLIC "-//W3C//DTD SVG 1.1//EN" "http://www.w3.org/Graphics/SVG/1.1/DTD/svg11.dtd">
<svg version="1.1" id="Capa_1" xmlns="http://www.w3.org/2000/svg" xmlns:xlink="http://www.w3.org/1999/xlink" x="0px" y="0px"
	 width="9.893px" height="15px" viewBox="0 0 9.893 15" style="enable-background:new 0 0 9.893 15;" xml:space="preserve">
<path style="fill:#010002;" d="M9.7,7.274C9.443,7.747,9.257,8.04,9.142,8.155C8.686,8.741,8.114,9.219,7.431,9.592
	C6.83,9.92,6.195,10.108,5.523,10.15c-0.669,0.042-1.321-0.032-1.949-0.224C2.947,9.73,2.371,9.429,1.851,9.014
	C1.33,8.598,0.912,8.083,0.599,7.468C0.27,6.837,0.077,6.184,0.019,5.504c-0.056-0.681,0.011-1.332,0.205-1.951
	C0.417,2.93,0.728,2.357,1.155,1.835C1.583,1.313,2.11,0.88,2.739,0.536c0.886-0.459,1.934-0.622,3.148-0.494L4.281,0.494
	C3.725,0.792,3.261,1.172,2.891,1.63C2.519,2.088,2.252,2.59,2.087,3.131C1.923,3.676,1.865,4.238,1.915,4.817
	c0.049,0.577,0.217,1.141,0.503,1.684c0.286,0.545,0.65,1.003,1.092,1.376c0.441,0.371,0.932,0.638,1.468,0.804
	c0.535,0.163,1.088,0.224,1.659,0.182c0.57-0.042,1.127-0.207,1.672-0.494L9.7,7.274z M8.5,15H0.662v-3.841H8.5V15z M8.587,3.989
	L9.1,5.43L7.878,4.57L6.659,5.43l0.492-1.44L5.91,3.111h1.521l0.447-1.354l0.514,1.354h1.501L8.587,3.989z"/>
<g>
</g>
<g>
</g>
<g>
</g>
<g>
</g>
<g>
</g>
<g>
</g>
<g>
</g>
<g>
</g>
<g>
</g>
<g>
</g>
<g>
</g>
<g>
</g>
<g>
</g>
<g>
</g>
<g>
</g>
</svg>
