G04 (created by PCBNEW-RS274X (2011-12-28 BZR 3254)-stable) date 9/2/2012 2:21:17 PM*
G01*
G70*
G90*
%MOIN*%
G04 Gerber Fmt 3.4, Leading zero omitted, Abs format*
%FSLAX34Y34*%
G04 APERTURE LIST*
%ADD10C,0.006000*%
%ADD11R,0.023000X0.043000*%
%ADD12R,0.028000X0.018000*%
%ADD13R,0.022000X0.033000*%
%ADD14R,0.033000X0.022000*%
%ADD15R,0.045200X0.045200*%
%ADD16R,0.020000X0.084600*%
%ADD17R,0.020000X0.064900*%
%ADD18R,0.038000X0.098000*%
%ADD19R,0.053100X0.033400*%
%ADD20R,0.053100X0.033000*%
%ADD21R,0.068900X0.045200*%
%ADD22R,0.013700X0.051100*%
%ADD23R,0.092500X0.064000*%
%ADD24R,0.068900X0.064000*%
%ADD25R,0.025600X0.033400*%
%ADD26R,0.033400X0.053100*%
%ADD27R,0.033000X0.053100*%
%ADD28R,0.063000X0.098000*%
%ADD29R,0.088000X0.088000*%
G04 APERTURE END LIST*
G54D10*
G54D11*
X17500Y-11650D03*
X18100Y-11650D03*
X16900Y-11650D03*
G54D12*
X25250Y-24725D03*
X25250Y-25475D03*
X26250Y-24725D03*
X25250Y-25100D03*
X26250Y-25475D03*
G54D13*
X33875Y-26000D03*
X33125Y-26000D03*
X33125Y-25000D03*
X33500Y-25000D03*
X33875Y-25000D03*
G54D14*
X16250Y-22625D03*
X16250Y-23375D03*
X15250Y-23375D03*
X15250Y-23000D03*
X15250Y-22625D03*
X31250Y-11875D03*
X31250Y-11125D03*
X32250Y-11125D03*
X32250Y-11500D03*
X32250Y-11875D03*
X31250Y-11500D03*
X43000Y-18125D03*
X43000Y-18875D03*
X42000Y-18875D03*
X42000Y-18500D03*
X42000Y-18125D03*
X43000Y-18500D03*
X16250Y-13875D03*
X16250Y-13125D03*
X17250Y-13125D03*
X17250Y-13500D03*
X17250Y-13875D03*
X16250Y-13500D03*
G54D15*
X35000Y-23929D03*
X35000Y-25071D03*
G54D16*
X43500Y-23758D03*
G54D17*
X42909Y-24841D03*
G54D16*
X43500Y-24742D03*
G54D17*
X44091Y-24841D03*
G54D18*
X43500Y-24050D03*
G54D16*
X41000Y-23758D03*
G54D17*
X40409Y-24841D03*
G54D16*
X41000Y-24742D03*
G54D17*
X41591Y-24841D03*
G54D18*
X41000Y-24050D03*
G54D19*
X32000Y-23376D03*
G54D20*
X32000Y-24124D03*
G54D19*
X11650Y-22626D03*
G54D20*
X11650Y-23374D03*
G54D21*
X35000Y-27130D03*
X35000Y-25870D03*
G54D22*
X13500Y-27350D03*
X13244Y-27350D03*
X13756Y-27350D03*
X12988Y-27350D03*
X14012Y-27350D03*
G54D23*
X12004Y-28393D03*
X14996Y-28393D03*
G54D24*
X13047Y-28393D03*
X13953Y-28393D03*
G54D19*
X13250Y-17974D03*
G54D20*
X13250Y-17226D03*
G54D25*
X13856Y-14274D03*
X13344Y-14274D03*
X13600Y-13526D03*
G54D19*
X13000Y-23374D03*
G54D20*
X13000Y-22626D03*
G54D26*
X18874Y-25250D03*
G54D27*
X18126Y-25250D03*
G54D26*
X18874Y-24250D03*
G54D27*
X18126Y-24250D03*
G54D26*
X14126Y-17150D03*
G54D27*
X14874Y-17150D03*
G54D19*
X15750Y-17974D03*
G54D20*
X15750Y-17226D03*
G54D26*
X16626Y-17150D03*
G54D27*
X17374Y-17150D03*
G54D19*
X14000Y-23374D03*
G54D20*
X14000Y-22626D03*
G54D19*
X18250Y-17974D03*
G54D20*
X18250Y-17226D03*
G54D26*
X19126Y-17150D03*
G54D27*
X19874Y-17150D03*
G54D19*
X20750Y-17974D03*
G54D20*
X20750Y-17226D03*
G54D26*
X16374Y-24250D03*
G54D27*
X15626Y-24250D03*
G54D19*
X27850Y-16276D03*
G54D20*
X27850Y-17024D03*
G54D26*
X28576Y-16250D03*
G54D27*
X29324Y-16250D03*
G54D19*
X31450Y-16224D03*
G54D20*
X31450Y-15476D03*
G54D26*
X33026Y-16250D03*
G54D27*
X33774Y-16250D03*
G54D19*
X33650Y-19026D03*
G54D20*
X33650Y-19774D03*
G54D26*
X35226Y-19000D03*
G54D27*
X35974Y-19000D03*
G54D19*
X38100Y-18974D03*
G54D20*
X38100Y-18226D03*
G54D26*
X13874Y-24250D03*
G54D27*
X13126Y-24250D03*
G54D26*
X28524Y-23950D03*
G54D27*
X27776Y-23950D03*
G54D26*
X14874Y-18000D03*
G54D27*
X14126Y-18000D03*
G54D26*
X17374Y-18000D03*
G54D27*
X16626Y-18000D03*
G54D26*
X19874Y-18000D03*
G54D27*
X19126Y-18000D03*
G54D19*
X28550Y-21026D03*
G54D20*
X28550Y-21774D03*
G54D19*
X27000Y-16276D03*
G54D20*
X27000Y-17024D03*
G54D26*
X30724Y-16250D03*
G54D27*
X29976Y-16250D03*
G54D19*
X32300Y-16224D03*
G54D20*
X32300Y-15476D03*
G54D26*
X32924Y-19000D03*
G54D27*
X32176Y-19000D03*
G54D19*
X34500Y-19026D03*
G54D20*
X34500Y-19774D03*
G54D26*
X37374Y-19000D03*
G54D27*
X36626Y-19000D03*
G54D19*
X38950Y-18974D03*
G54D20*
X38950Y-18226D03*
G54D19*
X17250Y-23374D03*
G54D20*
X17250Y-22626D03*
G54D19*
X17250Y-24874D03*
G54D20*
X17250Y-24126D03*
G54D26*
X11626Y-24250D03*
G54D27*
X12374Y-24250D03*
G54D26*
X18874Y-23250D03*
G54D27*
X18126Y-23250D03*
G54D28*
X25000Y-16250D03*
X24000Y-16250D03*
X23000Y-16250D03*
X23000Y-18250D03*
X24000Y-18250D03*
X25000Y-18250D03*
G54D19*
X28550Y-23174D03*
G54D20*
X28550Y-22426D03*
G54D26*
X28524Y-19350D03*
G54D27*
X27776Y-19350D03*
G54D26*
X28524Y-20250D03*
G54D27*
X27776Y-20250D03*
G54D26*
X28524Y-24850D03*
G54D27*
X27776Y-24850D03*
G54D29*
X36500Y-25850D03*
X36500Y-27650D03*
G54D19*
X33500Y-27376D03*
G54D20*
X33500Y-28124D03*
G54D26*
X41876Y-26000D03*
G54D27*
X42624Y-26000D03*
G54D19*
X39250Y-27376D03*
G54D20*
X39250Y-28124D03*
G54D26*
X39126Y-26000D03*
G54D27*
X39874Y-26000D03*
G54D19*
X41750Y-27376D03*
G54D20*
X41750Y-28124D03*
G54D19*
X41000Y-26624D03*
G54D20*
X41000Y-25876D03*
G54D19*
X38000Y-24124D03*
G54D20*
X38000Y-23376D03*
G54D19*
X36000Y-23624D03*
G54D20*
X36000Y-22876D03*
G54D19*
X43500Y-26624D03*
G54D20*
X43500Y-25876D03*
G54D26*
X33624Y-24000D03*
G54D27*
X32876Y-24000D03*
G54D26*
X34376Y-23000D03*
G54D27*
X35124Y-23000D03*
G54D26*
X32876Y-23000D03*
G54D27*
X33624Y-23000D03*
G54D19*
X44500Y-25626D03*
G54D20*
X44500Y-26374D03*
G54D19*
X40250Y-27376D03*
G54D20*
X40250Y-28124D03*
G54D19*
X42750Y-27376D03*
G54D20*
X42750Y-28124D03*
G54D21*
X38250Y-27630D03*
X38250Y-26370D03*
G54D19*
X32000Y-24876D03*
G54D20*
X32000Y-25624D03*
G54D26*
X15874Y-12250D03*
G54D27*
X15126Y-12250D03*
G54D26*
X15874Y-14750D03*
G54D27*
X15126Y-14750D03*
G54D26*
X18126Y-14000D03*
G54D27*
X18874Y-14000D03*
G54D26*
X18126Y-13000D03*
G54D27*
X18874Y-13000D03*
G54D19*
X29250Y-11524D03*
G54D20*
X29250Y-10776D03*
G54D19*
X30250Y-11524D03*
G54D20*
X30250Y-10776D03*
G54D26*
X40376Y-18000D03*
G54D27*
X41124Y-18000D03*
G54D26*
X40376Y-19000D03*
G54D27*
X41124Y-19000D03*
G54D26*
X43376Y-17250D03*
G54D27*
X44124Y-17250D03*
G54D26*
X43376Y-19750D03*
G54D27*
X44124Y-19750D03*
G54D26*
X43876Y-18500D03*
G54D27*
X44624Y-18500D03*
G54D26*
X14626Y-13500D03*
G54D27*
X15374Y-13500D03*
G54D11*
X40950Y-16500D03*
X41550Y-16500D03*
X42200Y-16500D03*
X42800Y-16500D03*
G54D19*
X26200Y-27174D03*
G54D20*
X26200Y-26426D03*
G54D19*
X28550Y-26874D03*
G54D20*
X28550Y-26126D03*
G54D26*
X27724Y-26450D03*
G54D27*
X26976Y-26450D03*
G54D26*
X26124Y-23950D03*
G54D27*
X25376Y-23950D03*
M02*
