G04 (created by PCBNEW-RS274X (2011-12-28 BZR 3254)-stable) date 9/2/2012 2:21:17 PM*
G01*
G70*
G90*
%MOIN*%
G04 Gerber Fmt 3.4, Leading zero omitted, Abs format*
%FSLAX34Y34*%
G04 APERTURE LIST*
%ADD10C,0.006000*%
%ADD11R,0.020000X0.103000*%
%ADD12R,0.040000X0.018000*%
%ADD13C,0.040000*%
%ADD14R,0.230000X0.090000*%
%ADD15R,0.200000X0.120000*%
%ADD16R,0.025000X0.045000*%
%ADD17R,0.030000X0.020000*%
%ADD18C,0.065000*%
%ADD19R,0.024000X0.035000*%
%ADD20R,0.035000X0.024000*%
%ADD21R,0.047200X0.047200*%
%ADD22R,0.022000X0.086600*%
%ADD23R,0.022000X0.066900*%
%ADD24R,0.059100X0.118100*%
%ADD25R,0.040000X0.100000*%
%ADD26R,0.055100X0.035400*%
%ADD27R,0.055100X0.035000*%
%ADD28R,0.070900X0.047200*%
%ADD29R,0.015700X0.053100*%
%ADD30R,0.094500X0.066000*%
%ADD31R,0.070900X0.066000*%
%ADD32C,0.048000*%
%ADD33C,0.060000*%
%ADD34C,0.130000*%
%ADD35R,0.027600X0.035400*%
%ADD36C,0.036000*%
%ADD37C,0.200000*%
%ADD38R,0.035400X0.055100*%
%ADD39R,0.035000X0.055100*%
%ADD40R,0.065000X0.100000*%
%ADD41C,0.045000*%
%ADD42R,0.090000X0.090000*%
%ADD43C,0.064000*%
%ADD44C,0.052000*%
%ADD45C,0.100000*%
%ADD46C,0.030000*%
%ADD47C,0.040000*%
%ADD48C,0.024000*%
%ADD49C,0.012000*%
%ADD50C,0.010000*%
%ADD51C,0.020000*%
%ADD52C,0.022000*%
%ADD53C,0.008000*%
%ADD54C,0.014000*%
%ADD55C,0.016000*%
G04 APERTURE END LIST*
G54D10*
G54D11*
X12726Y-13500D03*
G54D10*
G36*
X12628Y-14015D02*
X12372Y-13915D01*
X12372Y-13085D01*
X12628Y-12985D01*
X12628Y-14015D01*
X12628Y-14015D01*
G37*
G54D12*
X12350Y-15150D03*
G54D13*
X12600Y-15150D03*
G54D14*
X11400Y-13500D03*
G54D15*
X11250Y-15000D03*
X11250Y-12000D03*
G54D13*
X12600Y-11850D03*
G54D12*
X12350Y-11850D03*
G54D16*
X17500Y-11650D03*
X18100Y-11650D03*
X16900Y-11650D03*
G54D11*
X45274Y-18500D03*
G54D10*
G36*
X45372Y-17985D02*
X45628Y-18085D01*
X45628Y-18915D01*
X45372Y-19015D01*
X45372Y-17985D01*
X45372Y-17985D01*
G37*
G54D12*
X45650Y-16850D03*
G54D13*
X45400Y-16850D03*
G54D14*
X46600Y-18500D03*
G54D15*
X46750Y-17000D03*
X46750Y-20000D03*
G54D13*
X45400Y-20150D03*
G54D12*
X45650Y-20150D03*
G54D11*
X45274Y-26500D03*
G54D10*
G36*
X45372Y-25985D02*
X45628Y-26085D01*
X45628Y-26915D01*
X45372Y-27015D01*
X45372Y-25985D01*
X45372Y-25985D01*
G37*
G54D12*
X45650Y-24850D03*
G54D13*
X45400Y-24850D03*
G54D14*
X46600Y-26500D03*
G54D15*
X46750Y-25000D03*
X46750Y-28000D03*
G54D13*
X45400Y-28150D03*
G54D12*
X45650Y-28150D03*
G54D17*
X25250Y-24725D03*
X25250Y-25475D03*
X26250Y-24725D03*
X25250Y-25100D03*
X26250Y-25475D03*
G54D18*
X20500Y-27000D03*
X23500Y-27000D03*
X23500Y-24000D03*
X20500Y-24000D03*
X21500Y-27000D03*
X22500Y-27000D03*
X22500Y-24000D03*
X21500Y-24000D03*
G54D19*
X33875Y-26000D03*
X33125Y-26000D03*
X33125Y-25000D03*
X33500Y-25000D03*
X33875Y-25000D03*
G54D20*
X16250Y-22625D03*
X16250Y-23375D03*
X15250Y-23375D03*
X15250Y-23000D03*
X15250Y-22625D03*
X31250Y-11875D03*
X31250Y-11125D03*
X32250Y-11125D03*
X32250Y-11500D03*
X32250Y-11875D03*
X31250Y-11500D03*
X43000Y-18125D03*
X43000Y-18875D03*
X42000Y-18875D03*
X42000Y-18500D03*
X42000Y-18125D03*
X43000Y-18500D03*
X16250Y-13875D03*
X16250Y-13125D03*
X17250Y-13125D03*
X17250Y-13500D03*
X17250Y-13875D03*
X16250Y-13500D03*
G54D21*
X35000Y-23929D03*
X35000Y-25071D03*
G54D22*
X43500Y-23758D03*
G54D23*
X42909Y-24841D03*
G54D22*
X43500Y-24742D03*
G54D23*
X44091Y-24841D03*
G54D24*
X43500Y-24053D03*
G54D25*
X43500Y-24050D03*
G54D22*
X41000Y-23758D03*
G54D23*
X40409Y-24841D03*
G54D22*
X41000Y-24742D03*
G54D23*
X41591Y-24841D03*
G54D24*
X41000Y-24053D03*
G54D25*
X41000Y-24050D03*
G54D26*
X32000Y-23376D03*
G54D27*
X32000Y-24124D03*
G54D26*
X11650Y-22626D03*
G54D27*
X11650Y-23374D03*
G54D28*
X35000Y-27130D03*
X35000Y-25870D03*
G54D29*
X13500Y-27350D03*
X13244Y-27350D03*
X13756Y-27350D03*
X12988Y-27350D03*
X14012Y-27350D03*
G54D30*
X12004Y-28393D03*
X14996Y-28393D03*
G54D31*
X13047Y-28393D03*
X13953Y-28393D03*
G54D32*
X12713Y-27547D03*
X14287Y-27547D03*
G54D33*
X14000Y-25550D03*
X13000Y-25550D03*
X13000Y-26337D03*
X14000Y-26337D03*
G54D34*
X15862Y-27400D03*
X11138Y-27400D03*
G54D26*
X13250Y-17974D03*
G54D27*
X13250Y-17226D03*
G54D35*
X13856Y-14274D03*
X13344Y-14274D03*
X13600Y-13526D03*
G54D36*
X42250Y-20750D03*
X24000Y-13750D03*
X35750Y-19750D03*
X18750Y-18750D03*
X34250Y-18000D03*
X38750Y-20750D03*
X31300Y-14950D03*
X31875Y-14950D03*
X39100Y-17700D03*
X32450Y-14950D03*
X32750Y-20750D03*
X37950Y-17700D03*
X38525Y-17700D03*
X25150Y-25925D03*
X35500Y-13000D03*
X44000Y-20750D03*
X37500Y-14000D03*
X37000Y-20750D03*
X38500Y-15000D03*
X38500Y-19750D03*
X34675Y-20300D03*
X20000Y-15750D03*
X27300Y-20350D03*
X24900Y-24300D03*
X23000Y-23250D03*
X18300Y-25850D03*
X29050Y-27550D03*
X27800Y-23300D03*
X20000Y-19750D03*
X23000Y-18850D03*
X22000Y-25500D03*
X17000Y-18900D03*
X34075Y-20300D03*
X39750Y-19500D03*
X29400Y-19800D03*
X28950Y-18700D03*
X33475Y-20300D03*
X27250Y-25050D03*
X29750Y-15250D03*
X19500Y-18900D03*
X33500Y-18000D03*
X28750Y-17000D03*
X20450Y-16700D03*
X18500Y-15000D03*
X13750Y-18750D03*
X17750Y-18750D03*
X18550Y-16700D03*
X20250Y-15000D03*
X21750Y-18900D03*
X33250Y-13500D03*
X20250Y-18750D03*
X24000Y-18850D03*
X24750Y-17250D03*
X25500Y-17250D03*
X16500Y-15250D03*
X19250Y-15000D03*
X16050Y-16700D03*
X15450Y-16700D03*
X25750Y-18750D03*
G54D37*
X39000Y-12000D03*
G54D36*
X12950Y-16700D03*
X20500Y-25500D03*
X23500Y-19750D03*
X14000Y-13000D03*
X27500Y-17500D03*
X23500Y-25500D03*
X39500Y-16000D03*
X30250Y-17000D03*
X31000Y-13000D03*
X17950Y-16700D03*
G54D37*
X12000Y-20000D03*
G54D36*
X27600Y-18750D03*
X13550Y-16700D03*
X27900Y-25700D03*
X28500Y-15250D03*
X17500Y-16250D03*
X19000Y-16250D03*
X22500Y-17250D03*
X11750Y-16250D03*
X32500Y-13000D03*
G54D26*
X13000Y-23374D03*
G54D27*
X13000Y-22626D03*
G54D38*
X18874Y-25250D03*
G54D39*
X18126Y-25250D03*
G54D38*
X18874Y-24250D03*
G54D39*
X18126Y-24250D03*
G54D38*
X14126Y-17150D03*
G54D39*
X14874Y-17150D03*
G54D26*
X15750Y-17974D03*
G54D27*
X15750Y-17226D03*
G54D38*
X16626Y-17150D03*
G54D39*
X17374Y-17150D03*
G54D26*
X14000Y-23374D03*
G54D27*
X14000Y-22626D03*
G54D26*
X18250Y-17974D03*
G54D27*
X18250Y-17226D03*
G54D38*
X19126Y-17150D03*
G54D39*
X19874Y-17150D03*
G54D26*
X20750Y-17974D03*
G54D27*
X20750Y-17226D03*
G54D38*
X16374Y-24250D03*
G54D39*
X15626Y-24250D03*
G54D26*
X27850Y-16276D03*
G54D27*
X27850Y-17024D03*
G54D38*
X28576Y-16250D03*
G54D39*
X29324Y-16250D03*
G54D26*
X31450Y-16224D03*
G54D27*
X31450Y-15476D03*
G54D38*
X33026Y-16250D03*
G54D39*
X33774Y-16250D03*
G54D26*
X33650Y-19026D03*
G54D27*
X33650Y-19774D03*
G54D38*
X35226Y-19000D03*
G54D39*
X35974Y-19000D03*
G54D26*
X38100Y-18974D03*
G54D27*
X38100Y-18226D03*
G54D38*
X13874Y-24250D03*
G54D39*
X13126Y-24250D03*
G54D38*
X28524Y-23950D03*
G54D39*
X27776Y-23950D03*
G54D38*
X14874Y-18000D03*
G54D39*
X14126Y-18000D03*
G54D38*
X17374Y-18000D03*
G54D39*
X16626Y-18000D03*
G54D38*
X19874Y-18000D03*
G54D39*
X19126Y-18000D03*
G54D26*
X28550Y-21026D03*
G54D27*
X28550Y-21774D03*
G54D26*
X27000Y-16276D03*
G54D27*
X27000Y-17024D03*
G54D38*
X30724Y-16250D03*
G54D39*
X29976Y-16250D03*
G54D26*
X32300Y-16224D03*
G54D27*
X32300Y-15476D03*
G54D38*
X32924Y-19000D03*
G54D39*
X32176Y-19000D03*
G54D26*
X34500Y-19026D03*
G54D27*
X34500Y-19774D03*
G54D38*
X37374Y-19000D03*
G54D39*
X36626Y-19000D03*
G54D26*
X38950Y-18974D03*
G54D27*
X38950Y-18226D03*
G54D26*
X17250Y-23374D03*
G54D27*
X17250Y-22626D03*
G54D26*
X17250Y-24874D03*
G54D27*
X17250Y-24126D03*
G54D38*
X11626Y-24250D03*
G54D39*
X12374Y-24250D03*
G54D36*
X37000Y-19750D03*
X14000Y-19750D03*
X37000Y-18000D03*
X16000Y-19750D03*
X18000Y-19750D03*
X15250Y-18750D03*
X20000Y-14000D03*
X22250Y-15750D03*
X23500Y-15500D03*
X26750Y-25800D03*
X21500Y-16250D03*
X22250Y-18750D03*
X17550Y-13500D03*
X22000Y-18000D03*
X22000Y-19750D03*
X25500Y-19750D03*
X27800Y-21700D03*
X13500Y-22250D03*
X19050Y-22250D03*
X21050Y-16700D03*
X39750Y-18500D03*
X13500Y-22800D03*
X27250Y-23950D03*
X27250Y-23400D03*
X26200Y-27550D03*
X41750Y-19500D03*
X29850Y-19000D03*
X24850Y-25475D03*
X28400Y-18150D03*
X29250Y-26600D03*
X28500Y-27550D03*
X12500Y-22250D03*
X41750Y-17500D03*
X35250Y-20750D03*
X27800Y-22500D03*
X40500Y-20750D03*
X27250Y-24500D03*
X34000Y-13000D03*
X26750Y-27550D03*
X25650Y-27550D03*
G54D38*
X18874Y-23250D03*
G54D39*
X18126Y-23250D03*
G54D36*
X10500Y-25750D03*
X10500Y-24000D03*
X19400Y-22950D03*
X33000Y-14500D03*
X20750Y-22250D03*
X42500Y-19250D03*
X22750Y-22250D03*
X10500Y-22250D03*
X24750Y-23000D03*
X29250Y-20900D03*
X14500Y-18900D03*
X17750Y-24750D03*
X29250Y-22000D03*
X29250Y-24350D03*
X24750Y-22250D03*
X17750Y-25600D03*
X16750Y-25250D03*
X17750Y-23750D03*
X14950Y-23000D03*
X15500Y-25500D03*
X15250Y-24250D03*
X29250Y-25550D03*
X17850Y-22250D03*
X27950Y-27550D03*
G54D40*
X25000Y-16250D03*
X24000Y-16250D03*
X23000Y-16250D03*
X23000Y-18250D03*
X24000Y-18250D03*
X25000Y-18250D03*
G54D36*
X16250Y-18750D03*
X17750Y-15250D03*
X24000Y-17250D03*
X26650Y-18750D03*
X23250Y-17250D03*
X35750Y-18000D03*
X25900Y-16250D03*
X11500Y-10500D03*
X44650Y-16950D03*
X21000Y-23250D03*
X26400Y-17750D03*
X23250Y-14500D03*
X27800Y-20900D03*
X13750Y-15250D03*
X21250Y-18500D03*
X25000Y-15650D03*
X25000Y-27000D03*
X38500Y-28500D03*
X27350Y-27100D03*
X41000Y-28500D03*
X34000Y-28500D03*
G54D41*
X31250Y-28500D03*
G54D36*
X44000Y-27750D03*
X27300Y-19800D03*
G54D26*
X28550Y-23174D03*
G54D27*
X28550Y-22426D03*
G54D38*
X28524Y-19350D03*
G54D39*
X27776Y-19350D03*
G54D38*
X28524Y-20250D03*
G54D39*
X27776Y-20250D03*
G54D38*
X28524Y-24850D03*
G54D39*
X27776Y-24850D03*
G54D36*
X12500Y-10500D03*
X12250Y-18250D03*
X10500Y-16750D03*
X10500Y-16000D03*
X10500Y-18250D03*
X11750Y-17250D03*
X33000Y-28500D03*
X16500Y-16250D03*
G54D42*
X36500Y-25850D03*
X36500Y-27650D03*
G54D43*
X32500Y-27500D03*
X31500Y-27500D03*
G54D26*
X33500Y-27376D03*
G54D27*
X33500Y-28124D03*
G54D38*
X41876Y-26000D03*
G54D39*
X42624Y-26000D03*
G54D26*
X39250Y-27376D03*
G54D27*
X39250Y-28124D03*
G54D38*
X39126Y-26000D03*
G54D39*
X39874Y-26000D03*
G54D26*
X41750Y-27376D03*
G54D27*
X41750Y-28124D03*
G54D26*
X41000Y-26624D03*
G54D27*
X41000Y-25876D03*
G54D26*
X38000Y-24124D03*
G54D27*
X38000Y-23376D03*
G54D26*
X36000Y-23624D03*
G54D27*
X36000Y-22876D03*
G54D26*
X43500Y-26624D03*
G54D27*
X43500Y-25876D03*
G54D38*
X33624Y-24000D03*
G54D39*
X32876Y-24000D03*
G54D38*
X34376Y-23000D03*
G54D39*
X35124Y-23000D03*
G54D38*
X32876Y-23000D03*
G54D39*
X33624Y-23000D03*
G54D26*
X44500Y-25626D03*
G54D27*
X44500Y-26374D03*
G54D26*
X40250Y-27376D03*
G54D27*
X40250Y-28124D03*
G54D26*
X42750Y-27376D03*
G54D27*
X42750Y-28124D03*
G54D36*
X31250Y-25250D03*
X32000Y-28250D03*
X31250Y-22250D03*
X44650Y-17550D03*
X31250Y-26250D03*
X44650Y-20050D03*
X32500Y-19750D03*
X29250Y-23450D03*
X15700Y-14100D03*
X33500Y-24650D03*
X41750Y-13750D03*
X43550Y-19100D03*
X33250Y-12000D03*
X32500Y-23250D03*
X32000Y-22250D03*
X43500Y-28500D03*
X35900Y-28050D03*
X34750Y-12000D03*
X15700Y-12900D03*
X36300Y-22350D03*
X32750Y-22250D03*
X35700Y-22350D03*
X44500Y-28500D03*
X37100Y-28050D03*
G54D28*
X38250Y-27630D03*
X38250Y-26370D03*
G54D26*
X32000Y-24876D03*
G54D27*
X32000Y-25624D03*
G54D44*
X38250Y-24750D03*
X38250Y-22750D03*
X37250Y-23750D03*
X38750Y-23750D03*
G54D36*
X43400Y-25300D03*
X34000Y-22250D03*
X37250Y-22250D03*
X39250Y-22250D03*
X40900Y-25300D03*
X41000Y-22250D03*
X37500Y-26200D03*
X43500Y-22250D03*
X47500Y-22250D03*
X45500Y-22250D03*
X41700Y-18500D03*
X42250Y-23000D03*
X44500Y-23000D03*
X44650Y-19450D03*
X42250Y-26750D03*
X41500Y-15500D03*
X47500Y-23500D03*
X46500Y-23000D03*
X43550Y-17900D03*
X13250Y-13000D03*
X40250Y-23000D03*
X39500Y-25250D03*
X39750Y-26750D03*
X36250Y-24250D03*
X10500Y-10500D03*
X16750Y-14250D03*
X14600Y-11950D03*
X14600Y-12550D03*
X14600Y-14450D03*
X17500Y-12500D03*
X14600Y-15050D03*
X17500Y-14500D03*
X14500Y-10500D03*
X16500Y-10500D03*
X18500Y-10500D03*
X10500Y-11000D03*
X10500Y-19500D03*
X13500Y-10500D03*
X19500Y-12500D03*
X19500Y-13500D03*
X20250Y-12750D03*
X20500Y-13750D03*
X21750Y-12750D03*
X22500Y-13750D03*
X23250Y-12750D03*
X18500Y-12000D03*
X15000Y-16250D03*
X14000Y-16250D03*
G54D38*
X15874Y-12250D03*
G54D39*
X15126Y-12250D03*
G54D38*
X15874Y-14750D03*
G54D39*
X15126Y-14750D03*
G54D38*
X18126Y-14000D03*
G54D39*
X18874Y-14000D03*
G54D38*
X18126Y-13000D03*
G54D39*
X18874Y-13000D03*
G54D26*
X29250Y-11524D03*
G54D27*
X29250Y-10776D03*
G54D26*
X30250Y-11524D03*
G54D27*
X30250Y-10776D03*
G54D38*
X40376Y-18000D03*
G54D39*
X41124Y-18000D03*
G54D38*
X40376Y-19000D03*
G54D39*
X41124Y-19000D03*
G54D38*
X43376Y-17250D03*
G54D39*
X44124Y-17250D03*
G54D38*
X43376Y-19750D03*
G54D39*
X44124Y-19750D03*
G54D38*
X43876Y-18500D03*
G54D39*
X44624Y-18500D03*
G54D38*
X14626Y-13500D03*
G54D39*
X15374Y-13500D03*
G54D36*
X17500Y-11325D03*
X11500Y-18400D03*
X30950Y-11050D03*
X34750Y-12650D03*
X12650Y-11000D03*
X11000Y-18750D03*
X28750Y-11500D03*
X33750Y-11750D03*
G54D45*
X47250Y-12016D03*
X47250Y-13984D03*
X42250Y-11150D03*
X42250Y-13000D03*
X42250Y-14850D03*
G54D16*
X40950Y-16500D03*
X41550Y-16500D03*
X42200Y-16500D03*
X42800Y-16500D03*
G54D36*
X33750Y-17000D03*
X34250Y-16000D03*
X34750Y-16750D03*
X32750Y-18000D03*
X33000Y-17000D03*
X31500Y-18000D03*
X31500Y-18750D03*
X34750Y-17500D03*
X31750Y-19500D03*
X30250Y-18250D03*
X30500Y-19500D03*
X29500Y-17750D03*
X32000Y-17250D03*
X26950Y-17500D03*
X28050Y-17500D03*
X30750Y-20750D03*
X26450Y-17050D03*
X30750Y-15250D03*
X27500Y-15250D03*
X26500Y-15250D03*
X24750Y-14500D03*
X25750Y-14500D03*
X24000Y-15000D03*
X22000Y-14500D03*
X21500Y-13750D03*
X31750Y-13500D03*
X30250Y-13500D03*
X24750Y-12750D03*
X26250Y-12750D03*
X27500Y-13750D03*
X27750Y-12750D03*
X25500Y-13750D03*
X28750Y-13500D03*
X28500Y-14500D03*
X30000Y-14500D03*
X26500Y-13750D03*
X27000Y-14500D03*
X30750Y-14500D03*
X34000Y-14500D03*
X36000Y-14500D03*
X36750Y-13750D03*
X37750Y-14750D03*
X36000Y-13500D03*
X34750Y-13500D03*
X35000Y-14500D03*
X36750Y-15250D03*
X38750Y-15750D03*
X37750Y-16250D03*
X38500Y-17000D03*
X39750Y-16750D03*
X40500Y-17000D03*
X35500Y-15750D03*
X36500Y-16750D03*
X40500Y-10500D03*
X38500Y-10500D03*
X29500Y-13000D03*
X27000Y-12500D03*
X25500Y-12500D03*
X24000Y-12500D03*
X22500Y-12500D03*
X21000Y-12500D03*
X16725Y-12200D03*
X28300Y-13100D03*
X17500Y-10500D03*
X37000Y-16000D03*
X15500Y-10500D03*
X16300Y-11675D03*
X33500Y-15250D03*
X35500Y-17000D03*
X14050Y-12250D03*
X36000Y-15250D03*
X24500Y-19750D03*
X37750Y-17000D03*
X42700Y-17100D03*
X32550Y-11500D03*
X28750Y-10500D03*
X29750Y-10500D03*
X30750Y-10500D03*
X32500Y-10500D03*
X29750Y-12000D03*
X34500Y-10500D03*
X36500Y-10500D03*
X26750Y-10500D03*
X24750Y-10500D03*
X22750Y-10500D03*
X21000Y-10500D03*
X19750Y-10500D03*
X20250Y-12000D03*
X21750Y-12000D03*
X23250Y-12000D03*
X24750Y-12000D03*
X26250Y-12000D03*
X27500Y-12000D03*
X40500Y-15000D03*
X36500Y-13000D03*
X27300Y-19250D03*
X22750Y-15000D03*
X19450Y-11150D03*
X21000Y-14500D03*
X21250Y-15500D03*
X46000Y-12000D03*
X46000Y-14000D03*
X44000Y-11000D03*
X44000Y-15000D03*
X30000Y-20250D03*
X36250Y-20250D03*
X37750Y-20250D03*
X39500Y-20250D03*
X31750Y-20250D03*
X41500Y-20250D03*
X42750Y-20250D03*
X31000Y-17500D03*
X19000Y-26550D03*
G54D26*
X26200Y-27174D03*
G54D27*
X26200Y-26426D03*
G54D26*
X28550Y-26874D03*
G54D27*
X28550Y-26126D03*
G54D38*
X27724Y-26450D03*
G54D39*
X26976Y-26450D03*
G54D38*
X26124Y-23950D03*
G54D39*
X25376Y-23950D03*
G54D36*
X27300Y-21300D03*
X27300Y-22100D03*
X24900Y-23750D03*
X11900Y-17850D03*
G54D46*
X35124Y-23805D02*
X35000Y-23929D01*
X38000Y-23376D02*
X38376Y-23376D01*
X38250Y-23126D02*
X38000Y-23376D01*
X36000Y-23624D02*
X37376Y-23624D01*
X35221Y-23929D02*
X35526Y-23624D01*
X38376Y-23376D02*
X38750Y-23750D01*
X38250Y-22750D02*
X38250Y-23126D01*
X37624Y-23376D02*
X37250Y-23750D01*
X34929Y-24000D02*
X35000Y-23929D01*
X37376Y-23624D02*
X37624Y-23376D01*
X35124Y-23000D02*
X35124Y-23805D01*
X37124Y-23624D02*
X37250Y-23750D01*
X33624Y-24000D02*
X34929Y-24000D01*
X35526Y-23624D02*
X36000Y-23624D01*
X36000Y-23624D02*
X37124Y-23624D01*
X38000Y-23376D02*
X37624Y-23376D01*
X35000Y-23929D02*
X35221Y-23929D01*
G54D47*
X19450Y-24000D02*
X18874Y-24000D01*
G54D48*
X31250Y-11500D02*
X30274Y-11500D01*
G54D49*
X23750Y-22600D02*
X17276Y-22600D01*
G54D47*
X18874Y-23250D02*
X18874Y-24250D01*
G54D46*
X16250Y-22625D02*
X16850Y-22625D01*
X17525Y-22625D02*
X17600Y-22700D01*
G54D50*
X28400Y-11500D02*
X28750Y-11500D01*
G54D49*
X25950Y-23350D02*
X26124Y-23524D01*
G54D50*
X26782Y-19932D02*
X26782Y-23076D01*
X26124Y-23524D02*
X25950Y-23350D01*
X26124Y-23950D02*
X26124Y-23524D01*
G54D51*
X26250Y-24076D02*
X26124Y-23950D01*
G54D50*
X19800Y-11000D02*
X19625Y-10825D01*
X21350Y-11000D02*
X27900Y-11000D01*
G54D47*
X19450Y-24050D02*
X18874Y-24626D01*
X18874Y-24626D02*
X18874Y-24250D01*
G54D50*
X39550Y-13850D02*
X41250Y-13850D01*
X13300Y-10825D02*
X12775Y-10825D01*
G54D47*
X18874Y-23250D02*
X18874Y-23424D01*
X20500Y-24000D02*
X19450Y-24000D01*
G54D50*
X36324Y-11550D02*
X36937Y-12163D01*
G54D49*
X25900Y-23350D02*
X25800Y-23350D01*
G54D50*
X12775Y-10825D02*
X12650Y-10950D01*
X12650Y-10950D02*
X12650Y-11000D01*
G54D49*
X24500Y-23350D02*
X23750Y-22600D01*
G54D50*
X12500Y-18800D02*
X11050Y-18800D01*
G54D48*
X30250Y-11524D02*
X29250Y-11524D01*
G54D49*
X25800Y-23350D02*
X24500Y-23350D01*
G54D50*
X11050Y-18800D02*
X11000Y-18750D01*
G54D47*
X19450Y-24000D02*
X19450Y-24050D01*
X18874Y-23424D02*
X19450Y-24000D01*
G54D46*
X17600Y-22700D02*
X18500Y-22700D01*
G54D51*
X26250Y-24725D02*
X26250Y-24076D01*
G54D50*
X26782Y-23076D02*
X26508Y-23350D01*
X27900Y-11000D02*
X28400Y-11500D01*
X14550Y-19400D02*
X25700Y-19400D01*
X21350Y-11000D02*
X19800Y-11000D01*
G54D47*
X18874Y-25250D02*
X18874Y-24626D01*
G54D48*
X28774Y-11524D02*
X28750Y-11500D01*
G54D46*
X16850Y-22625D02*
X17525Y-22625D01*
G54D48*
X30274Y-11500D02*
X30250Y-11524D01*
G54D46*
X16850Y-22625D02*
X17249Y-22625D01*
X17249Y-22625D02*
X17250Y-22626D01*
G54D50*
X25700Y-19400D02*
X26250Y-19400D01*
X39550Y-13850D02*
X38624Y-13850D01*
X13100Y-19400D02*
X12500Y-18800D01*
G54D49*
X17276Y-22600D02*
X17250Y-22626D01*
X26124Y-23524D02*
X26124Y-23950D01*
G54D50*
X33950Y-11550D02*
X36324Y-11550D01*
G54D48*
X29250Y-11524D02*
X28774Y-11524D01*
G54D49*
X25800Y-23350D02*
X25950Y-23350D01*
G54D50*
X14550Y-19400D02*
X13100Y-19400D01*
X26508Y-23350D02*
X25900Y-23350D01*
X25900Y-23350D02*
X25950Y-23350D01*
G54D46*
X18525Y-22725D02*
X18874Y-23074D01*
X18500Y-22700D02*
X18525Y-22725D01*
X18874Y-23074D02*
X18874Y-23250D01*
G54D47*
X18874Y-24000D02*
X18874Y-24250D01*
G54D50*
X26250Y-19400D02*
X26782Y-19932D01*
X33750Y-11750D02*
X33950Y-11550D01*
X41250Y-13850D02*
X42250Y-14850D01*
X38624Y-13850D02*
X36937Y-12163D01*
X19625Y-10825D02*
X13300Y-10825D01*
G54D52*
X39874Y-25826D02*
X39874Y-26000D01*
X40409Y-25291D02*
X39874Y-25826D01*
X40409Y-24841D02*
X40409Y-25291D01*
X41591Y-24941D02*
X41591Y-24841D01*
X41000Y-25850D02*
X41000Y-25876D01*
X41591Y-24841D02*
X41591Y-24909D01*
X41591Y-24909D02*
X41400Y-25100D01*
X41400Y-25100D02*
X41400Y-25450D01*
X41876Y-25226D02*
X41591Y-24941D01*
X41876Y-26000D02*
X41876Y-25226D01*
X41400Y-25450D02*
X41000Y-25850D01*
X42624Y-25226D02*
X42909Y-24941D01*
X42909Y-24941D02*
X42909Y-24841D01*
X42624Y-26000D02*
X42624Y-25226D01*
X43500Y-25800D02*
X43850Y-25450D01*
X44091Y-25041D02*
X44250Y-25200D01*
X43850Y-25450D02*
X43850Y-25250D01*
X44091Y-25009D02*
X44091Y-24841D01*
X43500Y-25876D02*
X43500Y-25800D01*
X43850Y-25250D02*
X44091Y-25009D01*
X44091Y-24841D02*
X44091Y-25041D01*
G54D47*
X44500Y-25450D02*
X44500Y-25626D01*
X44500Y-25450D02*
X44250Y-25200D01*
G54D51*
X25250Y-25100D02*
X24600Y-25100D01*
X24600Y-25100D02*
X23500Y-24000D01*
G54D46*
X38250Y-24750D02*
X37850Y-24750D01*
X39126Y-25926D02*
X38818Y-25618D01*
X38000Y-24600D02*
X37750Y-24850D01*
X36500Y-25200D02*
X36500Y-25850D01*
X39126Y-26000D02*
X39126Y-25926D01*
X37750Y-24850D02*
X36850Y-24850D01*
X38818Y-25618D02*
X36732Y-25618D01*
X37850Y-24750D02*
X37750Y-24850D01*
X36732Y-25618D02*
X36500Y-25850D01*
X36850Y-24850D02*
X36500Y-25200D01*
X38000Y-24124D02*
X38000Y-24600D01*
G54D50*
X28550Y-16276D02*
X28576Y-16250D01*
G54D47*
X26750Y-16250D02*
X28576Y-16250D01*
X24000Y-15750D02*
X24600Y-15150D01*
X24600Y-15150D02*
X25650Y-15150D01*
X24000Y-16250D02*
X24000Y-15750D01*
G54D50*
X27850Y-16276D02*
X28550Y-16276D01*
G54D47*
X25650Y-15150D02*
X26750Y-16250D01*
G54D50*
X27000Y-16276D02*
X27850Y-16276D01*
G54D47*
X44624Y-18500D02*
X45274Y-18500D01*
X45500Y-18500D02*
X46600Y-18500D01*
X45274Y-18500D02*
X45500Y-18500D01*
G54D51*
X11626Y-24250D02*
X11626Y-23398D01*
X11626Y-23398D02*
X11650Y-23374D01*
G54D53*
X28524Y-20250D02*
X28524Y-21000D01*
X28524Y-19350D02*
X28524Y-20250D01*
X28524Y-21000D02*
X28550Y-21026D01*
G54D47*
X28550Y-21026D02*
X28550Y-19000D01*
X27800Y-18250D02*
X25000Y-18250D01*
X28550Y-19000D02*
X27800Y-18250D01*
X45050Y-26500D02*
X44626Y-26500D01*
X46600Y-26500D02*
X45050Y-26500D01*
G54D53*
X46600Y-26500D02*
X45500Y-26500D01*
X45500Y-26500D02*
X45274Y-26500D01*
X45274Y-26500D02*
X45050Y-26500D01*
G54D47*
X44626Y-26500D02*
X44500Y-26374D01*
X22250Y-16250D02*
X23000Y-16250D01*
X21750Y-17500D02*
X21750Y-16750D01*
G54D50*
X19900Y-17974D02*
X19874Y-18000D01*
X19874Y-18000D02*
X20724Y-18000D01*
X20750Y-17974D02*
X19900Y-17974D01*
G54D47*
X19874Y-18000D02*
X21250Y-18000D01*
X19874Y-17150D02*
X19874Y-18000D01*
X21750Y-16750D02*
X22250Y-16250D01*
X21250Y-18000D02*
X21750Y-17500D01*
G54D50*
X20724Y-18000D02*
X20750Y-17974D01*
X13600Y-13526D02*
X14600Y-13526D01*
G54D47*
X12726Y-13500D02*
X12500Y-13500D01*
G54D50*
X14600Y-13526D02*
X14626Y-13500D01*
G54D47*
X14626Y-13500D02*
X12726Y-13500D01*
X12500Y-13500D02*
X11400Y-13500D01*
X28500Y-14000D02*
X36250Y-14000D01*
X40250Y-18000D02*
X40376Y-18000D01*
X18874Y-13000D02*
X19750Y-13000D01*
X19750Y-13000D02*
X20000Y-13250D01*
X20000Y-13250D02*
X27750Y-13250D01*
X27750Y-13250D02*
X28500Y-14000D01*
X36250Y-14000D02*
X40250Y-18000D01*
G54D46*
X16874Y-23750D02*
X17250Y-24126D01*
X16250Y-23375D02*
X16250Y-23500D01*
X16374Y-23974D02*
X16374Y-24250D01*
X16250Y-23375D02*
X16250Y-23850D01*
X16374Y-23876D02*
X16500Y-23750D01*
X16250Y-23500D02*
X16500Y-23750D01*
X16500Y-23750D02*
X16874Y-23750D01*
X16250Y-23850D02*
X16374Y-23974D01*
X17250Y-23374D02*
X16874Y-23750D01*
X16374Y-24250D02*
X16374Y-23876D01*
G54D54*
X13500Y-26000D02*
X13500Y-26550D01*
X14000Y-25550D02*
X13950Y-25550D01*
G54D51*
X14000Y-25550D02*
X14000Y-25350D01*
X13126Y-24476D02*
X13126Y-24250D01*
G54D54*
X12713Y-27547D02*
X12791Y-27547D01*
X12791Y-27547D02*
X12988Y-27350D01*
X13950Y-25550D02*
X13500Y-26000D01*
X12988Y-26962D02*
X12988Y-27350D01*
X13100Y-26850D02*
X12988Y-26962D01*
X13500Y-26550D02*
X13200Y-26850D01*
X13200Y-26850D02*
X13100Y-26850D01*
G54D51*
X14000Y-25350D02*
X13126Y-24476D01*
G54D50*
X37850Y-11800D02*
X37100Y-11050D01*
G54D46*
X32750Y-22250D02*
X32750Y-22874D01*
G54D50*
X41500Y-14950D02*
X41500Y-15500D01*
X31250Y-27000D02*
X31250Y-26250D01*
G54D48*
X32250Y-11500D02*
X32550Y-11500D01*
X44424Y-19450D02*
X44124Y-19750D01*
G54D50*
X20250Y-11182D02*
X19482Y-11182D01*
X31250Y-26250D02*
X31250Y-25250D01*
G54D48*
X32500Y-10500D02*
X30750Y-10500D01*
G54D50*
X31500Y-26250D02*
X32000Y-26750D01*
G54D48*
X29974Y-10500D02*
X30250Y-10776D01*
G54D50*
X19325Y-11150D02*
X19182Y-11007D01*
X26500Y-23100D02*
X24850Y-23100D01*
X16750Y-27050D02*
X16750Y-27958D01*
G54D48*
X29526Y-10500D02*
X29250Y-10776D01*
G54D50*
X34200Y-28700D02*
X34000Y-28500D01*
G54D53*
X14287Y-27547D02*
X15715Y-27547D01*
G54D50*
X11000Y-17126D02*
X11626Y-17126D01*
G54D51*
X10500Y-25750D02*
X10500Y-24000D01*
G54D50*
X12500Y-22250D02*
X12026Y-22250D01*
X41500Y-13750D02*
X41418Y-13668D01*
G54D51*
X13000Y-22450D02*
X12800Y-22250D01*
G54D48*
X44424Y-16950D02*
X44124Y-17250D01*
G54D51*
X33000Y-28500D02*
X32250Y-28500D01*
G54D50*
X17486Y-28094D02*
X30656Y-28094D01*
X32000Y-26750D02*
X32000Y-28250D01*
G54D48*
X44650Y-20050D02*
X44424Y-20050D01*
G54D50*
X10876Y-17126D02*
X10500Y-16750D01*
X10500Y-18250D02*
X10500Y-16750D01*
G54D48*
X15750Y-22650D02*
X15750Y-23000D01*
G54D50*
X20000Y-10750D02*
X28500Y-10750D01*
X15500Y-25500D02*
X15500Y-25750D01*
G54D52*
X43500Y-24742D02*
X43500Y-25200D01*
G54D48*
X15250Y-23000D02*
X14950Y-23000D01*
G54D51*
X33376Y-28124D02*
X33000Y-28500D01*
G54D50*
X24850Y-23100D02*
X24750Y-23000D01*
X38250Y-28700D02*
X34200Y-28700D01*
G54D48*
X28974Y-10500D02*
X29250Y-10776D01*
X44650Y-17550D02*
X44424Y-17550D01*
X44424Y-20050D02*
X44124Y-19750D01*
G54D50*
X38500Y-13150D02*
X37850Y-12500D01*
X15500Y-25750D02*
X15826Y-26076D01*
G54D46*
X32750Y-23000D02*
X32500Y-23250D01*
G54D50*
X14237Y-26337D02*
X14400Y-26500D01*
G54D52*
X43500Y-25200D02*
X43400Y-25300D01*
G54D50*
X31250Y-26250D02*
X31500Y-26250D01*
G54D48*
X14600Y-12550D02*
X14826Y-12550D01*
X12600Y-15150D02*
X12600Y-15018D01*
G54D50*
X14000Y-26337D02*
X14237Y-26337D01*
X19482Y-11182D02*
X19450Y-11150D01*
G54D48*
X33500Y-25000D02*
X33500Y-24650D01*
G54D50*
X31232Y-28518D02*
X31250Y-28500D01*
X36300Y-11050D02*
X35950Y-11050D01*
X41500Y-11150D02*
X39500Y-13150D01*
G54D46*
X36100Y-28050D02*
X36500Y-27650D01*
G54D51*
X13000Y-22626D02*
X13000Y-22450D01*
G54D50*
X15826Y-26076D02*
X16376Y-26076D01*
X28500Y-10750D02*
X28750Y-10500D01*
X14400Y-26500D02*
X16200Y-26500D01*
X17174Y-26874D02*
X17174Y-27782D01*
X16200Y-26500D02*
X16750Y-27050D01*
G54D51*
X14000Y-22450D02*
X13800Y-22250D01*
G54D52*
X41000Y-24742D02*
X41000Y-25200D01*
G54D46*
X15250Y-24250D02*
X15626Y-24250D01*
G54D50*
X17174Y-27782D02*
X17486Y-28094D01*
G54D48*
X14600Y-15050D02*
X14826Y-15050D01*
X15750Y-23000D02*
X15750Y-24126D01*
X30526Y-10500D02*
X30250Y-10776D01*
G54D46*
X35900Y-28050D02*
X37100Y-28050D01*
G54D51*
X12800Y-22250D02*
X12500Y-22250D01*
G54D50*
X16750Y-27958D02*
X17310Y-28518D01*
G54D51*
X10500Y-24000D02*
X10500Y-23100D01*
X10974Y-22626D02*
X10876Y-22626D01*
G54D50*
X38450Y-28500D02*
X38250Y-28700D01*
X11626Y-17126D02*
X11750Y-17250D01*
G54D46*
X37100Y-28050D02*
X36900Y-28050D01*
G54D48*
X14826Y-14450D02*
X15126Y-14750D01*
G54D51*
X33624Y-28124D02*
X34000Y-28500D01*
G54D50*
X17310Y-28518D02*
X31232Y-28518D01*
X42250Y-11150D02*
X41500Y-11150D01*
G54D48*
X12600Y-15018D02*
X13344Y-14274D01*
G54D50*
X39500Y-13150D02*
X38500Y-13150D01*
G54D46*
X35700Y-22350D02*
X35700Y-22576D01*
G54D50*
X41500Y-14950D02*
X40582Y-14032D01*
G54D48*
X44650Y-16950D02*
X44424Y-16950D01*
G54D46*
X36300Y-22350D02*
X36300Y-22576D01*
G54D48*
X15750Y-22500D02*
X16100Y-22150D01*
X13500Y-22250D02*
X13500Y-22800D01*
G54D54*
X14287Y-27547D02*
X14209Y-27547D01*
G54D50*
X35250Y-12000D02*
X34750Y-12000D01*
X33386Y-12136D02*
X33250Y-12000D01*
X28642Y-12000D02*
X27921Y-11279D01*
X27824Y-11182D02*
X27921Y-11279D01*
G54D48*
X29750Y-10500D02*
X29526Y-10500D01*
G54D51*
X25250Y-25475D02*
X24850Y-25475D01*
G54D46*
X32000Y-22250D02*
X32750Y-22250D01*
G54D50*
X29750Y-12000D02*
X30750Y-12000D01*
G54D46*
X32126Y-23250D02*
X32000Y-23376D01*
G54D51*
X32250Y-28500D02*
X32000Y-28250D01*
G54D46*
X31250Y-22250D02*
X32000Y-22250D01*
X35900Y-28050D02*
X36100Y-28050D01*
G54D50*
X34500Y-12000D02*
X35250Y-12000D01*
X40582Y-14032D02*
X38548Y-14032D01*
G54D46*
X32750Y-22874D02*
X32876Y-23000D01*
X32876Y-23000D02*
X32750Y-23000D01*
G54D54*
X14012Y-27350D02*
X14012Y-26349D01*
G54D51*
X14000Y-22626D02*
X14000Y-22450D01*
G54D50*
X37850Y-12500D02*
X37850Y-11800D01*
G54D53*
X21000Y-27350D02*
X21300Y-27650D01*
X21300Y-27650D02*
X22850Y-27650D01*
X24400Y-26650D02*
X24212Y-26462D01*
X24650Y-26650D02*
X24400Y-26650D01*
G54D50*
X26600Y-20008D02*
X26600Y-23000D01*
G54D53*
X24212Y-26462D02*
X21268Y-26462D01*
G54D50*
X19182Y-11007D02*
X18000Y-11007D01*
G54D53*
X21000Y-26730D02*
X21000Y-27350D01*
X25000Y-27000D02*
X24650Y-26650D01*
G54D46*
X32500Y-23250D02*
X32126Y-23250D01*
G54D48*
X29750Y-10500D02*
X29974Y-10500D01*
G54D50*
X35250Y-12000D02*
X36000Y-12000D01*
G54D48*
X14600Y-14450D02*
X14826Y-14450D01*
G54D53*
X21268Y-26462D02*
X21000Y-26730D01*
G54D46*
X35700Y-22576D02*
X36000Y-22876D01*
G54D53*
X22850Y-27650D02*
X23500Y-27000D01*
G54D50*
X26600Y-23000D02*
X26500Y-23100D01*
X36516Y-12000D02*
X36000Y-12000D01*
G54D53*
X16750Y-13894D02*
X16922Y-13722D01*
X13050Y-18750D02*
X12750Y-18450D01*
X16922Y-13722D02*
X16922Y-13528D01*
X16922Y-13528D02*
X16950Y-13500D01*
X16950Y-13500D02*
X17250Y-13500D01*
X16750Y-14250D02*
X16750Y-13894D01*
G54D50*
X33000Y-11050D02*
X32550Y-11500D01*
G54D51*
X13800Y-22250D02*
X13500Y-22250D01*
G54D50*
X41418Y-13668D02*
X38750Y-13668D01*
X30656Y-28094D02*
X31000Y-27750D01*
X25500Y-19750D02*
X26342Y-19750D01*
G54D51*
X33500Y-28124D02*
X33376Y-28124D01*
G54D48*
X14826Y-11950D02*
X15126Y-12250D01*
X14826Y-15050D02*
X15126Y-14750D01*
G54D53*
X12450Y-18450D02*
X12250Y-18250D01*
G54D51*
X10500Y-23100D02*
X10974Y-22626D01*
G54D50*
X31000Y-27250D02*
X31250Y-27000D01*
X34400Y-12000D02*
X34264Y-12136D01*
G54D54*
X14209Y-27547D02*
X14012Y-27350D01*
G54D50*
X31000Y-27750D02*
X31000Y-27250D01*
G54D48*
X44650Y-19450D02*
X44424Y-19450D01*
X15750Y-22650D02*
X15750Y-22500D01*
G54D50*
X38548Y-14032D02*
X36516Y-12000D01*
X38500Y-28500D02*
X38450Y-28500D01*
X20250Y-11182D02*
X27824Y-11182D01*
G54D48*
X30750Y-10500D02*
X30526Y-10500D01*
G54D51*
X33500Y-28124D02*
X33624Y-28124D01*
G54D48*
X28750Y-10500D02*
X28974Y-10500D01*
G54D50*
X29750Y-12000D02*
X28642Y-12000D01*
X36300Y-11050D02*
X33000Y-11050D01*
G54D46*
X36900Y-28050D02*
X36500Y-27650D01*
G54D48*
X42000Y-18500D02*
X41700Y-18500D01*
G54D53*
X12750Y-18450D02*
X12450Y-18450D01*
G54D48*
X16100Y-22150D02*
X17100Y-22150D01*
G54D51*
X13500Y-22250D02*
X12800Y-22250D01*
G54D48*
X44424Y-17550D02*
X44124Y-17250D01*
G54D50*
X19450Y-11150D02*
X19325Y-11150D01*
G54D51*
X10876Y-22626D02*
X10500Y-22250D01*
G54D48*
X15750Y-24126D02*
X15626Y-24250D01*
X14600Y-11950D02*
X14826Y-11950D01*
G54D51*
X11650Y-22626D02*
X10974Y-22626D01*
G54D50*
X16376Y-26076D02*
X17174Y-26874D01*
G54D53*
X13750Y-18750D02*
X13050Y-18750D01*
G54D50*
X34264Y-12136D02*
X33386Y-12136D01*
X11000Y-17126D02*
X10876Y-17126D01*
G54D54*
X14012Y-26349D02*
X14000Y-26337D01*
G54D48*
X13856Y-14274D02*
X13344Y-14274D01*
G54D50*
X41750Y-13750D02*
X41500Y-13750D01*
G54D48*
X14826Y-12550D02*
X15126Y-12250D01*
X15250Y-23000D02*
X15750Y-23000D01*
G54D50*
X26342Y-19750D02*
X26600Y-20008D01*
G54D52*
X41000Y-25200D02*
X40900Y-25300D01*
G54D50*
X34500Y-12000D02*
X34400Y-12000D01*
X37100Y-11050D02*
X36300Y-11050D01*
X12026Y-22250D02*
X11650Y-22626D01*
X19750Y-10500D02*
X20000Y-10750D01*
G54D46*
X36300Y-22576D02*
X36000Y-22876D01*
G54D53*
X11138Y-27688D02*
X11138Y-27400D01*
X15715Y-27547D02*
X15862Y-27400D01*
G54D50*
X30900Y-28700D02*
X17234Y-28700D01*
G54D53*
X14996Y-28393D02*
X15157Y-28393D01*
X13047Y-28393D02*
X13953Y-28393D01*
X12004Y-28393D02*
X13047Y-28393D01*
X15862Y-27688D02*
X15862Y-27400D01*
X12004Y-28393D02*
X11843Y-28393D01*
X15157Y-28393D02*
X15862Y-27688D01*
G54D50*
X15934Y-27400D02*
X17234Y-28700D01*
G54D53*
X11843Y-28393D02*
X11138Y-27688D01*
X13953Y-28393D02*
X14996Y-28393D01*
G54D50*
X15934Y-27400D02*
X15862Y-27400D01*
G54D55*
X32000Y-24876D02*
X32000Y-24124D01*
G54D48*
X16250Y-13500D02*
X15950Y-13500D01*
G54D47*
X15950Y-13500D02*
X15374Y-13500D01*
X17500Y-14000D02*
X18126Y-14000D01*
G54D48*
X17375Y-13875D02*
X17500Y-14000D01*
X17250Y-13875D02*
X17375Y-13875D01*
X17250Y-13125D02*
X17375Y-13125D01*
G54D47*
X17500Y-13000D02*
X18126Y-13000D01*
G54D48*
X17375Y-13125D02*
X17500Y-13000D01*
X41875Y-18875D02*
X41750Y-19000D01*
X42000Y-18875D02*
X41875Y-18875D01*
G54D47*
X41750Y-19000D02*
X41124Y-19000D01*
X28550Y-22426D02*
X28550Y-21774D01*
X41750Y-18000D02*
X41124Y-18000D01*
G54D48*
X42000Y-18125D02*
X41875Y-18125D01*
X41875Y-18125D02*
X41750Y-18000D01*
G54D50*
X36382Y-11350D02*
X34650Y-11350D01*
X42250Y-13000D02*
X41750Y-13000D01*
X41264Y-13486D02*
X38518Y-13486D01*
X38518Y-13486D02*
X36382Y-11350D01*
X41750Y-13000D02*
X41264Y-13486D01*
X34650Y-11350D02*
X33250Y-11350D01*
X33250Y-11350D02*
X32725Y-11875D01*
X32725Y-11875D02*
X32250Y-11875D01*
G54D46*
X34376Y-23000D02*
X33624Y-23000D01*
G54D48*
X32876Y-23874D02*
X32876Y-24000D01*
X33125Y-24875D02*
X32876Y-24626D01*
X33624Y-23126D02*
X32876Y-23874D01*
X32876Y-24626D02*
X32876Y-24000D01*
X33624Y-23000D02*
X33624Y-23126D01*
X33125Y-25000D02*
X33125Y-24875D01*
X33875Y-25000D02*
X34929Y-25000D01*
G54D46*
X35000Y-25870D02*
X35000Y-25071D01*
G54D48*
X34929Y-25000D02*
X35000Y-25071D01*
G54D53*
X28550Y-23924D02*
X28524Y-23950D01*
X28048Y-26126D02*
X27724Y-26450D01*
X28550Y-26126D02*
X28048Y-26126D01*
G54D47*
X28550Y-25750D02*
X27850Y-26450D01*
X27850Y-26450D02*
X27724Y-26450D01*
G54D53*
X28524Y-23950D02*
X28524Y-24850D01*
G54D47*
X28550Y-23174D02*
X28550Y-25750D01*
G54D53*
X28550Y-23174D02*
X28550Y-23924D01*
G54D47*
X14126Y-18000D02*
X14126Y-17150D01*
X19750Y-14500D02*
X19750Y-15250D01*
G54D50*
X13250Y-17974D02*
X14100Y-17974D01*
G54D47*
X12250Y-17500D02*
X12750Y-18000D01*
G54D50*
X14100Y-17974D02*
X14126Y-18000D01*
G54D47*
X12250Y-16500D02*
X12250Y-17500D01*
X13750Y-15750D02*
X13000Y-15750D01*
X12750Y-18000D02*
X14126Y-18000D01*
X19250Y-15750D02*
X13750Y-15750D01*
X19750Y-15250D02*
X19250Y-15750D01*
X13000Y-15750D02*
X12250Y-16500D01*
X19250Y-14000D02*
X19750Y-14500D01*
X18874Y-14000D02*
X19250Y-14000D01*
X26600Y-26450D02*
X26976Y-26450D01*
X26250Y-25475D02*
X26250Y-26100D01*
X26250Y-26100D02*
X26600Y-26450D01*
G54D53*
X26224Y-26450D02*
X26200Y-26426D01*
X26976Y-26450D02*
X26224Y-26450D01*
G54D50*
X33000Y-16224D02*
X33026Y-16250D01*
X31424Y-16250D02*
X31450Y-16224D01*
X31450Y-16224D02*
X32300Y-16224D01*
X30724Y-16250D02*
X31424Y-16250D01*
X32300Y-16224D02*
X33000Y-16224D01*
G54D47*
X33026Y-16250D02*
X30724Y-16250D01*
X36626Y-19000D02*
X35974Y-19000D01*
X32000Y-18824D02*
X32176Y-19000D01*
X34000Y-17500D02*
X32500Y-17500D01*
X34250Y-16750D02*
X34250Y-17250D01*
X32000Y-18000D02*
X32000Y-18824D01*
X33774Y-16250D02*
X33774Y-16274D01*
X32500Y-17500D02*
X32000Y-18000D01*
X33774Y-16274D02*
X34250Y-16750D01*
X34250Y-17250D02*
X34000Y-17500D01*
G54D50*
X34500Y-19026D02*
X35200Y-19026D01*
G54D47*
X35226Y-19000D02*
X32924Y-19000D01*
G54D50*
X35200Y-19026D02*
X35226Y-19000D01*
X32924Y-19000D02*
X33624Y-19000D01*
X33650Y-19026D02*
X34500Y-19026D01*
X33624Y-19000D02*
X33650Y-19026D01*
G54D47*
X29324Y-16250D02*
X29976Y-16250D01*
G54D50*
X40350Y-18974D02*
X40376Y-19000D01*
X37374Y-19000D02*
X38074Y-19000D01*
X38950Y-18974D02*
X40350Y-18974D01*
X38100Y-18974D02*
X38950Y-18974D01*
X38074Y-19000D02*
X38100Y-18974D01*
G54D47*
X37374Y-19000D02*
X40376Y-19000D01*
X43300Y-18500D02*
X43876Y-18500D01*
G54D48*
X43000Y-18500D02*
X43300Y-18500D01*
G54D50*
X17374Y-18000D02*
X18224Y-18000D01*
G54D47*
X17374Y-18000D02*
X19126Y-18000D01*
G54D50*
X19100Y-17974D02*
X19126Y-18000D01*
X18250Y-17974D02*
X19100Y-17974D01*
G54D47*
X17374Y-18000D02*
X17374Y-17150D01*
X19126Y-18000D02*
X19126Y-17150D01*
G54D50*
X18224Y-18000D02*
X18250Y-17974D01*
X15750Y-17974D02*
X16600Y-17974D01*
G54D47*
X14874Y-18000D02*
X14874Y-17150D01*
G54D50*
X15724Y-18000D02*
X15750Y-17974D01*
X16600Y-17974D02*
X16626Y-18000D01*
X14874Y-18000D02*
X15724Y-18000D01*
G54D47*
X14874Y-18000D02*
X16626Y-18000D01*
X16626Y-18000D02*
X16626Y-17150D01*
G54D46*
X39250Y-27376D02*
X38824Y-27376D01*
X41750Y-27250D02*
X41750Y-27376D01*
X41124Y-26624D02*
X41750Y-27250D01*
X43376Y-26624D02*
X42750Y-27250D01*
X41750Y-27376D02*
X42750Y-27376D01*
X38824Y-27376D02*
X38570Y-27630D01*
X43500Y-26624D02*
X43376Y-26624D01*
X42750Y-27250D02*
X42750Y-27376D01*
X38570Y-27630D02*
X38250Y-27630D01*
X41000Y-26624D02*
X41124Y-26624D01*
X40250Y-27376D02*
X41750Y-27376D01*
X40250Y-27376D02*
X39250Y-27376D01*
G54D53*
X26322Y-19228D02*
X26954Y-19860D01*
X26600Y-25000D02*
X26600Y-23502D01*
X25750Y-25000D02*
X25750Y-24850D01*
X25850Y-25100D02*
X25750Y-25000D01*
X25950Y-25100D02*
X26200Y-25100D01*
X13172Y-19228D02*
X13975Y-19228D01*
X26200Y-25100D02*
X25850Y-25100D01*
X26500Y-25100D02*
X26600Y-25000D01*
X26954Y-22500D02*
X26954Y-23148D01*
X25225Y-26300D02*
X22700Y-26300D01*
X25750Y-24850D02*
X25625Y-24725D01*
G54D50*
X17500Y-11650D02*
X17500Y-11325D01*
G54D53*
X25625Y-24725D02*
X25250Y-24725D01*
X25250Y-24725D02*
X25625Y-24725D01*
X25750Y-25500D02*
X25750Y-25775D01*
X25750Y-25500D02*
X25750Y-25300D01*
X12572Y-18628D02*
X13172Y-19228D01*
X25750Y-25300D02*
X25950Y-25100D01*
X11728Y-18628D02*
X11500Y-18400D01*
X25750Y-25775D02*
X25225Y-26300D01*
X21200Y-26300D02*
X20500Y-27000D01*
X26200Y-25100D02*
X26500Y-25100D01*
X22700Y-26300D02*
X21200Y-26300D01*
X13975Y-19228D02*
X26322Y-19228D01*
X26954Y-19860D02*
X26954Y-22500D01*
X12100Y-18628D02*
X11728Y-18628D01*
X26954Y-23148D02*
X26600Y-23502D01*
X12100Y-18628D02*
X12572Y-18628D01*
G54D50*
X41800Y-15900D02*
X42200Y-16300D01*
X16750Y-11825D02*
X16900Y-11675D01*
X16900Y-11425D02*
X16900Y-11650D01*
X19650Y-11500D02*
X19325Y-11500D01*
X38472Y-14214D02*
X40506Y-14214D01*
X15874Y-12250D02*
X15874Y-12226D01*
X19050Y-11225D02*
X19238Y-11413D01*
X32250Y-11125D02*
X31975Y-11125D01*
X27748Y-11364D02*
X20625Y-11364D01*
X31750Y-11700D02*
X31575Y-11875D01*
X31750Y-11350D02*
X31750Y-11700D01*
X42200Y-16300D02*
X42200Y-16500D01*
X20625Y-11364D02*
X19786Y-11364D01*
X29750Y-12318D02*
X28702Y-12318D01*
G54D48*
X43000Y-17626D02*
X43376Y-17250D01*
G54D50*
X29950Y-12318D02*
X29750Y-12318D01*
X43376Y-17126D02*
X42800Y-16550D01*
X42800Y-16550D02*
X42800Y-16500D01*
G54D48*
X16250Y-12626D02*
X15874Y-12250D01*
G54D50*
X31975Y-11125D02*
X31750Y-11350D01*
X31132Y-12318D02*
X31368Y-12318D01*
X16625Y-11825D02*
X16750Y-11825D01*
X31575Y-11875D02*
X31250Y-11875D01*
X31250Y-11875D02*
X31250Y-12200D01*
X19325Y-11500D02*
X19238Y-11413D01*
X31250Y-12200D02*
X31132Y-12318D01*
X17732Y-11007D02*
X17950Y-11225D01*
X40506Y-14214D02*
X41150Y-14858D01*
X17700Y-11007D02*
X17732Y-11007D01*
X41150Y-15700D02*
X41350Y-15900D01*
X19786Y-11364D02*
X19650Y-11500D01*
X15874Y-12226D02*
X15874Y-12250D01*
G54D48*
X16250Y-13125D02*
X16250Y-12626D01*
G54D50*
X43376Y-17250D02*
X43376Y-17126D01*
X41350Y-15900D02*
X41800Y-15900D01*
X17950Y-11225D02*
X19050Y-11225D01*
G54D48*
X43000Y-18125D02*
X43000Y-17626D01*
G54D50*
X31250Y-12200D02*
X31368Y-12318D01*
X31368Y-12318D02*
X36576Y-12318D01*
X15874Y-12250D02*
X16200Y-12250D01*
X16200Y-12250D02*
X16625Y-11825D01*
X17700Y-11007D02*
X17318Y-11007D01*
X28702Y-12318D02*
X27748Y-11364D01*
X29950Y-12318D02*
X31132Y-12318D01*
X16900Y-11675D02*
X16900Y-11650D01*
X41150Y-14858D02*
X41150Y-15700D01*
X36576Y-12318D02*
X38472Y-14214D01*
X42200Y-16500D02*
X42800Y-16500D01*
X17318Y-11007D02*
X16900Y-11425D01*
X19862Y-11546D02*
X19726Y-11682D01*
G54D48*
X16250Y-13875D02*
X16250Y-14374D01*
G54D50*
X18575Y-11500D02*
X18250Y-11500D01*
G54D48*
X43000Y-18875D02*
X43000Y-19374D01*
G54D50*
X16250Y-13875D02*
X16525Y-13875D01*
X34500Y-12500D02*
X29450Y-12500D01*
X19067Y-11500D02*
X18575Y-11500D01*
X27672Y-11546D02*
X20725Y-11546D01*
X29450Y-12500D02*
X29400Y-12500D01*
X19726Y-11682D02*
X19249Y-11682D01*
X34500Y-12500D02*
X35000Y-12500D01*
X35000Y-12500D02*
X36500Y-12500D01*
X34600Y-12500D02*
X34750Y-12650D01*
X40968Y-16482D02*
X40950Y-16500D01*
G54D48*
X31250Y-11125D02*
X31025Y-11125D01*
G54D50*
X38396Y-14396D02*
X40430Y-14396D01*
X40950Y-16500D02*
X41550Y-16500D01*
G54D48*
X16250Y-14374D02*
X15874Y-14750D01*
G54D50*
X34500Y-12500D02*
X34600Y-12500D01*
G54D48*
X31025Y-11125D02*
X30950Y-11050D01*
G54D50*
X28626Y-12500D02*
X27672Y-11546D01*
X19249Y-11682D02*
X19067Y-11500D01*
X42550Y-17600D02*
X41550Y-16600D01*
X41550Y-16600D02*
X41550Y-16500D01*
X42550Y-18700D02*
X42550Y-17600D01*
X43000Y-18875D02*
X42725Y-18875D01*
X42725Y-18875D02*
X42550Y-18700D01*
X18100Y-11850D02*
X18100Y-11650D01*
X16700Y-13700D02*
X16700Y-12750D01*
X17800Y-12150D02*
X18100Y-11850D01*
X16700Y-12750D02*
X17300Y-12150D01*
X17300Y-12150D02*
X17800Y-12150D01*
X29400Y-12500D02*
X28626Y-12500D01*
X40968Y-14934D02*
X40968Y-16482D01*
X20725Y-11546D02*
X19862Y-11546D01*
X18250Y-11500D02*
X18100Y-11650D01*
X34900Y-12500D02*
X34750Y-12650D01*
X40430Y-14396D02*
X40968Y-14934D01*
X35000Y-12500D02*
X34900Y-12500D01*
X36500Y-12500D02*
X38396Y-14396D01*
G54D48*
X43000Y-19374D02*
X43376Y-19750D01*
G54D50*
X16525Y-13875D02*
X16700Y-13700D01*
G54D51*
X13700Y-23600D02*
X13050Y-23600D01*
G54D55*
X16962Y-26962D02*
X16962Y-27870D01*
G54D50*
X15250Y-23375D02*
X14001Y-23375D01*
G54D55*
X16962Y-27870D02*
X17398Y-28306D01*
X14550Y-23050D02*
X14226Y-23374D01*
X14226Y-23374D02*
X14000Y-23374D01*
X30844Y-28306D02*
X31500Y-27650D01*
X13874Y-24250D02*
X13874Y-24674D01*
X15250Y-22625D02*
X14725Y-22625D01*
G54D51*
X13050Y-23600D02*
X12800Y-23600D01*
G54D55*
X16288Y-26288D02*
X16962Y-26962D01*
G54D50*
X14001Y-23375D02*
X14000Y-23374D01*
G54D51*
X13050Y-23424D02*
X13000Y-23374D01*
G54D55*
X31500Y-27650D02*
X31500Y-27500D01*
X17398Y-28306D02*
X30844Y-28306D01*
X14725Y-22625D02*
X14550Y-22800D01*
G54D51*
X13926Y-23374D02*
X13700Y-23600D01*
X13874Y-24250D02*
X13874Y-23774D01*
G54D55*
X15488Y-26288D02*
X16288Y-26288D01*
G54D51*
X14000Y-23374D02*
X13926Y-23374D01*
X12374Y-24026D02*
X12374Y-24250D01*
G54D55*
X13874Y-24674D02*
X15488Y-26288D01*
G54D51*
X12800Y-23600D02*
X12374Y-24026D01*
X13874Y-23774D02*
X13700Y-23600D01*
G54D55*
X14550Y-22800D02*
X14550Y-23050D01*
G54D51*
X13050Y-23600D02*
X13050Y-23424D01*
X33676Y-27376D02*
X34768Y-28468D01*
X33500Y-27376D02*
X33676Y-27376D01*
G54D53*
X33500Y-27376D02*
X33500Y-27350D01*
G54D51*
X37500Y-26900D02*
X38030Y-26370D01*
X34768Y-28468D02*
X37282Y-28468D01*
X37282Y-28468D02*
X37500Y-28250D01*
X37500Y-28250D02*
X37500Y-26900D01*
G54D55*
X32000Y-25624D02*
X32000Y-26200D01*
X32300Y-26500D02*
X32300Y-27300D01*
X32000Y-26200D02*
X32300Y-26500D01*
G54D51*
X38030Y-26370D02*
X38250Y-26370D01*
G54D55*
X32300Y-27300D02*
X32500Y-27500D01*
G54D53*
X32870Y-27130D02*
X32500Y-27500D01*
G54D55*
X33750Y-26500D02*
X33750Y-27126D01*
X33500Y-26250D02*
X33750Y-26500D01*
X33125Y-26000D02*
X33125Y-26125D01*
X33750Y-27126D02*
X33500Y-27376D01*
X33250Y-26250D02*
X33500Y-26250D01*
X33125Y-26125D02*
X33250Y-26250D01*
G54D46*
X35000Y-27130D02*
X32870Y-27130D01*
X32870Y-27130D02*
X32500Y-27500D01*
G54D48*
X33875Y-26000D02*
X33875Y-27001D01*
G54D53*
X33280Y-27130D02*
X32870Y-27130D01*
X33500Y-27350D02*
X33280Y-27130D01*
G54D48*
X33875Y-27001D02*
X33500Y-27376D01*
G54D10*
G36*
X14450Y-22490D02*
X14345Y-22595D01*
X14282Y-22689D01*
X14260Y-22800D01*
X14260Y-22930D01*
X14203Y-22987D01*
X13683Y-22987D01*
X13606Y-23019D01*
X13547Y-23078D01*
X13515Y-23155D01*
X13515Y-23239D01*
X13515Y-23290D01*
X13485Y-23290D01*
X13485Y-23155D01*
X13453Y-23078D01*
X13394Y-23019D01*
X13317Y-22987D01*
X13233Y-22987D01*
X12683Y-22987D01*
X12606Y-23019D01*
X12547Y-23078D01*
X12515Y-23155D01*
X12515Y-23239D01*
X12515Y-23446D01*
X12196Y-23765D01*
X12157Y-23765D01*
X12080Y-23797D01*
X12021Y-23856D01*
X12001Y-23904D01*
X11981Y-23856D01*
X11936Y-23811D01*
X11936Y-23759D01*
X11967Y-23759D01*
X12044Y-23727D01*
X12103Y-23668D01*
X12135Y-23591D01*
X12135Y-23507D01*
X12135Y-23157D01*
X12103Y-23080D01*
X12044Y-23021D01*
X11967Y-22989D01*
X11883Y-22989D01*
X11333Y-22989D01*
X11256Y-23021D01*
X11197Y-23080D01*
X11165Y-23157D01*
X11165Y-23241D01*
X11165Y-23591D01*
X11197Y-23668D01*
X11256Y-23727D01*
X11316Y-23751D01*
X11316Y-23811D01*
X11271Y-23856D01*
X11239Y-23933D01*
X11239Y-24017D01*
X11239Y-24567D01*
X11271Y-24644D01*
X11330Y-24703D01*
X11407Y-24735D01*
X11491Y-24735D01*
X11845Y-24735D01*
X11922Y-24703D01*
X11981Y-24644D01*
X12001Y-24595D01*
X12021Y-24644D01*
X12080Y-24703D01*
X12157Y-24735D01*
X12241Y-24735D01*
X12591Y-24735D01*
X12668Y-24703D01*
X12727Y-24644D01*
X12750Y-24588D01*
X12773Y-24644D01*
X12832Y-24703D01*
X12909Y-24735D01*
X12947Y-24735D01*
X13541Y-25329D01*
X13500Y-25427D01*
X13432Y-25262D01*
X13288Y-25119D01*
X13101Y-25041D01*
X12899Y-25041D01*
X12712Y-25118D01*
X12569Y-25262D01*
X12491Y-25449D01*
X12491Y-25651D01*
X12568Y-25838D01*
X12674Y-25943D01*
X12569Y-26049D01*
X12491Y-26236D01*
X12491Y-26438D01*
X12495Y-26450D01*
X10300Y-26450D01*
X10300Y-22050D01*
X14450Y-22050D01*
X14450Y-22490D01*
X14450Y-22490D01*
G37*
G54D50*
X14450Y-22490D02*
X14345Y-22595D01*
X14282Y-22689D01*
X14260Y-22800D01*
X14260Y-22930D01*
X14203Y-22987D01*
X13683Y-22987D01*
X13606Y-23019D01*
X13547Y-23078D01*
X13515Y-23155D01*
X13515Y-23239D01*
X13515Y-23290D01*
X13485Y-23290D01*
X13485Y-23155D01*
X13453Y-23078D01*
X13394Y-23019D01*
X13317Y-22987D01*
X13233Y-22987D01*
X12683Y-22987D01*
X12606Y-23019D01*
X12547Y-23078D01*
X12515Y-23155D01*
X12515Y-23239D01*
X12515Y-23446D01*
X12196Y-23765D01*
X12157Y-23765D01*
X12080Y-23797D01*
X12021Y-23856D01*
X12001Y-23904D01*
X11981Y-23856D01*
X11936Y-23811D01*
X11936Y-23759D01*
X11967Y-23759D01*
X12044Y-23727D01*
X12103Y-23668D01*
X12135Y-23591D01*
X12135Y-23507D01*
X12135Y-23157D01*
X12103Y-23080D01*
X12044Y-23021D01*
X11967Y-22989D01*
X11883Y-22989D01*
X11333Y-22989D01*
X11256Y-23021D01*
X11197Y-23080D01*
X11165Y-23157D01*
X11165Y-23241D01*
X11165Y-23591D01*
X11197Y-23668D01*
X11256Y-23727D01*
X11316Y-23751D01*
X11316Y-23811D01*
X11271Y-23856D01*
X11239Y-23933D01*
X11239Y-24017D01*
X11239Y-24567D01*
X11271Y-24644D01*
X11330Y-24703D01*
X11407Y-24735D01*
X11491Y-24735D01*
X11845Y-24735D01*
X11922Y-24703D01*
X11981Y-24644D01*
X12001Y-24595D01*
X12021Y-24644D01*
X12080Y-24703D01*
X12157Y-24735D01*
X12241Y-24735D01*
X12591Y-24735D01*
X12668Y-24703D01*
X12727Y-24644D01*
X12750Y-24588D01*
X12773Y-24644D01*
X12832Y-24703D01*
X12909Y-24735D01*
X12947Y-24735D01*
X13541Y-25329D01*
X13500Y-25427D01*
X13432Y-25262D01*
X13288Y-25119D01*
X13101Y-25041D01*
X12899Y-25041D01*
X12712Y-25118D01*
X12569Y-25262D01*
X12491Y-25449D01*
X12491Y-25651D01*
X12568Y-25838D01*
X12674Y-25943D01*
X12569Y-26049D01*
X12491Y-26236D01*
X12491Y-26438D01*
X12495Y-26450D01*
X10300Y-26450D01*
X10300Y-22050D01*
X14450Y-22050D01*
X14450Y-22490D01*
G54D10*
G36*
X15240Y-26450D02*
X13780Y-26450D01*
X13780Y-26116D01*
X13855Y-26040D01*
X13899Y-26059D01*
X14101Y-26059D01*
X14288Y-25982D01*
X14431Y-25838D01*
X14488Y-25698D01*
X15240Y-26450D01*
X15240Y-26450D01*
G37*
G54D50*
X15240Y-26450D02*
X13780Y-26450D01*
X13780Y-26116D01*
X13855Y-26040D01*
X13899Y-26059D01*
X14101Y-26059D01*
X14288Y-25982D01*
X14431Y-25838D01*
X14488Y-25698D01*
X15240Y-26450D01*
G54D10*
G36*
X15950Y-25998D02*
X15608Y-25998D01*
X14660Y-25050D01*
X15950Y-25050D01*
X15950Y-25998D01*
X15950Y-25998D01*
G37*
G54D50*
X15950Y-25998D02*
X15608Y-25998D01*
X14660Y-25050D01*
X15950Y-25050D01*
X15950Y-25998D01*
G54D10*
G36*
X34490Y-28700D02*
X31210Y-28700D01*
X31186Y-28581D01*
X31131Y-28499D01*
X31550Y-28080D01*
X31615Y-28080D01*
X31828Y-27992D01*
X31991Y-27829D01*
X31999Y-27808D01*
X32008Y-27828D01*
X32171Y-27991D01*
X32384Y-28080D01*
X32615Y-28080D01*
X32828Y-27992D01*
X32991Y-27829D01*
X33032Y-27728D01*
X33077Y-27773D01*
X33173Y-27813D01*
X33276Y-27813D01*
X33603Y-27813D01*
X34490Y-28700D01*
X34490Y-28700D01*
G37*
G54D53*
X34490Y-28700D02*
X31210Y-28700D01*
X31186Y-28581D01*
X31131Y-28499D01*
X31550Y-28080D01*
X31615Y-28080D01*
X31828Y-27992D01*
X31991Y-27829D01*
X31999Y-27808D01*
X32008Y-27828D01*
X32171Y-27991D01*
X32384Y-28080D01*
X32615Y-28080D01*
X32828Y-27992D01*
X32991Y-27829D01*
X33032Y-27728D01*
X33077Y-27773D01*
X33173Y-27813D01*
X33276Y-27813D01*
X33603Y-27813D01*
X34490Y-28700D01*
G54D10*
G36*
X37658Y-26028D02*
X37636Y-26082D01*
X37636Y-26185D01*
X37636Y-26254D01*
X37245Y-26645D01*
X37167Y-26762D01*
X37139Y-26900D01*
X37140Y-26904D01*
X37140Y-28100D01*
X37132Y-28108D01*
X34917Y-28108D01*
X34349Y-27540D01*
X34452Y-27540D01*
X34498Y-27586D01*
X34594Y-27626D01*
X34697Y-27626D01*
X35405Y-27626D01*
X35501Y-27587D01*
X35574Y-27514D01*
X35614Y-27418D01*
X35614Y-27315D01*
X35614Y-26843D01*
X35575Y-26747D01*
X35502Y-26674D01*
X35406Y-26634D01*
X35303Y-26634D01*
X34595Y-26634D01*
X34499Y-26673D01*
X34452Y-26720D01*
X34255Y-26720D01*
X34255Y-26227D01*
X34255Y-26124D01*
X34255Y-26000D01*
X34255Y-25774D01*
X34216Y-25678D01*
X34143Y-25605D01*
X34047Y-25565D01*
X33944Y-25565D01*
X33704Y-25565D01*
X33608Y-25604D01*
X33535Y-25677D01*
X33499Y-25761D01*
X33466Y-25678D01*
X33393Y-25605D01*
X33297Y-25565D01*
X33194Y-25565D01*
X32954Y-25565D01*
X32858Y-25604D01*
X32785Y-25677D01*
X32745Y-25773D01*
X32745Y-25876D01*
X32745Y-26226D01*
X32784Y-26322D01*
X32857Y-26395D01*
X32953Y-26435D01*
X32954Y-26435D01*
X33009Y-26490D01*
X33010Y-26490D01*
X33083Y-26539D01*
X33119Y-26563D01*
X33120Y-26564D01*
X33249Y-26589D01*
X33250Y-26590D01*
X33359Y-26590D01*
X33410Y-26640D01*
X33410Y-26720D01*
X32870Y-26720D01*
X32713Y-26751D01*
X32640Y-26799D01*
X32640Y-26500D01*
X32614Y-26370D01*
X32540Y-26260D01*
X32540Y-26259D01*
X32340Y-26059D01*
X32340Y-26053D01*
X32422Y-26020D01*
X32495Y-25947D01*
X32535Y-25851D01*
X32535Y-25748D01*
X32535Y-25398D01*
X32496Y-25302D01*
X32445Y-25251D01*
X32495Y-25201D01*
X32535Y-25105D01*
X32535Y-25002D01*
X32535Y-24787D01*
X32607Y-24895D01*
X32745Y-25033D01*
X32745Y-25226D01*
X32784Y-25322D01*
X32857Y-25395D01*
X32953Y-25435D01*
X33056Y-25435D01*
X33296Y-25435D01*
X33392Y-25396D01*
X33465Y-25323D01*
X33500Y-25238D01*
X33534Y-25322D01*
X33607Y-25395D01*
X33703Y-25435D01*
X33806Y-25435D01*
X34046Y-25435D01*
X34142Y-25396D01*
X34158Y-25380D01*
X34512Y-25380D01*
X34522Y-25403D01*
X34499Y-25413D01*
X34426Y-25486D01*
X34386Y-25582D01*
X34386Y-25685D01*
X34386Y-26157D01*
X34425Y-26253D01*
X34498Y-26326D01*
X34594Y-26366D01*
X34697Y-26366D01*
X35405Y-26366D01*
X35501Y-26327D01*
X35574Y-26254D01*
X35614Y-26158D01*
X35614Y-26055D01*
X35614Y-25583D01*
X35575Y-25487D01*
X35502Y-25414D01*
X35477Y-25403D01*
X35496Y-25359D01*
X35496Y-25256D01*
X35496Y-24784D01*
X35457Y-24688D01*
X35384Y-24615D01*
X35288Y-24575D01*
X35185Y-24575D01*
X34713Y-24575D01*
X34617Y-24614D01*
X34611Y-24620D01*
X34158Y-24620D01*
X34143Y-24605D01*
X34047Y-24565D01*
X33944Y-24565D01*
X33704Y-24565D01*
X33608Y-24604D01*
X33535Y-24677D01*
X33499Y-24761D01*
X33466Y-24678D01*
X33394Y-24606D01*
X33393Y-24605D01*
X33256Y-24468D01*
X33256Y-24452D01*
X33299Y-24495D01*
X33395Y-24535D01*
X33498Y-24535D01*
X33852Y-24535D01*
X33948Y-24496D01*
X34021Y-24423D01*
X34026Y-24410D01*
X34676Y-24410D01*
X34712Y-24425D01*
X34815Y-24425D01*
X35287Y-24425D01*
X35383Y-24386D01*
X35456Y-24313D01*
X35489Y-24233D01*
X35511Y-24219D01*
X35670Y-24059D01*
X35673Y-24061D01*
X35776Y-24061D01*
X36326Y-24061D01*
X36392Y-24034D01*
X36804Y-24034D01*
X36809Y-24044D01*
X36955Y-24191D01*
X37146Y-24270D01*
X37353Y-24270D01*
X37465Y-24223D01*
X37465Y-24352D01*
X37500Y-24440D01*
X36850Y-24440D01*
X36693Y-24471D01*
X36560Y-24560D01*
X36559Y-24560D01*
X36559Y-24561D01*
X36210Y-24910D01*
X36121Y-25043D01*
X36101Y-25140D01*
X35999Y-25140D01*
X35903Y-25179D01*
X35830Y-25252D01*
X35790Y-25348D01*
X35790Y-25451D01*
X35790Y-26351D01*
X35829Y-26447D01*
X35902Y-26520D01*
X35998Y-26560D01*
X36101Y-26560D01*
X37001Y-26560D01*
X37097Y-26521D01*
X37170Y-26448D01*
X37210Y-26352D01*
X37210Y-26249D01*
X37210Y-26028D01*
X37658Y-26028D01*
X37658Y-26028D01*
G37*
G54D53*
X37658Y-26028D02*
X37636Y-26082D01*
X37636Y-26185D01*
X37636Y-26254D01*
X37245Y-26645D01*
X37167Y-26762D01*
X37139Y-26900D01*
X37140Y-26904D01*
X37140Y-28100D01*
X37132Y-28108D01*
X34917Y-28108D01*
X34349Y-27540D01*
X34452Y-27540D01*
X34498Y-27586D01*
X34594Y-27626D01*
X34697Y-27626D01*
X35405Y-27626D01*
X35501Y-27587D01*
X35574Y-27514D01*
X35614Y-27418D01*
X35614Y-27315D01*
X35614Y-26843D01*
X35575Y-26747D01*
X35502Y-26674D01*
X35406Y-26634D01*
X35303Y-26634D01*
X34595Y-26634D01*
X34499Y-26673D01*
X34452Y-26720D01*
X34255Y-26720D01*
X34255Y-26227D01*
X34255Y-26124D01*
X34255Y-26000D01*
X34255Y-25774D01*
X34216Y-25678D01*
X34143Y-25605D01*
X34047Y-25565D01*
X33944Y-25565D01*
X33704Y-25565D01*
X33608Y-25604D01*
X33535Y-25677D01*
X33499Y-25761D01*
X33466Y-25678D01*
X33393Y-25605D01*
X33297Y-25565D01*
X33194Y-25565D01*
X32954Y-25565D01*
X32858Y-25604D01*
X32785Y-25677D01*
X32745Y-25773D01*
X32745Y-25876D01*
X32745Y-26226D01*
X32784Y-26322D01*
X32857Y-26395D01*
X32953Y-26435D01*
X32954Y-26435D01*
X33009Y-26490D01*
X33010Y-26490D01*
X33083Y-26539D01*
X33119Y-26563D01*
X33120Y-26564D01*
X33249Y-26589D01*
X33250Y-26590D01*
X33359Y-26590D01*
X33410Y-26640D01*
X33410Y-26720D01*
X32870Y-26720D01*
X32713Y-26751D01*
X32640Y-26799D01*
X32640Y-26500D01*
X32614Y-26370D01*
X32540Y-26260D01*
X32540Y-26259D01*
X32340Y-26059D01*
X32340Y-26053D01*
X32422Y-26020D01*
X32495Y-25947D01*
X32535Y-25851D01*
X32535Y-25748D01*
X32535Y-25398D01*
X32496Y-25302D01*
X32445Y-25251D01*
X32495Y-25201D01*
X32535Y-25105D01*
X32535Y-25002D01*
X32535Y-24787D01*
X32607Y-24895D01*
X32745Y-25033D01*
X32745Y-25226D01*
X32784Y-25322D01*
X32857Y-25395D01*
X32953Y-25435D01*
X33056Y-25435D01*
X33296Y-25435D01*
X33392Y-25396D01*
X33465Y-25323D01*
X33500Y-25238D01*
X33534Y-25322D01*
X33607Y-25395D01*
X33703Y-25435D01*
X33806Y-25435D01*
X34046Y-25435D01*
X34142Y-25396D01*
X34158Y-25380D01*
X34512Y-25380D01*
X34522Y-25403D01*
X34499Y-25413D01*
X34426Y-25486D01*
X34386Y-25582D01*
X34386Y-25685D01*
X34386Y-26157D01*
X34425Y-26253D01*
X34498Y-26326D01*
X34594Y-26366D01*
X34697Y-26366D01*
X35405Y-26366D01*
X35501Y-26327D01*
X35574Y-26254D01*
X35614Y-26158D01*
X35614Y-26055D01*
X35614Y-25583D01*
X35575Y-25487D01*
X35502Y-25414D01*
X35477Y-25403D01*
X35496Y-25359D01*
X35496Y-25256D01*
X35496Y-24784D01*
X35457Y-24688D01*
X35384Y-24615D01*
X35288Y-24575D01*
X35185Y-24575D01*
X34713Y-24575D01*
X34617Y-24614D01*
X34611Y-24620D01*
X34158Y-24620D01*
X34143Y-24605D01*
X34047Y-24565D01*
X33944Y-24565D01*
X33704Y-24565D01*
X33608Y-24604D01*
X33535Y-24677D01*
X33499Y-24761D01*
X33466Y-24678D01*
X33394Y-24606D01*
X33393Y-24605D01*
X33256Y-24468D01*
X33256Y-24452D01*
X33299Y-24495D01*
X33395Y-24535D01*
X33498Y-24535D01*
X33852Y-24535D01*
X33948Y-24496D01*
X34021Y-24423D01*
X34026Y-24410D01*
X34676Y-24410D01*
X34712Y-24425D01*
X34815Y-24425D01*
X35287Y-24425D01*
X35383Y-24386D01*
X35456Y-24313D01*
X35489Y-24233D01*
X35511Y-24219D01*
X35670Y-24059D01*
X35673Y-24061D01*
X35776Y-24061D01*
X36326Y-24061D01*
X36392Y-24034D01*
X36804Y-24034D01*
X36809Y-24044D01*
X36955Y-24191D01*
X37146Y-24270D01*
X37353Y-24270D01*
X37465Y-24223D01*
X37465Y-24352D01*
X37500Y-24440D01*
X36850Y-24440D01*
X36693Y-24471D01*
X36560Y-24560D01*
X36559Y-24560D01*
X36559Y-24561D01*
X36210Y-24910D01*
X36121Y-25043D01*
X36101Y-25140D01*
X35999Y-25140D01*
X35903Y-25179D01*
X35830Y-25252D01*
X35790Y-25348D01*
X35790Y-25451D01*
X35790Y-26351D01*
X35829Y-26447D01*
X35902Y-26520D01*
X35998Y-26560D01*
X36101Y-26560D01*
X37001Y-26560D01*
X37097Y-26521D01*
X37170Y-26448D01*
X37210Y-26352D01*
X37210Y-26249D01*
X37210Y-26028D01*
X37658Y-26028D01*
G54D10*
G36*
X40555Y-26249D02*
X40505Y-26299D01*
X40465Y-26395D01*
X40465Y-26498D01*
X40465Y-26852D01*
X40500Y-26939D01*
X40474Y-26939D01*
X39924Y-26939D01*
X39857Y-26966D01*
X39641Y-26966D01*
X39577Y-26939D01*
X39474Y-26939D01*
X38924Y-26939D01*
X38857Y-26966D01*
X38824Y-26966D01*
X38667Y-26997D01*
X38534Y-27086D01*
X38486Y-27134D01*
X37860Y-27134D01*
X37860Y-27049D01*
X38043Y-26866D01*
X38655Y-26866D01*
X38751Y-26827D01*
X38824Y-26754D01*
X38864Y-26658D01*
X38864Y-26555D01*
X38864Y-26521D01*
X38897Y-26535D01*
X39000Y-26535D01*
X39354Y-26535D01*
X39450Y-26496D01*
X39501Y-26445D01*
X39551Y-26495D01*
X39647Y-26535D01*
X39750Y-26535D01*
X40100Y-26535D01*
X40196Y-26496D01*
X40269Y-26423D01*
X40309Y-26327D01*
X40309Y-26224D01*
X40309Y-25914D01*
X40465Y-25758D01*
X40465Y-26102D01*
X40504Y-26198D01*
X40555Y-26249D01*
X40555Y-26249D01*
G37*
G54D53*
X40555Y-26249D02*
X40505Y-26299D01*
X40465Y-26395D01*
X40465Y-26498D01*
X40465Y-26852D01*
X40500Y-26939D01*
X40474Y-26939D01*
X39924Y-26939D01*
X39857Y-26966D01*
X39641Y-26966D01*
X39577Y-26939D01*
X39474Y-26939D01*
X38924Y-26939D01*
X38857Y-26966D01*
X38824Y-26966D01*
X38667Y-26997D01*
X38534Y-27086D01*
X38486Y-27134D01*
X37860Y-27134D01*
X37860Y-27049D01*
X38043Y-26866D01*
X38655Y-26866D01*
X38751Y-26827D01*
X38824Y-26754D01*
X38864Y-26658D01*
X38864Y-26555D01*
X38864Y-26521D01*
X38897Y-26535D01*
X39000Y-26535D01*
X39354Y-26535D01*
X39450Y-26496D01*
X39501Y-26445D01*
X39551Y-26495D01*
X39647Y-26535D01*
X39750Y-26535D01*
X40100Y-26535D01*
X40196Y-26496D01*
X40269Y-26423D01*
X40309Y-26327D01*
X40309Y-26224D01*
X40309Y-25914D01*
X40465Y-25758D01*
X40465Y-26102D01*
X40504Y-26198D01*
X40555Y-26249D01*
G54D10*
G36*
X42908Y-26511D02*
X42481Y-26939D01*
X42424Y-26939D01*
X42357Y-26966D01*
X42141Y-26966D01*
X42077Y-26939D01*
X42019Y-26939D01*
X41592Y-26512D01*
X41647Y-26535D01*
X41750Y-26535D01*
X42104Y-26535D01*
X42200Y-26496D01*
X42251Y-26445D01*
X42301Y-26495D01*
X42397Y-26535D01*
X42500Y-26535D01*
X42850Y-26535D01*
X42908Y-26511D01*
X42908Y-26511D01*
G37*
G54D53*
X42908Y-26511D02*
X42481Y-26939D01*
X42424Y-26939D01*
X42357Y-26966D01*
X42141Y-26966D01*
X42077Y-26939D01*
X42019Y-26939D01*
X41592Y-26512D01*
X41647Y-26535D01*
X41750Y-26535D01*
X42104Y-26535D01*
X42200Y-26496D01*
X42251Y-26445D01*
X42301Y-26495D01*
X42397Y-26535D01*
X42500Y-26535D01*
X42850Y-26535D01*
X42908Y-26511D01*
G54D10*
G36*
X47700Y-25460D02*
X45710Y-25460D01*
X45710Y-25737D01*
X45680Y-25725D01*
X45577Y-25725D01*
X45426Y-25725D01*
X45323Y-25725D01*
X45321Y-25725D01*
X45123Y-25725D01*
X45035Y-25760D01*
X45035Y-25752D01*
X45035Y-25398D01*
X44996Y-25302D01*
X44923Y-25229D01*
X44884Y-25212D01*
X44883Y-25212D01*
X44825Y-25125D01*
X44825Y-25124D01*
X44575Y-24875D01*
X44461Y-24798D01*
X44461Y-24456D01*
X44422Y-24360D01*
X44349Y-24287D01*
X44253Y-24247D01*
X44150Y-24247D01*
X43930Y-24247D01*
X43834Y-24286D01*
X43761Y-24359D01*
X43721Y-24455D01*
X43721Y-24558D01*
X43721Y-24841D01*
X43721Y-24855D01*
X43588Y-24988D01*
X43508Y-25108D01*
X43503Y-25132D01*
X43479Y-25250D01*
X43480Y-25254D01*
X43480Y-25296D01*
X43335Y-25441D01*
X43174Y-25441D01*
X43078Y-25480D01*
X43005Y-25553D01*
X43002Y-25560D01*
X42994Y-25552D01*
X42994Y-25435D01*
X43070Y-25435D01*
X43166Y-25396D01*
X43239Y-25323D01*
X43279Y-25227D01*
X43279Y-25124D01*
X43279Y-24941D01*
X43279Y-24841D01*
X43279Y-24456D01*
X43240Y-24360D01*
X43167Y-24287D01*
X43071Y-24247D01*
X42968Y-24247D01*
X42748Y-24247D01*
X42652Y-24286D01*
X42579Y-24359D01*
X42539Y-24455D01*
X42539Y-24558D01*
X42539Y-24787D01*
X42362Y-24964D01*
X42282Y-25084D01*
X42277Y-25108D01*
X42253Y-25226D01*
X42254Y-25230D01*
X42254Y-25552D01*
X42251Y-25555D01*
X42246Y-25550D01*
X42246Y-25226D01*
X42218Y-25085D01*
X42218Y-25084D01*
X42138Y-24964D01*
X41961Y-24787D01*
X41961Y-24456D01*
X41922Y-24360D01*
X41849Y-24287D01*
X41753Y-24247D01*
X41650Y-24247D01*
X41430Y-24247D01*
X41334Y-24286D01*
X41261Y-24359D01*
X41221Y-24455D01*
X41221Y-24558D01*
X41221Y-24755D01*
X41138Y-24838D01*
X41058Y-24958D01*
X41053Y-24982D01*
X41029Y-25100D01*
X41030Y-25104D01*
X41030Y-25296D01*
X40885Y-25441D01*
X40745Y-25441D01*
X40751Y-25433D01*
X40779Y-25291D01*
X40779Y-25227D01*
X40779Y-25124D01*
X40779Y-24841D01*
X40779Y-24456D01*
X40740Y-24360D01*
X40667Y-24287D01*
X40571Y-24247D01*
X40468Y-24247D01*
X40248Y-24247D01*
X40152Y-24286D01*
X40079Y-24359D01*
X40039Y-24455D01*
X40039Y-24558D01*
X40039Y-24841D01*
X40039Y-25137D01*
X39711Y-25465D01*
X39648Y-25465D01*
X39552Y-25504D01*
X39501Y-25555D01*
X39451Y-25505D01*
X39355Y-25465D01*
X39252Y-25465D01*
X39245Y-25465D01*
X39108Y-25328D01*
X38975Y-25239D01*
X38818Y-25208D01*
X38502Y-25208D01*
X38544Y-25191D01*
X38691Y-25045D01*
X38770Y-24854D01*
X38770Y-24647D01*
X38691Y-24456D01*
X38545Y-24309D01*
X38535Y-24304D01*
X38535Y-24250D01*
X38535Y-24224D01*
X38646Y-24270D01*
X38853Y-24270D01*
X39044Y-24191D01*
X39191Y-24045D01*
X39270Y-23854D01*
X39270Y-23647D01*
X39191Y-23456D01*
X39045Y-23309D01*
X38854Y-23230D01*
X38810Y-23230D01*
X38666Y-23086D01*
X38660Y-23081D01*
X38660Y-23075D01*
X38691Y-23045D01*
X38770Y-22854D01*
X38770Y-22647D01*
X38691Y-22456D01*
X38545Y-22309D01*
X38354Y-22230D01*
X38147Y-22230D01*
X37956Y-22309D01*
X37809Y-22455D01*
X37730Y-22646D01*
X37730Y-22853D01*
X37766Y-22941D01*
X37674Y-22941D01*
X37601Y-22970D01*
X37597Y-22971D01*
X37492Y-22992D01*
X37467Y-22997D01*
X37334Y-23086D01*
X37333Y-23086D01*
X37333Y-23087D01*
X37331Y-23088D01*
X37206Y-23214D01*
X37124Y-23214D01*
X36391Y-23214D01*
X36327Y-23187D01*
X36224Y-23187D01*
X35674Y-23187D01*
X35607Y-23214D01*
X35559Y-23214D01*
X35559Y-22674D01*
X35520Y-22578D01*
X35447Y-22505D01*
X35351Y-22465D01*
X35248Y-22465D01*
X34898Y-22465D01*
X34802Y-22504D01*
X34751Y-22555D01*
X34701Y-22505D01*
X34605Y-22465D01*
X34502Y-22465D01*
X34148Y-22465D01*
X34052Y-22504D01*
X33999Y-22557D01*
X33947Y-22505D01*
X33851Y-22465D01*
X33748Y-22465D01*
X33398Y-22465D01*
X33302Y-22504D01*
X33229Y-22577D01*
X33189Y-22673D01*
X33189Y-22776D01*
X33189Y-23023D01*
X32747Y-23465D01*
X32650Y-23465D01*
X32554Y-23504D01*
X32481Y-23577D01*
X32441Y-23673D01*
X32441Y-23747D01*
X32423Y-23729D01*
X32327Y-23689D01*
X32224Y-23689D01*
X31674Y-23689D01*
X31578Y-23728D01*
X31505Y-23801D01*
X31465Y-23897D01*
X31465Y-24000D01*
X31465Y-24350D01*
X31504Y-24446D01*
X31557Y-24499D01*
X31505Y-24551D01*
X31465Y-24647D01*
X31465Y-24750D01*
X31465Y-25104D01*
X31504Y-25200D01*
X31555Y-25251D01*
X31505Y-25301D01*
X31465Y-25397D01*
X31465Y-25500D01*
X31465Y-25850D01*
X31504Y-25946D01*
X31577Y-26019D01*
X31660Y-26053D01*
X31660Y-26200D01*
X31686Y-26330D01*
X31760Y-26440D01*
X31960Y-26640D01*
X31960Y-27140D01*
X31829Y-27009D01*
X31616Y-26920D01*
X31385Y-26920D01*
X31172Y-27008D01*
X31040Y-27140D01*
X31040Y-22040D01*
X47700Y-22040D01*
X47700Y-25460D01*
X47700Y-25460D01*
G37*
G54D53*
X47700Y-25460D02*
X45710Y-25460D01*
X45710Y-25737D01*
X45680Y-25725D01*
X45577Y-25725D01*
X45426Y-25725D01*
X45323Y-25725D01*
X45321Y-25725D01*
X45123Y-25725D01*
X45035Y-25760D01*
X45035Y-25752D01*
X45035Y-25398D01*
X44996Y-25302D01*
X44923Y-25229D01*
X44884Y-25212D01*
X44883Y-25212D01*
X44825Y-25125D01*
X44825Y-25124D01*
X44575Y-24875D01*
X44461Y-24798D01*
X44461Y-24456D01*
X44422Y-24360D01*
X44349Y-24287D01*
X44253Y-24247D01*
X44150Y-24247D01*
X43930Y-24247D01*
X43834Y-24286D01*
X43761Y-24359D01*
X43721Y-24455D01*
X43721Y-24558D01*
X43721Y-24841D01*
X43721Y-24855D01*
X43588Y-24988D01*
X43508Y-25108D01*
X43503Y-25132D01*
X43479Y-25250D01*
X43480Y-25254D01*
X43480Y-25296D01*
X43335Y-25441D01*
X43174Y-25441D01*
X43078Y-25480D01*
X43005Y-25553D01*
X43002Y-25560D01*
X42994Y-25552D01*
X42994Y-25435D01*
X43070Y-25435D01*
X43166Y-25396D01*
X43239Y-25323D01*
X43279Y-25227D01*
X43279Y-25124D01*
X43279Y-24941D01*
X43279Y-24841D01*
X43279Y-24456D01*
X43240Y-24360D01*
X43167Y-24287D01*
X43071Y-24247D01*
X42968Y-24247D01*
X42748Y-24247D01*
X42652Y-24286D01*
X42579Y-24359D01*
X42539Y-24455D01*
X42539Y-24558D01*
X42539Y-24787D01*
X42362Y-24964D01*
X42282Y-25084D01*
X42277Y-25108D01*
X42253Y-25226D01*
X42254Y-25230D01*
X42254Y-25552D01*
X42251Y-25555D01*
X42246Y-25550D01*
X42246Y-25226D01*
X42218Y-25085D01*
X42218Y-25084D01*
X42138Y-24964D01*
X41961Y-24787D01*
X41961Y-24456D01*
X41922Y-24360D01*
X41849Y-24287D01*
X41753Y-24247D01*
X41650Y-24247D01*
X41430Y-24247D01*
X41334Y-24286D01*
X41261Y-24359D01*
X41221Y-24455D01*
X41221Y-24558D01*
X41221Y-24755D01*
X41138Y-24838D01*
X41058Y-24958D01*
X41053Y-24982D01*
X41029Y-25100D01*
X41030Y-25104D01*
X41030Y-25296D01*
X40885Y-25441D01*
X40745Y-25441D01*
X40751Y-25433D01*
X40779Y-25291D01*
X40779Y-25227D01*
X40779Y-25124D01*
X40779Y-24841D01*
X40779Y-24456D01*
X40740Y-24360D01*
X40667Y-24287D01*
X40571Y-24247D01*
X40468Y-24247D01*
X40248Y-24247D01*
X40152Y-24286D01*
X40079Y-24359D01*
X40039Y-24455D01*
X40039Y-24558D01*
X40039Y-24841D01*
X40039Y-25137D01*
X39711Y-25465D01*
X39648Y-25465D01*
X39552Y-25504D01*
X39501Y-25555D01*
X39451Y-25505D01*
X39355Y-25465D01*
X39252Y-25465D01*
X39245Y-25465D01*
X39108Y-25328D01*
X38975Y-25239D01*
X38818Y-25208D01*
X38502Y-25208D01*
X38544Y-25191D01*
X38691Y-25045D01*
X38770Y-24854D01*
X38770Y-24647D01*
X38691Y-24456D01*
X38545Y-24309D01*
X38535Y-24304D01*
X38535Y-24250D01*
X38535Y-24224D01*
X38646Y-24270D01*
X38853Y-24270D01*
X39044Y-24191D01*
X39191Y-24045D01*
X39270Y-23854D01*
X39270Y-23647D01*
X39191Y-23456D01*
X39045Y-23309D01*
X38854Y-23230D01*
X38810Y-23230D01*
X38666Y-23086D01*
X38660Y-23081D01*
X38660Y-23075D01*
X38691Y-23045D01*
X38770Y-22854D01*
X38770Y-22647D01*
X38691Y-22456D01*
X38545Y-22309D01*
X38354Y-22230D01*
X38147Y-22230D01*
X37956Y-22309D01*
X37809Y-22455D01*
X37730Y-22646D01*
X37730Y-22853D01*
X37766Y-22941D01*
X37674Y-22941D01*
X37601Y-22970D01*
X37597Y-22971D01*
X37492Y-22992D01*
X37467Y-22997D01*
X37334Y-23086D01*
X37333Y-23086D01*
X37333Y-23087D01*
X37331Y-23088D01*
X37206Y-23214D01*
X37124Y-23214D01*
X36391Y-23214D01*
X36327Y-23187D01*
X36224Y-23187D01*
X35674Y-23187D01*
X35607Y-23214D01*
X35559Y-23214D01*
X35559Y-22674D01*
X35520Y-22578D01*
X35447Y-22505D01*
X35351Y-22465D01*
X35248Y-22465D01*
X34898Y-22465D01*
X34802Y-22504D01*
X34751Y-22555D01*
X34701Y-22505D01*
X34605Y-22465D01*
X34502Y-22465D01*
X34148Y-22465D01*
X34052Y-22504D01*
X33999Y-22557D01*
X33947Y-22505D01*
X33851Y-22465D01*
X33748Y-22465D01*
X33398Y-22465D01*
X33302Y-22504D01*
X33229Y-22577D01*
X33189Y-22673D01*
X33189Y-22776D01*
X33189Y-23023D01*
X32747Y-23465D01*
X32650Y-23465D01*
X32554Y-23504D01*
X32481Y-23577D01*
X32441Y-23673D01*
X32441Y-23747D01*
X32423Y-23729D01*
X32327Y-23689D01*
X32224Y-23689D01*
X31674Y-23689D01*
X31578Y-23728D01*
X31505Y-23801D01*
X31465Y-23897D01*
X31465Y-24000D01*
X31465Y-24350D01*
X31504Y-24446D01*
X31557Y-24499D01*
X31505Y-24551D01*
X31465Y-24647D01*
X31465Y-24750D01*
X31465Y-25104D01*
X31504Y-25200D01*
X31555Y-25251D01*
X31505Y-25301D01*
X31465Y-25397D01*
X31465Y-25500D01*
X31465Y-25850D01*
X31504Y-25946D01*
X31577Y-26019D01*
X31660Y-26053D01*
X31660Y-26200D01*
X31686Y-26330D01*
X31760Y-26440D01*
X31960Y-26640D01*
X31960Y-27140D01*
X31829Y-27009D01*
X31616Y-26920D01*
X31385Y-26920D01*
X31172Y-27008D01*
X31040Y-27140D01*
X31040Y-22040D01*
X47700Y-22040D01*
X47700Y-25460D01*
G54D10*
G36*
X47700Y-28700D02*
X37559Y-28700D01*
X37752Y-28506D01*
X37754Y-28505D01*
X37755Y-28505D01*
X37833Y-28388D01*
X37860Y-28250D01*
X37860Y-28126D01*
X37947Y-28126D01*
X38655Y-28126D01*
X38751Y-28087D01*
X38824Y-28014D01*
X38864Y-27918D01*
X38864Y-27916D01*
X38967Y-27813D01*
X39026Y-27813D01*
X39576Y-27813D01*
X39642Y-27786D01*
X39858Y-27786D01*
X39923Y-27813D01*
X40026Y-27813D01*
X40576Y-27813D01*
X40642Y-27786D01*
X41358Y-27786D01*
X41423Y-27813D01*
X41526Y-27813D01*
X42076Y-27813D01*
X42142Y-27786D01*
X42358Y-27786D01*
X42423Y-27813D01*
X42526Y-27813D01*
X43076Y-27813D01*
X43172Y-27774D01*
X43245Y-27701D01*
X43285Y-27605D01*
X43285Y-27502D01*
X43285Y-27295D01*
X43519Y-27061D01*
X43826Y-27061D01*
X43922Y-27022D01*
X43995Y-26949D01*
X44035Y-26853D01*
X44035Y-26750D01*
X44035Y-26727D01*
X44077Y-26769D01*
X44173Y-26809D01*
X44276Y-26809D01*
X44285Y-26809D01*
X44301Y-26825D01*
X44450Y-26925D01*
X44626Y-26960D01*
X44914Y-26960D01*
X44914Y-27066D01*
X44953Y-27162D01*
X45026Y-27235D01*
X45122Y-27275D01*
X45225Y-27275D01*
X45320Y-27275D01*
X45423Y-27275D01*
X45425Y-27275D01*
X45679Y-27275D01*
X45710Y-27262D01*
X45710Y-27540D01*
X47700Y-27540D01*
X47700Y-28700D01*
X47700Y-28700D01*
G37*
G54D53*
X47700Y-28700D02*
X37559Y-28700D01*
X37752Y-28506D01*
X37754Y-28505D01*
X37755Y-28505D01*
X37833Y-28388D01*
X37860Y-28250D01*
X37860Y-28126D01*
X37947Y-28126D01*
X38655Y-28126D01*
X38751Y-28087D01*
X38824Y-28014D01*
X38864Y-27918D01*
X38864Y-27916D01*
X38967Y-27813D01*
X39026Y-27813D01*
X39576Y-27813D01*
X39642Y-27786D01*
X39858Y-27786D01*
X39923Y-27813D01*
X40026Y-27813D01*
X40576Y-27813D01*
X40642Y-27786D01*
X41358Y-27786D01*
X41423Y-27813D01*
X41526Y-27813D01*
X42076Y-27813D01*
X42142Y-27786D01*
X42358Y-27786D01*
X42423Y-27813D01*
X42526Y-27813D01*
X43076Y-27813D01*
X43172Y-27774D01*
X43245Y-27701D01*
X43285Y-27605D01*
X43285Y-27502D01*
X43285Y-27295D01*
X43519Y-27061D01*
X43826Y-27061D01*
X43922Y-27022D01*
X43995Y-26949D01*
X44035Y-26853D01*
X44035Y-26750D01*
X44035Y-26727D01*
X44077Y-26769D01*
X44173Y-26809D01*
X44276Y-26809D01*
X44285Y-26809D01*
X44301Y-26825D01*
X44450Y-26925D01*
X44626Y-26960D01*
X44914Y-26960D01*
X44914Y-27066D01*
X44953Y-27162D01*
X45026Y-27235D01*
X45122Y-27275D01*
X45225Y-27275D01*
X45320Y-27275D01*
X45423Y-27275D01*
X45425Y-27275D01*
X45679Y-27275D01*
X45710Y-27262D01*
X45710Y-27540D01*
X47700Y-27540D01*
X47700Y-28700D01*
G54D10*
G36*
X17149Y-12059D02*
X16580Y-12630D01*
X16543Y-12685D01*
X16530Y-12750D01*
X16530Y-12944D01*
X16527Y-12937D01*
X16493Y-12903D01*
X16490Y-12901D01*
X16490Y-12626D01*
X16489Y-12625D01*
X16490Y-12625D01*
X16472Y-12534D01*
X16420Y-12456D01*
X16417Y-12454D01*
X16326Y-12363D01*
X16695Y-11995D01*
X16750Y-11995D01*
X16750Y-11994D01*
X16751Y-11995D01*
X16799Y-11995D01*
X17002Y-11995D01*
X17078Y-12046D01*
X17149Y-12059D01*
X17149Y-12059D01*
G37*
G54D53*
X17149Y-12059D02*
X16580Y-12630D01*
X16543Y-12685D01*
X16530Y-12750D01*
X16530Y-12944D01*
X16527Y-12937D01*
X16493Y-12903D01*
X16490Y-12901D01*
X16490Y-12626D01*
X16489Y-12625D01*
X16490Y-12625D01*
X16472Y-12534D01*
X16420Y-12456D01*
X16417Y-12454D01*
X16326Y-12363D01*
X16695Y-11995D01*
X16750Y-11995D01*
X16750Y-11994D01*
X16751Y-11995D01*
X16799Y-11995D01*
X17002Y-11995D01*
X17078Y-12046D01*
X17149Y-12059D01*
G54D10*
G36*
X31080Y-12129D02*
X31061Y-12148D01*
X29950Y-12148D01*
X29750Y-12148D01*
X28772Y-12148D01*
X27868Y-11244D01*
X27813Y-11207D01*
X27748Y-11194D01*
X20625Y-11194D01*
X19786Y-11194D01*
X19721Y-11207D01*
X19666Y-11244D01*
X19580Y-11330D01*
X19395Y-11330D01*
X19359Y-11294D01*
X19358Y-11293D01*
X19358Y-11292D01*
X19170Y-11105D01*
X19115Y-11068D01*
X19050Y-11055D01*
X18020Y-11055D01*
X17960Y-10995D01*
X19554Y-10995D01*
X19679Y-11120D01*
X19680Y-11120D01*
X19735Y-11157D01*
X19800Y-11170D01*
X21350Y-11170D01*
X27830Y-11170D01*
X28280Y-11620D01*
X28335Y-11657D01*
X28400Y-11670D01*
X28497Y-11670D01*
X28580Y-11753D01*
X28690Y-11799D01*
X28809Y-11799D01*
X28875Y-11771D01*
X28907Y-11803D01*
X28951Y-11821D01*
X28999Y-11821D01*
X29549Y-11821D01*
X29593Y-11803D01*
X29627Y-11769D01*
X29629Y-11764D01*
X29870Y-11764D01*
X29873Y-11769D01*
X29907Y-11803D01*
X29951Y-11821D01*
X29999Y-11821D01*
X30549Y-11821D01*
X30593Y-11803D01*
X30627Y-11769D01*
X30638Y-11740D01*
X30955Y-11740D01*
X30955Y-11779D01*
X30955Y-12019D01*
X30973Y-12063D01*
X31007Y-12097D01*
X31051Y-12115D01*
X31080Y-12115D01*
X31080Y-12129D01*
X31080Y-12129D01*
G37*
G54D53*
X31080Y-12129D02*
X31061Y-12148D01*
X29950Y-12148D01*
X29750Y-12148D01*
X28772Y-12148D01*
X27868Y-11244D01*
X27813Y-11207D01*
X27748Y-11194D01*
X20625Y-11194D01*
X19786Y-11194D01*
X19721Y-11207D01*
X19666Y-11244D01*
X19580Y-11330D01*
X19395Y-11330D01*
X19359Y-11294D01*
X19358Y-11293D01*
X19358Y-11292D01*
X19170Y-11105D01*
X19115Y-11068D01*
X19050Y-11055D01*
X18020Y-11055D01*
X17960Y-10995D01*
X19554Y-10995D01*
X19679Y-11120D01*
X19680Y-11120D01*
X19735Y-11157D01*
X19800Y-11170D01*
X21350Y-11170D01*
X27830Y-11170D01*
X28280Y-11620D01*
X28335Y-11657D01*
X28400Y-11670D01*
X28497Y-11670D01*
X28580Y-11753D01*
X28690Y-11799D01*
X28809Y-11799D01*
X28875Y-11771D01*
X28907Y-11803D01*
X28951Y-11821D01*
X28999Y-11821D01*
X29549Y-11821D01*
X29593Y-11803D01*
X29627Y-11769D01*
X29629Y-11764D01*
X29870Y-11764D01*
X29873Y-11769D01*
X29907Y-11803D01*
X29951Y-11821D01*
X29999Y-11821D01*
X30549Y-11821D01*
X30593Y-11803D01*
X30627Y-11769D01*
X30638Y-11740D01*
X30955Y-11740D01*
X30955Y-11779D01*
X30955Y-12019D01*
X30973Y-12063D01*
X31007Y-12097D01*
X31051Y-12115D01*
X31080Y-12115D01*
X31080Y-12129D01*
G54D10*
G36*
X43079Y-17207D02*
X42830Y-17456D01*
X42778Y-17534D01*
X42760Y-17626D01*
X42760Y-17901D01*
X42757Y-17903D01*
X42723Y-17937D01*
X42720Y-17944D01*
X42720Y-17600D01*
X42707Y-17535D01*
X42670Y-17480D01*
X42023Y-16833D01*
X42051Y-16845D01*
X42099Y-16845D01*
X42349Y-16845D01*
X42393Y-16827D01*
X42427Y-16793D01*
X42445Y-16749D01*
X42445Y-16701D01*
X42445Y-16670D01*
X42555Y-16670D01*
X42555Y-16749D01*
X42573Y-16793D01*
X42607Y-16827D01*
X42651Y-16845D01*
X42699Y-16845D01*
X42854Y-16845D01*
X43079Y-17069D01*
X43079Y-17207D01*
X43079Y-17207D01*
G37*
G54D53*
X43079Y-17207D02*
X42830Y-17456D01*
X42778Y-17534D01*
X42760Y-17626D01*
X42760Y-17901D01*
X42757Y-17903D01*
X42723Y-17937D01*
X42720Y-17944D01*
X42720Y-17600D01*
X42707Y-17535D01*
X42670Y-17480D01*
X42023Y-16833D01*
X42051Y-16845D01*
X42099Y-16845D01*
X42349Y-16845D01*
X42393Y-16827D01*
X42427Y-16793D01*
X42445Y-16749D01*
X42445Y-16701D01*
X42445Y-16670D01*
X42555Y-16670D01*
X42555Y-16749D01*
X42573Y-16793D01*
X42607Y-16827D01*
X42651Y-16845D01*
X42699Y-16845D01*
X42854Y-16845D01*
X43079Y-17069D01*
X43079Y-17207D01*
G54D10*
G36*
X47710Y-17210D02*
X45710Y-17210D01*
X45710Y-17897D01*
X45696Y-17883D01*
X45652Y-17865D01*
X45604Y-17865D01*
X45398Y-17865D01*
X45350Y-17865D01*
X45348Y-17865D01*
X45150Y-17865D01*
X45106Y-17883D01*
X45072Y-17917D01*
X45054Y-17961D01*
X45054Y-18009D01*
X45054Y-18180D01*
X44910Y-18180D01*
X44901Y-18157D01*
X44867Y-18123D01*
X44823Y-18105D01*
X44775Y-18105D01*
X44447Y-18105D01*
X44372Y-18054D01*
X44250Y-18030D01*
X44128Y-18054D01*
X44052Y-18105D01*
X44029Y-18105D01*
X43675Y-18105D01*
X43631Y-18123D01*
X43597Y-18157D01*
X43587Y-18180D01*
X43300Y-18180D01*
X43295Y-18180D01*
X43295Y-17981D01*
X43277Y-17937D01*
X43243Y-17903D01*
X43240Y-17901D01*
X43240Y-17725D01*
X43320Y-17645D01*
X43577Y-17645D01*
X43621Y-17627D01*
X43655Y-17593D01*
X43673Y-17549D01*
X43673Y-17501D01*
X43673Y-16951D01*
X43655Y-16907D01*
X43621Y-16873D01*
X43577Y-16855D01*
X43529Y-16855D01*
X43345Y-16855D01*
X43045Y-16554D01*
X43045Y-16251D01*
X43027Y-16207D01*
X42993Y-16173D01*
X42949Y-16155D01*
X42901Y-16155D01*
X42651Y-16155D01*
X42607Y-16173D01*
X42573Y-16207D01*
X42555Y-16251D01*
X42555Y-16299D01*
X42555Y-16330D01*
X42445Y-16330D01*
X42445Y-16251D01*
X42427Y-16207D01*
X42393Y-16173D01*
X42349Y-16155D01*
X42301Y-16155D01*
X42295Y-16155D01*
X41920Y-15780D01*
X41865Y-15743D01*
X41800Y-15730D01*
X41420Y-15730D01*
X41320Y-15629D01*
X41320Y-14858D01*
X41319Y-14857D01*
X41307Y-14793D01*
X41306Y-14792D01*
X41294Y-14774D01*
X41270Y-14738D01*
X41270Y-14737D01*
X40626Y-14094D01*
X40571Y-14057D01*
X40506Y-14044D01*
X38542Y-14044D01*
X36696Y-12198D01*
X36641Y-12161D01*
X36576Y-12148D01*
X31994Y-12148D01*
X32024Y-12104D01*
X32051Y-12115D01*
X32099Y-12115D01*
X32449Y-12115D01*
X32493Y-12097D01*
X32527Y-12063D01*
X32534Y-12045D01*
X32725Y-12045D01*
X32790Y-12032D01*
X32845Y-11995D01*
X33320Y-11520D01*
X33557Y-11520D01*
X33497Y-11580D01*
X33451Y-11690D01*
X33451Y-11809D01*
X33496Y-11919D01*
X33580Y-12003D01*
X33690Y-12049D01*
X33809Y-12049D01*
X33919Y-12004D01*
X34003Y-11920D01*
X34049Y-11810D01*
X34049Y-11720D01*
X36253Y-11720D01*
X36816Y-12283D01*
X36817Y-12283D01*
X36818Y-12284D01*
X38503Y-13970D01*
X38504Y-13970D01*
X38540Y-13994D01*
X38558Y-14006D01*
X38559Y-14007D01*
X38623Y-14019D01*
X38624Y-14020D01*
X39550Y-14020D01*
X41180Y-14020D01*
X41705Y-14545D01*
X41630Y-14726D01*
X41630Y-14973D01*
X41724Y-15201D01*
X41899Y-15375D01*
X42126Y-15470D01*
X42373Y-15470D01*
X42601Y-15376D01*
X42775Y-15201D01*
X42870Y-14974D01*
X42870Y-14727D01*
X42776Y-14499D01*
X42601Y-14325D01*
X42374Y-14230D01*
X42127Y-14230D01*
X41945Y-14305D01*
X41370Y-13730D01*
X41315Y-13693D01*
X41250Y-13680D01*
X39550Y-13680D01*
X38694Y-13680D01*
X38670Y-13656D01*
X41264Y-13656D01*
X41329Y-13643D01*
X41384Y-13606D01*
X41699Y-13290D01*
X41724Y-13351D01*
X41899Y-13525D01*
X42126Y-13620D01*
X42373Y-13620D01*
X42601Y-13526D01*
X42775Y-13351D01*
X42870Y-13124D01*
X42870Y-12877D01*
X42776Y-12649D01*
X42601Y-12475D01*
X42374Y-12380D01*
X42127Y-12380D01*
X41899Y-12474D01*
X41725Y-12649D01*
X41630Y-12876D01*
X41630Y-12880D01*
X41194Y-13316D01*
X38588Y-13316D01*
X36502Y-11230D01*
X36447Y-11193D01*
X36382Y-11180D01*
X34650Y-11180D01*
X33250Y-11180D01*
X33185Y-11193D01*
X33129Y-11230D01*
X32654Y-11705D01*
X32534Y-11705D01*
X32527Y-11687D01*
X32493Y-11653D01*
X32449Y-11635D01*
X32401Y-11635D01*
X32070Y-11635D01*
X32070Y-11365D01*
X32099Y-11365D01*
X32449Y-11365D01*
X32493Y-11347D01*
X32527Y-11313D01*
X32545Y-11269D01*
X32545Y-11221D01*
X32545Y-10981D01*
X32527Y-10937D01*
X32493Y-10903D01*
X32449Y-10885D01*
X32401Y-10885D01*
X32051Y-10885D01*
X32007Y-10903D01*
X32000Y-10909D01*
X31976Y-10874D01*
X31872Y-10804D01*
X31750Y-10780D01*
X31628Y-10804D01*
X31524Y-10874D01*
X31499Y-10909D01*
X31493Y-10903D01*
X31449Y-10885D01*
X31401Y-10885D01*
X31250Y-10885D01*
X31205Y-10885D01*
X31204Y-10881D01*
X31120Y-10797D01*
X31010Y-10751D01*
X30891Y-10751D01*
X30781Y-10796D01*
X30697Y-10880D01*
X30651Y-10990D01*
X30651Y-11109D01*
X30696Y-11219D01*
X30737Y-11260D01*
X30608Y-11260D01*
X30593Y-11245D01*
X30549Y-11227D01*
X30501Y-11227D01*
X29951Y-11227D01*
X29907Y-11245D01*
X29873Y-11279D01*
X29870Y-11284D01*
X29629Y-11284D01*
X29627Y-11279D01*
X29593Y-11245D01*
X29549Y-11227D01*
X29501Y-11227D01*
X28951Y-11227D01*
X28911Y-11243D01*
X28810Y-11201D01*
X28691Y-11201D01*
X28581Y-11246D01*
X28497Y-11330D01*
X28470Y-11330D01*
X28020Y-10880D01*
X27965Y-10843D01*
X27900Y-10830D01*
X21350Y-10830D01*
X19870Y-10830D01*
X19745Y-10705D01*
X19690Y-10668D01*
X19625Y-10655D01*
X13300Y-10655D01*
X12775Y-10655D01*
X12710Y-10668D01*
X12691Y-10680D01*
X12660Y-10701D01*
X12591Y-10701D01*
X12481Y-10746D01*
X12397Y-10830D01*
X12351Y-10940D01*
X12351Y-11059D01*
X12396Y-11169D01*
X12480Y-11253D01*
X12590Y-11299D01*
X12709Y-11299D01*
X12819Y-11254D01*
X12903Y-11170D01*
X12949Y-11060D01*
X12949Y-10995D01*
X13300Y-10995D01*
X17090Y-10995D01*
X16780Y-11305D01*
X16751Y-11305D01*
X16707Y-11323D01*
X16673Y-11357D01*
X16655Y-11401D01*
X16655Y-11449D01*
X16655Y-11655D01*
X16625Y-11655D01*
X16560Y-11668D01*
X16505Y-11705D01*
X16171Y-12039D01*
X16171Y-11951D01*
X16153Y-11907D01*
X16119Y-11873D01*
X16075Y-11855D01*
X16027Y-11855D01*
X15673Y-11855D01*
X15629Y-11873D01*
X15595Y-11907D01*
X15577Y-11951D01*
X15577Y-11999D01*
X15577Y-12549D01*
X15595Y-12593D01*
X15629Y-12627D01*
X15673Y-12645D01*
X15721Y-12645D01*
X15929Y-12645D01*
X16010Y-12725D01*
X16010Y-12901D01*
X16007Y-12903D01*
X15973Y-12937D01*
X15955Y-12981D01*
X15955Y-13029D01*
X15955Y-13180D01*
X15950Y-13180D01*
X15660Y-13180D01*
X15651Y-13157D01*
X15617Y-13123D01*
X15573Y-13105D01*
X15525Y-13105D01*
X15197Y-13105D01*
X15122Y-13054D01*
X15000Y-13030D01*
X14878Y-13054D01*
X14802Y-13105D01*
X14779Y-13105D01*
X14425Y-13105D01*
X14381Y-13123D01*
X14347Y-13157D01*
X14337Y-13180D01*
X12946Y-13180D01*
X12946Y-12961D01*
X12928Y-12917D01*
X12894Y-12883D01*
X12850Y-12865D01*
X12802Y-12865D01*
X12652Y-12865D01*
X12604Y-12865D01*
X12602Y-12865D01*
X12348Y-12865D01*
X12304Y-12883D01*
X12290Y-12897D01*
X12290Y-12210D01*
X10290Y-12210D01*
X10290Y-10290D01*
X47710Y-10290D01*
X47710Y-17210D01*
X47710Y-17210D01*
G37*
G54D53*
X47710Y-17210D02*
X45710Y-17210D01*
X45710Y-17897D01*
X45696Y-17883D01*
X45652Y-17865D01*
X45604Y-17865D01*
X45398Y-17865D01*
X45350Y-17865D01*
X45348Y-17865D01*
X45150Y-17865D01*
X45106Y-17883D01*
X45072Y-17917D01*
X45054Y-17961D01*
X45054Y-18009D01*
X45054Y-18180D01*
X44910Y-18180D01*
X44901Y-18157D01*
X44867Y-18123D01*
X44823Y-18105D01*
X44775Y-18105D01*
X44447Y-18105D01*
X44372Y-18054D01*
X44250Y-18030D01*
X44128Y-18054D01*
X44052Y-18105D01*
X44029Y-18105D01*
X43675Y-18105D01*
X43631Y-18123D01*
X43597Y-18157D01*
X43587Y-18180D01*
X43300Y-18180D01*
X43295Y-18180D01*
X43295Y-17981D01*
X43277Y-17937D01*
X43243Y-17903D01*
X43240Y-17901D01*
X43240Y-17725D01*
X43320Y-17645D01*
X43577Y-17645D01*
X43621Y-17627D01*
X43655Y-17593D01*
X43673Y-17549D01*
X43673Y-17501D01*
X43673Y-16951D01*
X43655Y-16907D01*
X43621Y-16873D01*
X43577Y-16855D01*
X43529Y-16855D01*
X43345Y-16855D01*
X43045Y-16554D01*
X43045Y-16251D01*
X43027Y-16207D01*
X42993Y-16173D01*
X42949Y-16155D01*
X42901Y-16155D01*
X42651Y-16155D01*
X42607Y-16173D01*
X42573Y-16207D01*
X42555Y-16251D01*
X42555Y-16299D01*
X42555Y-16330D01*
X42445Y-16330D01*
X42445Y-16251D01*
X42427Y-16207D01*
X42393Y-16173D01*
X42349Y-16155D01*
X42301Y-16155D01*
X42295Y-16155D01*
X41920Y-15780D01*
X41865Y-15743D01*
X41800Y-15730D01*
X41420Y-15730D01*
X41320Y-15629D01*
X41320Y-14858D01*
X41319Y-14857D01*
X41307Y-14793D01*
X41306Y-14792D01*
X41294Y-14774D01*
X41270Y-14738D01*
X41270Y-14737D01*
X40626Y-14094D01*
X40571Y-14057D01*
X40506Y-14044D01*
X38542Y-14044D01*
X36696Y-12198D01*
X36641Y-12161D01*
X36576Y-12148D01*
X31994Y-12148D01*
X32024Y-12104D01*
X32051Y-12115D01*
X32099Y-12115D01*
X32449Y-12115D01*
X32493Y-12097D01*
X32527Y-12063D01*
X32534Y-12045D01*
X32725Y-12045D01*
X32790Y-12032D01*
X32845Y-11995D01*
X33320Y-11520D01*
X33557Y-11520D01*
X33497Y-11580D01*
X33451Y-11690D01*
X33451Y-11809D01*
X33496Y-11919D01*
X33580Y-12003D01*
X33690Y-12049D01*
X33809Y-12049D01*
X33919Y-12004D01*
X34003Y-11920D01*
X34049Y-11810D01*
X34049Y-11720D01*
X36253Y-11720D01*
X36816Y-12283D01*
X36817Y-12283D01*
X36818Y-12284D01*
X38503Y-13970D01*
X38504Y-13970D01*
X38540Y-13994D01*
X38558Y-14006D01*
X38559Y-14007D01*
X38623Y-14019D01*
X38624Y-14020D01*
X39550Y-14020D01*
X41180Y-14020D01*
X41705Y-14545D01*
X41630Y-14726D01*
X41630Y-14973D01*
X41724Y-15201D01*
X41899Y-15375D01*
X42126Y-15470D01*
X42373Y-15470D01*
X42601Y-15376D01*
X42775Y-15201D01*
X42870Y-14974D01*
X42870Y-14727D01*
X42776Y-14499D01*
X42601Y-14325D01*
X42374Y-14230D01*
X42127Y-14230D01*
X41945Y-14305D01*
X41370Y-13730D01*
X41315Y-13693D01*
X41250Y-13680D01*
X39550Y-13680D01*
X38694Y-13680D01*
X38670Y-13656D01*
X41264Y-13656D01*
X41329Y-13643D01*
X41384Y-13606D01*
X41699Y-13290D01*
X41724Y-13351D01*
X41899Y-13525D01*
X42126Y-13620D01*
X42373Y-13620D01*
X42601Y-13526D01*
X42775Y-13351D01*
X42870Y-13124D01*
X42870Y-12877D01*
X42776Y-12649D01*
X42601Y-12475D01*
X42374Y-12380D01*
X42127Y-12380D01*
X41899Y-12474D01*
X41725Y-12649D01*
X41630Y-12876D01*
X41630Y-12880D01*
X41194Y-13316D01*
X38588Y-13316D01*
X36502Y-11230D01*
X36447Y-11193D01*
X36382Y-11180D01*
X34650Y-11180D01*
X33250Y-11180D01*
X33185Y-11193D01*
X33129Y-11230D01*
X32654Y-11705D01*
X32534Y-11705D01*
X32527Y-11687D01*
X32493Y-11653D01*
X32449Y-11635D01*
X32401Y-11635D01*
X32070Y-11635D01*
X32070Y-11365D01*
X32099Y-11365D01*
X32449Y-11365D01*
X32493Y-11347D01*
X32527Y-11313D01*
X32545Y-11269D01*
X32545Y-11221D01*
X32545Y-10981D01*
X32527Y-10937D01*
X32493Y-10903D01*
X32449Y-10885D01*
X32401Y-10885D01*
X32051Y-10885D01*
X32007Y-10903D01*
X32000Y-10909D01*
X31976Y-10874D01*
X31872Y-10804D01*
X31750Y-10780D01*
X31628Y-10804D01*
X31524Y-10874D01*
X31499Y-10909D01*
X31493Y-10903D01*
X31449Y-10885D01*
X31401Y-10885D01*
X31250Y-10885D01*
X31205Y-10885D01*
X31204Y-10881D01*
X31120Y-10797D01*
X31010Y-10751D01*
X30891Y-10751D01*
X30781Y-10796D01*
X30697Y-10880D01*
X30651Y-10990D01*
X30651Y-11109D01*
X30696Y-11219D01*
X30737Y-11260D01*
X30608Y-11260D01*
X30593Y-11245D01*
X30549Y-11227D01*
X30501Y-11227D01*
X29951Y-11227D01*
X29907Y-11245D01*
X29873Y-11279D01*
X29870Y-11284D01*
X29629Y-11284D01*
X29627Y-11279D01*
X29593Y-11245D01*
X29549Y-11227D01*
X29501Y-11227D01*
X28951Y-11227D01*
X28911Y-11243D01*
X28810Y-11201D01*
X28691Y-11201D01*
X28581Y-11246D01*
X28497Y-11330D01*
X28470Y-11330D01*
X28020Y-10880D01*
X27965Y-10843D01*
X27900Y-10830D01*
X21350Y-10830D01*
X19870Y-10830D01*
X19745Y-10705D01*
X19690Y-10668D01*
X19625Y-10655D01*
X13300Y-10655D01*
X12775Y-10655D01*
X12710Y-10668D01*
X12691Y-10680D01*
X12660Y-10701D01*
X12591Y-10701D01*
X12481Y-10746D01*
X12397Y-10830D01*
X12351Y-10940D01*
X12351Y-11059D01*
X12396Y-11169D01*
X12480Y-11253D01*
X12590Y-11299D01*
X12709Y-11299D01*
X12819Y-11254D01*
X12903Y-11170D01*
X12949Y-11060D01*
X12949Y-10995D01*
X13300Y-10995D01*
X17090Y-10995D01*
X16780Y-11305D01*
X16751Y-11305D01*
X16707Y-11323D01*
X16673Y-11357D01*
X16655Y-11401D01*
X16655Y-11449D01*
X16655Y-11655D01*
X16625Y-11655D01*
X16560Y-11668D01*
X16505Y-11705D01*
X16171Y-12039D01*
X16171Y-11951D01*
X16153Y-11907D01*
X16119Y-11873D01*
X16075Y-11855D01*
X16027Y-11855D01*
X15673Y-11855D01*
X15629Y-11873D01*
X15595Y-11907D01*
X15577Y-11951D01*
X15577Y-11999D01*
X15577Y-12549D01*
X15595Y-12593D01*
X15629Y-12627D01*
X15673Y-12645D01*
X15721Y-12645D01*
X15929Y-12645D01*
X16010Y-12725D01*
X16010Y-12901D01*
X16007Y-12903D01*
X15973Y-12937D01*
X15955Y-12981D01*
X15955Y-13029D01*
X15955Y-13180D01*
X15950Y-13180D01*
X15660Y-13180D01*
X15651Y-13157D01*
X15617Y-13123D01*
X15573Y-13105D01*
X15525Y-13105D01*
X15197Y-13105D01*
X15122Y-13054D01*
X15000Y-13030D01*
X14878Y-13054D01*
X14802Y-13105D01*
X14779Y-13105D01*
X14425Y-13105D01*
X14381Y-13123D01*
X14347Y-13157D01*
X14337Y-13180D01*
X12946Y-13180D01*
X12946Y-12961D01*
X12928Y-12917D01*
X12894Y-12883D01*
X12850Y-12865D01*
X12802Y-12865D01*
X12652Y-12865D01*
X12604Y-12865D01*
X12602Y-12865D01*
X12348Y-12865D01*
X12304Y-12883D01*
X12290Y-12897D01*
X12290Y-12210D01*
X10290Y-12210D01*
X10290Y-10290D01*
X47710Y-10290D01*
X47710Y-17210D01*
G54D10*
G36*
X47710Y-20960D02*
X42295Y-20960D01*
X42295Y-19019D01*
X42295Y-18971D01*
X42295Y-18731D01*
X42295Y-18269D01*
X42295Y-18221D01*
X42295Y-17981D01*
X42277Y-17937D01*
X42243Y-17903D01*
X42199Y-17885D01*
X42151Y-17885D01*
X42047Y-17885D01*
X42046Y-17878D01*
X41976Y-17774D01*
X41872Y-17704D01*
X41750Y-17680D01*
X41410Y-17680D01*
X41401Y-17657D01*
X41367Y-17623D01*
X41323Y-17605D01*
X41275Y-17605D01*
X40947Y-17605D01*
X40872Y-17554D01*
X40750Y-17530D01*
X40628Y-17554D01*
X40552Y-17605D01*
X40529Y-17605D01*
X40307Y-17605D01*
X36476Y-13774D01*
X36373Y-13704D01*
X36250Y-13680D01*
X28632Y-13680D01*
X27976Y-13024D01*
X27873Y-12954D01*
X27750Y-12930D01*
X20132Y-12930D01*
X19976Y-12774D01*
X19873Y-12704D01*
X19750Y-12680D01*
X19160Y-12680D01*
X19151Y-12657D01*
X19117Y-12623D01*
X19073Y-12605D01*
X19025Y-12605D01*
X18697Y-12605D01*
X18622Y-12554D01*
X18500Y-12530D01*
X18378Y-12554D01*
X18302Y-12605D01*
X18279Y-12605D01*
X17925Y-12605D01*
X17881Y-12623D01*
X17847Y-12657D01*
X17837Y-12680D01*
X17500Y-12680D01*
X17378Y-12704D01*
X17274Y-12774D01*
X17204Y-12878D01*
X17202Y-12885D01*
X17051Y-12885D01*
X17007Y-12903D01*
X16973Y-12937D01*
X16955Y-12981D01*
X16955Y-13029D01*
X16955Y-13269D01*
X16973Y-13313D01*
X17007Y-13347D01*
X17051Y-13365D01*
X17099Y-13365D01*
X17250Y-13365D01*
X17375Y-13365D01*
X17449Y-13365D01*
X17493Y-13347D01*
X17520Y-13320D01*
X17837Y-13320D01*
X17847Y-13343D01*
X17881Y-13377D01*
X17925Y-13395D01*
X17973Y-13395D01*
X18302Y-13395D01*
X18378Y-13446D01*
X18500Y-13470D01*
X18622Y-13446D01*
X18697Y-13395D01*
X18723Y-13395D01*
X19073Y-13395D01*
X19117Y-13377D01*
X19151Y-13343D01*
X19160Y-13320D01*
X19617Y-13320D01*
X19773Y-13476D01*
X19774Y-13476D01*
X19843Y-13522D01*
X19877Y-13545D01*
X19878Y-13546D01*
X20000Y-13570D01*
X27617Y-13570D01*
X28273Y-14226D01*
X28274Y-14226D01*
X28376Y-14295D01*
X28378Y-14296D01*
X28500Y-14320D01*
X36117Y-14320D01*
X40023Y-18226D01*
X40024Y-18226D01*
X40079Y-18263D01*
X40079Y-18299D01*
X40097Y-18343D01*
X40131Y-18377D01*
X40175Y-18395D01*
X40223Y-18395D01*
X40552Y-18395D01*
X40628Y-18446D01*
X40750Y-18470D01*
X40872Y-18446D01*
X40947Y-18395D01*
X40973Y-18395D01*
X41323Y-18395D01*
X41367Y-18377D01*
X41401Y-18343D01*
X41410Y-18320D01*
X41730Y-18320D01*
X41757Y-18347D01*
X41801Y-18365D01*
X41849Y-18365D01*
X41874Y-18365D01*
X41875Y-18365D01*
X42000Y-18365D01*
X42199Y-18365D01*
X42243Y-18347D01*
X42277Y-18313D01*
X42295Y-18269D01*
X42295Y-18731D01*
X42277Y-18687D01*
X42243Y-18653D01*
X42199Y-18635D01*
X42151Y-18635D01*
X42000Y-18635D01*
X41875Y-18635D01*
X41874Y-18635D01*
X41801Y-18635D01*
X41757Y-18653D01*
X41730Y-18680D01*
X41410Y-18680D01*
X41401Y-18657D01*
X41367Y-18623D01*
X41323Y-18605D01*
X41275Y-18605D01*
X40947Y-18605D01*
X40872Y-18554D01*
X40750Y-18530D01*
X40628Y-18554D01*
X40552Y-18605D01*
X40529Y-18605D01*
X40175Y-18605D01*
X40131Y-18623D01*
X40097Y-18657D01*
X40087Y-18680D01*
X39256Y-18680D01*
X39249Y-18677D01*
X39201Y-18677D01*
X38651Y-18677D01*
X38643Y-18680D01*
X38406Y-18680D01*
X38399Y-18677D01*
X38351Y-18677D01*
X37801Y-18677D01*
X37793Y-18680D01*
X37662Y-18680D01*
X37653Y-18657D01*
X37619Y-18623D01*
X37575Y-18605D01*
X37527Y-18605D01*
X37197Y-18605D01*
X37122Y-18554D01*
X37000Y-18530D01*
X36878Y-18554D01*
X36802Y-18605D01*
X36777Y-18605D01*
X36427Y-18605D01*
X36383Y-18623D01*
X36349Y-18657D01*
X36339Y-18680D01*
X36260Y-18680D01*
X36251Y-18657D01*
X36217Y-18623D01*
X36173Y-18605D01*
X36125Y-18605D01*
X35797Y-18605D01*
X35722Y-18554D01*
X35600Y-18530D01*
X35478Y-18554D01*
X35402Y-18605D01*
X35379Y-18605D01*
X35025Y-18605D01*
X34981Y-18623D01*
X34947Y-18657D01*
X34937Y-18680D01*
X33212Y-18680D01*
X33203Y-18657D01*
X33169Y-18623D01*
X33125Y-18605D01*
X33077Y-18605D01*
X32747Y-18605D01*
X32672Y-18554D01*
X32550Y-18530D01*
X32428Y-18554D01*
X32352Y-18605D01*
X32327Y-18605D01*
X32320Y-18605D01*
X32320Y-18132D01*
X32632Y-17820D01*
X34000Y-17820D01*
X34122Y-17796D01*
X34123Y-17796D01*
X34226Y-17726D01*
X34476Y-17477D01*
X34476Y-17476D01*
X34522Y-17407D01*
X34545Y-17373D01*
X34546Y-17372D01*
X34569Y-17250D01*
X34570Y-17250D01*
X34570Y-16750D01*
X34546Y-16628D01*
X34545Y-16627D01*
X34476Y-16524D01*
X34069Y-16117D01*
X34069Y-15951D01*
X34051Y-15907D01*
X34017Y-15873D01*
X33973Y-15855D01*
X33925Y-15855D01*
X33597Y-15855D01*
X33522Y-15804D01*
X33400Y-15780D01*
X33278Y-15804D01*
X33202Y-15855D01*
X33179Y-15855D01*
X32825Y-15855D01*
X32781Y-15873D01*
X32747Y-15907D01*
X32737Y-15930D01*
X32606Y-15930D01*
X32599Y-15927D01*
X32551Y-15927D01*
X32001Y-15927D01*
X31993Y-15930D01*
X31756Y-15930D01*
X31749Y-15927D01*
X31701Y-15927D01*
X31151Y-15927D01*
X31143Y-15930D01*
X31012Y-15930D01*
X31003Y-15907D01*
X30969Y-15873D01*
X30925Y-15855D01*
X30877Y-15855D01*
X30547Y-15855D01*
X30472Y-15804D01*
X30350Y-15780D01*
X30228Y-15804D01*
X30152Y-15855D01*
X30127Y-15855D01*
X29777Y-15855D01*
X29733Y-15873D01*
X29699Y-15907D01*
X29689Y-15930D01*
X29610Y-15930D01*
X29601Y-15907D01*
X29567Y-15873D01*
X29523Y-15855D01*
X29475Y-15855D01*
X29147Y-15855D01*
X29072Y-15804D01*
X28950Y-15780D01*
X28828Y-15804D01*
X28752Y-15855D01*
X28729Y-15855D01*
X28375Y-15855D01*
X28331Y-15873D01*
X28297Y-15907D01*
X28287Y-15930D01*
X26882Y-15930D01*
X25876Y-14924D01*
X25773Y-14854D01*
X25650Y-14830D01*
X24600Y-14830D01*
X24478Y-14854D01*
X24443Y-14877D01*
X24373Y-14924D01*
X23774Y-15524D01*
X23704Y-15627D01*
X23703Y-15630D01*
X23651Y-15630D01*
X23607Y-15648D01*
X23573Y-15682D01*
X23555Y-15726D01*
X23555Y-15774D01*
X23555Y-16774D01*
X23573Y-16818D01*
X23607Y-16852D01*
X23651Y-16870D01*
X23699Y-16870D01*
X24349Y-16870D01*
X24393Y-16852D01*
X24427Y-16818D01*
X24445Y-16774D01*
X24445Y-16726D01*
X24445Y-15757D01*
X24732Y-15470D01*
X25517Y-15470D01*
X26523Y-16476D01*
X26524Y-16476D01*
X26593Y-16522D01*
X26627Y-16545D01*
X26628Y-16546D01*
X26652Y-16550D01*
X26657Y-16555D01*
X26701Y-16573D01*
X26749Y-16573D01*
X27299Y-16573D01*
X27306Y-16570D01*
X27543Y-16570D01*
X27551Y-16573D01*
X27599Y-16573D01*
X28149Y-16573D01*
X28156Y-16570D01*
X28287Y-16570D01*
X28297Y-16593D01*
X28331Y-16627D01*
X28375Y-16645D01*
X28423Y-16645D01*
X28752Y-16645D01*
X28828Y-16696D01*
X28950Y-16720D01*
X29072Y-16696D01*
X29147Y-16645D01*
X29173Y-16645D01*
X29523Y-16645D01*
X29567Y-16627D01*
X29601Y-16593D01*
X29610Y-16570D01*
X29689Y-16570D01*
X29699Y-16593D01*
X29733Y-16627D01*
X29777Y-16645D01*
X29825Y-16645D01*
X30152Y-16645D01*
X30228Y-16696D01*
X30350Y-16720D01*
X30472Y-16696D01*
X30547Y-16645D01*
X30571Y-16645D01*
X30925Y-16645D01*
X30969Y-16627D01*
X31003Y-16593D01*
X31012Y-16570D01*
X32737Y-16570D01*
X32747Y-16593D01*
X32781Y-16627D01*
X32825Y-16645D01*
X32873Y-16645D01*
X33202Y-16645D01*
X33278Y-16696D01*
X33400Y-16720D01*
X33522Y-16696D01*
X33597Y-16645D01*
X33623Y-16645D01*
X33693Y-16645D01*
X33930Y-16882D01*
X33930Y-17117D01*
X33867Y-17180D01*
X32500Y-17180D01*
X32378Y-17204D01*
X32274Y-17274D01*
X31774Y-17774D01*
X31704Y-17877D01*
X31680Y-18000D01*
X31680Y-18824D01*
X31704Y-18947D01*
X31774Y-19050D01*
X31881Y-19157D01*
X31881Y-19299D01*
X31899Y-19343D01*
X31933Y-19377D01*
X31977Y-19395D01*
X32025Y-19395D01*
X32352Y-19395D01*
X32428Y-19446D01*
X32550Y-19470D01*
X32672Y-19446D01*
X32747Y-19395D01*
X32771Y-19395D01*
X33125Y-19395D01*
X33169Y-19377D01*
X33203Y-19343D01*
X33212Y-19320D01*
X33343Y-19320D01*
X33351Y-19323D01*
X33399Y-19323D01*
X33949Y-19323D01*
X33956Y-19320D01*
X34193Y-19320D01*
X34201Y-19323D01*
X34249Y-19323D01*
X34799Y-19323D01*
X34806Y-19320D01*
X34937Y-19320D01*
X34947Y-19343D01*
X34981Y-19377D01*
X35025Y-19395D01*
X35073Y-19395D01*
X35402Y-19395D01*
X35478Y-19446D01*
X35600Y-19470D01*
X35722Y-19446D01*
X35797Y-19395D01*
X35823Y-19395D01*
X36173Y-19395D01*
X36217Y-19377D01*
X36251Y-19343D01*
X36260Y-19320D01*
X36339Y-19320D01*
X36349Y-19343D01*
X36383Y-19377D01*
X36427Y-19395D01*
X36475Y-19395D01*
X36802Y-19395D01*
X36878Y-19446D01*
X37000Y-19470D01*
X37122Y-19446D01*
X37197Y-19395D01*
X37221Y-19395D01*
X37575Y-19395D01*
X37619Y-19377D01*
X37653Y-19343D01*
X37662Y-19320D01*
X40087Y-19320D01*
X40097Y-19343D01*
X40131Y-19377D01*
X40175Y-19395D01*
X40223Y-19395D01*
X40552Y-19395D01*
X40628Y-19446D01*
X40750Y-19470D01*
X40872Y-19446D01*
X40947Y-19395D01*
X40973Y-19395D01*
X41323Y-19395D01*
X41367Y-19377D01*
X41401Y-19343D01*
X41410Y-19320D01*
X41750Y-19320D01*
X41872Y-19296D01*
X41976Y-19226D01*
X42046Y-19122D01*
X42047Y-19115D01*
X42199Y-19115D01*
X42243Y-19097D01*
X42277Y-19063D01*
X42295Y-19019D01*
X42295Y-20960D01*
X29460Y-20960D01*
X29460Y-27710D01*
X29020Y-27710D01*
X29020Y-22800D01*
X28996Y-22678D01*
X28945Y-22602D01*
X28945Y-22577D01*
X28945Y-22227D01*
X28927Y-22183D01*
X28893Y-22149D01*
X28870Y-22139D01*
X28870Y-22060D01*
X28893Y-22051D01*
X28927Y-22017D01*
X28945Y-21973D01*
X28945Y-21925D01*
X28945Y-21597D01*
X28996Y-21522D01*
X29020Y-21400D01*
X28996Y-21278D01*
X28945Y-21202D01*
X28945Y-21179D01*
X28945Y-20825D01*
X28927Y-20781D01*
X28893Y-20747D01*
X28870Y-20737D01*
X28870Y-19000D01*
X28846Y-18878D01*
X28845Y-18876D01*
X28776Y-18774D01*
X28776Y-18773D01*
X28026Y-18024D01*
X27923Y-17954D01*
X27800Y-17930D01*
X25445Y-17930D01*
X25445Y-17726D01*
X25427Y-17682D01*
X25393Y-17648D01*
X25349Y-17630D01*
X25301Y-17630D01*
X24651Y-17630D01*
X24607Y-17648D01*
X24573Y-17682D01*
X24555Y-17726D01*
X24555Y-17774D01*
X24555Y-18774D01*
X24573Y-18818D01*
X24607Y-18852D01*
X24651Y-18870D01*
X24699Y-18870D01*
X25349Y-18870D01*
X25393Y-18852D01*
X25427Y-18818D01*
X25445Y-18774D01*
X25445Y-18726D01*
X25445Y-18570D01*
X27667Y-18570D01*
X28227Y-19129D01*
X28227Y-19649D01*
X28230Y-19656D01*
X28230Y-19943D01*
X28227Y-19951D01*
X28227Y-19999D01*
X28227Y-20549D01*
X28230Y-20556D01*
X28230Y-20737D01*
X28207Y-20747D01*
X28173Y-20781D01*
X28155Y-20825D01*
X28155Y-20873D01*
X28155Y-21202D01*
X28104Y-21278D01*
X28080Y-21400D01*
X28104Y-21522D01*
X28155Y-21597D01*
X28155Y-21623D01*
X28155Y-21973D01*
X28173Y-22017D01*
X28207Y-22051D01*
X28230Y-22060D01*
X28230Y-22139D01*
X28207Y-22149D01*
X28173Y-22183D01*
X28155Y-22227D01*
X28155Y-22275D01*
X28155Y-22602D01*
X28104Y-22678D01*
X28080Y-22800D01*
X28104Y-22922D01*
X28155Y-22997D01*
X28155Y-23021D01*
X28155Y-23375D01*
X28173Y-23419D01*
X28207Y-23453D01*
X28230Y-23462D01*
X28230Y-23643D01*
X28227Y-23651D01*
X28227Y-23699D01*
X28227Y-24249D01*
X28230Y-24256D01*
X28230Y-24543D01*
X28227Y-24551D01*
X28227Y-24599D01*
X28227Y-25149D01*
X28230Y-25156D01*
X28230Y-25617D01*
X27792Y-26055D01*
X27547Y-26055D01*
X27472Y-26004D01*
X27350Y-25980D01*
X27228Y-26004D01*
X27152Y-26055D01*
X27127Y-26055D01*
X26777Y-26055D01*
X26733Y-26073D01*
X26704Y-26101D01*
X26570Y-25967D01*
X26570Y-25475D01*
X26546Y-25353D01*
X26483Y-25260D01*
X26500Y-25260D01*
X26561Y-25248D01*
X26562Y-25248D01*
X26613Y-25213D01*
X26713Y-25113D01*
X26747Y-25062D01*
X26748Y-25061D01*
X26760Y-25000D01*
X26760Y-23568D01*
X27067Y-23262D01*
X27067Y-23261D01*
X27089Y-23227D01*
X27101Y-23210D01*
X27102Y-23209D01*
X27113Y-23148D01*
X27114Y-23148D01*
X27114Y-22500D01*
X27114Y-19860D01*
X27113Y-19859D01*
X27102Y-19799D01*
X27101Y-19798D01*
X27089Y-19781D01*
X27067Y-19747D01*
X27067Y-19746D01*
X26435Y-19115D01*
X26384Y-19080D01*
X26322Y-19068D01*
X23445Y-19068D01*
X23445Y-16774D01*
X23445Y-16726D01*
X23445Y-15726D01*
X23427Y-15682D01*
X23393Y-15648D01*
X23349Y-15630D01*
X23301Y-15630D01*
X22651Y-15630D01*
X22607Y-15648D01*
X22573Y-15682D01*
X22555Y-15726D01*
X22555Y-15774D01*
X22555Y-15930D01*
X22250Y-15930D01*
X22128Y-15954D01*
X22024Y-16024D01*
X21524Y-16524D01*
X21454Y-16627D01*
X21430Y-16750D01*
X21430Y-17368D01*
X21118Y-17680D01*
X21056Y-17680D01*
X21049Y-17677D01*
X21001Y-17677D01*
X20451Y-17677D01*
X20443Y-17680D01*
X20194Y-17680D01*
X20194Y-17150D01*
X20170Y-17028D01*
X20169Y-17026D01*
X20169Y-16851D01*
X20151Y-16807D01*
X20117Y-16773D01*
X20073Y-16755D01*
X20025Y-16755D01*
X19697Y-16755D01*
X19622Y-16704D01*
X19500Y-16680D01*
X19378Y-16704D01*
X19302Y-16755D01*
X19279Y-16755D01*
X18925Y-16755D01*
X18881Y-16773D01*
X18847Y-16807D01*
X18829Y-16851D01*
X18829Y-16899D01*
X18829Y-17033D01*
X18806Y-17150D01*
X18806Y-17680D01*
X18556Y-17680D01*
X18549Y-17677D01*
X18501Y-17677D01*
X17951Y-17677D01*
X17943Y-17680D01*
X17694Y-17680D01*
X17694Y-17150D01*
X17670Y-17028D01*
X17669Y-17026D01*
X17669Y-16851D01*
X17651Y-16807D01*
X17617Y-16773D01*
X17573Y-16755D01*
X17525Y-16755D01*
X17197Y-16755D01*
X17122Y-16704D01*
X17000Y-16680D01*
X16878Y-16704D01*
X16802Y-16755D01*
X16779Y-16755D01*
X16425Y-16755D01*
X16381Y-16773D01*
X16347Y-16807D01*
X16329Y-16851D01*
X16329Y-16899D01*
X16329Y-17033D01*
X16306Y-17150D01*
X16306Y-17680D01*
X16056Y-17680D01*
X16049Y-17677D01*
X16001Y-17677D01*
X15451Y-17677D01*
X15443Y-17680D01*
X15194Y-17680D01*
X15194Y-17150D01*
X15170Y-17028D01*
X15169Y-17026D01*
X15169Y-16851D01*
X15151Y-16807D01*
X15117Y-16773D01*
X15073Y-16755D01*
X15025Y-16755D01*
X14697Y-16755D01*
X14622Y-16704D01*
X14500Y-16680D01*
X14378Y-16704D01*
X14302Y-16755D01*
X14279Y-16755D01*
X13925Y-16755D01*
X13881Y-16773D01*
X13847Y-16807D01*
X13829Y-16851D01*
X13829Y-16899D01*
X13829Y-17033D01*
X13806Y-17150D01*
X13806Y-17680D01*
X13556Y-17680D01*
X13549Y-17677D01*
X13501Y-17677D01*
X12951Y-17677D01*
X12943Y-17680D01*
X12882Y-17680D01*
X12570Y-17368D01*
X12570Y-16632D01*
X13132Y-16070D01*
X13750Y-16070D01*
X19250Y-16070D01*
X19372Y-16046D01*
X19373Y-16046D01*
X19476Y-15976D01*
X19976Y-15476D01*
X20045Y-15373D01*
X20046Y-15372D01*
X20070Y-15250D01*
X20070Y-14500D01*
X20046Y-14378D01*
X20045Y-14377D01*
X19976Y-14274D01*
X19476Y-13774D01*
X19373Y-13704D01*
X19250Y-13680D01*
X19160Y-13680D01*
X19151Y-13657D01*
X19117Y-13623D01*
X19073Y-13605D01*
X19025Y-13605D01*
X18697Y-13605D01*
X18622Y-13554D01*
X18500Y-13530D01*
X18378Y-13554D01*
X18302Y-13605D01*
X18279Y-13605D01*
X17925Y-13605D01*
X17881Y-13623D01*
X17847Y-13657D01*
X17837Y-13680D01*
X17520Y-13680D01*
X17493Y-13653D01*
X17449Y-13635D01*
X17401Y-13635D01*
X17375Y-13635D01*
X17250Y-13635D01*
X17051Y-13635D01*
X17007Y-13653D01*
X16973Y-13687D01*
X16955Y-13731D01*
X16955Y-13779D01*
X16955Y-14019D01*
X16973Y-14063D01*
X17007Y-14097D01*
X17051Y-14115D01*
X17099Y-14115D01*
X17202Y-14115D01*
X17204Y-14122D01*
X17274Y-14226D01*
X17378Y-14296D01*
X17500Y-14320D01*
X17837Y-14320D01*
X17847Y-14343D01*
X17881Y-14377D01*
X17925Y-14395D01*
X17973Y-14395D01*
X18302Y-14395D01*
X18378Y-14446D01*
X18500Y-14470D01*
X18622Y-14446D01*
X18697Y-14395D01*
X18723Y-14395D01*
X19073Y-14395D01*
X19117Y-14377D01*
X19146Y-14348D01*
X19430Y-14632D01*
X19430Y-15118D01*
X19118Y-15430D01*
X13750Y-15430D01*
X13000Y-15430D01*
X12878Y-15454D01*
X12876Y-15454D01*
X12876Y-15455D01*
X12773Y-15524D01*
X12024Y-16274D01*
X11954Y-16377D01*
X11930Y-16500D01*
X11930Y-17500D01*
X11954Y-17623D01*
X12024Y-17726D01*
X12524Y-18226D01*
X12627Y-18295D01*
X12628Y-18296D01*
X12750Y-18320D01*
X13839Y-18320D01*
X13849Y-18343D01*
X13883Y-18377D01*
X13927Y-18395D01*
X13975Y-18395D01*
X14302Y-18395D01*
X14378Y-18446D01*
X14500Y-18470D01*
X14622Y-18446D01*
X14697Y-18395D01*
X14721Y-18395D01*
X15075Y-18395D01*
X15119Y-18377D01*
X15153Y-18343D01*
X15162Y-18320D01*
X16339Y-18320D01*
X16349Y-18343D01*
X16383Y-18377D01*
X16427Y-18395D01*
X16475Y-18395D01*
X16802Y-18395D01*
X16878Y-18446D01*
X17000Y-18470D01*
X17122Y-18446D01*
X17197Y-18395D01*
X17221Y-18395D01*
X17575Y-18395D01*
X17619Y-18377D01*
X17653Y-18343D01*
X17662Y-18320D01*
X18839Y-18320D01*
X18849Y-18343D01*
X18883Y-18377D01*
X18927Y-18395D01*
X18975Y-18395D01*
X19302Y-18395D01*
X19378Y-18446D01*
X19500Y-18470D01*
X19622Y-18446D01*
X19697Y-18395D01*
X19721Y-18395D01*
X20075Y-18395D01*
X20119Y-18377D01*
X20153Y-18343D01*
X20162Y-18320D01*
X21250Y-18320D01*
X21372Y-18296D01*
X21373Y-18296D01*
X21476Y-18226D01*
X21976Y-17726D01*
X22045Y-17623D01*
X22046Y-17622D01*
X22070Y-17500D01*
X22070Y-16882D01*
X22382Y-16570D01*
X22555Y-16570D01*
X22555Y-16774D01*
X22573Y-16818D01*
X22607Y-16852D01*
X22651Y-16870D01*
X22699Y-16870D01*
X23349Y-16870D01*
X23393Y-16852D01*
X23427Y-16818D01*
X23445Y-16774D01*
X23445Y-19068D01*
X13975Y-19068D01*
X13238Y-19068D01*
X12685Y-18515D01*
X12634Y-18480D01*
X12572Y-18468D01*
X12100Y-18468D01*
X11795Y-18468D01*
X11799Y-18460D01*
X11799Y-18341D01*
X11754Y-18231D01*
X11670Y-18147D01*
X11560Y-18101D01*
X11441Y-18101D01*
X11331Y-18146D01*
X11247Y-18230D01*
X11201Y-18340D01*
X11201Y-18459D01*
X11246Y-18569D01*
X11307Y-18630D01*
X11274Y-18630D01*
X11254Y-18581D01*
X11170Y-18497D01*
X11060Y-18451D01*
X10941Y-18451D01*
X10831Y-18496D01*
X10747Y-18580D01*
X10701Y-18690D01*
X10701Y-18809D01*
X10746Y-18919D01*
X10830Y-19003D01*
X10940Y-19049D01*
X11059Y-19049D01*
X11169Y-19004D01*
X11203Y-18970D01*
X12429Y-18970D01*
X12979Y-19520D01*
X12980Y-19520D01*
X13035Y-19557D01*
X13100Y-19570D01*
X14550Y-19570D01*
X25700Y-19570D01*
X26180Y-19570D01*
X26612Y-20002D01*
X26612Y-23005D01*
X26437Y-23180D01*
X25999Y-23180D01*
X25950Y-23170D01*
X25900Y-23170D01*
X25800Y-23170D01*
X24574Y-23170D01*
X23877Y-22473D01*
X23819Y-22434D01*
X23750Y-22420D01*
X17694Y-22420D01*
X17628Y-22376D01*
X17617Y-22373D01*
X17593Y-22349D01*
X17549Y-22331D01*
X17501Y-22331D01*
X16951Y-22331D01*
X16907Y-22349D01*
X16901Y-22355D01*
X16850Y-22355D01*
X16250Y-22355D01*
X16147Y-22376D01*
X16133Y-22385D01*
X16051Y-22385D01*
X16007Y-22403D01*
X15973Y-22437D01*
X15955Y-22481D01*
X15955Y-22529D01*
X15955Y-22769D01*
X15973Y-22813D01*
X16007Y-22847D01*
X16051Y-22865D01*
X16099Y-22865D01*
X16133Y-22865D01*
X16147Y-22874D01*
X16250Y-22895D01*
X16850Y-22895D01*
X16899Y-22895D01*
X16907Y-22903D01*
X16951Y-22921D01*
X16999Y-22921D01*
X17454Y-22921D01*
X17497Y-22949D01*
X17600Y-22970D01*
X18388Y-22970D01*
X18572Y-23154D01*
X18554Y-23250D01*
X18554Y-23424D01*
X18554Y-24000D01*
X18554Y-24250D01*
X18554Y-24626D01*
X18554Y-25250D01*
X18577Y-25366D01*
X18577Y-25549D01*
X18595Y-25593D01*
X18629Y-25627D01*
X18673Y-25645D01*
X18721Y-25645D01*
X19075Y-25645D01*
X19119Y-25627D01*
X19153Y-25593D01*
X19171Y-25549D01*
X19171Y-25501D01*
X19171Y-25366D01*
X19194Y-25250D01*
X19194Y-24758D01*
X19632Y-24320D01*
X20192Y-24320D01*
X20248Y-24376D01*
X20411Y-24444D01*
X20588Y-24444D01*
X20751Y-24377D01*
X20876Y-24252D01*
X20944Y-24089D01*
X20944Y-23912D01*
X20877Y-23749D01*
X20752Y-23624D01*
X20589Y-23556D01*
X20412Y-23556D01*
X20249Y-23623D01*
X20192Y-23680D01*
X19582Y-23680D01*
X19194Y-23291D01*
X19194Y-23250D01*
X19171Y-23133D01*
X19171Y-22951D01*
X19153Y-22907D01*
X19119Y-22873D01*
X19075Y-22855D01*
X19037Y-22855D01*
X18962Y-22780D01*
X23675Y-22780D01*
X24372Y-23477D01*
X24373Y-23477D01*
X24431Y-23516D01*
X24500Y-23530D01*
X25800Y-23530D01*
X25876Y-23530D01*
X25907Y-23561D01*
X25879Y-23573D01*
X25845Y-23607D01*
X25827Y-23651D01*
X25827Y-23699D01*
X25827Y-24249D01*
X25845Y-24293D01*
X25879Y-24327D01*
X25923Y-24345D01*
X25971Y-24345D01*
X26030Y-24345D01*
X26030Y-24504D01*
X25976Y-24424D01*
X25872Y-24354D01*
X25750Y-24330D01*
X25628Y-24354D01*
X25524Y-24424D01*
X25459Y-24519D01*
X25424Y-24505D01*
X25376Y-24505D01*
X25076Y-24505D01*
X25032Y-24523D01*
X24998Y-24557D01*
X24980Y-24601D01*
X24980Y-24649D01*
X24980Y-24849D01*
X24992Y-24880D01*
X24691Y-24880D01*
X23931Y-24119D01*
X23944Y-24089D01*
X23944Y-23912D01*
X23877Y-23749D01*
X23752Y-23624D01*
X23589Y-23556D01*
X23412Y-23556D01*
X23249Y-23623D01*
X23124Y-23748D01*
X23056Y-23911D01*
X23056Y-24088D01*
X23123Y-24251D01*
X23248Y-24376D01*
X23411Y-24444D01*
X23588Y-24444D01*
X23619Y-24431D01*
X24442Y-25253D01*
X24444Y-25256D01*
X24515Y-25302D01*
X24516Y-25303D01*
X24600Y-25320D01*
X25076Y-25320D01*
X25124Y-25320D01*
X25250Y-25320D01*
X25342Y-25320D01*
X25304Y-25377D01*
X25280Y-25500D01*
X25304Y-25623D01*
X25374Y-25726D01*
X25477Y-25796D01*
X25498Y-25800D01*
X25159Y-26140D01*
X22944Y-26140D01*
X22944Y-24089D01*
X22944Y-23912D01*
X22877Y-23749D01*
X22752Y-23624D01*
X22589Y-23556D01*
X22412Y-23556D01*
X22249Y-23623D01*
X22124Y-23748D01*
X22056Y-23911D01*
X22056Y-24088D01*
X22123Y-24251D01*
X22248Y-24376D01*
X22411Y-24444D01*
X22588Y-24444D01*
X22751Y-24377D01*
X22876Y-24252D01*
X22944Y-24089D01*
X22944Y-26140D01*
X22700Y-26140D01*
X21944Y-26140D01*
X21944Y-24089D01*
X21944Y-23912D01*
X21877Y-23749D01*
X21752Y-23624D01*
X21589Y-23556D01*
X21412Y-23556D01*
X21249Y-23623D01*
X21124Y-23748D01*
X21056Y-23911D01*
X21056Y-24088D01*
X21123Y-24251D01*
X21248Y-24376D01*
X21411Y-24444D01*
X21588Y-24444D01*
X21751Y-24377D01*
X21876Y-24252D01*
X21944Y-24089D01*
X21944Y-26140D01*
X21200Y-26140D01*
X21139Y-26152D01*
X21087Y-26187D01*
X21086Y-26187D01*
X21086Y-26188D01*
X20680Y-26593D01*
X20589Y-26556D01*
X20412Y-26556D01*
X20249Y-26623D01*
X20124Y-26748D01*
X20056Y-26911D01*
X20056Y-27088D01*
X20123Y-27251D01*
X20248Y-27376D01*
X20411Y-27444D01*
X20588Y-27444D01*
X20751Y-27377D01*
X20876Y-27252D01*
X20944Y-27089D01*
X20944Y-26912D01*
X20906Y-26819D01*
X21266Y-26460D01*
X22700Y-26460D01*
X25225Y-26460D01*
X25286Y-26448D01*
X25287Y-26448D01*
X25338Y-26413D01*
X25863Y-25888D01*
X25897Y-25837D01*
X25898Y-25836D01*
X25909Y-25775D01*
X25910Y-25775D01*
X25910Y-25642D01*
X25930Y-25622D01*
X25930Y-26100D01*
X25936Y-26131D01*
X25901Y-26131D01*
X25857Y-26149D01*
X25823Y-26183D01*
X25805Y-26227D01*
X25805Y-26275D01*
X25805Y-26625D01*
X25823Y-26669D01*
X25857Y-26703D01*
X25901Y-26721D01*
X25949Y-26721D01*
X26440Y-26721D01*
X26476Y-26745D01*
X26478Y-26746D01*
X26599Y-26769D01*
X26600Y-26770D01*
X26689Y-26770D01*
X26699Y-26793D01*
X26733Y-26827D01*
X26777Y-26845D01*
X26825Y-26845D01*
X27152Y-26845D01*
X27228Y-26896D01*
X27350Y-26920D01*
X27472Y-26896D01*
X27547Y-26845D01*
X27571Y-26845D01*
X27925Y-26845D01*
X27969Y-26827D01*
X28003Y-26793D01*
X28021Y-26749D01*
X28021Y-26713D01*
X28076Y-26676D01*
X28331Y-26421D01*
X28849Y-26421D01*
X28893Y-26403D01*
X28927Y-26369D01*
X28945Y-26325D01*
X28945Y-26277D01*
X28945Y-25927D01*
X28927Y-25883D01*
X28893Y-25849D01*
X28853Y-25832D01*
X28869Y-25751D01*
X28870Y-25750D01*
X28870Y-23462D01*
X28893Y-23453D01*
X28927Y-23419D01*
X28945Y-23375D01*
X28945Y-23327D01*
X28945Y-22997D01*
X28996Y-22922D01*
X29020Y-22800D01*
X29020Y-27710D01*
X22944Y-27710D01*
X22944Y-27089D01*
X22944Y-26912D01*
X22877Y-26749D01*
X22752Y-26624D01*
X22589Y-26556D01*
X22412Y-26556D01*
X22249Y-26623D01*
X22124Y-26748D01*
X22056Y-26911D01*
X22056Y-27088D01*
X22123Y-27251D01*
X22248Y-27376D01*
X22411Y-27444D01*
X22588Y-27444D01*
X22751Y-27377D01*
X22876Y-27252D01*
X22944Y-27089D01*
X22944Y-27710D01*
X21944Y-27710D01*
X21944Y-27089D01*
X21944Y-26912D01*
X21877Y-26749D01*
X21752Y-26624D01*
X21589Y-26556D01*
X21412Y-26556D01*
X21249Y-26623D01*
X21124Y-26748D01*
X21056Y-26911D01*
X21056Y-27088D01*
X21123Y-27251D01*
X21248Y-27376D01*
X21411Y-27444D01*
X21588Y-27444D01*
X21751Y-27377D01*
X21876Y-27252D01*
X21944Y-27089D01*
X21944Y-27710D01*
X17790Y-27710D01*
X17790Y-25710D01*
X16540Y-25710D01*
X16540Y-24645D01*
X16575Y-24645D01*
X16619Y-24627D01*
X16653Y-24593D01*
X16671Y-24549D01*
X16671Y-24501D01*
X16671Y-24020D01*
X16762Y-24020D01*
X16855Y-24112D01*
X16855Y-24325D01*
X16873Y-24369D01*
X16907Y-24403D01*
X16951Y-24421D01*
X16999Y-24421D01*
X17549Y-24421D01*
X17593Y-24403D01*
X17627Y-24369D01*
X17645Y-24325D01*
X17645Y-24277D01*
X17645Y-23927D01*
X17627Y-23883D01*
X17593Y-23849D01*
X17549Y-23831D01*
X17501Y-23831D01*
X17336Y-23831D01*
X17255Y-23750D01*
X17334Y-23671D01*
X17549Y-23671D01*
X17593Y-23653D01*
X17627Y-23619D01*
X17645Y-23575D01*
X17645Y-23527D01*
X17645Y-23173D01*
X17627Y-23129D01*
X17593Y-23095D01*
X17549Y-23077D01*
X17501Y-23077D01*
X16951Y-23077D01*
X16907Y-23095D01*
X16873Y-23129D01*
X16855Y-23173D01*
X16855Y-23221D01*
X16855Y-23387D01*
X16762Y-23480D01*
X16612Y-23480D01*
X16545Y-23413D01*
X16545Y-23231D01*
X16527Y-23187D01*
X16493Y-23153D01*
X16449Y-23135D01*
X16401Y-23135D01*
X16366Y-23135D01*
X16353Y-23126D01*
X16250Y-23105D01*
X16147Y-23126D01*
X16133Y-23135D01*
X16051Y-23135D01*
X16007Y-23153D01*
X15973Y-23187D01*
X15955Y-23231D01*
X15955Y-23279D01*
X15955Y-23519D01*
X15973Y-23563D01*
X15980Y-23570D01*
X15980Y-23850D01*
X16001Y-23953D01*
X16059Y-24041D01*
X16077Y-24059D01*
X16077Y-24460D01*
X15040Y-24460D01*
X15040Y-23610D01*
X15051Y-23615D01*
X15099Y-23615D01*
X15449Y-23615D01*
X15493Y-23597D01*
X15527Y-23563D01*
X15545Y-23519D01*
X15545Y-23471D01*
X15545Y-23231D01*
X15527Y-23187D01*
X15493Y-23153D01*
X15449Y-23135D01*
X15401Y-23135D01*
X15051Y-23135D01*
X15040Y-23139D01*
X15040Y-22860D01*
X15051Y-22865D01*
X15099Y-22865D01*
X15449Y-22865D01*
X15493Y-22847D01*
X15527Y-22813D01*
X15545Y-22769D01*
X15545Y-22721D01*
X15545Y-22481D01*
X15527Y-22437D01*
X15493Y-22403D01*
X15449Y-22385D01*
X15401Y-22385D01*
X15051Y-22385D01*
X15040Y-22389D01*
X15040Y-22040D01*
X24960Y-22040D01*
X24960Y-23040D01*
X26540Y-23040D01*
X26540Y-19960D01*
X10290Y-19960D01*
X10290Y-14790D01*
X12290Y-14790D01*
X12290Y-14103D01*
X12304Y-14117D01*
X12348Y-14135D01*
X12396Y-14135D01*
X12602Y-14135D01*
X12650Y-14135D01*
X12652Y-14135D01*
X12850Y-14135D01*
X12894Y-14117D01*
X12928Y-14083D01*
X12946Y-14039D01*
X12946Y-13991D01*
X12946Y-13820D01*
X13430Y-13820D01*
X13438Y-13823D01*
X13486Y-13823D01*
X13762Y-13823D01*
X13769Y-13820D01*
X14337Y-13820D01*
X14347Y-13843D01*
X14381Y-13877D01*
X14425Y-13895D01*
X14473Y-13895D01*
X14802Y-13895D01*
X14878Y-13946D01*
X15000Y-13970D01*
X15122Y-13946D01*
X15197Y-13895D01*
X15223Y-13895D01*
X15573Y-13895D01*
X15617Y-13877D01*
X15651Y-13843D01*
X15660Y-13820D01*
X15950Y-13820D01*
X15955Y-13819D01*
X15955Y-14019D01*
X15973Y-14063D01*
X16007Y-14097D01*
X16010Y-14098D01*
X16010Y-14274D01*
X15929Y-14355D01*
X15673Y-14355D01*
X15629Y-14373D01*
X15595Y-14407D01*
X15577Y-14451D01*
X15577Y-14499D01*
X15577Y-15049D01*
X15595Y-15093D01*
X15629Y-15127D01*
X15673Y-15145D01*
X15721Y-15145D01*
X16075Y-15145D01*
X16119Y-15127D01*
X16153Y-15093D01*
X16171Y-15049D01*
X16171Y-15001D01*
X16171Y-14792D01*
X16417Y-14545D01*
X16419Y-14544D01*
X16420Y-14544D01*
X16472Y-14466D01*
X16490Y-14375D01*
X16489Y-14374D01*
X16490Y-14374D01*
X16490Y-14098D01*
X16493Y-14097D01*
X16527Y-14063D01*
X16535Y-14042D01*
X16590Y-14032D01*
X16645Y-13995D01*
X16820Y-13821D01*
X16820Y-13820D01*
X16857Y-13765D01*
X16869Y-13700D01*
X16870Y-13700D01*
X16870Y-12820D01*
X17370Y-12320D01*
X17800Y-12320D01*
X17865Y-12307D01*
X17920Y-12270D01*
X18195Y-11995D01*
X18249Y-11995D01*
X18293Y-11977D01*
X18327Y-11943D01*
X18345Y-11899D01*
X18345Y-11851D01*
X18345Y-11670D01*
X18575Y-11670D01*
X18997Y-11670D01*
X19129Y-11802D01*
X19184Y-11839D01*
X19249Y-11852D01*
X19726Y-11852D01*
X19791Y-11839D01*
X19846Y-11802D01*
X19932Y-11716D01*
X20725Y-11716D01*
X27602Y-11716D01*
X28506Y-12620D01*
X28561Y-12657D01*
X28626Y-12670D01*
X29400Y-12670D01*
X29450Y-12670D01*
X34451Y-12670D01*
X34451Y-12709D01*
X34496Y-12819D01*
X34580Y-12903D01*
X34690Y-12949D01*
X34809Y-12949D01*
X34919Y-12904D01*
X35003Y-12820D01*
X35049Y-12710D01*
X35049Y-12670D01*
X36430Y-12670D01*
X38276Y-14516D01*
X38331Y-14553D01*
X38396Y-14566D01*
X40359Y-14566D01*
X40798Y-15004D01*
X40798Y-16156D01*
X40757Y-16173D01*
X40723Y-16207D01*
X40705Y-16251D01*
X40705Y-16299D01*
X40705Y-16749D01*
X40723Y-16793D01*
X40757Y-16827D01*
X40801Y-16845D01*
X40849Y-16845D01*
X41099Y-16845D01*
X41143Y-16827D01*
X41177Y-16793D01*
X41195Y-16749D01*
X41195Y-16701D01*
X41195Y-16670D01*
X41305Y-16670D01*
X41305Y-16749D01*
X41323Y-16793D01*
X41357Y-16827D01*
X41401Y-16845D01*
X41449Y-16845D01*
X41555Y-16845D01*
X42380Y-17670D01*
X42380Y-18700D01*
X42393Y-18765D01*
X42430Y-18820D01*
X42604Y-18995D01*
X42605Y-18995D01*
X42660Y-19032D01*
X42714Y-19042D01*
X42723Y-19063D01*
X42757Y-19097D01*
X42760Y-19098D01*
X42760Y-19374D01*
X42778Y-19466D01*
X42830Y-19544D01*
X43079Y-19792D01*
X43079Y-20049D01*
X43097Y-20093D01*
X43131Y-20127D01*
X43175Y-20145D01*
X43223Y-20145D01*
X43577Y-20145D01*
X43621Y-20127D01*
X43655Y-20093D01*
X43673Y-20049D01*
X43673Y-20001D01*
X43673Y-19451D01*
X43655Y-19407D01*
X43621Y-19373D01*
X43577Y-19355D01*
X43529Y-19355D01*
X43320Y-19355D01*
X43240Y-19274D01*
X43240Y-19098D01*
X43243Y-19097D01*
X43277Y-19063D01*
X43295Y-19019D01*
X43295Y-18971D01*
X43295Y-18819D01*
X43300Y-18820D01*
X43587Y-18820D01*
X43597Y-18843D01*
X43631Y-18877D01*
X43675Y-18895D01*
X43723Y-18895D01*
X44052Y-18895D01*
X44128Y-18946D01*
X44250Y-18970D01*
X44372Y-18946D01*
X44447Y-18895D01*
X44473Y-18895D01*
X44823Y-18895D01*
X44867Y-18877D01*
X44901Y-18843D01*
X44910Y-18820D01*
X45054Y-18820D01*
X45054Y-19039D01*
X45072Y-19083D01*
X45106Y-19117D01*
X45150Y-19135D01*
X45198Y-19135D01*
X45348Y-19135D01*
X45396Y-19135D01*
X45398Y-19135D01*
X45652Y-19135D01*
X45696Y-19117D01*
X45710Y-19103D01*
X45710Y-19790D01*
X47710Y-19790D01*
X47710Y-20960D01*
X47710Y-20960D01*
G37*
G54D53*
X47710Y-20960D02*
X42295Y-20960D01*
X42295Y-19019D01*
X42295Y-18971D01*
X42295Y-18731D01*
X42295Y-18269D01*
X42295Y-18221D01*
X42295Y-17981D01*
X42277Y-17937D01*
X42243Y-17903D01*
X42199Y-17885D01*
X42151Y-17885D01*
X42047Y-17885D01*
X42046Y-17878D01*
X41976Y-17774D01*
X41872Y-17704D01*
X41750Y-17680D01*
X41410Y-17680D01*
X41401Y-17657D01*
X41367Y-17623D01*
X41323Y-17605D01*
X41275Y-17605D01*
X40947Y-17605D01*
X40872Y-17554D01*
X40750Y-17530D01*
X40628Y-17554D01*
X40552Y-17605D01*
X40529Y-17605D01*
X40307Y-17605D01*
X36476Y-13774D01*
X36373Y-13704D01*
X36250Y-13680D01*
X28632Y-13680D01*
X27976Y-13024D01*
X27873Y-12954D01*
X27750Y-12930D01*
X20132Y-12930D01*
X19976Y-12774D01*
X19873Y-12704D01*
X19750Y-12680D01*
X19160Y-12680D01*
X19151Y-12657D01*
X19117Y-12623D01*
X19073Y-12605D01*
X19025Y-12605D01*
X18697Y-12605D01*
X18622Y-12554D01*
X18500Y-12530D01*
X18378Y-12554D01*
X18302Y-12605D01*
X18279Y-12605D01*
X17925Y-12605D01*
X17881Y-12623D01*
X17847Y-12657D01*
X17837Y-12680D01*
X17500Y-12680D01*
X17378Y-12704D01*
X17274Y-12774D01*
X17204Y-12878D01*
X17202Y-12885D01*
X17051Y-12885D01*
X17007Y-12903D01*
X16973Y-12937D01*
X16955Y-12981D01*
X16955Y-13029D01*
X16955Y-13269D01*
X16973Y-13313D01*
X17007Y-13347D01*
X17051Y-13365D01*
X17099Y-13365D01*
X17250Y-13365D01*
X17375Y-13365D01*
X17449Y-13365D01*
X17493Y-13347D01*
X17520Y-13320D01*
X17837Y-13320D01*
X17847Y-13343D01*
X17881Y-13377D01*
X17925Y-13395D01*
X17973Y-13395D01*
X18302Y-13395D01*
X18378Y-13446D01*
X18500Y-13470D01*
X18622Y-13446D01*
X18697Y-13395D01*
X18723Y-13395D01*
X19073Y-13395D01*
X19117Y-13377D01*
X19151Y-13343D01*
X19160Y-13320D01*
X19617Y-13320D01*
X19773Y-13476D01*
X19774Y-13476D01*
X19843Y-13522D01*
X19877Y-13545D01*
X19878Y-13546D01*
X20000Y-13570D01*
X27617Y-13570D01*
X28273Y-14226D01*
X28274Y-14226D01*
X28376Y-14295D01*
X28378Y-14296D01*
X28500Y-14320D01*
X36117Y-14320D01*
X40023Y-18226D01*
X40024Y-18226D01*
X40079Y-18263D01*
X40079Y-18299D01*
X40097Y-18343D01*
X40131Y-18377D01*
X40175Y-18395D01*
X40223Y-18395D01*
X40552Y-18395D01*
X40628Y-18446D01*
X40750Y-18470D01*
X40872Y-18446D01*
X40947Y-18395D01*
X40973Y-18395D01*
X41323Y-18395D01*
X41367Y-18377D01*
X41401Y-18343D01*
X41410Y-18320D01*
X41730Y-18320D01*
X41757Y-18347D01*
X41801Y-18365D01*
X41849Y-18365D01*
X41874Y-18365D01*
X41875Y-18365D01*
X42000Y-18365D01*
X42199Y-18365D01*
X42243Y-18347D01*
X42277Y-18313D01*
X42295Y-18269D01*
X42295Y-18731D01*
X42277Y-18687D01*
X42243Y-18653D01*
X42199Y-18635D01*
X42151Y-18635D01*
X42000Y-18635D01*
X41875Y-18635D01*
X41874Y-18635D01*
X41801Y-18635D01*
X41757Y-18653D01*
X41730Y-18680D01*
X41410Y-18680D01*
X41401Y-18657D01*
X41367Y-18623D01*
X41323Y-18605D01*
X41275Y-18605D01*
X40947Y-18605D01*
X40872Y-18554D01*
X40750Y-18530D01*
X40628Y-18554D01*
X40552Y-18605D01*
X40529Y-18605D01*
X40175Y-18605D01*
X40131Y-18623D01*
X40097Y-18657D01*
X40087Y-18680D01*
X39256Y-18680D01*
X39249Y-18677D01*
X39201Y-18677D01*
X38651Y-18677D01*
X38643Y-18680D01*
X38406Y-18680D01*
X38399Y-18677D01*
X38351Y-18677D01*
X37801Y-18677D01*
X37793Y-18680D01*
X37662Y-18680D01*
X37653Y-18657D01*
X37619Y-18623D01*
X37575Y-18605D01*
X37527Y-18605D01*
X37197Y-18605D01*
X37122Y-18554D01*
X37000Y-18530D01*
X36878Y-18554D01*
X36802Y-18605D01*
X36777Y-18605D01*
X36427Y-18605D01*
X36383Y-18623D01*
X36349Y-18657D01*
X36339Y-18680D01*
X36260Y-18680D01*
X36251Y-18657D01*
X36217Y-18623D01*
X36173Y-18605D01*
X36125Y-18605D01*
X35797Y-18605D01*
X35722Y-18554D01*
X35600Y-18530D01*
X35478Y-18554D01*
X35402Y-18605D01*
X35379Y-18605D01*
X35025Y-18605D01*
X34981Y-18623D01*
X34947Y-18657D01*
X34937Y-18680D01*
X33212Y-18680D01*
X33203Y-18657D01*
X33169Y-18623D01*
X33125Y-18605D01*
X33077Y-18605D01*
X32747Y-18605D01*
X32672Y-18554D01*
X32550Y-18530D01*
X32428Y-18554D01*
X32352Y-18605D01*
X32327Y-18605D01*
X32320Y-18605D01*
X32320Y-18132D01*
X32632Y-17820D01*
X34000Y-17820D01*
X34122Y-17796D01*
X34123Y-17796D01*
X34226Y-17726D01*
X34476Y-17477D01*
X34476Y-17476D01*
X34522Y-17407D01*
X34545Y-17373D01*
X34546Y-17372D01*
X34569Y-17250D01*
X34570Y-17250D01*
X34570Y-16750D01*
X34546Y-16628D01*
X34545Y-16627D01*
X34476Y-16524D01*
X34069Y-16117D01*
X34069Y-15951D01*
X34051Y-15907D01*
X34017Y-15873D01*
X33973Y-15855D01*
X33925Y-15855D01*
X33597Y-15855D01*
X33522Y-15804D01*
X33400Y-15780D01*
X33278Y-15804D01*
X33202Y-15855D01*
X33179Y-15855D01*
X32825Y-15855D01*
X32781Y-15873D01*
X32747Y-15907D01*
X32737Y-15930D01*
X32606Y-15930D01*
X32599Y-15927D01*
X32551Y-15927D01*
X32001Y-15927D01*
X31993Y-15930D01*
X31756Y-15930D01*
X31749Y-15927D01*
X31701Y-15927D01*
X31151Y-15927D01*
X31143Y-15930D01*
X31012Y-15930D01*
X31003Y-15907D01*
X30969Y-15873D01*
X30925Y-15855D01*
X30877Y-15855D01*
X30547Y-15855D01*
X30472Y-15804D01*
X30350Y-15780D01*
X30228Y-15804D01*
X30152Y-15855D01*
X30127Y-15855D01*
X29777Y-15855D01*
X29733Y-15873D01*
X29699Y-15907D01*
X29689Y-15930D01*
X29610Y-15930D01*
X29601Y-15907D01*
X29567Y-15873D01*
X29523Y-15855D01*
X29475Y-15855D01*
X29147Y-15855D01*
X29072Y-15804D01*
X28950Y-15780D01*
X28828Y-15804D01*
X28752Y-15855D01*
X28729Y-15855D01*
X28375Y-15855D01*
X28331Y-15873D01*
X28297Y-15907D01*
X28287Y-15930D01*
X26882Y-15930D01*
X25876Y-14924D01*
X25773Y-14854D01*
X25650Y-14830D01*
X24600Y-14830D01*
X24478Y-14854D01*
X24443Y-14877D01*
X24373Y-14924D01*
X23774Y-15524D01*
X23704Y-15627D01*
X23703Y-15630D01*
X23651Y-15630D01*
X23607Y-15648D01*
X23573Y-15682D01*
X23555Y-15726D01*
X23555Y-15774D01*
X23555Y-16774D01*
X23573Y-16818D01*
X23607Y-16852D01*
X23651Y-16870D01*
X23699Y-16870D01*
X24349Y-16870D01*
X24393Y-16852D01*
X24427Y-16818D01*
X24445Y-16774D01*
X24445Y-16726D01*
X24445Y-15757D01*
X24732Y-15470D01*
X25517Y-15470D01*
X26523Y-16476D01*
X26524Y-16476D01*
X26593Y-16522D01*
X26627Y-16545D01*
X26628Y-16546D01*
X26652Y-16550D01*
X26657Y-16555D01*
X26701Y-16573D01*
X26749Y-16573D01*
X27299Y-16573D01*
X27306Y-16570D01*
X27543Y-16570D01*
X27551Y-16573D01*
X27599Y-16573D01*
X28149Y-16573D01*
X28156Y-16570D01*
X28287Y-16570D01*
X28297Y-16593D01*
X28331Y-16627D01*
X28375Y-16645D01*
X28423Y-16645D01*
X28752Y-16645D01*
X28828Y-16696D01*
X28950Y-16720D01*
X29072Y-16696D01*
X29147Y-16645D01*
X29173Y-16645D01*
X29523Y-16645D01*
X29567Y-16627D01*
X29601Y-16593D01*
X29610Y-16570D01*
X29689Y-16570D01*
X29699Y-16593D01*
X29733Y-16627D01*
X29777Y-16645D01*
X29825Y-16645D01*
X30152Y-16645D01*
X30228Y-16696D01*
X30350Y-16720D01*
X30472Y-16696D01*
X30547Y-16645D01*
X30571Y-16645D01*
X30925Y-16645D01*
X30969Y-16627D01*
X31003Y-16593D01*
X31012Y-16570D01*
X32737Y-16570D01*
X32747Y-16593D01*
X32781Y-16627D01*
X32825Y-16645D01*
X32873Y-16645D01*
X33202Y-16645D01*
X33278Y-16696D01*
X33400Y-16720D01*
X33522Y-16696D01*
X33597Y-16645D01*
X33623Y-16645D01*
X33693Y-16645D01*
X33930Y-16882D01*
X33930Y-17117D01*
X33867Y-17180D01*
X32500Y-17180D01*
X32378Y-17204D01*
X32274Y-17274D01*
X31774Y-17774D01*
X31704Y-17877D01*
X31680Y-18000D01*
X31680Y-18824D01*
X31704Y-18947D01*
X31774Y-19050D01*
X31881Y-19157D01*
X31881Y-19299D01*
X31899Y-19343D01*
X31933Y-19377D01*
X31977Y-19395D01*
X32025Y-19395D01*
X32352Y-19395D01*
X32428Y-19446D01*
X32550Y-19470D01*
X32672Y-19446D01*
X32747Y-19395D01*
X32771Y-19395D01*
X33125Y-19395D01*
X33169Y-19377D01*
X33203Y-19343D01*
X33212Y-19320D01*
X33343Y-19320D01*
X33351Y-19323D01*
X33399Y-19323D01*
X33949Y-19323D01*
X33956Y-19320D01*
X34193Y-19320D01*
X34201Y-19323D01*
X34249Y-19323D01*
X34799Y-19323D01*
X34806Y-19320D01*
X34937Y-19320D01*
X34947Y-19343D01*
X34981Y-19377D01*
X35025Y-19395D01*
X35073Y-19395D01*
X35402Y-19395D01*
X35478Y-19446D01*
X35600Y-19470D01*
X35722Y-19446D01*
X35797Y-19395D01*
X35823Y-19395D01*
X36173Y-19395D01*
X36217Y-19377D01*
X36251Y-19343D01*
X36260Y-19320D01*
X36339Y-19320D01*
X36349Y-19343D01*
X36383Y-19377D01*
X36427Y-19395D01*
X36475Y-19395D01*
X36802Y-19395D01*
X36878Y-19446D01*
X37000Y-19470D01*
X37122Y-19446D01*
X37197Y-19395D01*
X37221Y-19395D01*
X37575Y-19395D01*
X37619Y-19377D01*
X37653Y-19343D01*
X37662Y-19320D01*
X40087Y-19320D01*
X40097Y-19343D01*
X40131Y-19377D01*
X40175Y-19395D01*
X40223Y-19395D01*
X40552Y-19395D01*
X40628Y-19446D01*
X40750Y-19470D01*
X40872Y-19446D01*
X40947Y-19395D01*
X40973Y-19395D01*
X41323Y-19395D01*
X41367Y-19377D01*
X41401Y-19343D01*
X41410Y-19320D01*
X41750Y-19320D01*
X41872Y-19296D01*
X41976Y-19226D01*
X42046Y-19122D01*
X42047Y-19115D01*
X42199Y-19115D01*
X42243Y-19097D01*
X42277Y-19063D01*
X42295Y-19019D01*
X42295Y-20960D01*
X29460Y-20960D01*
X29460Y-27710D01*
X29020Y-27710D01*
X29020Y-22800D01*
X28996Y-22678D01*
X28945Y-22602D01*
X28945Y-22577D01*
X28945Y-22227D01*
X28927Y-22183D01*
X28893Y-22149D01*
X28870Y-22139D01*
X28870Y-22060D01*
X28893Y-22051D01*
X28927Y-22017D01*
X28945Y-21973D01*
X28945Y-21925D01*
X28945Y-21597D01*
X28996Y-21522D01*
X29020Y-21400D01*
X28996Y-21278D01*
X28945Y-21202D01*
X28945Y-21179D01*
X28945Y-20825D01*
X28927Y-20781D01*
X28893Y-20747D01*
X28870Y-20737D01*
X28870Y-19000D01*
X28846Y-18878D01*
X28845Y-18876D01*
X28776Y-18774D01*
X28776Y-18773D01*
X28026Y-18024D01*
X27923Y-17954D01*
X27800Y-17930D01*
X25445Y-17930D01*
X25445Y-17726D01*
X25427Y-17682D01*
X25393Y-17648D01*
X25349Y-17630D01*
X25301Y-17630D01*
X24651Y-17630D01*
X24607Y-17648D01*
X24573Y-17682D01*
X24555Y-17726D01*
X24555Y-17774D01*
X24555Y-18774D01*
X24573Y-18818D01*
X24607Y-18852D01*
X24651Y-18870D01*
X24699Y-18870D01*
X25349Y-18870D01*
X25393Y-18852D01*
X25427Y-18818D01*
X25445Y-18774D01*
X25445Y-18726D01*
X25445Y-18570D01*
X27667Y-18570D01*
X28227Y-19129D01*
X28227Y-19649D01*
X28230Y-19656D01*
X28230Y-19943D01*
X28227Y-19951D01*
X28227Y-19999D01*
X28227Y-20549D01*
X28230Y-20556D01*
X28230Y-20737D01*
X28207Y-20747D01*
X28173Y-20781D01*
X28155Y-20825D01*
X28155Y-20873D01*
X28155Y-21202D01*
X28104Y-21278D01*
X28080Y-21400D01*
X28104Y-21522D01*
X28155Y-21597D01*
X28155Y-21623D01*
X28155Y-21973D01*
X28173Y-22017D01*
X28207Y-22051D01*
X28230Y-22060D01*
X28230Y-22139D01*
X28207Y-22149D01*
X28173Y-22183D01*
X28155Y-22227D01*
X28155Y-22275D01*
X28155Y-22602D01*
X28104Y-22678D01*
X28080Y-22800D01*
X28104Y-22922D01*
X28155Y-22997D01*
X28155Y-23021D01*
X28155Y-23375D01*
X28173Y-23419D01*
X28207Y-23453D01*
X28230Y-23462D01*
X28230Y-23643D01*
X28227Y-23651D01*
X28227Y-23699D01*
X28227Y-24249D01*
X28230Y-24256D01*
X28230Y-24543D01*
X28227Y-24551D01*
X28227Y-24599D01*
X28227Y-25149D01*
X28230Y-25156D01*
X28230Y-25617D01*
X27792Y-26055D01*
X27547Y-26055D01*
X27472Y-26004D01*
X27350Y-25980D01*
X27228Y-26004D01*
X27152Y-26055D01*
X27127Y-26055D01*
X26777Y-26055D01*
X26733Y-26073D01*
X26704Y-26101D01*
X26570Y-25967D01*
X26570Y-25475D01*
X26546Y-25353D01*
X26483Y-25260D01*
X26500Y-25260D01*
X26561Y-25248D01*
X26562Y-25248D01*
X26613Y-25213D01*
X26713Y-25113D01*
X26747Y-25062D01*
X26748Y-25061D01*
X26760Y-25000D01*
X26760Y-23568D01*
X27067Y-23262D01*
X27067Y-23261D01*
X27089Y-23227D01*
X27101Y-23210D01*
X27102Y-23209D01*
X27113Y-23148D01*
X27114Y-23148D01*
X27114Y-22500D01*
X27114Y-19860D01*
X27113Y-19859D01*
X27102Y-19799D01*
X27101Y-19798D01*
X27089Y-19781D01*
X27067Y-19747D01*
X27067Y-19746D01*
X26435Y-19115D01*
X26384Y-19080D01*
X26322Y-19068D01*
X23445Y-19068D01*
X23445Y-16774D01*
X23445Y-16726D01*
X23445Y-15726D01*
X23427Y-15682D01*
X23393Y-15648D01*
X23349Y-15630D01*
X23301Y-15630D01*
X22651Y-15630D01*
X22607Y-15648D01*
X22573Y-15682D01*
X22555Y-15726D01*
X22555Y-15774D01*
X22555Y-15930D01*
X22250Y-15930D01*
X22128Y-15954D01*
X22024Y-16024D01*
X21524Y-16524D01*
X21454Y-16627D01*
X21430Y-16750D01*
X21430Y-17368D01*
X21118Y-17680D01*
X21056Y-17680D01*
X21049Y-17677D01*
X21001Y-17677D01*
X20451Y-17677D01*
X20443Y-17680D01*
X20194Y-17680D01*
X20194Y-17150D01*
X20170Y-17028D01*
X20169Y-17026D01*
X20169Y-16851D01*
X20151Y-16807D01*
X20117Y-16773D01*
X20073Y-16755D01*
X20025Y-16755D01*
X19697Y-16755D01*
X19622Y-16704D01*
X19500Y-16680D01*
X19378Y-16704D01*
X19302Y-16755D01*
X19279Y-16755D01*
X18925Y-16755D01*
X18881Y-16773D01*
X18847Y-16807D01*
X18829Y-16851D01*
X18829Y-16899D01*
X18829Y-17033D01*
X18806Y-17150D01*
X18806Y-17680D01*
X18556Y-17680D01*
X18549Y-17677D01*
X18501Y-17677D01*
X17951Y-17677D01*
X17943Y-17680D01*
X17694Y-17680D01*
X17694Y-17150D01*
X17670Y-17028D01*
X17669Y-17026D01*
X17669Y-16851D01*
X17651Y-16807D01*
X17617Y-16773D01*
X17573Y-16755D01*
X17525Y-16755D01*
X17197Y-16755D01*
X17122Y-16704D01*
X17000Y-16680D01*
X16878Y-16704D01*
X16802Y-16755D01*
X16779Y-16755D01*
X16425Y-16755D01*
X16381Y-16773D01*
X16347Y-16807D01*
X16329Y-16851D01*
X16329Y-16899D01*
X16329Y-17033D01*
X16306Y-17150D01*
X16306Y-17680D01*
X16056Y-17680D01*
X16049Y-17677D01*
X16001Y-17677D01*
X15451Y-17677D01*
X15443Y-17680D01*
X15194Y-17680D01*
X15194Y-17150D01*
X15170Y-17028D01*
X15169Y-17026D01*
X15169Y-16851D01*
X15151Y-16807D01*
X15117Y-16773D01*
X15073Y-16755D01*
X15025Y-16755D01*
X14697Y-16755D01*
X14622Y-16704D01*
X14500Y-16680D01*
X14378Y-16704D01*
X14302Y-16755D01*
X14279Y-16755D01*
X13925Y-16755D01*
X13881Y-16773D01*
X13847Y-16807D01*
X13829Y-16851D01*
X13829Y-16899D01*
X13829Y-17033D01*
X13806Y-17150D01*
X13806Y-17680D01*
X13556Y-17680D01*
X13549Y-17677D01*
X13501Y-17677D01*
X12951Y-17677D01*
X12943Y-17680D01*
X12882Y-17680D01*
X12570Y-17368D01*
X12570Y-16632D01*
X13132Y-16070D01*
X13750Y-16070D01*
X19250Y-16070D01*
X19372Y-16046D01*
X19373Y-16046D01*
X19476Y-15976D01*
X19976Y-15476D01*
X20045Y-15373D01*
X20046Y-15372D01*
X20070Y-15250D01*
X20070Y-14500D01*
X20046Y-14378D01*
X20045Y-14377D01*
X19976Y-14274D01*
X19476Y-13774D01*
X19373Y-13704D01*
X19250Y-13680D01*
X19160Y-13680D01*
X19151Y-13657D01*
X19117Y-13623D01*
X19073Y-13605D01*
X19025Y-13605D01*
X18697Y-13605D01*
X18622Y-13554D01*
X18500Y-13530D01*
X18378Y-13554D01*
X18302Y-13605D01*
X18279Y-13605D01*
X17925Y-13605D01*
X17881Y-13623D01*
X17847Y-13657D01*
X17837Y-13680D01*
X17520Y-13680D01*
X17493Y-13653D01*
X17449Y-13635D01*
X17401Y-13635D01*
X17375Y-13635D01*
X17250Y-13635D01*
X17051Y-13635D01*
X17007Y-13653D01*
X16973Y-13687D01*
X16955Y-13731D01*
X16955Y-13779D01*
X16955Y-14019D01*
X16973Y-14063D01*
X17007Y-14097D01*
X17051Y-14115D01*
X17099Y-14115D01*
X17202Y-14115D01*
X17204Y-14122D01*
X17274Y-14226D01*
X17378Y-14296D01*
X17500Y-14320D01*
X17837Y-14320D01*
X17847Y-14343D01*
X17881Y-14377D01*
X17925Y-14395D01*
X17973Y-14395D01*
X18302Y-14395D01*
X18378Y-14446D01*
X18500Y-14470D01*
X18622Y-14446D01*
X18697Y-14395D01*
X18723Y-14395D01*
X19073Y-14395D01*
X19117Y-14377D01*
X19146Y-14348D01*
X19430Y-14632D01*
X19430Y-15118D01*
X19118Y-15430D01*
X13750Y-15430D01*
X13000Y-15430D01*
X12878Y-15454D01*
X12876Y-15454D01*
X12876Y-15455D01*
X12773Y-15524D01*
X12024Y-16274D01*
X11954Y-16377D01*
X11930Y-16500D01*
X11930Y-17500D01*
X11954Y-17623D01*
X12024Y-17726D01*
X12524Y-18226D01*
X12627Y-18295D01*
X12628Y-18296D01*
X12750Y-18320D01*
X13839Y-18320D01*
X13849Y-18343D01*
X13883Y-18377D01*
X13927Y-18395D01*
X13975Y-18395D01*
X14302Y-18395D01*
X14378Y-18446D01*
X14500Y-18470D01*
X14622Y-18446D01*
X14697Y-18395D01*
X14721Y-18395D01*
X15075Y-18395D01*
X15119Y-18377D01*
X15153Y-18343D01*
X15162Y-18320D01*
X16339Y-18320D01*
X16349Y-18343D01*
X16383Y-18377D01*
X16427Y-18395D01*
X16475Y-18395D01*
X16802Y-18395D01*
X16878Y-18446D01*
X17000Y-18470D01*
X17122Y-18446D01*
X17197Y-18395D01*
X17221Y-18395D01*
X17575Y-18395D01*
X17619Y-18377D01*
X17653Y-18343D01*
X17662Y-18320D01*
X18839Y-18320D01*
X18849Y-18343D01*
X18883Y-18377D01*
X18927Y-18395D01*
X18975Y-18395D01*
X19302Y-18395D01*
X19378Y-18446D01*
X19500Y-18470D01*
X19622Y-18446D01*
X19697Y-18395D01*
X19721Y-18395D01*
X20075Y-18395D01*
X20119Y-18377D01*
X20153Y-18343D01*
X20162Y-18320D01*
X21250Y-18320D01*
X21372Y-18296D01*
X21373Y-18296D01*
X21476Y-18226D01*
X21976Y-17726D01*
X22045Y-17623D01*
X22046Y-17622D01*
X22070Y-17500D01*
X22070Y-16882D01*
X22382Y-16570D01*
X22555Y-16570D01*
X22555Y-16774D01*
X22573Y-16818D01*
X22607Y-16852D01*
X22651Y-16870D01*
X22699Y-16870D01*
X23349Y-16870D01*
X23393Y-16852D01*
X23427Y-16818D01*
X23445Y-16774D01*
X23445Y-19068D01*
X13975Y-19068D01*
X13238Y-19068D01*
X12685Y-18515D01*
X12634Y-18480D01*
X12572Y-18468D01*
X12100Y-18468D01*
X11795Y-18468D01*
X11799Y-18460D01*
X11799Y-18341D01*
X11754Y-18231D01*
X11670Y-18147D01*
X11560Y-18101D01*
X11441Y-18101D01*
X11331Y-18146D01*
X11247Y-18230D01*
X11201Y-18340D01*
X11201Y-18459D01*
X11246Y-18569D01*
X11307Y-18630D01*
X11274Y-18630D01*
X11254Y-18581D01*
X11170Y-18497D01*
X11060Y-18451D01*
X10941Y-18451D01*
X10831Y-18496D01*
X10747Y-18580D01*
X10701Y-18690D01*
X10701Y-18809D01*
X10746Y-18919D01*
X10830Y-19003D01*
X10940Y-19049D01*
X11059Y-19049D01*
X11169Y-19004D01*
X11203Y-18970D01*
X12429Y-18970D01*
X12979Y-19520D01*
X12980Y-19520D01*
X13035Y-19557D01*
X13100Y-19570D01*
X14550Y-19570D01*
X25700Y-19570D01*
X26180Y-19570D01*
X26612Y-20002D01*
X26612Y-23005D01*
X26437Y-23180D01*
X25999Y-23180D01*
X25950Y-23170D01*
X25900Y-23170D01*
X25800Y-23170D01*
X24574Y-23170D01*
X23877Y-22473D01*
X23819Y-22434D01*
X23750Y-22420D01*
X17694Y-22420D01*
X17628Y-22376D01*
X17617Y-22373D01*
X17593Y-22349D01*
X17549Y-22331D01*
X17501Y-22331D01*
X16951Y-22331D01*
X16907Y-22349D01*
X16901Y-22355D01*
X16850Y-22355D01*
X16250Y-22355D01*
X16147Y-22376D01*
X16133Y-22385D01*
X16051Y-22385D01*
X16007Y-22403D01*
X15973Y-22437D01*
X15955Y-22481D01*
X15955Y-22529D01*
X15955Y-22769D01*
X15973Y-22813D01*
X16007Y-22847D01*
X16051Y-22865D01*
X16099Y-22865D01*
X16133Y-22865D01*
X16147Y-22874D01*
X16250Y-22895D01*
X16850Y-22895D01*
X16899Y-22895D01*
X16907Y-22903D01*
X16951Y-22921D01*
X16999Y-22921D01*
X17454Y-22921D01*
X17497Y-22949D01*
X17600Y-22970D01*
X18388Y-22970D01*
X18572Y-23154D01*
X18554Y-23250D01*
X18554Y-23424D01*
X18554Y-24000D01*
X18554Y-24250D01*
X18554Y-24626D01*
X18554Y-25250D01*
X18577Y-25366D01*
X18577Y-25549D01*
X18595Y-25593D01*
X18629Y-25627D01*
X18673Y-25645D01*
X18721Y-25645D01*
X19075Y-25645D01*
X19119Y-25627D01*
X19153Y-25593D01*
X19171Y-25549D01*
X19171Y-25501D01*
X19171Y-25366D01*
X19194Y-25250D01*
X19194Y-24758D01*
X19632Y-24320D01*
X20192Y-24320D01*
X20248Y-24376D01*
X20411Y-24444D01*
X20588Y-24444D01*
X20751Y-24377D01*
X20876Y-24252D01*
X20944Y-24089D01*
X20944Y-23912D01*
X20877Y-23749D01*
X20752Y-23624D01*
X20589Y-23556D01*
X20412Y-23556D01*
X20249Y-23623D01*
X20192Y-23680D01*
X19582Y-23680D01*
X19194Y-23291D01*
X19194Y-23250D01*
X19171Y-23133D01*
X19171Y-22951D01*
X19153Y-22907D01*
X19119Y-22873D01*
X19075Y-22855D01*
X19037Y-22855D01*
X18962Y-22780D01*
X23675Y-22780D01*
X24372Y-23477D01*
X24373Y-23477D01*
X24431Y-23516D01*
X24500Y-23530D01*
X25800Y-23530D01*
X25876Y-23530D01*
X25907Y-23561D01*
X25879Y-23573D01*
X25845Y-23607D01*
X25827Y-23651D01*
X25827Y-23699D01*
X25827Y-24249D01*
X25845Y-24293D01*
X25879Y-24327D01*
X25923Y-24345D01*
X25971Y-24345D01*
X26030Y-24345D01*
X26030Y-24504D01*
X25976Y-24424D01*
X25872Y-24354D01*
X25750Y-24330D01*
X25628Y-24354D01*
X25524Y-24424D01*
X25459Y-24519D01*
X25424Y-24505D01*
X25376Y-24505D01*
X25076Y-24505D01*
X25032Y-24523D01*
X24998Y-24557D01*
X24980Y-24601D01*
X24980Y-24649D01*
X24980Y-24849D01*
X24992Y-24880D01*
X24691Y-24880D01*
X23931Y-24119D01*
X23944Y-24089D01*
X23944Y-23912D01*
X23877Y-23749D01*
X23752Y-23624D01*
X23589Y-23556D01*
X23412Y-23556D01*
X23249Y-23623D01*
X23124Y-23748D01*
X23056Y-23911D01*
X23056Y-24088D01*
X23123Y-24251D01*
X23248Y-24376D01*
X23411Y-24444D01*
X23588Y-24444D01*
X23619Y-24431D01*
X24442Y-25253D01*
X24444Y-25256D01*
X24515Y-25302D01*
X24516Y-25303D01*
X24600Y-25320D01*
X25076Y-25320D01*
X25124Y-25320D01*
X25250Y-25320D01*
X25342Y-25320D01*
X25304Y-25377D01*
X25280Y-25500D01*
X25304Y-25623D01*
X25374Y-25726D01*
X25477Y-25796D01*
X25498Y-25800D01*
X25159Y-26140D01*
X22944Y-26140D01*
X22944Y-24089D01*
X22944Y-23912D01*
X22877Y-23749D01*
X22752Y-23624D01*
X22589Y-23556D01*
X22412Y-23556D01*
X22249Y-23623D01*
X22124Y-23748D01*
X22056Y-23911D01*
X22056Y-24088D01*
X22123Y-24251D01*
X22248Y-24376D01*
X22411Y-24444D01*
X22588Y-24444D01*
X22751Y-24377D01*
X22876Y-24252D01*
X22944Y-24089D01*
X22944Y-26140D01*
X22700Y-26140D01*
X21944Y-26140D01*
X21944Y-24089D01*
X21944Y-23912D01*
X21877Y-23749D01*
X21752Y-23624D01*
X21589Y-23556D01*
X21412Y-23556D01*
X21249Y-23623D01*
X21124Y-23748D01*
X21056Y-23911D01*
X21056Y-24088D01*
X21123Y-24251D01*
X21248Y-24376D01*
X21411Y-24444D01*
X21588Y-24444D01*
X21751Y-24377D01*
X21876Y-24252D01*
X21944Y-24089D01*
X21944Y-26140D01*
X21200Y-26140D01*
X21139Y-26152D01*
X21087Y-26187D01*
X21086Y-26187D01*
X21086Y-26188D01*
X20680Y-26593D01*
X20589Y-26556D01*
X20412Y-26556D01*
X20249Y-26623D01*
X20124Y-26748D01*
X20056Y-26911D01*
X20056Y-27088D01*
X20123Y-27251D01*
X20248Y-27376D01*
X20411Y-27444D01*
X20588Y-27444D01*
X20751Y-27377D01*
X20876Y-27252D01*
X20944Y-27089D01*
X20944Y-26912D01*
X20906Y-26819D01*
X21266Y-26460D01*
X22700Y-26460D01*
X25225Y-26460D01*
X25286Y-26448D01*
X25287Y-26448D01*
X25338Y-26413D01*
X25863Y-25888D01*
X25897Y-25837D01*
X25898Y-25836D01*
X25909Y-25775D01*
X25910Y-25775D01*
X25910Y-25642D01*
X25930Y-25622D01*
X25930Y-26100D01*
X25936Y-26131D01*
X25901Y-26131D01*
X25857Y-26149D01*
X25823Y-26183D01*
X25805Y-26227D01*
X25805Y-26275D01*
X25805Y-26625D01*
X25823Y-26669D01*
X25857Y-26703D01*
X25901Y-26721D01*
X25949Y-26721D01*
X26440Y-26721D01*
X26476Y-26745D01*
X26478Y-26746D01*
X26599Y-26769D01*
X26600Y-26770D01*
X26689Y-26770D01*
X26699Y-26793D01*
X26733Y-26827D01*
X26777Y-26845D01*
X26825Y-26845D01*
X27152Y-26845D01*
X27228Y-26896D01*
X27350Y-26920D01*
X27472Y-26896D01*
X27547Y-26845D01*
X27571Y-26845D01*
X27925Y-26845D01*
X27969Y-26827D01*
X28003Y-26793D01*
X28021Y-26749D01*
X28021Y-26713D01*
X28076Y-26676D01*
X28331Y-26421D01*
X28849Y-26421D01*
X28893Y-26403D01*
X28927Y-26369D01*
X28945Y-26325D01*
X28945Y-26277D01*
X28945Y-25927D01*
X28927Y-25883D01*
X28893Y-25849D01*
X28853Y-25832D01*
X28869Y-25751D01*
X28870Y-25750D01*
X28870Y-23462D01*
X28893Y-23453D01*
X28927Y-23419D01*
X28945Y-23375D01*
X28945Y-23327D01*
X28945Y-22997D01*
X28996Y-22922D01*
X29020Y-22800D01*
X29020Y-27710D01*
X22944Y-27710D01*
X22944Y-27089D01*
X22944Y-26912D01*
X22877Y-26749D01*
X22752Y-26624D01*
X22589Y-26556D01*
X22412Y-26556D01*
X22249Y-26623D01*
X22124Y-26748D01*
X22056Y-26911D01*
X22056Y-27088D01*
X22123Y-27251D01*
X22248Y-27376D01*
X22411Y-27444D01*
X22588Y-27444D01*
X22751Y-27377D01*
X22876Y-27252D01*
X22944Y-27089D01*
X22944Y-27710D01*
X21944Y-27710D01*
X21944Y-27089D01*
X21944Y-26912D01*
X21877Y-26749D01*
X21752Y-26624D01*
X21589Y-26556D01*
X21412Y-26556D01*
X21249Y-26623D01*
X21124Y-26748D01*
X21056Y-26911D01*
X21056Y-27088D01*
X21123Y-27251D01*
X21248Y-27376D01*
X21411Y-27444D01*
X21588Y-27444D01*
X21751Y-27377D01*
X21876Y-27252D01*
X21944Y-27089D01*
X21944Y-27710D01*
X17790Y-27710D01*
X17790Y-25710D01*
X16540Y-25710D01*
X16540Y-24645D01*
X16575Y-24645D01*
X16619Y-24627D01*
X16653Y-24593D01*
X16671Y-24549D01*
X16671Y-24501D01*
X16671Y-24020D01*
X16762Y-24020D01*
X16855Y-24112D01*
X16855Y-24325D01*
X16873Y-24369D01*
X16907Y-24403D01*
X16951Y-24421D01*
X16999Y-24421D01*
X17549Y-24421D01*
X17593Y-24403D01*
X17627Y-24369D01*
X17645Y-24325D01*
X17645Y-24277D01*
X17645Y-23927D01*
X17627Y-23883D01*
X17593Y-23849D01*
X17549Y-23831D01*
X17501Y-23831D01*
X17336Y-23831D01*
X17255Y-23750D01*
X17334Y-23671D01*
X17549Y-23671D01*
X17593Y-23653D01*
X17627Y-23619D01*
X17645Y-23575D01*
X17645Y-23527D01*
X17645Y-23173D01*
X17627Y-23129D01*
X17593Y-23095D01*
X17549Y-23077D01*
X17501Y-23077D01*
X16951Y-23077D01*
X16907Y-23095D01*
X16873Y-23129D01*
X16855Y-23173D01*
X16855Y-23221D01*
X16855Y-23387D01*
X16762Y-23480D01*
X16612Y-23480D01*
X16545Y-23413D01*
X16545Y-23231D01*
X16527Y-23187D01*
X16493Y-23153D01*
X16449Y-23135D01*
X16401Y-23135D01*
X16366Y-23135D01*
X16353Y-23126D01*
X16250Y-23105D01*
X16147Y-23126D01*
X16133Y-23135D01*
X16051Y-23135D01*
X16007Y-23153D01*
X15973Y-23187D01*
X15955Y-23231D01*
X15955Y-23279D01*
X15955Y-23519D01*
X15973Y-23563D01*
X15980Y-23570D01*
X15980Y-23850D01*
X16001Y-23953D01*
X16059Y-24041D01*
X16077Y-24059D01*
X16077Y-24460D01*
X15040Y-24460D01*
X15040Y-23610D01*
X15051Y-23615D01*
X15099Y-23615D01*
X15449Y-23615D01*
X15493Y-23597D01*
X15527Y-23563D01*
X15545Y-23519D01*
X15545Y-23471D01*
X15545Y-23231D01*
X15527Y-23187D01*
X15493Y-23153D01*
X15449Y-23135D01*
X15401Y-23135D01*
X15051Y-23135D01*
X15040Y-23139D01*
X15040Y-22860D01*
X15051Y-22865D01*
X15099Y-22865D01*
X15449Y-22865D01*
X15493Y-22847D01*
X15527Y-22813D01*
X15545Y-22769D01*
X15545Y-22721D01*
X15545Y-22481D01*
X15527Y-22437D01*
X15493Y-22403D01*
X15449Y-22385D01*
X15401Y-22385D01*
X15051Y-22385D01*
X15040Y-22389D01*
X15040Y-22040D01*
X24960Y-22040D01*
X24960Y-23040D01*
X26540Y-23040D01*
X26540Y-19960D01*
X10290Y-19960D01*
X10290Y-14790D01*
X12290Y-14790D01*
X12290Y-14103D01*
X12304Y-14117D01*
X12348Y-14135D01*
X12396Y-14135D01*
X12602Y-14135D01*
X12650Y-14135D01*
X12652Y-14135D01*
X12850Y-14135D01*
X12894Y-14117D01*
X12928Y-14083D01*
X12946Y-14039D01*
X12946Y-13991D01*
X12946Y-13820D01*
X13430Y-13820D01*
X13438Y-13823D01*
X13486Y-13823D01*
X13762Y-13823D01*
X13769Y-13820D01*
X14337Y-13820D01*
X14347Y-13843D01*
X14381Y-13877D01*
X14425Y-13895D01*
X14473Y-13895D01*
X14802Y-13895D01*
X14878Y-13946D01*
X15000Y-13970D01*
X15122Y-13946D01*
X15197Y-13895D01*
X15223Y-13895D01*
X15573Y-13895D01*
X15617Y-13877D01*
X15651Y-13843D01*
X15660Y-13820D01*
X15950Y-13820D01*
X15955Y-13819D01*
X15955Y-14019D01*
X15973Y-14063D01*
X16007Y-14097D01*
X16010Y-14098D01*
X16010Y-14274D01*
X15929Y-14355D01*
X15673Y-14355D01*
X15629Y-14373D01*
X15595Y-14407D01*
X15577Y-14451D01*
X15577Y-14499D01*
X15577Y-15049D01*
X15595Y-15093D01*
X15629Y-15127D01*
X15673Y-15145D01*
X15721Y-15145D01*
X16075Y-15145D01*
X16119Y-15127D01*
X16153Y-15093D01*
X16171Y-15049D01*
X16171Y-15001D01*
X16171Y-14792D01*
X16417Y-14545D01*
X16419Y-14544D01*
X16420Y-14544D01*
X16472Y-14466D01*
X16490Y-14375D01*
X16489Y-14374D01*
X16490Y-14374D01*
X16490Y-14098D01*
X16493Y-14097D01*
X16527Y-14063D01*
X16535Y-14042D01*
X16590Y-14032D01*
X16645Y-13995D01*
X16820Y-13821D01*
X16820Y-13820D01*
X16857Y-13765D01*
X16869Y-13700D01*
X16870Y-13700D01*
X16870Y-12820D01*
X17370Y-12320D01*
X17800Y-12320D01*
X17865Y-12307D01*
X17920Y-12270D01*
X18195Y-11995D01*
X18249Y-11995D01*
X18293Y-11977D01*
X18327Y-11943D01*
X18345Y-11899D01*
X18345Y-11851D01*
X18345Y-11670D01*
X18575Y-11670D01*
X18997Y-11670D01*
X19129Y-11802D01*
X19184Y-11839D01*
X19249Y-11852D01*
X19726Y-11852D01*
X19791Y-11839D01*
X19846Y-11802D01*
X19932Y-11716D01*
X20725Y-11716D01*
X27602Y-11716D01*
X28506Y-12620D01*
X28561Y-12657D01*
X28626Y-12670D01*
X29400Y-12670D01*
X29450Y-12670D01*
X34451Y-12670D01*
X34451Y-12709D01*
X34496Y-12819D01*
X34580Y-12903D01*
X34690Y-12949D01*
X34809Y-12949D01*
X34919Y-12904D01*
X35003Y-12820D01*
X35049Y-12710D01*
X35049Y-12670D01*
X36430Y-12670D01*
X38276Y-14516D01*
X38331Y-14553D01*
X38396Y-14566D01*
X40359Y-14566D01*
X40798Y-15004D01*
X40798Y-16156D01*
X40757Y-16173D01*
X40723Y-16207D01*
X40705Y-16251D01*
X40705Y-16299D01*
X40705Y-16749D01*
X40723Y-16793D01*
X40757Y-16827D01*
X40801Y-16845D01*
X40849Y-16845D01*
X41099Y-16845D01*
X41143Y-16827D01*
X41177Y-16793D01*
X41195Y-16749D01*
X41195Y-16701D01*
X41195Y-16670D01*
X41305Y-16670D01*
X41305Y-16749D01*
X41323Y-16793D01*
X41357Y-16827D01*
X41401Y-16845D01*
X41449Y-16845D01*
X41555Y-16845D01*
X42380Y-17670D01*
X42380Y-18700D01*
X42393Y-18765D01*
X42430Y-18820D01*
X42604Y-18995D01*
X42605Y-18995D01*
X42660Y-19032D01*
X42714Y-19042D01*
X42723Y-19063D01*
X42757Y-19097D01*
X42760Y-19098D01*
X42760Y-19374D01*
X42778Y-19466D01*
X42830Y-19544D01*
X43079Y-19792D01*
X43079Y-20049D01*
X43097Y-20093D01*
X43131Y-20127D01*
X43175Y-20145D01*
X43223Y-20145D01*
X43577Y-20145D01*
X43621Y-20127D01*
X43655Y-20093D01*
X43673Y-20049D01*
X43673Y-20001D01*
X43673Y-19451D01*
X43655Y-19407D01*
X43621Y-19373D01*
X43577Y-19355D01*
X43529Y-19355D01*
X43320Y-19355D01*
X43240Y-19274D01*
X43240Y-19098D01*
X43243Y-19097D01*
X43277Y-19063D01*
X43295Y-19019D01*
X43295Y-18971D01*
X43295Y-18819D01*
X43300Y-18820D01*
X43587Y-18820D01*
X43597Y-18843D01*
X43631Y-18877D01*
X43675Y-18895D01*
X43723Y-18895D01*
X44052Y-18895D01*
X44128Y-18946D01*
X44250Y-18970D01*
X44372Y-18946D01*
X44447Y-18895D01*
X44473Y-18895D01*
X44823Y-18895D01*
X44867Y-18877D01*
X44901Y-18843D01*
X44910Y-18820D01*
X45054Y-18820D01*
X45054Y-19039D01*
X45072Y-19083D01*
X45106Y-19117D01*
X45150Y-19135D01*
X45198Y-19135D01*
X45348Y-19135D01*
X45396Y-19135D01*
X45398Y-19135D01*
X45652Y-19135D01*
X45696Y-19117D01*
X45710Y-19103D01*
X45710Y-19790D01*
X47710Y-19790D01*
X47710Y-20960D01*
M02*
