G04 (created by PCBNEW-RS274X (2011-12-28 BZR 3254)-stable) date 10/4/2012 4:26:30 PM*
G01*
G70*
G90*
%MOIN*%
G04 Gerber Fmt 3.4, Leading zero omitted, Abs format*
%FSLAX34Y34*%
G04 APERTURE LIST*
%ADD10C,0.006000*%
%ADD11C,0.008000*%
%ADD12C,0.100000*%
%ADD13C,0.005000*%
%ADD14C,0.040000*%
%ADD15C,0.007000*%
%ADD16C,0.020000*%
%ADD17C,0.014000*%
%ADD18C,0.004000*%
%ADD19C,0.004500*%
%ADD20C,0.007500*%
%ADD21C,0.009500*%
G04 APERTURE END LIST*
G54D10*
G54D11*
X38387Y-14310D02*
X38387Y-14569D01*
X38402Y-14599D01*
X38418Y-14614D01*
X38448Y-14630D01*
X38509Y-14630D01*
X38540Y-14614D01*
X38555Y-14599D01*
X38570Y-14569D01*
X38570Y-14310D01*
X38722Y-14416D02*
X38722Y-14736D01*
X38722Y-14431D02*
X38753Y-14416D01*
X38814Y-14416D01*
X38844Y-14431D01*
X38859Y-14447D01*
X38875Y-14477D01*
X38875Y-14569D01*
X38859Y-14599D01*
X38844Y-14614D01*
X38814Y-14630D01*
X38753Y-14630D01*
X38722Y-14614D01*
X39149Y-14614D02*
X39119Y-14630D01*
X39058Y-14630D01*
X39027Y-14614D01*
X39012Y-14599D01*
X38997Y-14569D01*
X38997Y-14477D01*
X39012Y-14447D01*
X39027Y-14431D01*
X39058Y-14416D01*
X39119Y-14416D01*
X39149Y-14431D01*
X39332Y-14630D02*
X39301Y-14614D01*
X39286Y-14599D01*
X39271Y-14569D01*
X39271Y-14477D01*
X39286Y-14447D01*
X39301Y-14431D01*
X39332Y-14416D01*
X39378Y-14416D01*
X39408Y-14431D01*
X39423Y-14447D01*
X39439Y-14477D01*
X39439Y-14569D01*
X39423Y-14599D01*
X39408Y-14614D01*
X39378Y-14630D01*
X39332Y-14630D01*
X39576Y-14416D02*
X39576Y-14630D01*
X39576Y-14447D02*
X39591Y-14431D01*
X39622Y-14416D01*
X39668Y-14416D01*
X39698Y-14431D01*
X39713Y-14462D01*
X39713Y-14630D01*
X39836Y-14416D02*
X39912Y-14630D01*
X39988Y-14416D01*
X40232Y-14614D02*
X40202Y-14630D01*
X40141Y-14630D01*
X40110Y-14614D01*
X40095Y-14584D01*
X40095Y-14462D01*
X40110Y-14431D01*
X40141Y-14416D01*
X40202Y-14416D01*
X40232Y-14431D01*
X40247Y-14462D01*
X40247Y-14492D01*
X40095Y-14523D01*
X40384Y-14630D02*
X40384Y-14416D01*
X40384Y-14477D02*
X40399Y-14447D01*
X40415Y-14431D01*
X40445Y-14416D01*
X40476Y-14416D01*
X40536Y-14416D02*
X40658Y-14416D01*
X40582Y-14310D02*
X40582Y-14584D01*
X40597Y-14614D01*
X40628Y-14630D01*
X40658Y-14630D01*
X38097Y-13630D02*
X38097Y-13310D01*
X38219Y-13310D01*
X38250Y-13325D01*
X38265Y-13340D01*
X38280Y-13370D01*
X38280Y-13416D01*
X38265Y-13447D01*
X38250Y-13462D01*
X38219Y-13477D01*
X38097Y-13477D01*
X38554Y-13630D02*
X38554Y-13462D01*
X38539Y-13431D01*
X38509Y-13416D01*
X38448Y-13416D01*
X38417Y-13431D01*
X38554Y-13614D02*
X38524Y-13630D01*
X38448Y-13630D01*
X38417Y-13614D01*
X38402Y-13584D01*
X38402Y-13553D01*
X38417Y-13523D01*
X38448Y-13508D01*
X38524Y-13508D01*
X38554Y-13492D01*
X38692Y-13614D02*
X38722Y-13630D01*
X38783Y-13630D01*
X38814Y-13614D01*
X38829Y-13584D01*
X38829Y-13569D01*
X38814Y-13538D01*
X38783Y-13523D01*
X38738Y-13523D01*
X38707Y-13508D01*
X38692Y-13477D01*
X38692Y-13462D01*
X38707Y-13431D01*
X38738Y-13416D01*
X38783Y-13416D01*
X38814Y-13431D01*
X38951Y-13614D02*
X38981Y-13630D01*
X39042Y-13630D01*
X39073Y-13614D01*
X39088Y-13584D01*
X39088Y-13569D01*
X39073Y-13538D01*
X39042Y-13523D01*
X38997Y-13523D01*
X38966Y-13508D01*
X38951Y-13477D01*
X38951Y-13462D01*
X38966Y-13431D01*
X38997Y-13416D01*
X39042Y-13416D01*
X39073Y-13431D01*
X39179Y-13416D02*
X39301Y-13416D01*
X39225Y-13310D02*
X39225Y-13584D01*
X39240Y-13614D01*
X39271Y-13630D01*
X39301Y-13630D01*
X39408Y-13630D02*
X39408Y-13310D01*
X39545Y-13630D02*
X39545Y-13462D01*
X39530Y-13431D01*
X39500Y-13416D01*
X39454Y-13416D01*
X39423Y-13431D01*
X39408Y-13447D01*
X39698Y-13630D02*
X39698Y-13416D01*
X39698Y-13477D02*
X39713Y-13447D01*
X39729Y-13431D01*
X39759Y-13416D01*
X39790Y-13416D01*
X39942Y-13630D02*
X39911Y-13614D01*
X39896Y-13599D01*
X39881Y-13569D01*
X39881Y-13477D01*
X39896Y-13447D01*
X39911Y-13431D01*
X39942Y-13416D01*
X39988Y-13416D01*
X40018Y-13431D01*
X40033Y-13447D01*
X40049Y-13477D01*
X40049Y-13569D01*
X40033Y-13599D01*
X40018Y-13614D01*
X39988Y-13630D01*
X39942Y-13630D01*
X40323Y-13416D02*
X40323Y-13630D01*
X40186Y-13416D02*
X40186Y-13584D01*
X40201Y-13614D01*
X40232Y-13630D01*
X40278Y-13630D01*
X40308Y-13614D01*
X40323Y-13599D01*
X40613Y-13416D02*
X40613Y-13675D01*
X40598Y-13706D01*
X40583Y-13721D01*
X40552Y-13736D01*
X40507Y-13736D01*
X40476Y-13721D01*
X40613Y-13614D02*
X40583Y-13630D01*
X40522Y-13630D01*
X40491Y-13614D01*
X40476Y-13599D01*
X40461Y-13569D01*
X40461Y-13477D01*
X40476Y-13447D01*
X40491Y-13431D01*
X40522Y-13416D01*
X40583Y-13416D01*
X40613Y-13431D01*
X40766Y-13630D02*
X40766Y-13310D01*
X40903Y-13630D02*
X40903Y-13462D01*
X40888Y-13431D01*
X40858Y-13416D01*
X40812Y-13416D01*
X40781Y-13431D01*
X40766Y-13447D01*
G54D12*
X41250Y-21500D02*
X47250Y-21500D01*
G54D11*
X40354Y-22646D02*
X40354Y-22286D01*
X40583Y-22646D01*
X40583Y-22286D01*
X40830Y-22646D02*
X40792Y-22629D01*
X40773Y-22611D01*
X40754Y-22577D01*
X40754Y-22474D01*
X40773Y-22440D01*
X40792Y-22423D01*
X40830Y-22406D01*
X40888Y-22406D01*
X40926Y-22423D01*
X40945Y-22440D01*
X40964Y-22474D01*
X40964Y-22577D01*
X40945Y-22611D01*
X40926Y-22629D01*
X40888Y-22646D01*
X40830Y-22646D01*
X41135Y-22646D02*
X41135Y-22406D01*
X41135Y-22286D02*
X41116Y-22303D01*
X41135Y-22320D01*
X41154Y-22303D01*
X41135Y-22286D01*
X41135Y-22320D01*
X41306Y-22629D02*
X41344Y-22646D01*
X41420Y-22646D01*
X41459Y-22629D01*
X41478Y-22594D01*
X41478Y-22577D01*
X41459Y-22543D01*
X41420Y-22526D01*
X41363Y-22526D01*
X41325Y-22509D01*
X41306Y-22474D01*
X41306Y-22457D01*
X41325Y-22423D01*
X41363Y-22406D01*
X41420Y-22406D01*
X41459Y-22423D01*
X41802Y-22629D02*
X41764Y-22646D01*
X41687Y-22646D01*
X41649Y-22629D01*
X41630Y-22594D01*
X41630Y-22457D01*
X41649Y-22423D01*
X41687Y-22406D01*
X41764Y-22406D01*
X41802Y-22423D01*
X41821Y-22457D01*
X41821Y-22491D01*
X41630Y-22526D01*
X42278Y-22629D02*
X42335Y-22646D01*
X42431Y-22646D01*
X42469Y-22629D01*
X42488Y-22611D01*
X42507Y-22577D01*
X42507Y-22543D01*
X42488Y-22509D01*
X42469Y-22491D01*
X42431Y-22474D01*
X42354Y-22457D01*
X42316Y-22440D01*
X42297Y-22423D01*
X42278Y-22389D01*
X42278Y-22354D01*
X42297Y-22320D01*
X42316Y-22303D01*
X42354Y-22286D01*
X42450Y-22286D01*
X42507Y-22303D01*
X42735Y-22646D02*
X42697Y-22629D01*
X42678Y-22611D01*
X42659Y-22577D01*
X42659Y-22474D01*
X42678Y-22440D01*
X42697Y-22423D01*
X42735Y-22406D01*
X42793Y-22406D01*
X42831Y-22423D01*
X42850Y-22440D01*
X42869Y-22474D01*
X42869Y-22577D01*
X42850Y-22611D01*
X42831Y-22629D01*
X42793Y-22646D01*
X42735Y-22646D01*
X43212Y-22406D02*
X43212Y-22646D01*
X43040Y-22406D02*
X43040Y-22594D01*
X43059Y-22629D01*
X43097Y-22646D01*
X43155Y-22646D01*
X43193Y-22629D01*
X43212Y-22611D01*
X43402Y-22646D02*
X43402Y-22406D01*
X43402Y-22474D02*
X43421Y-22440D01*
X43440Y-22423D01*
X43478Y-22406D01*
X43517Y-22406D01*
X43822Y-22629D02*
X43784Y-22646D01*
X43707Y-22646D01*
X43669Y-22629D01*
X43650Y-22611D01*
X43631Y-22577D01*
X43631Y-22474D01*
X43650Y-22440D01*
X43669Y-22423D01*
X43707Y-22406D01*
X43784Y-22406D01*
X43822Y-22423D01*
X44146Y-22629D02*
X44108Y-22646D01*
X44031Y-22646D01*
X43993Y-22629D01*
X43974Y-22594D01*
X43974Y-22457D01*
X43993Y-22423D01*
X44031Y-22406D01*
X44108Y-22406D01*
X44146Y-22423D01*
X44165Y-22457D01*
X44165Y-22491D01*
X43974Y-22526D01*
X45500Y-13000D02*
X45485Y-13145D01*
X45443Y-13285D01*
X45374Y-13415D01*
X45282Y-13528D01*
X45169Y-13621D01*
X45040Y-13691D01*
X44900Y-13734D01*
X44755Y-13749D01*
X44610Y-13736D01*
X44470Y-13695D01*
X44340Y-13627D01*
X44226Y-13535D01*
X44132Y-13423D01*
X44061Y-13295D01*
X44017Y-13155D01*
X44001Y-13010D01*
X44013Y-12865D01*
X44053Y-12724D01*
X44120Y-12594D01*
X44211Y-12480D01*
X44322Y-12385D01*
X44450Y-12313D01*
X44589Y-12268D01*
X44735Y-12251D01*
X44880Y-12262D01*
X45021Y-12301D01*
X45151Y-12367D01*
X45267Y-12457D01*
X45362Y-12568D01*
X45435Y-12695D01*
X45481Y-12834D01*
X45499Y-12980D01*
X45500Y-13000D01*
X44750Y-12250D02*
X44750Y-13750D01*
X44000Y-13000D02*
X45500Y-13000D01*
X21250Y-25500D02*
X22750Y-25500D01*
X22000Y-24750D02*
X22000Y-26250D01*
X22750Y-25500D02*
X22735Y-25645D01*
X22693Y-25785D01*
X22624Y-25915D01*
X22532Y-26028D01*
X22419Y-26121D01*
X22290Y-26191D01*
X22150Y-26234D01*
X22005Y-26249D01*
X21860Y-26236D01*
X21720Y-26195D01*
X21590Y-26127D01*
X21476Y-26035D01*
X21382Y-25923D01*
X21311Y-25795D01*
X21267Y-25655D01*
X21251Y-25510D01*
X21263Y-25365D01*
X21303Y-25224D01*
X21370Y-25094D01*
X21461Y-24980D01*
X21572Y-24885D01*
X21700Y-24813D01*
X21839Y-24768D01*
X21985Y-24751D01*
X22130Y-24762D01*
X22271Y-24801D01*
X22401Y-24867D01*
X22517Y-24957D01*
X22612Y-25068D01*
X22685Y-25195D01*
X22731Y-25334D01*
X22749Y-25480D01*
X22750Y-25500D01*
X26026Y-28630D02*
X25919Y-28477D01*
X25843Y-28630D02*
X25843Y-28310D01*
X25965Y-28310D01*
X25996Y-28325D01*
X26011Y-28340D01*
X26026Y-28370D01*
X26026Y-28416D01*
X26011Y-28447D01*
X25996Y-28462D01*
X25965Y-28477D01*
X25843Y-28477D01*
X26285Y-28614D02*
X26255Y-28630D01*
X26194Y-28630D01*
X26163Y-28614D01*
X26148Y-28584D01*
X26148Y-28462D01*
X26163Y-28431D01*
X26194Y-28416D01*
X26255Y-28416D01*
X26285Y-28431D01*
X26300Y-28462D01*
X26300Y-28492D01*
X26148Y-28523D01*
X26407Y-28416D02*
X26483Y-28630D01*
X26559Y-28416D01*
X26681Y-28599D02*
X26696Y-28614D01*
X26681Y-28630D01*
X26666Y-28614D01*
X26681Y-28599D01*
X26681Y-28630D01*
X27062Y-28340D02*
X27077Y-28325D01*
X27108Y-28310D01*
X27184Y-28310D01*
X27214Y-28325D01*
X27230Y-28340D01*
X27245Y-28370D01*
X27245Y-28401D01*
X27230Y-28447D01*
X27047Y-28630D01*
X27245Y-28630D01*
X27443Y-28310D02*
X27474Y-28310D01*
X27504Y-28325D01*
X27519Y-28340D01*
X27535Y-28370D01*
X27550Y-28431D01*
X27550Y-28508D01*
X27535Y-28569D01*
X27519Y-28599D01*
X27504Y-28614D01*
X27474Y-28630D01*
X27443Y-28630D01*
X27413Y-28614D01*
X27397Y-28599D01*
X27382Y-28569D01*
X27367Y-28508D01*
X27367Y-28431D01*
X27382Y-28370D01*
X27397Y-28340D01*
X27413Y-28325D01*
X27443Y-28310D01*
X27855Y-28630D02*
X27672Y-28630D01*
X27763Y-28630D02*
X27763Y-28310D01*
X27733Y-28355D01*
X27702Y-28386D01*
X27672Y-28401D01*
X27977Y-28340D02*
X27992Y-28325D01*
X28023Y-28310D01*
X28099Y-28310D01*
X28129Y-28325D01*
X28145Y-28340D01*
X28160Y-28370D01*
X28160Y-28401D01*
X28145Y-28447D01*
X27962Y-28630D01*
X28160Y-28630D01*
X28297Y-28508D02*
X28541Y-28508D01*
X28754Y-28310D02*
X28785Y-28310D01*
X28815Y-28325D01*
X28830Y-28340D01*
X28846Y-28370D01*
X28861Y-28431D01*
X28861Y-28508D01*
X28846Y-28569D01*
X28830Y-28599D01*
X28815Y-28614D01*
X28785Y-28630D01*
X28754Y-28630D01*
X28724Y-28614D01*
X28708Y-28599D01*
X28693Y-28569D01*
X28678Y-28508D01*
X28678Y-28431D01*
X28693Y-28370D01*
X28708Y-28340D01*
X28724Y-28325D01*
X28754Y-28310D01*
X29013Y-28630D02*
X29074Y-28630D01*
X29105Y-28614D01*
X29120Y-28599D01*
X29151Y-28553D01*
X29166Y-28492D01*
X29166Y-28370D01*
X29151Y-28340D01*
X29135Y-28325D01*
X29105Y-28310D01*
X29044Y-28310D01*
X29013Y-28325D01*
X28998Y-28340D01*
X28983Y-28370D01*
X28983Y-28447D01*
X28998Y-28477D01*
X29013Y-28492D01*
X29044Y-28508D01*
X29105Y-28508D01*
X29135Y-28492D01*
X29151Y-28477D01*
X29166Y-28447D01*
X29303Y-28508D02*
X29547Y-28508D01*
X29760Y-28310D02*
X29791Y-28310D01*
X29821Y-28325D01*
X29836Y-28340D01*
X29852Y-28370D01*
X29867Y-28431D01*
X29867Y-28508D01*
X29852Y-28569D01*
X29836Y-28599D01*
X29821Y-28614D01*
X29791Y-28630D01*
X29760Y-28630D01*
X29730Y-28614D01*
X29714Y-28599D01*
X29699Y-28569D01*
X29684Y-28508D01*
X29684Y-28431D01*
X29699Y-28370D01*
X29714Y-28340D01*
X29730Y-28325D01*
X29760Y-28310D01*
X29989Y-28340D02*
X30004Y-28325D01*
X30035Y-28310D01*
X30111Y-28310D01*
X30141Y-28325D01*
X30157Y-28340D01*
X30172Y-28370D01*
X30172Y-28401D01*
X30157Y-28447D01*
X29974Y-28630D01*
X30172Y-28630D01*
X19928Y-21380D02*
X19897Y-21364D01*
X19882Y-21349D01*
X19867Y-21319D01*
X19867Y-21227D01*
X19882Y-21197D01*
X19897Y-21181D01*
X19928Y-21166D01*
X19974Y-21166D01*
X20004Y-21181D01*
X20019Y-21197D01*
X20035Y-21227D01*
X20035Y-21319D01*
X20019Y-21349D01*
X20004Y-21364D01*
X19974Y-21380D01*
X19928Y-21380D01*
X20172Y-21166D02*
X20172Y-21486D01*
X20172Y-21181D02*
X20203Y-21166D01*
X20264Y-21166D01*
X20294Y-21181D01*
X20309Y-21197D01*
X20325Y-21227D01*
X20325Y-21319D01*
X20309Y-21349D01*
X20294Y-21364D01*
X20264Y-21380D01*
X20203Y-21380D01*
X20172Y-21364D01*
X20584Y-21364D02*
X20554Y-21380D01*
X20493Y-21380D01*
X20462Y-21364D01*
X20447Y-21334D01*
X20447Y-21212D01*
X20462Y-21181D01*
X20493Y-21166D01*
X20554Y-21166D01*
X20584Y-21181D01*
X20599Y-21212D01*
X20599Y-21242D01*
X20447Y-21273D01*
X20736Y-21166D02*
X20736Y-21380D01*
X20736Y-21197D02*
X20751Y-21181D01*
X20782Y-21166D01*
X20828Y-21166D01*
X20858Y-21181D01*
X20873Y-21212D01*
X20873Y-21380D01*
X21163Y-21380D02*
X21163Y-21060D01*
X21163Y-21364D02*
X21133Y-21380D01*
X21072Y-21380D01*
X21041Y-21364D01*
X21026Y-21349D01*
X21011Y-21319D01*
X21011Y-21227D01*
X21026Y-21197D01*
X21041Y-21181D01*
X21072Y-21166D01*
X21133Y-21166D01*
X21163Y-21181D01*
X21362Y-21380D02*
X21331Y-21364D01*
X21316Y-21349D01*
X21301Y-21319D01*
X21301Y-21227D01*
X21316Y-21197D01*
X21331Y-21181D01*
X21362Y-21166D01*
X21408Y-21166D01*
X21438Y-21181D01*
X21453Y-21197D01*
X21469Y-21227D01*
X21469Y-21319D01*
X21453Y-21349D01*
X21438Y-21364D01*
X21408Y-21380D01*
X21362Y-21380D01*
X21743Y-21166D02*
X21743Y-21380D01*
X21606Y-21166D02*
X21606Y-21334D01*
X21621Y-21364D01*
X21652Y-21380D01*
X21698Y-21380D01*
X21728Y-21364D01*
X21743Y-21349D01*
X21881Y-21364D02*
X21911Y-21380D01*
X21972Y-21380D01*
X22003Y-21364D01*
X22018Y-21334D01*
X22018Y-21319D01*
X22003Y-21288D01*
X21972Y-21273D01*
X21927Y-21273D01*
X21896Y-21258D01*
X21881Y-21227D01*
X21881Y-21212D01*
X21896Y-21181D01*
X21927Y-21166D01*
X21972Y-21166D01*
X22003Y-21181D01*
X22155Y-21349D02*
X22170Y-21364D01*
X22155Y-21380D01*
X22140Y-21364D01*
X22155Y-21349D01*
X22155Y-21380D01*
X22353Y-21380D02*
X22322Y-21364D01*
X22307Y-21349D01*
X22292Y-21319D01*
X22292Y-21227D01*
X22307Y-21197D01*
X22322Y-21181D01*
X22353Y-21166D01*
X22399Y-21166D01*
X22429Y-21181D01*
X22444Y-21197D01*
X22460Y-21227D01*
X22460Y-21319D01*
X22444Y-21349D01*
X22429Y-21364D01*
X22399Y-21380D01*
X22353Y-21380D01*
X22597Y-21380D02*
X22597Y-21166D01*
X22597Y-21227D02*
X22612Y-21197D01*
X22628Y-21181D01*
X22658Y-21166D01*
X22689Y-21166D01*
X22932Y-21166D02*
X22932Y-21425D01*
X22917Y-21456D01*
X22902Y-21471D01*
X22871Y-21486D01*
X22826Y-21486D01*
X22795Y-21471D01*
X22932Y-21364D02*
X22902Y-21380D01*
X22841Y-21380D01*
X22810Y-21364D01*
X22795Y-21349D01*
X22780Y-21319D01*
X22780Y-21227D01*
X22795Y-21197D01*
X22810Y-21181D01*
X22841Y-21166D01*
X22902Y-21166D01*
X22932Y-21181D01*
X23314Y-21044D02*
X23039Y-21456D01*
X23420Y-21060D02*
X23420Y-21319D01*
X23435Y-21349D01*
X23451Y-21364D01*
X23481Y-21380D01*
X23542Y-21380D01*
X23573Y-21364D01*
X23588Y-21349D01*
X23603Y-21319D01*
X23603Y-21060D01*
X23755Y-21166D02*
X23755Y-21486D01*
X23755Y-21181D02*
X23786Y-21166D01*
X23847Y-21166D01*
X23877Y-21181D01*
X23892Y-21197D01*
X23908Y-21227D01*
X23908Y-21319D01*
X23892Y-21349D01*
X23877Y-21364D01*
X23847Y-21380D01*
X23786Y-21380D01*
X23755Y-21364D01*
X24182Y-21364D02*
X24152Y-21380D01*
X24091Y-21380D01*
X24060Y-21364D01*
X24045Y-21349D01*
X24030Y-21319D01*
X24030Y-21227D01*
X24045Y-21197D01*
X24060Y-21181D01*
X24091Y-21166D01*
X24152Y-21166D01*
X24182Y-21181D01*
X24365Y-21380D02*
X24334Y-21364D01*
X24319Y-21349D01*
X24304Y-21319D01*
X24304Y-21227D01*
X24319Y-21197D01*
X24334Y-21181D01*
X24365Y-21166D01*
X24411Y-21166D01*
X24441Y-21181D01*
X24456Y-21197D01*
X24472Y-21227D01*
X24472Y-21319D01*
X24456Y-21349D01*
X24441Y-21364D01*
X24411Y-21380D01*
X24365Y-21380D01*
X24609Y-21166D02*
X24609Y-21380D01*
X24609Y-21197D02*
X24624Y-21181D01*
X24655Y-21166D01*
X24701Y-21166D01*
X24731Y-21181D01*
X24746Y-21212D01*
X24746Y-21380D01*
X24869Y-21166D02*
X24945Y-21380D01*
X25021Y-21166D01*
X25265Y-21364D02*
X25235Y-21380D01*
X25174Y-21380D01*
X25143Y-21364D01*
X25128Y-21334D01*
X25128Y-21212D01*
X25143Y-21181D01*
X25174Y-21166D01*
X25235Y-21166D01*
X25265Y-21181D01*
X25280Y-21212D01*
X25280Y-21242D01*
X25128Y-21273D01*
X25417Y-21380D02*
X25417Y-21166D01*
X25417Y-21227D02*
X25432Y-21197D01*
X25448Y-21181D01*
X25478Y-21166D01*
X25509Y-21166D01*
X25569Y-21166D02*
X25691Y-21166D01*
X25615Y-21060D02*
X25615Y-21334D01*
X25630Y-21364D01*
X25661Y-21380D01*
X25691Y-21380D01*
X25920Y-21364D02*
X25890Y-21380D01*
X25829Y-21380D01*
X25798Y-21364D01*
X25783Y-21334D01*
X25783Y-21212D01*
X25798Y-21181D01*
X25829Y-21166D01*
X25890Y-21166D01*
X25920Y-21181D01*
X25935Y-21212D01*
X25935Y-21242D01*
X25783Y-21273D01*
X26072Y-21380D02*
X26072Y-21166D01*
X26072Y-21227D02*
X26087Y-21197D01*
X26103Y-21181D01*
X26133Y-21166D01*
X26164Y-21166D01*
X13569Y-20686D02*
X13351Y-20686D01*
X13460Y-20686D02*
X13460Y-20226D01*
X13424Y-20292D01*
X13388Y-20336D01*
X13351Y-20358D01*
X13804Y-20226D02*
X13840Y-20226D01*
X13876Y-20248D01*
X13894Y-20270D01*
X13912Y-20314D01*
X13931Y-20401D01*
X13931Y-20511D01*
X13912Y-20599D01*
X13894Y-20642D01*
X13876Y-20664D01*
X13840Y-20686D01*
X13804Y-20686D01*
X13768Y-20664D01*
X13750Y-20642D01*
X13731Y-20599D01*
X13713Y-20511D01*
X13713Y-20401D01*
X13731Y-20314D01*
X13750Y-20270D01*
X13768Y-20248D01*
X13804Y-20226D01*
X14166Y-20226D02*
X14202Y-20226D01*
X14238Y-20248D01*
X14256Y-20270D01*
X14274Y-20314D01*
X14293Y-20401D01*
X14293Y-20511D01*
X14274Y-20599D01*
X14256Y-20642D01*
X14238Y-20664D01*
X14202Y-20686D01*
X14166Y-20686D01*
X14130Y-20664D01*
X14112Y-20642D01*
X14093Y-20599D01*
X14075Y-20511D01*
X14075Y-20401D01*
X14093Y-20314D01*
X14112Y-20270D01*
X14130Y-20248D01*
X14166Y-20226D01*
X14455Y-20686D02*
X14455Y-20226D01*
X14582Y-20555D01*
X14709Y-20226D01*
X14709Y-20686D01*
X14889Y-20686D02*
X14889Y-20226D01*
X14889Y-20445D02*
X15107Y-20445D01*
X15107Y-20686D02*
X15107Y-20226D01*
X15251Y-20380D02*
X15450Y-20380D01*
X15251Y-20686D01*
X15450Y-20686D01*
X15885Y-20226D02*
X15885Y-20599D01*
X15904Y-20642D01*
X15922Y-20664D01*
X15958Y-20686D01*
X16030Y-20686D01*
X16066Y-20664D01*
X16085Y-20642D01*
X16103Y-20599D01*
X16103Y-20226D01*
X16283Y-20380D02*
X16283Y-20840D01*
X16283Y-20401D02*
X16320Y-20380D01*
X16392Y-20380D01*
X16428Y-20401D01*
X16446Y-20423D01*
X16464Y-20467D01*
X16464Y-20599D01*
X16446Y-20642D01*
X16428Y-20664D01*
X16392Y-20686D01*
X16320Y-20686D01*
X16283Y-20664D01*
X16790Y-20664D02*
X16754Y-20686D01*
X16682Y-20686D01*
X16646Y-20664D01*
X16627Y-20642D01*
X16609Y-20599D01*
X16609Y-20467D01*
X16627Y-20423D01*
X16646Y-20401D01*
X16682Y-20380D01*
X16754Y-20380D01*
X16790Y-20401D01*
X17008Y-20686D02*
X16972Y-20664D01*
X16953Y-20642D01*
X16935Y-20599D01*
X16935Y-20467D01*
X16953Y-20423D01*
X16972Y-20401D01*
X17008Y-20380D01*
X17062Y-20380D01*
X17098Y-20401D01*
X17116Y-20423D01*
X17134Y-20467D01*
X17134Y-20599D01*
X17116Y-20642D01*
X17098Y-20664D01*
X17062Y-20686D01*
X17008Y-20686D01*
X17297Y-20380D02*
X17297Y-20686D01*
X17297Y-20423D02*
X17316Y-20401D01*
X17352Y-20380D01*
X17406Y-20380D01*
X17442Y-20401D01*
X17460Y-20445D01*
X17460Y-20686D01*
X17605Y-20380D02*
X17696Y-20686D01*
X17786Y-20380D01*
X18076Y-20664D02*
X18040Y-20686D01*
X17968Y-20686D01*
X17931Y-20664D01*
X17913Y-20620D01*
X17913Y-20445D01*
X17931Y-20401D01*
X17968Y-20380D01*
X18040Y-20380D01*
X18076Y-20401D01*
X18094Y-20445D01*
X18094Y-20489D01*
X17913Y-20533D01*
X18257Y-20686D02*
X18257Y-20380D01*
X18257Y-20467D02*
X18276Y-20423D01*
X18294Y-20401D01*
X18330Y-20380D01*
X18366Y-20380D01*
X18438Y-20380D02*
X18583Y-20380D01*
X18492Y-20226D02*
X18492Y-20620D01*
X18511Y-20664D01*
X18547Y-20686D01*
X18583Y-20686D01*
X18854Y-20664D02*
X18818Y-20686D01*
X18746Y-20686D01*
X18709Y-20664D01*
X18691Y-20620D01*
X18691Y-20445D01*
X18709Y-20401D01*
X18746Y-20380D01*
X18818Y-20380D01*
X18854Y-20401D01*
X18872Y-20445D01*
X18872Y-20489D01*
X18691Y-20533D01*
X19035Y-20686D02*
X19035Y-20380D01*
X19035Y-20467D02*
X19054Y-20423D01*
X19072Y-20401D01*
X19108Y-20380D01*
X19144Y-20380D01*
X19524Y-20380D02*
X19597Y-20686D01*
X19669Y-20467D01*
X19741Y-20686D01*
X19814Y-20380D01*
X19958Y-20686D02*
X19958Y-20380D01*
X19958Y-20226D02*
X19940Y-20248D01*
X19958Y-20270D01*
X19977Y-20248D01*
X19958Y-20226D01*
X19958Y-20270D01*
X20085Y-20380D02*
X20230Y-20380D01*
X20139Y-20226D02*
X20139Y-20620D01*
X20158Y-20664D01*
X20194Y-20686D01*
X20230Y-20686D01*
X20356Y-20686D02*
X20356Y-20226D01*
X20519Y-20686D02*
X20519Y-20445D01*
X20501Y-20401D01*
X20465Y-20380D01*
X20411Y-20380D01*
X20375Y-20401D01*
X20356Y-20423D01*
X20990Y-20511D02*
X21280Y-20511D01*
X21135Y-20686D02*
X21135Y-20336D01*
X21424Y-20226D02*
X21678Y-20226D01*
X21515Y-20686D01*
X22275Y-20686D02*
X22275Y-20226D01*
X22275Y-20664D02*
X22239Y-20686D01*
X22167Y-20686D01*
X22131Y-20664D01*
X22112Y-20642D01*
X22094Y-20599D01*
X22094Y-20467D01*
X22112Y-20423D01*
X22131Y-20401D01*
X22167Y-20380D01*
X22239Y-20380D01*
X22275Y-20401D01*
X22583Y-20445D02*
X22637Y-20467D01*
X22656Y-20489D01*
X22674Y-20533D01*
X22674Y-20599D01*
X22656Y-20642D01*
X22637Y-20664D01*
X22601Y-20686D01*
X22456Y-20686D01*
X22456Y-20226D01*
X22583Y-20226D01*
X22619Y-20248D01*
X22637Y-20270D01*
X22656Y-20314D01*
X22656Y-20358D01*
X22637Y-20401D01*
X22619Y-20423D01*
X22583Y-20445D01*
X22456Y-20445D01*
X22836Y-20686D02*
X22836Y-20380D01*
X22836Y-20423D02*
X22855Y-20401D01*
X22891Y-20380D01*
X22945Y-20380D01*
X22981Y-20401D01*
X22999Y-20445D01*
X22999Y-20686D01*
X22999Y-20445D02*
X23017Y-20401D01*
X23054Y-20380D01*
X23108Y-20380D01*
X23144Y-20401D01*
X23162Y-20445D01*
X23162Y-20686D01*
X23814Y-20686D02*
X23633Y-20686D01*
X23633Y-20226D01*
X24014Y-20226D02*
X24086Y-20226D01*
X24122Y-20248D01*
X24159Y-20292D01*
X24177Y-20380D01*
X24177Y-20533D01*
X24159Y-20620D01*
X24122Y-20664D01*
X24086Y-20686D01*
X24014Y-20686D01*
X23978Y-20664D01*
X23941Y-20620D01*
X23923Y-20533D01*
X23923Y-20380D01*
X23941Y-20292D01*
X23978Y-20248D01*
X24014Y-20226D01*
X24629Y-20686D02*
X24629Y-20226D01*
X24774Y-20226D01*
X24810Y-20248D01*
X24829Y-20270D01*
X24847Y-20314D01*
X24847Y-20380D01*
X24829Y-20423D01*
X24810Y-20445D01*
X24774Y-20467D01*
X24629Y-20467D01*
X25064Y-20686D02*
X25028Y-20664D01*
X25009Y-20642D01*
X24991Y-20599D01*
X24991Y-20467D01*
X25009Y-20423D01*
X25028Y-20401D01*
X25064Y-20380D01*
X25118Y-20380D01*
X25154Y-20401D01*
X25172Y-20423D01*
X25190Y-20467D01*
X25190Y-20599D01*
X25172Y-20642D01*
X25154Y-20664D01*
X25118Y-20686D01*
X25064Y-20686D01*
X25317Y-20380D02*
X25390Y-20686D01*
X25462Y-20467D01*
X25534Y-20686D01*
X25607Y-20380D01*
X25896Y-20664D02*
X25860Y-20686D01*
X25788Y-20686D01*
X25751Y-20664D01*
X25733Y-20620D01*
X25733Y-20445D01*
X25751Y-20401D01*
X25788Y-20380D01*
X25860Y-20380D01*
X25896Y-20401D01*
X25914Y-20445D01*
X25914Y-20489D01*
X25733Y-20533D01*
X26077Y-20686D02*
X26077Y-20380D01*
X26077Y-20467D02*
X26096Y-20423D01*
X26114Y-20401D01*
X26150Y-20380D01*
X26186Y-20380D01*
X12761Y-21380D02*
X12761Y-21060D01*
X12837Y-21060D01*
X12883Y-21075D01*
X12914Y-21105D01*
X12929Y-21136D01*
X12944Y-21197D01*
X12944Y-21242D01*
X12929Y-21303D01*
X12914Y-21334D01*
X12883Y-21364D01*
X12837Y-21380D01*
X12761Y-21380D01*
X13203Y-21364D02*
X13173Y-21380D01*
X13112Y-21380D01*
X13081Y-21364D01*
X13066Y-21334D01*
X13066Y-21212D01*
X13081Y-21181D01*
X13112Y-21166D01*
X13173Y-21166D01*
X13203Y-21181D01*
X13218Y-21212D01*
X13218Y-21242D01*
X13066Y-21273D01*
X13340Y-21364D02*
X13370Y-21380D01*
X13431Y-21380D01*
X13462Y-21364D01*
X13477Y-21334D01*
X13477Y-21319D01*
X13462Y-21288D01*
X13431Y-21273D01*
X13386Y-21273D01*
X13355Y-21258D01*
X13340Y-21227D01*
X13340Y-21212D01*
X13355Y-21181D01*
X13386Y-21166D01*
X13431Y-21166D01*
X13462Y-21181D01*
X13614Y-21380D02*
X13614Y-21166D01*
X13614Y-21060D02*
X13599Y-21075D01*
X13614Y-21090D01*
X13629Y-21075D01*
X13614Y-21060D01*
X13614Y-21090D01*
X13903Y-21166D02*
X13903Y-21425D01*
X13888Y-21456D01*
X13873Y-21471D01*
X13842Y-21486D01*
X13797Y-21486D01*
X13766Y-21471D01*
X13903Y-21364D02*
X13873Y-21380D01*
X13812Y-21380D01*
X13781Y-21364D01*
X13766Y-21349D01*
X13751Y-21319D01*
X13751Y-21227D01*
X13766Y-21197D01*
X13781Y-21181D01*
X13812Y-21166D01*
X13873Y-21166D01*
X13903Y-21181D01*
X14056Y-21166D02*
X14056Y-21380D01*
X14056Y-21197D02*
X14071Y-21181D01*
X14102Y-21166D01*
X14148Y-21166D01*
X14178Y-21181D01*
X14193Y-21212D01*
X14193Y-21380D01*
X14468Y-21364D02*
X14438Y-21380D01*
X14377Y-21380D01*
X14346Y-21364D01*
X14331Y-21334D01*
X14331Y-21212D01*
X14346Y-21181D01*
X14377Y-21166D01*
X14438Y-21166D01*
X14468Y-21181D01*
X14483Y-21212D01*
X14483Y-21242D01*
X14331Y-21273D01*
X14757Y-21380D02*
X14757Y-21060D01*
X14757Y-21364D02*
X14727Y-21380D01*
X14666Y-21380D01*
X14635Y-21364D01*
X14620Y-21349D01*
X14605Y-21319D01*
X14605Y-21227D01*
X14620Y-21197D01*
X14635Y-21181D01*
X14666Y-21166D01*
X14727Y-21166D01*
X14757Y-21181D01*
X15261Y-21212D02*
X15307Y-21227D01*
X15322Y-21242D01*
X15337Y-21273D01*
X15337Y-21319D01*
X15322Y-21349D01*
X15307Y-21364D01*
X15276Y-21380D01*
X15154Y-21380D01*
X15154Y-21060D01*
X15261Y-21060D01*
X15291Y-21075D01*
X15307Y-21090D01*
X15322Y-21120D01*
X15322Y-21151D01*
X15307Y-21181D01*
X15291Y-21197D01*
X15261Y-21212D01*
X15154Y-21212D01*
X15444Y-21166D02*
X15520Y-21380D01*
X15596Y-21166D02*
X15520Y-21380D01*
X15489Y-21456D01*
X15474Y-21471D01*
X15444Y-21486D01*
X16023Y-21060D02*
X16084Y-21060D01*
X16115Y-21075D01*
X16145Y-21105D01*
X16160Y-21166D01*
X16160Y-21273D01*
X16145Y-21334D01*
X16115Y-21364D01*
X16084Y-21380D01*
X16023Y-21380D01*
X15993Y-21364D01*
X15962Y-21334D01*
X15947Y-21273D01*
X15947Y-21166D01*
X15962Y-21105D01*
X15993Y-21075D01*
X16023Y-21060D01*
X16297Y-21166D02*
X16297Y-21486D01*
X16297Y-21181D02*
X16328Y-21166D01*
X16389Y-21166D01*
X16419Y-21181D01*
X16434Y-21197D01*
X16450Y-21227D01*
X16450Y-21319D01*
X16434Y-21349D01*
X16419Y-21364D01*
X16389Y-21380D01*
X16328Y-21380D01*
X16297Y-21364D01*
X16709Y-21364D02*
X16679Y-21380D01*
X16618Y-21380D01*
X16587Y-21364D01*
X16572Y-21334D01*
X16572Y-21212D01*
X16587Y-21181D01*
X16618Y-21166D01*
X16679Y-21166D01*
X16709Y-21181D01*
X16724Y-21212D01*
X16724Y-21242D01*
X16572Y-21273D01*
X16861Y-21166D02*
X16861Y-21380D01*
X16861Y-21197D02*
X16876Y-21181D01*
X16907Y-21166D01*
X16953Y-21166D01*
X16983Y-21181D01*
X16998Y-21212D01*
X16998Y-21380D01*
X17288Y-21380D02*
X17288Y-21060D01*
X17288Y-21364D02*
X17258Y-21380D01*
X17197Y-21380D01*
X17166Y-21364D01*
X17151Y-21349D01*
X17136Y-21319D01*
X17136Y-21227D01*
X17151Y-21197D01*
X17166Y-21181D01*
X17197Y-21166D01*
X17258Y-21166D01*
X17288Y-21181D01*
X17487Y-21380D02*
X17456Y-21364D01*
X17441Y-21349D01*
X17426Y-21319D01*
X17426Y-21227D01*
X17441Y-21197D01*
X17456Y-21181D01*
X17487Y-21166D01*
X17533Y-21166D01*
X17563Y-21181D01*
X17578Y-21197D01*
X17594Y-21227D01*
X17594Y-21319D01*
X17578Y-21349D01*
X17563Y-21364D01*
X17533Y-21380D01*
X17487Y-21380D01*
X17868Y-21166D02*
X17868Y-21380D01*
X17731Y-21166D02*
X17731Y-21334D01*
X17746Y-21364D01*
X17777Y-21380D01*
X17823Y-21380D01*
X17853Y-21364D01*
X17868Y-21349D01*
X18006Y-21364D02*
X18036Y-21380D01*
X18097Y-21380D01*
X18128Y-21364D01*
X18143Y-21334D01*
X18143Y-21319D01*
X18128Y-21288D01*
X18097Y-21273D01*
X18052Y-21273D01*
X18021Y-21258D01*
X18006Y-21227D01*
X18006Y-21212D01*
X18021Y-21181D01*
X18052Y-21166D01*
X18097Y-21166D01*
X18128Y-21181D01*
X18524Y-21380D02*
X18524Y-21060D01*
X18676Y-21166D02*
X18676Y-21380D01*
X18676Y-21197D02*
X18691Y-21181D01*
X18722Y-21166D01*
X18768Y-21166D01*
X18798Y-21181D01*
X18813Y-21212D01*
X18813Y-21380D01*
X19103Y-21364D02*
X19073Y-21380D01*
X19012Y-21380D01*
X18981Y-21364D01*
X18966Y-21349D01*
X18951Y-21319D01*
X18951Y-21227D01*
X18966Y-21197D01*
X18981Y-21181D01*
X19012Y-21166D01*
X19073Y-21166D01*
X19103Y-21181D01*
X19240Y-21349D02*
X19255Y-21364D01*
X19240Y-21380D01*
X19225Y-21364D01*
X19240Y-21349D01*
X19240Y-21380D01*
G54D13*
X17347Y-11394D02*
X17643Y-11394D01*
X17347Y-11906D02*
X17643Y-11906D01*
X17957Y-11906D02*
X18253Y-11906D01*
X18253Y-11906D02*
X18253Y-11394D01*
X18253Y-11394D02*
X17957Y-11394D01*
X16747Y-11906D02*
X16747Y-11394D01*
X16747Y-11906D02*
X17043Y-11906D01*
X16747Y-11394D02*
X17043Y-11394D01*
X26100Y-25700D02*
X25400Y-25700D01*
X25400Y-25700D02*
X25400Y-24500D01*
X25400Y-24500D02*
X26100Y-24500D01*
X26100Y-24500D02*
X26100Y-25700D01*
G54D14*
X20200Y-27550D02*
X20195Y-27598D01*
X20181Y-27645D01*
X20158Y-27688D01*
X20127Y-27726D01*
X20089Y-27757D01*
X20046Y-27780D01*
X20000Y-27794D01*
X19951Y-27799D01*
X19904Y-27795D01*
X19857Y-27781D01*
X19814Y-27759D01*
X19776Y-27728D01*
X19744Y-27691D01*
X19721Y-27648D01*
X19706Y-27601D01*
X19701Y-27553D01*
X19705Y-27505D01*
X19718Y-27458D01*
X19740Y-27415D01*
X19771Y-27377D01*
X19808Y-27345D01*
X19850Y-27321D01*
X19897Y-27306D01*
X19945Y-27301D01*
X19993Y-27304D01*
X20040Y-27317D01*
X20083Y-27339D01*
X20122Y-27369D01*
X20154Y-27406D01*
X20178Y-27449D01*
X20193Y-27495D01*
X20199Y-27544D01*
X20200Y-27550D01*
G54D11*
X20000Y-28100D02*
X19600Y-28100D01*
X19600Y-28100D02*
X19400Y-27900D01*
X19400Y-27900D02*
X19400Y-27500D01*
X19400Y-22900D02*
X24600Y-22900D01*
X24600Y-22900D02*
X24600Y-28100D01*
X24600Y-28100D02*
X20000Y-28100D01*
X19400Y-27500D02*
X19400Y-22900D01*
X34389Y-24831D02*
X34386Y-24858D01*
X34378Y-24884D01*
X34365Y-24909D01*
X34348Y-24930D01*
X34326Y-24947D01*
X34302Y-24960D01*
X34276Y-24969D01*
X34248Y-24971D01*
X34222Y-24969D01*
X34196Y-24961D01*
X34171Y-24948D01*
X34150Y-24931D01*
X34132Y-24910D01*
X34119Y-24886D01*
X34111Y-24860D01*
X34108Y-24832D01*
X34110Y-24806D01*
X34117Y-24780D01*
X34130Y-24755D01*
X34147Y-24734D01*
X34168Y-24716D01*
X34192Y-24702D01*
X34218Y-24694D01*
X34246Y-24691D01*
X34272Y-24693D01*
X34298Y-24700D01*
X34323Y-24712D01*
X34345Y-24729D01*
X34363Y-24750D01*
X34376Y-24774D01*
X34385Y-24800D01*
X34388Y-24828D01*
X34389Y-24831D01*
X34336Y-24831D02*
X34334Y-24848D01*
X34329Y-24864D01*
X34321Y-24879D01*
X34310Y-24893D01*
X34297Y-24903D01*
X34282Y-24912D01*
X34265Y-24917D01*
X34248Y-24918D01*
X34232Y-24917D01*
X34216Y-24912D01*
X34200Y-24904D01*
X34187Y-24893D01*
X34176Y-24880D01*
X34168Y-24865D01*
X34162Y-24849D01*
X34161Y-24832D01*
X34162Y-24816D01*
X34167Y-24799D01*
X34175Y-24784D01*
X34185Y-24770D01*
X34198Y-24759D01*
X34213Y-24751D01*
X34230Y-24746D01*
X34247Y-24744D01*
X34263Y-24745D01*
X34279Y-24749D01*
X34295Y-24757D01*
X34308Y-24768D01*
X34319Y-24781D01*
X34328Y-24796D01*
X34333Y-24812D01*
X34335Y-24829D01*
X34336Y-24831D01*
G54D10*
X34091Y-25854D02*
X34012Y-25854D01*
X34091Y-25854D02*
X34091Y-25146D01*
X34091Y-25146D02*
X34012Y-25146D01*
X32909Y-25146D02*
X32988Y-25146D01*
X32909Y-25854D02*
X32988Y-25854D01*
X32909Y-25146D02*
X32909Y-25854D01*
G54D11*
X15244Y-22213D02*
X15241Y-22237D01*
X15234Y-22260D01*
X15223Y-22281D01*
X15207Y-22300D01*
X15189Y-22315D01*
X15168Y-22327D01*
X15144Y-22334D01*
X15120Y-22336D01*
X15097Y-22334D01*
X15074Y-22327D01*
X15053Y-22316D01*
X15034Y-22301D01*
X15018Y-22283D01*
X15007Y-22261D01*
X14999Y-22238D01*
X14997Y-22214D01*
X14999Y-22191D01*
X15005Y-22168D01*
X15016Y-22146D01*
X15031Y-22127D01*
X15050Y-22112D01*
X15071Y-22100D01*
X15094Y-22092D01*
X15118Y-22090D01*
X15141Y-22091D01*
X15164Y-22098D01*
X15186Y-22109D01*
X15205Y-22124D01*
X15221Y-22142D01*
X15233Y-22163D01*
X15240Y-22186D01*
X15243Y-22210D01*
X15244Y-22213D01*
X15199Y-22213D02*
X15197Y-22228D01*
X15193Y-22243D01*
X15185Y-22256D01*
X15176Y-22268D01*
X15164Y-22278D01*
X15150Y-22285D01*
X15135Y-22290D01*
X15120Y-22291D01*
X15106Y-22290D01*
X15091Y-22286D01*
X15077Y-22279D01*
X15065Y-22269D01*
X15055Y-22257D01*
X15048Y-22244D01*
X15043Y-22229D01*
X15042Y-22214D01*
X15043Y-22199D01*
X15047Y-22184D01*
X15054Y-22171D01*
X15064Y-22159D01*
X15075Y-22149D01*
X15089Y-22141D01*
X15104Y-22136D01*
X15119Y-22135D01*
X15133Y-22136D01*
X15148Y-22140D01*
X15162Y-22147D01*
X15174Y-22156D01*
X15184Y-22168D01*
X15192Y-22181D01*
X15197Y-22196D01*
X15198Y-22211D01*
X15199Y-22213D01*
G54D10*
X16104Y-22409D02*
X16104Y-22488D01*
X16104Y-22409D02*
X15396Y-22409D01*
X15396Y-22409D02*
X15396Y-22488D01*
X15396Y-23591D02*
X15396Y-23512D01*
X16104Y-23591D02*
X16104Y-23512D01*
X15396Y-23591D02*
X16104Y-23591D01*
G54D11*
X32426Y-12288D02*
X32423Y-12312D01*
X32416Y-12335D01*
X32405Y-12357D01*
X32389Y-12376D01*
X32370Y-12391D01*
X32349Y-12403D01*
X32326Y-12410D01*
X32301Y-12412D01*
X32278Y-12410D01*
X32255Y-12403D01*
X32233Y-12392D01*
X32214Y-12377D01*
X32198Y-12358D01*
X32187Y-12337D01*
X32179Y-12313D01*
X32177Y-12289D01*
X32179Y-12266D01*
X32185Y-12242D01*
X32196Y-12221D01*
X32212Y-12202D01*
X32230Y-12186D01*
X32251Y-12174D01*
X32275Y-12166D01*
X32299Y-12164D01*
X32322Y-12165D01*
X32346Y-12172D01*
X32367Y-12183D01*
X32387Y-12198D01*
X32403Y-12216D01*
X32415Y-12238D01*
X32422Y-12261D01*
X32425Y-12285D01*
X32426Y-12288D01*
X32389Y-12288D02*
X32387Y-12305D01*
X32382Y-12321D01*
X32374Y-12336D01*
X32363Y-12350D01*
X32350Y-12360D01*
X32335Y-12369D01*
X32318Y-12374D01*
X32301Y-12375D01*
X32285Y-12374D01*
X32269Y-12369D01*
X32253Y-12361D01*
X32240Y-12350D01*
X32229Y-12337D01*
X32221Y-12322D01*
X32215Y-12306D01*
X32214Y-12289D01*
X32215Y-12273D01*
X32220Y-12256D01*
X32228Y-12241D01*
X32238Y-12227D01*
X32251Y-12216D01*
X32266Y-12208D01*
X32283Y-12203D01*
X32300Y-12201D01*
X32316Y-12202D01*
X32332Y-12206D01*
X32348Y-12214D01*
X32361Y-12225D01*
X32372Y-12238D01*
X32381Y-12253D01*
X32386Y-12269D01*
X32388Y-12286D01*
X32389Y-12288D01*
G54D10*
X31396Y-12091D02*
X31396Y-12012D01*
X31396Y-12091D02*
X32104Y-12091D01*
X32104Y-12091D02*
X32104Y-12012D01*
X32104Y-10909D02*
X32104Y-10988D01*
X31396Y-10909D02*
X31396Y-10988D01*
X32104Y-10909D02*
X31396Y-10909D01*
G54D11*
X41953Y-17634D02*
X41949Y-17665D01*
X41940Y-17695D01*
X41925Y-17723D01*
X41905Y-17748D01*
X41881Y-17768D01*
X41853Y-17783D01*
X41823Y-17792D01*
X41792Y-17795D01*
X41761Y-17793D01*
X41731Y-17784D01*
X41703Y-17769D01*
X41678Y-17749D01*
X41658Y-17725D01*
X41643Y-17697D01*
X41633Y-17667D01*
X41630Y-17636D01*
X41632Y-17605D01*
X41641Y-17575D01*
X41655Y-17547D01*
X41675Y-17522D01*
X41699Y-17501D01*
X41727Y-17486D01*
X41757Y-17476D01*
X41788Y-17473D01*
X41819Y-17475D01*
X41849Y-17483D01*
X41877Y-17498D01*
X41902Y-17517D01*
X41923Y-17541D01*
X41938Y-17569D01*
X41948Y-17599D01*
X41952Y-17630D01*
X41953Y-17634D01*
X41909Y-17634D02*
X41906Y-17656D01*
X41900Y-17678D01*
X41889Y-17699D01*
X41874Y-17717D01*
X41856Y-17731D01*
X41836Y-17742D01*
X41814Y-17749D01*
X41791Y-17751D01*
X41769Y-17749D01*
X41747Y-17743D01*
X41727Y-17732D01*
X41709Y-17718D01*
X41694Y-17700D01*
X41683Y-17680D01*
X41676Y-17658D01*
X41674Y-17635D01*
X41675Y-17613D01*
X41682Y-17591D01*
X41692Y-17571D01*
X41707Y-17553D01*
X41724Y-17538D01*
X41744Y-17526D01*
X41766Y-17519D01*
X41789Y-17517D01*
X41811Y-17518D01*
X41833Y-17524D01*
X41854Y-17535D01*
X41872Y-17549D01*
X41887Y-17566D01*
X41898Y-17587D01*
X41906Y-17608D01*
X41908Y-17631D01*
X41909Y-17634D01*
G54D10*
X42854Y-17909D02*
X42854Y-17988D01*
X42854Y-17909D02*
X42146Y-17909D01*
X42146Y-17909D02*
X42146Y-17988D01*
X42146Y-19091D02*
X42146Y-19012D01*
X42854Y-19091D02*
X42854Y-19012D01*
X42146Y-19091D02*
X42854Y-19091D01*
G54D11*
X17483Y-14287D02*
X17480Y-14314D01*
X17472Y-14341D01*
X17459Y-14365D01*
X17441Y-14387D01*
X17420Y-14404D01*
X17396Y-14417D01*
X17369Y-14426D01*
X17341Y-14428D01*
X17315Y-14426D01*
X17288Y-14418D01*
X17264Y-14405D01*
X17242Y-14388D01*
X17224Y-14367D01*
X17211Y-14342D01*
X17203Y-14316D01*
X17200Y-14288D01*
X17202Y-14262D01*
X17209Y-14235D01*
X17222Y-14211D01*
X17239Y-14189D01*
X17260Y-14171D01*
X17285Y-14157D01*
X17311Y-14149D01*
X17339Y-14146D01*
X17365Y-14148D01*
X17392Y-14155D01*
X17417Y-14168D01*
X17438Y-14185D01*
X17457Y-14206D01*
X17470Y-14230D01*
X17479Y-14256D01*
X17482Y-14284D01*
X17483Y-14287D01*
X17428Y-14287D02*
X17426Y-14304D01*
X17421Y-14320D01*
X17413Y-14335D01*
X17402Y-14349D01*
X17389Y-14359D01*
X17374Y-14368D01*
X17357Y-14373D01*
X17340Y-14374D01*
X17324Y-14373D01*
X17308Y-14368D01*
X17292Y-14360D01*
X17279Y-14349D01*
X17268Y-14336D01*
X17260Y-14321D01*
X17254Y-14305D01*
X17253Y-14288D01*
X17254Y-14272D01*
X17259Y-14255D01*
X17267Y-14240D01*
X17277Y-14226D01*
X17290Y-14215D01*
X17305Y-14207D01*
X17322Y-14202D01*
X17339Y-14200D01*
X17355Y-14201D01*
X17371Y-14205D01*
X17387Y-14213D01*
X17400Y-14224D01*
X17411Y-14237D01*
X17420Y-14252D01*
X17425Y-14268D01*
X17427Y-14285D01*
X17428Y-14287D01*
G54D10*
X16396Y-14091D02*
X16396Y-14012D01*
X16396Y-14091D02*
X17104Y-14091D01*
X17104Y-14091D02*
X17104Y-14012D01*
X17104Y-12909D02*
X17104Y-12988D01*
X16396Y-12909D02*
X16396Y-12988D01*
X17104Y-12909D02*
X16396Y-12909D01*
G54D11*
X35433Y-23909D02*
X35276Y-23909D01*
X35276Y-23909D02*
X35276Y-24185D01*
X35276Y-24185D02*
X34724Y-24185D01*
X34724Y-24185D02*
X34724Y-23909D01*
X34724Y-23909D02*
X34567Y-23909D01*
X34567Y-24303D02*
X35433Y-24303D01*
X34567Y-25091D02*
X34724Y-25091D01*
X35433Y-25091D02*
X35276Y-25091D01*
X34567Y-25091D02*
X34567Y-24657D01*
X34567Y-23909D02*
X34567Y-24303D01*
X35433Y-23909D02*
X35433Y-24303D01*
X35433Y-25091D02*
X35433Y-24657D01*
G54D15*
X35433Y-24264D02*
X34567Y-24264D01*
X34606Y-24224D02*
X34606Y-23909D01*
X34685Y-23909D02*
X34685Y-24224D01*
X34646Y-24224D02*
X34646Y-23909D01*
X34724Y-23909D02*
X34724Y-24224D01*
X35276Y-23909D02*
X35276Y-24224D01*
X35315Y-24224D02*
X35315Y-23909D01*
X35354Y-23909D02*
X35354Y-24224D01*
X35394Y-24224D02*
X35394Y-23909D01*
X35433Y-24224D02*
X34567Y-24224D01*
X34567Y-23909D02*
X34724Y-23909D01*
X35433Y-23909D02*
X35276Y-23909D01*
G54D11*
X42693Y-24132D02*
X42693Y-24329D01*
X42634Y-24132D02*
X42752Y-24132D01*
X42752Y-24132D02*
X42752Y-24329D01*
X42752Y-24329D02*
X42634Y-24329D01*
X42581Y-24861D02*
X42578Y-24885D01*
X42571Y-24908D01*
X42560Y-24930D01*
X42544Y-24949D01*
X42525Y-24964D01*
X42504Y-24976D01*
X42481Y-24983D01*
X42456Y-24985D01*
X42433Y-24983D01*
X42410Y-24976D01*
X42388Y-24965D01*
X42369Y-24950D01*
X42353Y-24931D01*
X42342Y-24910D01*
X42334Y-24886D01*
X42332Y-24862D01*
X42334Y-24839D01*
X42340Y-24815D01*
X42351Y-24794D01*
X42367Y-24775D01*
X42385Y-24759D01*
X42406Y-24747D01*
X42430Y-24739D01*
X42454Y-24737D01*
X42477Y-24738D01*
X42501Y-24745D01*
X42522Y-24756D01*
X42542Y-24771D01*
X42558Y-24789D01*
X42570Y-24811D01*
X42577Y-24834D01*
X42580Y-24858D01*
X42581Y-24861D01*
X44366Y-23778D02*
X44366Y-24722D01*
X44366Y-24722D02*
X44209Y-24722D01*
X44366Y-23778D02*
X44209Y-23778D01*
X42634Y-23778D02*
X42634Y-24722D01*
X42634Y-24722D02*
X42791Y-24722D01*
X42634Y-23778D02*
X42791Y-23778D01*
X40193Y-24132D02*
X40193Y-24329D01*
X40134Y-24132D02*
X40252Y-24132D01*
X40252Y-24132D02*
X40252Y-24329D01*
X40252Y-24329D02*
X40134Y-24329D01*
X40081Y-24861D02*
X40078Y-24885D01*
X40071Y-24908D01*
X40060Y-24930D01*
X40044Y-24949D01*
X40025Y-24964D01*
X40004Y-24976D01*
X39981Y-24983D01*
X39956Y-24985D01*
X39933Y-24983D01*
X39910Y-24976D01*
X39888Y-24965D01*
X39869Y-24950D01*
X39853Y-24931D01*
X39842Y-24910D01*
X39834Y-24886D01*
X39832Y-24862D01*
X39834Y-24839D01*
X39840Y-24815D01*
X39851Y-24794D01*
X39867Y-24775D01*
X39885Y-24759D01*
X39906Y-24747D01*
X39930Y-24739D01*
X39954Y-24737D01*
X39977Y-24738D01*
X40001Y-24745D01*
X40022Y-24756D01*
X40042Y-24771D01*
X40058Y-24789D01*
X40070Y-24811D01*
X40077Y-24834D01*
X40080Y-24858D01*
X40081Y-24861D01*
X41866Y-23778D02*
X41866Y-24722D01*
X41866Y-24722D02*
X41709Y-24722D01*
X41866Y-23778D02*
X41709Y-23778D01*
X40134Y-23778D02*
X40134Y-24722D01*
X40134Y-24722D02*
X40291Y-24722D01*
X40134Y-23778D02*
X40291Y-23778D01*
X32350Y-23150D02*
X32350Y-23050D01*
X32350Y-23050D02*
X31650Y-23050D01*
X31650Y-23050D02*
X31650Y-23100D01*
X32350Y-23200D02*
X32350Y-23100D01*
X32350Y-23100D02*
X31650Y-23100D01*
X31650Y-23100D02*
X31650Y-23200D01*
X32350Y-23650D02*
X32350Y-23150D01*
X32350Y-23150D02*
X31650Y-23150D01*
X31650Y-23150D02*
X31650Y-23650D01*
G54D13*
X32305Y-24331D02*
X32305Y-23927D01*
X31695Y-24331D02*
X32305Y-24331D01*
X31695Y-24331D02*
X31695Y-23927D01*
X32305Y-23169D02*
X32305Y-23563D01*
X31695Y-23169D02*
X31695Y-23563D01*
X32305Y-23169D02*
X31695Y-23169D01*
G54D11*
X12000Y-22400D02*
X12000Y-22300D01*
X12000Y-22300D02*
X11300Y-22300D01*
X11300Y-22300D02*
X11300Y-22350D01*
X12000Y-22350D02*
X11300Y-22350D01*
X11300Y-22350D02*
X11300Y-22400D01*
X12000Y-22400D02*
X11300Y-22400D01*
X11300Y-22400D02*
X11300Y-22900D01*
X12000Y-22900D02*
X12000Y-22350D01*
G54D13*
X11955Y-23581D02*
X11955Y-23177D01*
X11345Y-23581D02*
X11955Y-23581D01*
X11345Y-23581D02*
X11345Y-23177D01*
X11955Y-22419D02*
X11955Y-22813D01*
X11345Y-22419D02*
X11345Y-22813D01*
X11955Y-22419D02*
X11345Y-22419D01*
G54D11*
X35394Y-27406D02*
X35394Y-26835D01*
X34606Y-27406D02*
X34606Y-26835D01*
X35394Y-25594D02*
X35394Y-26165D01*
X34606Y-25594D02*
X34606Y-26165D01*
X35394Y-25594D02*
X34606Y-25594D01*
X35394Y-27406D02*
X34606Y-27406D01*
G54D15*
X14327Y-27193D02*
X14130Y-27193D01*
X12673Y-27193D02*
X12870Y-27193D01*
X12004Y-27980D02*
X12004Y-27665D01*
X14996Y-27980D02*
X14996Y-27665D01*
X12004Y-28964D02*
X14996Y-28964D01*
X14996Y-28964D02*
X14996Y-28807D01*
X12004Y-28964D02*
X12004Y-28807D01*
G54D11*
X11100Y-26700D02*
X11100Y-25000D01*
X11100Y-25000D02*
X15900Y-25000D01*
X15900Y-25000D02*
X15900Y-26800D01*
G54D13*
X12945Y-17019D02*
X12945Y-17423D01*
X13555Y-17019D02*
X12945Y-17019D01*
X13555Y-17019D02*
X13555Y-17423D01*
X12945Y-18181D02*
X12945Y-17787D01*
X13555Y-18181D02*
X13555Y-17787D01*
X12945Y-18181D02*
X13555Y-18181D01*
G54D10*
X13187Y-14156D02*
X13187Y-13644D01*
X13187Y-13644D02*
X13423Y-13644D01*
X13777Y-13644D02*
X14013Y-13644D01*
X14013Y-13644D02*
X14013Y-14156D01*
X13679Y-14156D02*
X13521Y-14156D01*
G54D13*
X12695Y-22419D02*
X12695Y-22823D01*
X13305Y-22419D02*
X12695Y-22419D01*
X13305Y-22419D02*
X13305Y-22823D01*
X12695Y-23581D02*
X12695Y-23187D01*
X13305Y-23581D02*
X13305Y-23187D01*
X12695Y-23581D02*
X13305Y-23581D01*
X17919Y-25555D02*
X18323Y-25555D01*
X17919Y-24945D02*
X17919Y-25555D01*
X17919Y-24945D02*
X18323Y-24945D01*
X19081Y-25555D02*
X18687Y-25555D01*
X19081Y-24945D02*
X18687Y-24945D01*
X19081Y-25555D02*
X19081Y-24945D01*
X17919Y-24555D02*
X18323Y-24555D01*
X17919Y-23945D02*
X17919Y-24555D01*
X17919Y-23945D02*
X18323Y-23945D01*
X19081Y-24555D02*
X18687Y-24555D01*
X19081Y-23945D02*
X18687Y-23945D01*
X19081Y-24555D02*
X19081Y-23945D01*
X15081Y-16845D02*
X14677Y-16845D01*
X15081Y-17455D02*
X15081Y-16845D01*
X15081Y-17455D02*
X14677Y-17455D01*
X13919Y-16845D02*
X14313Y-16845D01*
X13919Y-17455D02*
X14313Y-17455D01*
X13919Y-16845D02*
X13919Y-17455D01*
X15445Y-17019D02*
X15445Y-17423D01*
X16055Y-17019D02*
X15445Y-17019D01*
X16055Y-17019D02*
X16055Y-17423D01*
X15445Y-18181D02*
X15445Y-17787D01*
X16055Y-18181D02*
X16055Y-17787D01*
X15445Y-18181D02*
X16055Y-18181D01*
X17581Y-16845D02*
X17177Y-16845D01*
X17581Y-17455D02*
X17581Y-16845D01*
X17581Y-17455D02*
X17177Y-17455D01*
X16419Y-16845D02*
X16813Y-16845D01*
X16419Y-17455D02*
X16813Y-17455D01*
X16419Y-16845D02*
X16419Y-17455D01*
X13695Y-22419D02*
X13695Y-22823D01*
X14305Y-22419D02*
X13695Y-22419D01*
X14305Y-22419D02*
X14305Y-22823D01*
X13695Y-23581D02*
X13695Y-23187D01*
X14305Y-23581D02*
X14305Y-23187D01*
X13695Y-23581D02*
X14305Y-23581D01*
X17945Y-17019D02*
X17945Y-17423D01*
X18555Y-17019D02*
X17945Y-17019D01*
X18555Y-17019D02*
X18555Y-17423D01*
X17945Y-18181D02*
X17945Y-17787D01*
X18555Y-18181D02*
X18555Y-17787D01*
X17945Y-18181D02*
X18555Y-18181D01*
X20081Y-16845D02*
X19677Y-16845D01*
X20081Y-17455D02*
X20081Y-16845D01*
X20081Y-17455D02*
X19677Y-17455D01*
X18919Y-16845D02*
X19313Y-16845D01*
X18919Y-17455D02*
X19313Y-17455D01*
X18919Y-16845D02*
X18919Y-17455D01*
X20445Y-17019D02*
X20445Y-17423D01*
X21055Y-17019D02*
X20445Y-17019D01*
X21055Y-17019D02*
X21055Y-17423D01*
X20445Y-18181D02*
X20445Y-17787D01*
X21055Y-18181D02*
X21055Y-17787D01*
X20445Y-18181D02*
X21055Y-18181D01*
X15419Y-24555D02*
X15823Y-24555D01*
X15419Y-23945D02*
X15419Y-24555D01*
X15419Y-23945D02*
X15823Y-23945D01*
X16581Y-24555D02*
X16187Y-24555D01*
X16581Y-23945D02*
X16187Y-23945D01*
X16581Y-24555D02*
X16581Y-23945D01*
X28155Y-17231D02*
X28155Y-16827D01*
X27545Y-17231D02*
X28155Y-17231D01*
X27545Y-17231D02*
X27545Y-16827D01*
X28155Y-16069D02*
X28155Y-16463D01*
X27545Y-16069D02*
X27545Y-16463D01*
X28155Y-16069D02*
X27545Y-16069D01*
X29531Y-15945D02*
X29127Y-15945D01*
X29531Y-16555D02*
X29531Y-15945D01*
X29531Y-16555D02*
X29127Y-16555D01*
X28369Y-15945D02*
X28763Y-15945D01*
X28369Y-16555D02*
X28763Y-16555D01*
X28369Y-15945D02*
X28369Y-16555D01*
X31145Y-15269D02*
X31145Y-15673D01*
X31755Y-15269D02*
X31145Y-15269D01*
X31755Y-15269D02*
X31755Y-15673D01*
X31145Y-16431D02*
X31145Y-16037D01*
X31755Y-16431D02*
X31755Y-16037D01*
X31145Y-16431D02*
X31755Y-16431D01*
X33981Y-15945D02*
X33577Y-15945D01*
X33981Y-16555D02*
X33981Y-15945D01*
X33981Y-16555D02*
X33577Y-16555D01*
X32819Y-15945D02*
X33213Y-15945D01*
X32819Y-16555D02*
X33213Y-16555D01*
X32819Y-15945D02*
X32819Y-16555D01*
X33955Y-19981D02*
X33955Y-19577D01*
X33345Y-19981D02*
X33955Y-19981D01*
X33345Y-19981D02*
X33345Y-19577D01*
X33955Y-18819D02*
X33955Y-19213D01*
X33345Y-18819D02*
X33345Y-19213D01*
X33955Y-18819D02*
X33345Y-18819D01*
X36181Y-18695D02*
X35777Y-18695D01*
X36181Y-19305D02*
X36181Y-18695D01*
X36181Y-19305D02*
X35777Y-19305D01*
X35019Y-18695D02*
X35413Y-18695D01*
X35019Y-19305D02*
X35413Y-19305D01*
X35019Y-18695D02*
X35019Y-19305D01*
X37795Y-18019D02*
X37795Y-18423D01*
X38405Y-18019D02*
X37795Y-18019D01*
X38405Y-18019D02*
X38405Y-18423D01*
X37795Y-19181D02*
X37795Y-18787D01*
X38405Y-19181D02*
X38405Y-18787D01*
X37795Y-19181D02*
X38405Y-19181D01*
X12919Y-24555D02*
X13323Y-24555D01*
X12919Y-23945D02*
X12919Y-24555D01*
X12919Y-23945D02*
X13323Y-23945D01*
X14081Y-24555D02*
X13687Y-24555D01*
X14081Y-23945D02*
X13687Y-23945D01*
X14081Y-24555D02*
X14081Y-23945D01*
X27569Y-24255D02*
X27973Y-24255D01*
X27569Y-23645D02*
X27569Y-24255D01*
X27569Y-23645D02*
X27973Y-23645D01*
X28731Y-24255D02*
X28337Y-24255D01*
X28731Y-23645D02*
X28337Y-23645D01*
X28731Y-24255D02*
X28731Y-23645D01*
X13919Y-18305D02*
X14323Y-18305D01*
X13919Y-17695D02*
X13919Y-18305D01*
X13919Y-17695D02*
X14323Y-17695D01*
X15081Y-18305D02*
X14687Y-18305D01*
X15081Y-17695D02*
X14687Y-17695D01*
X15081Y-18305D02*
X15081Y-17695D01*
X16419Y-18305D02*
X16823Y-18305D01*
X16419Y-17695D02*
X16419Y-18305D01*
X16419Y-17695D02*
X16823Y-17695D01*
X17581Y-18305D02*
X17187Y-18305D01*
X17581Y-17695D02*
X17187Y-17695D01*
X17581Y-18305D02*
X17581Y-17695D01*
X18919Y-18305D02*
X19323Y-18305D01*
X18919Y-17695D02*
X18919Y-18305D01*
X18919Y-17695D02*
X19323Y-17695D01*
X20081Y-18305D02*
X19687Y-18305D01*
X20081Y-17695D02*
X19687Y-17695D01*
X20081Y-18305D02*
X20081Y-17695D01*
X28855Y-21981D02*
X28855Y-21577D01*
X28245Y-21981D02*
X28855Y-21981D01*
X28245Y-21981D02*
X28245Y-21577D01*
X28855Y-20819D02*
X28855Y-21213D01*
X28245Y-20819D02*
X28245Y-21213D01*
X28855Y-20819D02*
X28245Y-20819D01*
X27305Y-17231D02*
X27305Y-16827D01*
X26695Y-17231D02*
X27305Y-17231D01*
X26695Y-17231D02*
X26695Y-16827D01*
X27305Y-16069D02*
X27305Y-16463D01*
X26695Y-16069D02*
X26695Y-16463D01*
X27305Y-16069D02*
X26695Y-16069D01*
X29769Y-16555D02*
X30173Y-16555D01*
X29769Y-15945D02*
X29769Y-16555D01*
X29769Y-15945D02*
X30173Y-15945D01*
X30931Y-16555D02*
X30537Y-16555D01*
X30931Y-15945D02*
X30537Y-15945D01*
X30931Y-16555D02*
X30931Y-15945D01*
X31995Y-15269D02*
X31995Y-15673D01*
X32605Y-15269D02*
X31995Y-15269D01*
X32605Y-15269D02*
X32605Y-15673D01*
X31995Y-16431D02*
X31995Y-16037D01*
X32605Y-16431D02*
X32605Y-16037D01*
X31995Y-16431D02*
X32605Y-16431D01*
X31969Y-19305D02*
X32373Y-19305D01*
X31969Y-18695D02*
X31969Y-19305D01*
X31969Y-18695D02*
X32373Y-18695D01*
X33131Y-19305D02*
X32737Y-19305D01*
X33131Y-18695D02*
X32737Y-18695D01*
X33131Y-19305D02*
X33131Y-18695D01*
X34805Y-19981D02*
X34805Y-19577D01*
X34195Y-19981D02*
X34805Y-19981D01*
X34195Y-19981D02*
X34195Y-19577D01*
X34805Y-18819D02*
X34805Y-19213D01*
X34195Y-18819D02*
X34195Y-19213D01*
X34805Y-18819D02*
X34195Y-18819D01*
X36419Y-19305D02*
X36823Y-19305D01*
X36419Y-18695D02*
X36419Y-19305D01*
X36419Y-18695D02*
X36823Y-18695D01*
X37581Y-19305D02*
X37187Y-19305D01*
X37581Y-18695D02*
X37187Y-18695D01*
X37581Y-19305D02*
X37581Y-18695D01*
X38645Y-18019D02*
X38645Y-18423D01*
X39255Y-18019D02*
X38645Y-18019D01*
X39255Y-18019D02*
X39255Y-18423D01*
X38645Y-19181D02*
X38645Y-18787D01*
X39255Y-19181D02*
X39255Y-18787D01*
X38645Y-19181D02*
X39255Y-19181D01*
X16945Y-22419D02*
X16945Y-22823D01*
X17555Y-22419D02*
X16945Y-22419D01*
X17555Y-22419D02*
X17555Y-22823D01*
X16945Y-23581D02*
X16945Y-23187D01*
X17555Y-23581D02*
X17555Y-23187D01*
X16945Y-23581D02*
X17555Y-23581D01*
X16945Y-23919D02*
X16945Y-24323D01*
X17555Y-23919D02*
X16945Y-23919D01*
X17555Y-23919D02*
X17555Y-24323D01*
X16945Y-25081D02*
X16945Y-24687D01*
X17555Y-25081D02*
X17555Y-24687D01*
X16945Y-25081D02*
X17555Y-25081D01*
X12581Y-23945D02*
X12177Y-23945D01*
X12581Y-24555D02*
X12581Y-23945D01*
X12581Y-24555D02*
X12177Y-24555D01*
X11419Y-23945D02*
X11813Y-23945D01*
X11419Y-24555D02*
X11813Y-24555D01*
X11419Y-23945D02*
X11419Y-24555D01*
X17919Y-23555D02*
X18323Y-23555D01*
X17919Y-22945D02*
X17919Y-23555D01*
X17919Y-22945D02*
X18323Y-22945D01*
X19081Y-23555D02*
X18687Y-23555D01*
X19081Y-22945D02*
X18687Y-22945D01*
X19081Y-23555D02*
X19081Y-22945D01*
G54D16*
X25800Y-15850D02*
X25798Y-15869D01*
X25792Y-15888D01*
X25783Y-15905D01*
X25770Y-15920D01*
X25755Y-15932D01*
X25738Y-15942D01*
X25720Y-15947D01*
X25700Y-15949D01*
X25682Y-15948D01*
X25663Y-15942D01*
X25646Y-15933D01*
X25631Y-15921D01*
X25618Y-15906D01*
X25609Y-15889D01*
X25603Y-15870D01*
X25601Y-15851D01*
X25602Y-15832D01*
X25608Y-15814D01*
X25616Y-15796D01*
X25629Y-15781D01*
X25643Y-15768D01*
X25660Y-15759D01*
X25679Y-15753D01*
X25698Y-15751D01*
X25717Y-15752D01*
X25736Y-15757D01*
X25753Y-15766D01*
X25768Y-15778D01*
X25781Y-15793D01*
X25791Y-15810D01*
X25797Y-15828D01*
X25799Y-15848D01*
X25800Y-15850D01*
G54D11*
X25600Y-16150D02*
X25600Y-18350D01*
X25600Y-18350D02*
X25300Y-18350D01*
X25600Y-16150D02*
X25300Y-16150D01*
X22400Y-18350D02*
X22400Y-16150D01*
X22400Y-16150D02*
X22700Y-16150D01*
X22400Y-18350D02*
X22700Y-18350D01*
G54D13*
X28245Y-22219D02*
X28245Y-22623D01*
X28855Y-22219D02*
X28245Y-22219D01*
X28855Y-22219D02*
X28855Y-22623D01*
X28245Y-23381D02*
X28245Y-22987D01*
X28855Y-23381D02*
X28855Y-22987D01*
X28245Y-23381D02*
X28855Y-23381D01*
X27569Y-19655D02*
X27973Y-19655D01*
X27569Y-19045D02*
X27569Y-19655D01*
X27569Y-19045D02*
X27973Y-19045D01*
X28731Y-19655D02*
X28337Y-19655D01*
X28731Y-19045D02*
X28337Y-19045D01*
X28731Y-19655D02*
X28731Y-19045D01*
X27569Y-20555D02*
X27973Y-20555D01*
X27569Y-19945D02*
X27569Y-20555D01*
X27569Y-19945D02*
X27973Y-19945D01*
X28731Y-20555D02*
X28337Y-20555D01*
X28731Y-19945D02*
X28337Y-19945D01*
X28731Y-20555D02*
X28731Y-19945D01*
X27569Y-25155D02*
X27973Y-25155D01*
X27569Y-24545D02*
X27569Y-25155D01*
X27569Y-24545D02*
X27973Y-24545D01*
X28731Y-25155D02*
X28337Y-25155D01*
X28731Y-24545D02*
X28337Y-24545D01*
X28731Y-25155D02*
X28731Y-24545D01*
G54D11*
X37130Y-25648D02*
X37130Y-25254D01*
X37130Y-25254D02*
X35870Y-25254D01*
X35870Y-25254D02*
X35870Y-25687D01*
X37130Y-26396D02*
X37130Y-26474D01*
X37130Y-26474D02*
X35870Y-26474D01*
X35870Y-26474D02*
X35870Y-26396D01*
X36972Y-25648D02*
X37130Y-25648D01*
X37130Y-25648D02*
X37130Y-26396D01*
X37130Y-26396D02*
X35870Y-26396D01*
X35870Y-26396D02*
X35870Y-25648D01*
X35870Y-25648D02*
X36028Y-25648D01*
X36028Y-25648D02*
X36028Y-26356D01*
X36028Y-26356D02*
X36972Y-26356D01*
X36972Y-26356D02*
X36972Y-25648D01*
X35949Y-25648D02*
X36028Y-25648D01*
X35949Y-27852D02*
X36028Y-27852D01*
X35949Y-25648D02*
X35949Y-27852D01*
X37051Y-25648D02*
X36972Y-25648D01*
X37051Y-25648D02*
X37051Y-27852D01*
X37051Y-27852D02*
X36972Y-27852D01*
G54D15*
X31000Y-28000D02*
X33000Y-28000D01*
X33000Y-28000D02*
X33000Y-27000D01*
X33000Y-27000D02*
X31000Y-27000D01*
X31000Y-27000D02*
X31000Y-28000D01*
G54D13*
X33805Y-28331D02*
X33805Y-27927D01*
X33195Y-28331D02*
X33805Y-28331D01*
X33195Y-28331D02*
X33195Y-27927D01*
X33805Y-27169D02*
X33805Y-27563D01*
X33195Y-27169D02*
X33195Y-27563D01*
X33805Y-27169D02*
X33195Y-27169D01*
X42831Y-25695D02*
X42427Y-25695D01*
X42831Y-26305D02*
X42831Y-25695D01*
X42831Y-26305D02*
X42427Y-26305D01*
X41669Y-25695D02*
X42063Y-25695D01*
X41669Y-26305D02*
X42063Y-26305D01*
X41669Y-25695D02*
X41669Y-26305D01*
X39555Y-28331D02*
X39555Y-27927D01*
X38945Y-28331D02*
X39555Y-28331D01*
X38945Y-28331D02*
X38945Y-27927D01*
X39555Y-27169D02*
X39555Y-27563D01*
X38945Y-27169D02*
X38945Y-27563D01*
X39555Y-27169D02*
X38945Y-27169D01*
X40081Y-25695D02*
X39677Y-25695D01*
X40081Y-26305D02*
X40081Y-25695D01*
X40081Y-26305D02*
X39677Y-26305D01*
X38919Y-25695D02*
X39313Y-25695D01*
X38919Y-26305D02*
X39313Y-26305D01*
X38919Y-25695D02*
X38919Y-26305D01*
X42055Y-28331D02*
X42055Y-27927D01*
X41445Y-28331D02*
X42055Y-28331D01*
X41445Y-28331D02*
X41445Y-27927D01*
X42055Y-27169D02*
X42055Y-27563D01*
X41445Y-27169D02*
X41445Y-27563D01*
X42055Y-27169D02*
X41445Y-27169D01*
X40695Y-25669D02*
X40695Y-26073D01*
X41305Y-25669D02*
X40695Y-25669D01*
X41305Y-25669D02*
X41305Y-26073D01*
X40695Y-26831D02*
X40695Y-26437D01*
X41305Y-26831D02*
X41305Y-26437D01*
X40695Y-26831D02*
X41305Y-26831D01*
X37695Y-23169D02*
X37695Y-23573D01*
X38305Y-23169D02*
X37695Y-23169D01*
X38305Y-23169D02*
X38305Y-23573D01*
X37695Y-24331D02*
X37695Y-23937D01*
X38305Y-24331D02*
X38305Y-23937D01*
X37695Y-24331D02*
X38305Y-24331D01*
X35695Y-22669D02*
X35695Y-23073D01*
X36305Y-22669D02*
X35695Y-22669D01*
X36305Y-22669D02*
X36305Y-23073D01*
X35695Y-23831D02*
X35695Y-23437D01*
X36305Y-23831D02*
X36305Y-23437D01*
X35695Y-23831D02*
X36305Y-23831D01*
X43195Y-25669D02*
X43195Y-26073D01*
X43805Y-25669D02*
X43195Y-25669D01*
X43805Y-25669D02*
X43805Y-26073D01*
X43195Y-26831D02*
X43195Y-26437D01*
X43805Y-26831D02*
X43805Y-26437D01*
X43195Y-26831D02*
X43805Y-26831D01*
X32669Y-24305D02*
X33073Y-24305D01*
X32669Y-23695D02*
X32669Y-24305D01*
X32669Y-23695D02*
X33073Y-23695D01*
X33831Y-24305D02*
X33437Y-24305D01*
X33831Y-23695D02*
X33437Y-23695D01*
X33831Y-24305D02*
X33831Y-23695D01*
X35331Y-22695D02*
X34927Y-22695D01*
X35331Y-23305D02*
X35331Y-22695D01*
X35331Y-23305D02*
X34927Y-23305D01*
X34169Y-22695D02*
X34563Y-22695D01*
X34169Y-23305D02*
X34563Y-23305D01*
X34169Y-22695D02*
X34169Y-23305D01*
X33831Y-22695D02*
X33427Y-22695D01*
X33831Y-23305D02*
X33831Y-22695D01*
X33831Y-23305D02*
X33427Y-23305D01*
X32669Y-22695D02*
X33063Y-22695D01*
X32669Y-23305D02*
X33063Y-23305D01*
X32669Y-22695D02*
X32669Y-23305D01*
X44805Y-26581D02*
X44805Y-26177D01*
X44195Y-26581D02*
X44805Y-26581D01*
X44195Y-26581D02*
X44195Y-26177D01*
X44805Y-25419D02*
X44805Y-25813D01*
X44195Y-25419D02*
X44195Y-25813D01*
X44805Y-25419D02*
X44195Y-25419D01*
X40555Y-28331D02*
X40555Y-27927D01*
X39945Y-28331D02*
X40555Y-28331D01*
X39945Y-28331D02*
X39945Y-27927D01*
X40555Y-27169D02*
X40555Y-27563D01*
X39945Y-27169D02*
X39945Y-27563D01*
X40555Y-27169D02*
X39945Y-27169D01*
X43055Y-28331D02*
X43055Y-27927D01*
X42445Y-28331D02*
X43055Y-28331D01*
X42445Y-28331D02*
X42445Y-27927D01*
X43055Y-27169D02*
X43055Y-27563D01*
X42445Y-27169D02*
X42445Y-27563D01*
X43055Y-27169D02*
X42445Y-27169D01*
G54D11*
X38644Y-28004D02*
X38644Y-27335D01*
X37856Y-28004D02*
X37856Y-27335D01*
X38644Y-26094D02*
X38644Y-26665D01*
X37856Y-26094D02*
X37856Y-26665D01*
X38644Y-28004D02*
X37856Y-28004D01*
X37856Y-27965D02*
X38644Y-27965D01*
X38644Y-26094D02*
X37856Y-26094D01*
X38644Y-27906D02*
X37856Y-27906D01*
G54D13*
X32305Y-25831D02*
X32305Y-25427D01*
X31695Y-25831D02*
X32305Y-25831D01*
X31695Y-25831D02*
X31695Y-25427D01*
X32305Y-24669D02*
X32305Y-25063D01*
X31695Y-24669D02*
X31695Y-25063D01*
X32305Y-24669D02*
X31695Y-24669D01*
G54D11*
X39431Y-23750D02*
X39408Y-23979D01*
X39341Y-24200D01*
X39233Y-24403D01*
X39088Y-24582D01*
X38910Y-24729D01*
X38707Y-24838D01*
X38487Y-24906D01*
X38258Y-24930D01*
X38029Y-24910D01*
X37808Y-24845D01*
X37604Y-24738D01*
X37424Y-24593D01*
X37276Y-24417D01*
X37165Y-24215D01*
X37095Y-23995D01*
X37070Y-23766D01*
X37089Y-23537D01*
X37152Y-23316D01*
X37258Y-23111D01*
X37401Y-22930D01*
X37576Y-22781D01*
X37778Y-22668D01*
X37997Y-22597D01*
X38226Y-22570D01*
X38455Y-22587D01*
X38677Y-22649D01*
X38882Y-22753D01*
X39064Y-22895D01*
X39215Y-23070D01*
X39328Y-23270D01*
X39401Y-23489D01*
X39430Y-23718D01*
X39431Y-23750D01*
X36872Y-22766D02*
X36872Y-24734D01*
X36872Y-24734D02*
X39628Y-24734D01*
X39628Y-24734D02*
X39628Y-22766D01*
X39628Y-22766D02*
X36872Y-22766D01*
G54D13*
X14919Y-12555D02*
X15323Y-12555D01*
X14919Y-11945D02*
X14919Y-12555D01*
X14919Y-11945D02*
X15323Y-11945D01*
X16081Y-12555D02*
X15687Y-12555D01*
X16081Y-11945D02*
X15687Y-11945D01*
X16081Y-12555D02*
X16081Y-11945D01*
X14919Y-15055D02*
X15323Y-15055D01*
X14919Y-14445D02*
X14919Y-15055D01*
X14919Y-14445D02*
X15323Y-14445D01*
X16081Y-15055D02*
X15687Y-15055D01*
X16081Y-14445D02*
X15687Y-14445D01*
X16081Y-15055D02*
X16081Y-14445D01*
X19081Y-13695D02*
X18677Y-13695D01*
X19081Y-14305D02*
X19081Y-13695D01*
X19081Y-14305D02*
X18677Y-14305D01*
X17919Y-13695D02*
X18313Y-13695D01*
X17919Y-14305D02*
X18313Y-14305D01*
X17919Y-13695D02*
X17919Y-14305D01*
X19081Y-12695D02*
X18677Y-12695D01*
X19081Y-13305D02*
X19081Y-12695D01*
X19081Y-13305D02*
X18677Y-13305D01*
X17919Y-12695D02*
X18313Y-12695D01*
X17919Y-13305D02*
X18313Y-13305D01*
X17919Y-12695D02*
X17919Y-13305D01*
X28945Y-10569D02*
X28945Y-10973D01*
X29555Y-10569D02*
X28945Y-10569D01*
X29555Y-10569D02*
X29555Y-10973D01*
X28945Y-11731D02*
X28945Y-11337D01*
X29555Y-11731D02*
X29555Y-11337D01*
X28945Y-11731D02*
X29555Y-11731D01*
X29945Y-10569D02*
X29945Y-10973D01*
X30555Y-10569D02*
X29945Y-10569D01*
X30555Y-10569D02*
X30555Y-10973D01*
X29945Y-11731D02*
X29945Y-11337D01*
X30555Y-11731D02*
X30555Y-11337D01*
X29945Y-11731D02*
X30555Y-11731D01*
X41331Y-17695D02*
X40927Y-17695D01*
X41331Y-18305D02*
X41331Y-17695D01*
X41331Y-18305D02*
X40927Y-18305D01*
X40169Y-17695D02*
X40563Y-17695D01*
X40169Y-18305D02*
X40563Y-18305D01*
X40169Y-17695D02*
X40169Y-18305D01*
X41331Y-18695D02*
X40927Y-18695D01*
X41331Y-19305D02*
X41331Y-18695D01*
X41331Y-19305D02*
X40927Y-19305D01*
X40169Y-18695D02*
X40563Y-18695D01*
X40169Y-19305D02*
X40563Y-19305D01*
X40169Y-18695D02*
X40169Y-19305D01*
X44331Y-16945D02*
X43927Y-16945D01*
X44331Y-17555D02*
X44331Y-16945D01*
X44331Y-17555D02*
X43927Y-17555D01*
X43169Y-16945D02*
X43563Y-16945D01*
X43169Y-17555D02*
X43563Y-17555D01*
X43169Y-16945D02*
X43169Y-17555D01*
X44331Y-19445D02*
X43927Y-19445D01*
X44331Y-20055D02*
X44331Y-19445D01*
X44331Y-20055D02*
X43927Y-20055D01*
X43169Y-19445D02*
X43563Y-19445D01*
X43169Y-20055D02*
X43563Y-20055D01*
X43169Y-19445D02*
X43169Y-20055D01*
X44831Y-18195D02*
X44427Y-18195D01*
X44831Y-18805D02*
X44831Y-18195D01*
X44831Y-18805D02*
X44427Y-18805D01*
X43669Y-18195D02*
X44063Y-18195D01*
X43669Y-18805D02*
X44063Y-18805D01*
X43669Y-18195D02*
X43669Y-18805D01*
X15581Y-13195D02*
X15177Y-13195D01*
X15581Y-13805D02*
X15581Y-13195D01*
X15581Y-13805D02*
X15177Y-13805D01*
X14419Y-13195D02*
X14813Y-13195D01*
X14419Y-13805D02*
X14813Y-13805D01*
X14419Y-13195D02*
X14419Y-13805D01*
G54D11*
X42191Y-12409D02*
X42191Y-11819D01*
X42191Y-14181D02*
X42191Y-13591D01*
X47309Y-14575D02*
X47309Y-15559D01*
X47309Y-15559D02*
X42191Y-15559D01*
X42191Y-15559D02*
X42191Y-15362D01*
X47309Y-12606D02*
X47309Y-13394D01*
X47309Y-10441D02*
X47309Y-11425D01*
X47309Y-10441D02*
X42191Y-10441D01*
X42191Y-10441D02*
X42191Y-10638D01*
G54D13*
X41093Y-16244D02*
X40797Y-16244D01*
X40797Y-16244D02*
X40797Y-16756D01*
X40797Y-16756D02*
X41093Y-16756D01*
X41703Y-16244D02*
X41703Y-16756D01*
X41703Y-16244D02*
X41407Y-16244D01*
X41703Y-16756D02*
X41407Y-16756D01*
X42343Y-16244D02*
X42047Y-16244D01*
X42047Y-16244D02*
X42047Y-16756D01*
X42047Y-16756D02*
X42343Y-16756D01*
X42953Y-16244D02*
X42953Y-16756D01*
X42953Y-16244D02*
X42657Y-16244D01*
X42953Y-16756D02*
X42657Y-16756D01*
X25895Y-26219D02*
X25895Y-26623D01*
X26505Y-26219D02*
X25895Y-26219D01*
X26505Y-26219D02*
X26505Y-26623D01*
X25895Y-27381D02*
X25895Y-26987D01*
X26505Y-27381D02*
X26505Y-26987D01*
X25895Y-27381D02*
X26505Y-27381D01*
X28245Y-25919D02*
X28245Y-26323D01*
X28855Y-25919D02*
X28245Y-25919D01*
X28855Y-25919D02*
X28855Y-26323D01*
X28245Y-27081D02*
X28245Y-26687D01*
X28855Y-27081D02*
X28855Y-26687D01*
X28245Y-27081D02*
X28855Y-27081D01*
X26769Y-26755D02*
X27173Y-26755D01*
X26769Y-26145D02*
X26769Y-26755D01*
X26769Y-26145D02*
X27173Y-26145D01*
X27931Y-26755D02*
X27537Y-26755D01*
X27931Y-26145D02*
X27537Y-26145D01*
X27931Y-26755D02*
X27931Y-26145D01*
X25169Y-24255D02*
X25573Y-24255D01*
X25169Y-23645D02*
X25169Y-24255D01*
X25169Y-23645D02*
X25573Y-23645D01*
X26331Y-24255D02*
X25937Y-24255D01*
X26331Y-23645D02*
X25937Y-23645D01*
X26331Y-24255D02*
X26331Y-23645D01*
G54D10*
X12613Y-14706D02*
X12333Y-14706D01*
X12333Y-14600D01*
X12347Y-14573D01*
X12360Y-14560D01*
X12387Y-14546D01*
X12427Y-14546D01*
X12453Y-14560D01*
X12467Y-14573D01*
X12480Y-14600D01*
X12480Y-14706D01*
X12613Y-14280D02*
X12613Y-14440D01*
X12613Y-14360D02*
X12333Y-14360D01*
X12373Y-14386D01*
X12400Y-14413D01*
X12413Y-14440D01*
G54D17*
X13283Y-12493D02*
X13097Y-12207D01*
X12963Y-12493D02*
X12963Y-11893D01*
X13177Y-11893D01*
X13230Y-11921D01*
X13257Y-11950D01*
X13283Y-12007D01*
X13283Y-12093D01*
X13257Y-12150D01*
X13230Y-12179D01*
X13177Y-12207D01*
X12963Y-12207D01*
X13710Y-12179D02*
X13523Y-12179D01*
X13523Y-12493D02*
X13523Y-11893D01*
X13790Y-11893D01*
G54D18*
X17867Y-11105D02*
X17867Y-11219D01*
X17859Y-11242D01*
X17844Y-11257D01*
X17821Y-11265D01*
X17806Y-11265D01*
X17943Y-11265D02*
X17943Y-11105D01*
X18004Y-11105D01*
X18019Y-11112D01*
X18027Y-11120D01*
X18035Y-11135D01*
X18035Y-11158D01*
X18027Y-11173D01*
X18019Y-11181D01*
X18004Y-11189D01*
X17943Y-11189D01*
X18088Y-11105D02*
X18187Y-11105D01*
X18134Y-11166D01*
X18156Y-11166D01*
X18172Y-11173D01*
X18179Y-11181D01*
X18187Y-11196D01*
X18187Y-11234D01*
X18179Y-11250D01*
X18172Y-11257D01*
X18156Y-11265D01*
X18111Y-11265D01*
X18095Y-11257D01*
X18088Y-11250D01*
X17112Y-12005D02*
X17142Y-12005D01*
X17157Y-12012D01*
X17173Y-12028D01*
X17180Y-12058D01*
X17180Y-12111D01*
X17173Y-12142D01*
X17157Y-12157D01*
X17142Y-12165D01*
X17112Y-12165D01*
X17096Y-12157D01*
X17081Y-12142D01*
X17073Y-12111D01*
X17073Y-12058D01*
X17081Y-12028D01*
X17096Y-12012D01*
X17112Y-12005D01*
X17241Y-12157D02*
X17264Y-12165D01*
X17302Y-12165D01*
X17318Y-12157D01*
X17325Y-12150D01*
X17333Y-12134D01*
X17333Y-12119D01*
X17325Y-12104D01*
X17318Y-12096D01*
X17302Y-12089D01*
X17272Y-12081D01*
X17257Y-12073D01*
X17249Y-12066D01*
X17241Y-12050D01*
X17241Y-12035D01*
X17249Y-12020D01*
X17257Y-12012D01*
X17272Y-12005D01*
X17310Y-12005D01*
X17333Y-12012D01*
X17493Y-12150D02*
X17485Y-12157D01*
X17462Y-12165D01*
X17447Y-12165D01*
X17424Y-12157D01*
X17409Y-12142D01*
X17401Y-12127D01*
X17393Y-12096D01*
X17393Y-12073D01*
X17401Y-12043D01*
X17409Y-12028D01*
X17424Y-12012D01*
X17447Y-12005D01*
X17462Y-12005D01*
X17485Y-12012D01*
X17493Y-12020D01*
X17523Y-12180D02*
X17645Y-12180D01*
X17683Y-12081D02*
X17736Y-12081D01*
X17759Y-12165D02*
X17683Y-12165D01*
X17683Y-12005D01*
X17759Y-12005D01*
X17828Y-12165D02*
X17828Y-12005D01*
X17920Y-12165D01*
X17920Y-12005D01*
X17257Y-11863D02*
X17265Y-11840D01*
X17265Y-11802D01*
X17257Y-11786D01*
X17250Y-11779D01*
X17234Y-11771D01*
X17219Y-11771D01*
X17204Y-11779D01*
X17196Y-11786D01*
X17189Y-11802D01*
X17181Y-11832D01*
X17173Y-11847D01*
X17166Y-11855D01*
X17150Y-11863D01*
X17135Y-11863D01*
X17120Y-11855D01*
X17112Y-11847D01*
X17105Y-11832D01*
X17105Y-11794D01*
X17112Y-11771D01*
X17105Y-11718D02*
X17265Y-11680D01*
X17150Y-11650D01*
X17265Y-11619D01*
X17105Y-11581D01*
X17265Y-11436D02*
X17265Y-11528D01*
X17265Y-11482D02*
X17105Y-11482D01*
X17128Y-11497D01*
X17143Y-11512D01*
X17150Y-11528D01*
X17857Y-11863D02*
X17865Y-11840D01*
X17865Y-11802D01*
X17857Y-11786D01*
X17850Y-11779D01*
X17834Y-11771D01*
X17819Y-11771D01*
X17804Y-11779D01*
X17796Y-11786D01*
X17789Y-11802D01*
X17781Y-11832D01*
X17773Y-11847D01*
X17766Y-11855D01*
X17750Y-11863D01*
X17735Y-11863D01*
X17720Y-11855D01*
X17712Y-11847D01*
X17705Y-11832D01*
X17705Y-11794D01*
X17712Y-11771D01*
X17705Y-11718D02*
X17865Y-11680D01*
X17750Y-11650D01*
X17865Y-11619D01*
X17705Y-11581D01*
X17720Y-11528D02*
X17712Y-11520D01*
X17705Y-11505D01*
X17705Y-11467D01*
X17712Y-11451D01*
X17720Y-11444D01*
X17735Y-11436D01*
X17750Y-11436D01*
X17773Y-11444D01*
X17865Y-11535D01*
X17865Y-11436D01*
G54D10*
X45613Y-19706D02*
X45333Y-19706D01*
X45333Y-19600D01*
X45347Y-19573D01*
X45360Y-19560D01*
X45387Y-19546D01*
X45427Y-19546D01*
X45453Y-19560D01*
X45467Y-19573D01*
X45480Y-19600D01*
X45480Y-19706D01*
X45360Y-19440D02*
X45347Y-19426D01*
X45333Y-19400D01*
X45333Y-19333D01*
X45347Y-19306D01*
X45360Y-19293D01*
X45387Y-19280D01*
X45413Y-19280D01*
X45453Y-19293D01*
X45613Y-19453D01*
X45613Y-19280D01*
G54D17*
X44510Y-16493D02*
X44510Y-15893D01*
X44964Y-16179D02*
X44777Y-16179D01*
X44777Y-16493D02*
X44777Y-15893D01*
X45044Y-15893D01*
G54D10*
X45613Y-27706D02*
X45333Y-27706D01*
X45333Y-27600D01*
X45347Y-27573D01*
X45360Y-27560D01*
X45387Y-27546D01*
X45427Y-27546D01*
X45453Y-27560D01*
X45467Y-27573D01*
X45480Y-27600D01*
X45480Y-27706D01*
X45333Y-27453D02*
X45333Y-27280D01*
X45440Y-27373D01*
X45440Y-27333D01*
X45453Y-27306D01*
X45467Y-27293D01*
X45493Y-27280D01*
X45560Y-27280D01*
X45587Y-27293D01*
X45600Y-27306D01*
X45613Y-27333D01*
X45613Y-27413D01*
X45600Y-27440D01*
X45587Y-27453D01*
G54D17*
X45190Y-23393D02*
X45297Y-23393D01*
X45350Y-23421D01*
X45403Y-23479D01*
X45430Y-23593D01*
X45430Y-23793D01*
X45403Y-23907D01*
X45350Y-23964D01*
X45297Y-23993D01*
X45190Y-23993D01*
X45137Y-23964D01*
X45083Y-23907D01*
X45057Y-23793D01*
X45057Y-23593D01*
X45083Y-23479D01*
X45137Y-23421D01*
X45190Y-23393D01*
X45670Y-23393D02*
X45670Y-23879D01*
X45697Y-23936D01*
X45724Y-23964D01*
X45777Y-23993D01*
X45884Y-23993D01*
X45937Y-23964D01*
X45964Y-23936D01*
X45990Y-23879D01*
X45990Y-23393D01*
X46177Y-23393D02*
X46497Y-23393D01*
X46337Y-23993D02*
X46337Y-23393D01*
G54D15*
X26813Y-25373D02*
X26533Y-25373D01*
X26787Y-25080D02*
X26800Y-25094D01*
X26813Y-25134D01*
X26813Y-25160D01*
X26800Y-25200D01*
X26773Y-25227D01*
X26747Y-25240D01*
X26693Y-25254D01*
X26653Y-25254D01*
X26600Y-25240D01*
X26573Y-25227D01*
X26547Y-25200D01*
X26533Y-25160D01*
X26533Y-25134D01*
X26547Y-25094D01*
X26560Y-25080D01*
X26653Y-24920D02*
X26640Y-24947D01*
X26627Y-24960D01*
X26600Y-24974D01*
X26587Y-24974D01*
X26560Y-24960D01*
X26547Y-24947D01*
X26533Y-24920D01*
X26533Y-24867D01*
X26547Y-24840D01*
X26560Y-24827D01*
X26587Y-24814D01*
X26600Y-24814D01*
X26627Y-24827D01*
X26640Y-24840D01*
X26653Y-24867D01*
X26653Y-24920D01*
X26667Y-24947D01*
X26680Y-24960D01*
X26707Y-24974D01*
X26760Y-24974D01*
X26787Y-24960D01*
X26800Y-24947D01*
X26813Y-24920D01*
X26813Y-24867D01*
X26800Y-24840D01*
X26787Y-24827D01*
X26760Y-24814D01*
X26707Y-24814D01*
X26680Y-24827D01*
X26667Y-24840D01*
X26653Y-24867D01*
X25863Y-25287D02*
X25863Y-25447D01*
X25863Y-25367D02*
X25583Y-25367D01*
X25623Y-25393D01*
X25650Y-25420D01*
X25663Y-25447D01*
X25610Y-25180D02*
X25597Y-25166D01*
X25583Y-25140D01*
X25583Y-25073D01*
X25597Y-25046D01*
X25610Y-25033D01*
X25637Y-25020D01*
X25663Y-25020D01*
X25703Y-25033D01*
X25863Y-25193D01*
X25863Y-25020D01*
X25583Y-24779D02*
X25583Y-24833D01*
X25597Y-24859D01*
X25610Y-24873D01*
X25650Y-24899D01*
X25703Y-24913D01*
X25810Y-24913D01*
X25837Y-24899D01*
X25850Y-24886D01*
X25863Y-24859D01*
X25863Y-24806D01*
X25850Y-24779D01*
X25837Y-24766D01*
X25810Y-24753D01*
X25743Y-24753D01*
X25717Y-24766D01*
X25703Y-24779D01*
X25690Y-24806D01*
X25690Y-24859D01*
X25703Y-24886D01*
X25717Y-24899D01*
X25743Y-24913D01*
G54D11*
X19741Y-28262D02*
X19954Y-28662D01*
X19954Y-28262D02*
X19741Y-28662D01*
X20244Y-28662D02*
X20061Y-28662D01*
X20152Y-28662D02*
X20152Y-28262D01*
X20122Y-28319D01*
X20091Y-28357D01*
X20061Y-28376D01*
X21307Y-28662D02*
X21124Y-28662D01*
X21215Y-28662D02*
X21215Y-28262D01*
X21185Y-28319D01*
X21154Y-28357D01*
X21124Y-28376D01*
X21505Y-28262D02*
X21536Y-28262D01*
X21566Y-28281D01*
X21581Y-28300D01*
X21597Y-28338D01*
X21612Y-28414D01*
X21612Y-28510D01*
X21597Y-28586D01*
X21581Y-28624D01*
X21566Y-28643D01*
X21536Y-28662D01*
X21505Y-28662D01*
X21475Y-28643D01*
X21459Y-28624D01*
X21444Y-28586D01*
X21429Y-28510D01*
X21429Y-28414D01*
X21444Y-28338D01*
X21459Y-28300D01*
X21475Y-28281D01*
X21505Y-28262D01*
X21810Y-28262D02*
X21841Y-28262D01*
X21871Y-28281D01*
X21886Y-28300D01*
X21902Y-28338D01*
X21917Y-28414D01*
X21917Y-28510D01*
X21902Y-28586D01*
X21886Y-28624D01*
X21871Y-28643D01*
X21841Y-28662D01*
X21810Y-28662D01*
X21780Y-28643D01*
X21764Y-28624D01*
X21749Y-28586D01*
X21734Y-28510D01*
X21734Y-28414D01*
X21749Y-28338D01*
X21764Y-28300D01*
X21780Y-28281D01*
X21810Y-28262D01*
X22054Y-28662D02*
X22054Y-28262D01*
X22161Y-28548D01*
X22268Y-28262D01*
X22268Y-28662D01*
X22420Y-28662D02*
X22420Y-28262D01*
X22420Y-28452D02*
X22603Y-28452D01*
X22603Y-28662D02*
X22603Y-28262D01*
X22725Y-28395D02*
X22892Y-28395D01*
X22725Y-28662D01*
X22892Y-28662D01*
X32780Y-25812D02*
X32460Y-25812D01*
X32749Y-25477D02*
X32764Y-25492D01*
X32780Y-25538D01*
X32780Y-25568D01*
X32764Y-25614D01*
X32734Y-25645D01*
X32703Y-25660D01*
X32642Y-25675D01*
X32597Y-25675D01*
X32536Y-25660D01*
X32505Y-25645D01*
X32475Y-25614D01*
X32460Y-25568D01*
X32460Y-25538D01*
X32475Y-25492D01*
X32490Y-25477D01*
X32460Y-25370D02*
X32460Y-25172D01*
X32581Y-25279D01*
X32581Y-25233D01*
X32597Y-25203D01*
X32612Y-25187D01*
X32642Y-25172D01*
X32719Y-25172D01*
X32749Y-25187D01*
X32764Y-25203D01*
X32780Y-25233D01*
X32780Y-25325D01*
X32764Y-25355D01*
X32749Y-25370D01*
G54D19*
X33017Y-25593D02*
X33043Y-25605D01*
X33086Y-25605D01*
X33103Y-25593D01*
X33112Y-25580D01*
X33120Y-25556D01*
X33120Y-25531D01*
X33112Y-25506D01*
X33103Y-25494D01*
X33086Y-25481D01*
X33052Y-25469D01*
X33034Y-25457D01*
X33026Y-25444D01*
X33017Y-25420D01*
X33017Y-25395D01*
X33026Y-25370D01*
X33034Y-25358D01*
X33052Y-25345D01*
X33094Y-25345D01*
X33120Y-25358D01*
X33300Y-25580D02*
X33291Y-25593D01*
X33265Y-25605D01*
X33248Y-25605D01*
X33223Y-25593D01*
X33205Y-25568D01*
X33197Y-25543D01*
X33188Y-25494D01*
X33188Y-25457D01*
X33197Y-25407D01*
X33205Y-25382D01*
X33223Y-25358D01*
X33248Y-25345D01*
X33265Y-25345D01*
X33291Y-25358D01*
X33300Y-25370D01*
X33454Y-25432D02*
X33454Y-25605D01*
X33411Y-25333D02*
X33368Y-25519D01*
X33480Y-25519D01*
X33634Y-25345D02*
X33548Y-25345D01*
X33539Y-25469D01*
X33548Y-25457D01*
X33565Y-25444D01*
X33608Y-25444D01*
X33625Y-25457D01*
X33634Y-25469D01*
X33642Y-25494D01*
X33642Y-25556D01*
X33634Y-25580D01*
X33625Y-25593D01*
X33608Y-25605D01*
X33565Y-25605D01*
X33548Y-25593D01*
X33539Y-25580D01*
X33753Y-25345D02*
X33770Y-25345D01*
X33787Y-25358D01*
X33796Y-25370D01*
X33805Y-25395D01*
X33813Y-25444D01*
X33813Y-25506D01*
X33805Y-25556D01*
X33796Y-25580D01*
X33787Y-25593D01*
X33770Y-25605D01*
X33753Y-25605D01*
X33736Y-25593D01*
X33727Y-25580D01*
X33719Y-25556D01*
X33710Y-25506D01*
X33710Y-25444D01*
X33719Y-25395D01*
X33727Y-25370D01*
X33736Y-25358D01*
X33753Y-25345D01*
X33873Y-25345D02*
X33984Y-25345D01*
X33924Y-25444D01*
X33950Y-25444D01*
X33967Y-25457D01*
X33976Y-25469D01*
X33984Y-25494D01*
X33984Y-25556D01*
X33976Y-25580D01*
X33967Y-25593D01*
X33950Y-25605D01*
X33898Y-25605D01*
X33881Y-25593D01*
X33873Y-25580D01*
G54D11*
X15438Y-22280D02*
X15438Y-21960D01*
X15773Y-22249D02*
X15758Y-22264D01*
X15712Y-22280D01*
X15682Y-22280D01*
X15636Y-22264D01*
X15605Y-22234D01*
X15590Y-22203D01*
X15575Y-22142D01*
X15575Y-22097D01*
X15590Y-22036D01*
X15605Y-22005D01*
X15636Y-21975D01*
X15682Y-21960D01*
X15712Y-21960D01*
X15758Y-21975D01*
X15773Y-21990D01*
X16078Y-22280D02*
X15895Y-22280D01*
X15986Y-22280D02*
X15986Y-21960D01*
X15956Y-22005D01*
X15925Y-22036D01*
X15895Y-22051D01*
G54D15*
X15583Y-23353D02*
X15583Y-23193D01*
X15863Y-23273D02*
X15583Y-23273D01*
X15863Y-23100D02*
X15583Y-23100D01*
X15583Y-22994D01*
X15597Y-22967D01*
X15610Y-22954D01*
X15637Y-22940D01*
X15677Y-22940D01*
X15703Y-22954D01*
X15717Y-22967D01*
X15730Y-22994D01*
X15730Y-23100D01*
X15850Y-22834D02*
X15863Y-22794D01*
X15863Y-22727D01*
X15850Y-22700D01*
X15837Y-22687D01*
X15810Y-22674D01*
X15783Y-22674D01*
X15757Y-22687D01*
X15743Y-22700D01*
X15730Y-22727D01*
X15717Y-22780D01*
X15703Y-22807D01*
X15690Y-22820D01*
X15663Y-22834D01*
X15637Y-22834D01*
X15610Y-22820D01*
X15597Y-22807D01*
X15583Y-22780D01*
X15583Y-22714D01*
X15597Y-22674D01*
G54D11*
X31438Y-10730D02*
X31438Y-10410D01*
X31773Y-10699D02*
X31758Y-10714D01*
X31712Y-10730D01*
X31682Y-10730D01*
X31636Y-10714D01*
X31605Y-10684D01*
X31590Y-10653D01*
X31575Y-10592D01*
X31575Y-10547D01*
X31590Y-10486D01*
X31605Y-10455D01*
X31636Y-10425D01*
X31682Y-10410D01*
X31712Y-10410D01*
X31758Y-10425D01*
X31773Y-10440D01*
X32063Y-10410D02*
X31910Y-10410D01*
X31895Y-10562D01*
X31910Y-10547D01*
X31941Y-10531D01*
X32017Y-10531D01*
X32047Y-10547D01*
X32063Y-10562D01*
X32078Y-10592D01*
X32078Y-10669D01*
X32063Y-10699D01*
X32047Y-10714D01*
X32017Y-10730D01*
X31941Y-10730D01*
X31910Y-10714D01*
X31895Y-10699D01*
G54D15*
X31583Y-11647D02*
X31583Y-11620D01*
X31597Y-11594D01*
X31610Y-11580D01*
X31637Y-11567D01*
X31690Y-11554D01*
X31757Y-11554D01*
X31810Y-11567D01*
X31837Y-11580D01*
X31850Y-11594D01*
X31863Y-11620D01*
X31863Y-11647D01*
X31850Y-11674D01*
X31837Y-11687D01*
X31810Y-11700D01*
X31757Y-11714D01*
X31690Y-11714D01*
X31637Y-11700D01*
X31610Y-11687D01*
X31597Y-11674D01*
X31583Y-11647D01*
X31677Y-11313D02*
X31863Y-11313D01*
X31570Y-11380D02*
X31770Y-11447D01*
X31770Y-11273D01*
G54D11*
X42188Y-17780D02*
X42188Y-17460D01*
X42523Y-17749D02*
X42508Y-17764D01*
X42462Y-17780D01*
X42432Y-17780D01*
X42386Y-17764D01*
X42355Y-17734D01*
X42340Y-17703D01*
X42325Y-17642D01*
X42325Y-17597D01*
X42340Y-17536D01*
X42355Y-17505D01*
X42386Y-17475D01*
X42432Y-17460D01*
X42462Y-17460D01*
X42508Y-17475D01*
X42523Y-17490D01*
X42630Y-17460D02*
X42843Y-17460D01*
X42706Y-17780D01*
G54D15*
X42613Y-18800D02*
X42480Y-18894D01*
X42613Y-18960D02*
X42333Y-18960D01*
X42333Y-18854D01*
X42347Y-18827D01*
X42360Y-18814D01*
X42387Y-18800D01*
X42427Y-18800D01*
X42453Y-18814D01*
X42467Y-18827D01*
X42480Y-18854D01*
X42480Y-18960D01*
X42467Y-18587D02*
X42467Y-18680D01*
X42613Y-18680D02*
X42333Y-18680D01*
X42333Y-18547D01*
X42600Y-18454D02*
X42613Y-18414D01*
X42613Y-18347D01*
X42600Y-18320D01*
X42587Y-18307D01*
X42560Y-18294D01*
X42533Y-18294D01*
X42507Y-18307D01*
X42493Y-18320D01*
X42480Y-18347D01*
X42467Y-18400D01*
X42453Y-18427D01*
X42440Y-18440D01*
X42413Y-18454D01*
X42387Y-18454D01*
X42360Y-18440D01*
X42347Y-18427D01*
X42333Y-18400D01*
X42333Y-18334D01*
X42347Y-18294D01*
X42360Y-18187D02*
X42347Y-18173D01*
X42333Y-18147D01*
X42333Y-18080D01*
X42347Y-18053D01*
X42360Y-18040D01*
X42387Y-18027D01*
X42413Y-18027D01*
X42453Y-18040D01*
X42613Y-18200D01*
X42613Y-18027D01*
G54D11*
X16438Y-12780D02*
X16438Y-12460D01*
X16773Y-12749D02*
X16758Y-12764D01*
X16712Y-12780D01*
X16682Y-12780D01*
X16636Y-12764D01*
X16605Y-12734D01*
X16590Y-12703D01*
X16575Y-12642D01*
X16575Y-12597D01*
X16590Y-12536D01*
X16605Y-12505D01*
X16636Y-12475D01*
X16682Y-12460D01*
X16712Y-12460D01*
X16758Y-12475D01*
X16773Y-12490D01*
X17047Y-12460D02*
X16986Y-12460D01*
X16956Y-12475D01*
X16941Y-12490D01*
X16910Y-12536D01*
X16895Y-12597D01*
X16895Y-12719D01*
X16910Y-12749D01*
X16925Y-12764D01*
X16956Y-12780D01*
X17017Y-12780D01*
X17047Y-12764D01*
X17063Y-12749D01*
X17078Y-12719D01*
X17078Y-12642D01*
X17063Y-12612D01*
X17047Y-12597D01*
X17017Y-12581D01*
X16956Y-12581D01*
X16925Y-12597D01*
X16910Y-12612D01*
X16895Y-12642D01*
G54D15*
X16863Y-13800D02*
X16730Y-13894D01*
X16863Y-13960D02*
X16583Y-13960D01*
X16583Y-13854D01*
X16597Y-13827D01*
X16610Y-13814D01*
X16637Y-13800D01*
X16677Y-13800D01*
X16703Y-13814D01*
X16717Y-13827D01*
X16730Y-13854D01*
X16730Y-13960D01*
X16717Y-13587D02*
X16717Y-13680D01*
X16863Y-13680D02*
X16583Y-13680D01*
X16583Y-13547D01*
X16850Y-13454D02*
X16863Y-13414D01*
X16863Y-13347D01*
X16850Y-13320D01*
X16837Y-13307D01*
X16810Y-13294D01*
X16783Y-13294D01*
X16757Y-13307D01*
X16743Y-13320D01*
X16730Y-13347D01*
X16717Y-13400D01*
X16703Y-13427D01*
X16690Y-13440D01*
X16663Y-13454D01*
X16637Y-13454D01*
X16610Y-13440D01*
X16597Y-13427D01*
X16583Y-13400D01*
X16583Y-13334D01*
X16597Y-13294D01*
X16863Y-13027D02*
X16863Y-13187D01*
X16863Y-13107D02*
X16583Y-13107D01*
X16623Y-13133D01*
X16650Y-13160D01*
X16663Y-13187D01*
G54D11*
X35880Y-24736D02*
X35560Y-24736D01*
X35560Y-24660D01*
X35575Y-24614D01*
X35605Y-24583D01*
X35636Y-24568D01*
X35697Y-24553D01*
X35742Y-24553D01*
X35803Y-24568D01*
X35834Y-24583D01*
X35864Y-24614D01*
X35880Y-24660D01*
X35880Y-24736D01*
X35590Y-24431D02*
X35575Y-24416D01*
X35560Y-24385D01*
X35560Y-24309D01*
X35575Y-24279D01*
X35590Y-24263D01*
X35620Y-24248D01*
X35651Y-24248D01*
X35697Y-24263D01*
X35880Y-24446D01*
X35880Y-24248D01*
G54D18*
X34559Y-24565D02*
X34559Y-24405D01*
X34612Y-24519D01*
X34666Y-24405D01*
X34666Y-24565D01*
X34795Y-24481D02*
X34818Y-24489D01*
X34826Y-24496D01*
X34834Y-24511D01*
X34834Y-24534D01*
X34826Y-24550D01*
X34818Y-24557D01*
X34803Y-24565D01*
X34742Y-24565D01*
X34742Y-24405D01*
X34795Y-24405D01*
X34811Y-24412D01*
X34818Y-24420D01*
X34826Y-24435D01*
X34826Y-24450D01*
X34818Y-24466D01*
X34811Y-24473D01*
X34795Y-24481D01*
X34742Y-24481D01*
X34994Y-24565D02*
X34940Y-24489D01*
X34902Y-24565D02*
X34902Y-24405D01*
X34963Y-24405D01*
X34978Y-24412D01*
X34986Y-24420D01*
X34994Y-24435D01*
X34994Y-24458D01*
X34986Y-24473D01*
X34978Y-24481D01*
X34963Y-24489D01*
X34902Y-24489D01*
X35146Y-24565D02*
X35054Y-24565D01*
X35100Y-24565D02*
X35100Y-24405D01*
X35085Y-24428D01*
X35070Y-24443D01*
X35054Y-24450D01*
X35206Y-24420D02*
X35214Y-24412D01*
X35229Y-24405D01*
X35267Y-24405D01*
X35283Y-24412D01*
X35290Y-24420D01*
X35298Y-24435D01*
X35298Y-24450D01*
X35290Y-24473D01*
X35199Y-24565D01*
X35298Y-24565D01*
X35397Y-24405D02*
X35412Y-24405D01*
X35427Y-24412D01*
X35435Y-24420D01*
X35442Y-24435D01*
X35450Y-24466D01*
X35450Y-24504D01*
X35442Y-24534D01*
X35435Y-24550D01*
X35427Y-24557D01*
X35412Y-24565D01*
X35397Y-24565D01*
X35381Y-24557D01*
X35374Y-24550D01*
X35366Y-24534D01*
X35358Y-24504D01*
X35358Y-24466D01*
X35366Y-24435D01*
X35374Y-24420D01*
X35381Y-24412D01*
X35397Y-24405D01*
G54D15*
X43133Y-23083D02*
X43267Y-23083D01*
X43107Y-23163D02*
X43200Y-22883D01*
X43293Y-23163D01*
X43387Y-23163D02*
X43387Y-22883D01*
X43480Y-23083D01*
X43573Y-22883D01*
X43573Y-23163D01*
X43707Y-23163D02*
X43707Y-22883D01*
X43813Y-22883D01*
X43840Y-22897D01*
X43853Y-22910D01*
X43867Y-22937D01*
X43867Y-22977D01*
X43853Y-23003D01*
X43840Y-23017D01*
X43813Y-23030D01*
X43707Y-23030D01*
X40633Y-23083D02*
X40767Y-23083D01*
X40607Y-23163D02*
X40700Y-22883D01*
X40793Y-23163D01*
X40887Y-23163D02*
X40887Y-22883D01*
X40980Y-23083D01*
X41073Y-22883D01*
X41073Y-23163D01*
X41207Y-23163D02*
X41207Y-22883D01*
X41313Y-22883D01*
X41340Y-22897D01*
X41353Y-22910D01*
X41367Y-22937D01*
X41367Y-22977D01*
X41353Y-23003D01*
X41340Y-23017D01*
X41313Y-23030D01*
X41207Y-23030D01*
X31794Y-22863D02*
X31794Y-22583D01*
X31860Y-22583D01*
X31900Y-22597D01*
X31927Y-22623D01*
X31940Y-22650D01*
X31954Y-22703D01*
X31954Y-22743D01*
X31940Y-22797D01*
X31927Y-22823D01*
X31900Y-22850D01*
X31860Y-22863D01*
X31794Y-22863D01*
X32207Y-22583D02*
X32074Y-22583D01*
X32060Y-22717D01*
X32074Y-22703D01*
X32100Y-22690D01*
X32167Y-22690D01*
X32194Y-22703D01*
X32207Y-22717D01*
X32220Y-22743D01*
X32220Y-22810D01*
X32207Y-22837D01*
X32194Y-22850D01*
X32167Y-22863D01*
X32100Y-22863D01*
X32074Y-22850D01*
X32060Y-22837D01*
G54D11*
X31480Y-24794D02*
X31160Y-24794D01*
X31160Y-24672D01*
X31175Y-24641D01*
X31190Y-24626D01*
X31220Y-24611D01*
X31266Y-24611D01*
X31297Y-24626D01*
X31312Y-24641D01*
X31327Y-24672D01*
X31327Y-24794D01*
X31160Y-24413D02*
X31160Y-24352D01*
X31175Y-24321D01*
X31205Y-24291D01*
X31266Y-24276D01*
X31373Y-24276D01*
X31434Y-24291D01*
X31464Y-24321D01*
X31480Y-24352D01*
X31480Y-24413D01*
X31464Y-24443D01*
X31434Y-24474D01*
X31373Y-24489D01*
X31266Y-24489D01*
X31205Y-24474D01*
X31175Y-24443D01*
X31160Y-24413D01*
X31160Y-24169D02*
X31480Y-24093D01*
X31251Y-24032D01*
X31480Y-23971D01*
X31160Y-23895D01*
X31312Y-23773D02*
X31312Y-23666D01*
X31480Y-23620D02*
X31480Y-23773D01*
X31160Y-23773D01*
X31160Y-23620D01*
X31480Y-23300D02*
X31327Y-23407D01*
X31480Y-23483D02*
X31160Y-23483D01*
X31160Y-23361D01*
X31175Y-23330D01*
X31190Y-23315D01*
X31220Y-23300D01*
X31266Y-23300D01*
X31297Y-23315D01*
X31312Y-23330D01*
X31327Y-23361D01*
X31327Y-23483D01*
X31312Y-23163D02*
X31312Y-23056D01*
X31480Y-23010D02*
X31480Y-23163D01*
X31160Y-23163D01*
X31160Y-23010D01*
X31480Y-22873D02*
X31160Y-22873D01*
X31160Y-22797D01*
X31175Y-22751D01*
X31205Y-22720D01*
X31236Y-22705D01*
X31297Y-22690D01*
X31342Y-22690D01*
X31403Y-22705D01*
X31434Y-22720D01*
X31464Y-22751D01*
X31480Y-22797D01*
X31480Y-22873D01*
G54D15*
X12413Y-23206D02*
X12133Y-23206D01*
X12133Y-23140D01*
X12147Y-23100D01*
X12173Y-23073D01*
X12200Y-23060D01*
X12253Y-23046D01*
X12293Y-23046D01*
X12347Y-23060D01*
X12373Y-23073D01*
X12400Y-23100D01*
X12413Y-23140D01*
X12413Y-23206D01*
X12133Y-22953D02*
X12133Y-22780D01*
X12240Y-22873D01*
X12240Y-22833D01*
X12253Y-22806D01*
X12267Y-22793D01*
X12293Y-22780D01*
X12360Y-22780D01*
X12387Y-22793D01*
X12400Y-22806D01*
X12413Y-22833D01*
X12413Y-22913D01*
X12400Y-22940D01*
X12387Y-22953D01*
G54D11*
X11130Y-24194D02*
X10810Y-24194D01*
X10810Y-24072D01*
X10825Y-24041D01*
X10840Y-24026D01*
X10870Y-24011D01*
X10916Y-24011D01*
X10947Y-24026D01*
X10962Y-24041D01*
X10977Y-24072D01*
X10977Y-24194D01*
X10810Y-23813D02*
X10810Y-23752D01*
X10825Y-23721D01*
X10855Y-23691D01*
X10916Y-23676D01*
X11023Y-23676D01*
X11084Y-23691D01*
X11114Y-23721D01*
X11130Y-23752D01*
X11130Y-23813D01*
X11114Y-23843D01*
X11084Y-23874D01*
X11023Y-23889D01*
X10916Y-23889D01*
X10855Y-23874D01*
X10825Y-23843D01*
X10810Y-23813D01*
X10810Y-23569D02*
X11130Y-23493D01*
X10901Y-23432D01*
X11130Y-23371D01*
X10810Y-23295D01*
X10962Y-23173D02*
X10962Y-23066D01*
X11130Y-23020D02*
X11130Y-23173D01*
X10810Y-23173D01*
X10810Y-23020D01*
X11130Y-22700D02*
X10977Y-22807D01*
X11130Y-22883D02*
X10810Y-22883D01*
X10810Y-22761D01*
X10825Y-22730D01*
X10840Y-22715D01*
X10870Y-22700D01*
X10916Y-22700D01*
X10947Y-22715D01*
X10962Y-22730D01*
X10977Y-22761D01*
X10977Y-22883D01*
X10962Y-22563D02*
X10962Y-22456D01*
X11130Y-22410D02*
X11130Y-22563D01*
X10810Y-22563D01*
X10810Y-22410D01*
X11130Y-22273D02*
X10810Y-22273D01*
X10810Y-22197D01*
X10825Y-22151D01*
X10855Y-22120D01*
X10886Y-22105D01*
X10947Y-22090D01*
X10992Y-22090D01*
X11053Y-22105D01*
X11084Y-22120D01*
X11114Y-22151D01*
X11130Y-22197D01*
X11130Y-22273D01*
G54D15*
X34820Y-27813D02*
X34687Y-27813D01*
X34687Y-27533D01*
X35060Y-27813D02*
X34900Y-27813D01*
X34980Y-27813D02*
X34980Y-27533D01*
X34954Y-27573D01*
X34927Y-27600D01*
X34900Y-27613D01*
X35301Y-27627D02*
X35301Y-27813D01*
X35234Y-27520D02*
X35167Y-27720D01*
X35341Y-27720D01*
G54D10*
X34640Y-26437D02*
X34640Y-26597D01*
X34583Y-26346D02*
X34526Y-26517D01*
X34674Y-26517D01*
X34766Y-26574D02*
X34778Y-26586D01*
X34766Y-26597D01*
X34755Y-26586D01*
X34766Y-26574D01*
X34766Y-26597D01*
X34857Y-26357D02*
X35017Y-26357D01*
X34914Y-26597D01*
X35212Y-26437D02*
X35212Y-26597D01*
X35109Y-26437D02*
X35109Y-26563D01*
X35121Y-26586D01*
X35143Y-26597D01*
X35178Y-26597D01*
X35201Y-26586D01*
X35212Y-26574D01*
X35326Y-26597D02*
X35326Y-26357D01*
X35326Y-26471D02*
X35463Y-26471D01*
X35463Y-26597D02*
X35463Y-26357D01*
G54D15*
X12248Y-26733D02*
X12248Y-26960D01*
X12261Y-26987D01*
X12274Y-27000D01*
X12301Y-27013D01*
X12354Y-27013D01*
X12381Y-27000D01*
X12394Y-26987D01*
X12408Y-26960D01*
X12408Y-26733D01*
X12527Y-27000D02*
X12567Y-27013D01*
X12634Y-27013D01*
X12661Y-27000D01*
X12674Y-26987D01*
X12687Y-26960D01*
X12687Y-26933D01*
X12674Y-26907D01*
X12661Y-26893D01*
X12634Y-26880D01*
X12581Y-26867D01*
X12554Y-26853D01*
X12541Y-26840D01*
X12527Y-26813D01*
X12527Y-26787D01*
X12541Y-26760D01*
X12554Y-26747D01*
X12581Y-26733D01*
X12647Y-26733D01*
X12687Y-26747D01*
X12901Y-26867D02*
X12941Y-26880D01*
X12954Y-26893D01*
X12968Y-26920D01*
X12968Y-26960D01*
X12954Y-26987D01*
X12941Y-27000D01*
X12914Y-27013D01*
X12808Y-27013D01*
X12808Y-26733D01*
X12901Y-26733D01*
X12928Y-26747D01*
X12941Y-26760D01*
X12954Y-26787D01*
X12954Y-26813D01*
X12941Y-26840D01*
X12928Y-26853D01*
X12901Y-26867D01*
X12808Y-26867D01*
X13088Y-26907D02*
X13301Y-26907D01*
X13435Y-27013D02*
X13435Y-26827D01*
X13435Y-26853D02*
X13448Y-26840D01*
X13475Y-26827D01*
X13515Y-26827D01*
X13541Y-26840D01*
X13555Y-26867D01*
X13555Y-27013D01*
X13555Y-26867D02*
X13568Y-26840D01*
X13595Y-26827D01*
X13635Y-26827D01*
X13661Y-26840D01*
X13675Y-26867D01*
X13675Y-27013D01*
X13808Y-27013D02*
X13808Y-26827D01*
X13808Y-26733D02*
X13794Y-26747D01*
X13808Y-26760D01*
X13821Y-26747D01*
X13808Y-26733D01*
X13808Y-26760D01*
X14061Y-27000D02*
X14034Y-27013D01*
X13981Y-27013D01*
X13954Y-27000D01*
X13941Y-26987D01*
X13927Y-26960D01*
X13927Y-26880D01*
X13941Y-26853D01*
X13954Y-26840D01*
X13981Y-26827D01*
X14034Y-26827D01*
X14061Y-26840D01*
X14181Y-27013D02*
X14181Y-26827D01*
X14181Y-26880D02*
X14194Y-26853D01*
X14207Y-26840D01*
X14234Y-26827D01*
X14261Y-26827D01*
X14394Y-27013D02*
X14367Y-27000D01*
X14354Y-26987D01*
X14340Y-26960D01*
X14340Y-26880D01*
X14354Y-26853D01*
X14367Y-26840D01*
X14394Y-26827D01*
X14434Y-26827D01*
X14460Y-26840D01*
X14474Y-26853D01*
X14487Y-26880D01*
X14487Y-26960D01*
X14474Y-26987D01*
X14460Y-27000D01*
X14434Y-27013D01*
X14394Y-27013D01*
X14700Y-26867D02*
X14740Y-26880D01*
X14753Y-26893D01*
X14767Y-26920D01*
X14767Y-26960D01*
X14753Y-26987D01*
X14740Y-27000D01*
X14713Y-27013D01*
X14607Y-27013D01*
X14607Y-26733D01*
X14700Y-26733D01*
X14727Y-26747D01*
X14740Y-26760D01*
X14753Y-26787D01*
X14753Y-26813D01*
X14740Y-26840D01*
X14727Y-26853D01*
X14700Y-26867D01*
X14607Y-26867D01*
G54D20*
X11274Y-26614D02*
X11581Y-26614D01*
X11618Y-26599D01*
X11636Y-26585D01*
X11654Y-26556D01*
X11654Y-26499D01*
X11636Y-26471D01*
X11618Y-26456D01*
X11581Y-26442D01*
X11274Y-26442D01*
X11636Y-26314D02*
X11654Y-26271D01*
X11654Y-26200D01*
X11636Y-26171D01*
X11618Y-26157D01*
X11581Y-26142D01*
X11545Y-26142D01*
X11509Y-26157D01*
X11491Y-26171D01*
X11473Y-26200D01*
X11455Y-26257D01*
X11437Y-26285D01*
X11419Y-26300D01*
X11382Y-26314D01*
X11346Y-26314D01*
X11310Y-26300D01*
X11292Y-26285D01*
X11274Y-26257D01*
X11274Y-26185D01*
X11292Y-26142D01*
X11455Y-25914D02*
X11473Y-25871D01*
X11491Y-25856D01*
X11527Y-25842D01*
X11581Y-25842D01*
X11618Y-25856D01*
X11636Y-25871D01*
X11654Y-25899D01*
X11654Y-26014D01*
X11274Y-26014D01*
X11274Y-25914D01*
X11292Y-25885D01*
X11310Y-25871D01*
X11346Y-25856D01*
X11382Y-25856D01*
X11419Y-25871D01*
X11437Y-25885D01*
X11455Y-25914D01*
X11455Y-26014D01*
X11509Y-25714D02*
X11509Y-25485D01*
X11455Y-25243D02*
X11473Y-25200D01*
X11491Y-25185D01*
X11527Y-25171D01*
X11581Y-25171D01*
X11618Y-25185D01*
X11636Y-25200D01*
X11654Y-25228D01*
X11654Y-25343D01*
X11274Y-25343D01*
X11274Y-25243D01*
X11292Y-25214D01*
X11310Y-25200D01*
X11346Y-25185D01*
X11382Y-25185D01*
X11419Y-25200D01*
X11437Y-25214D01*
X11455Y-25243D01*
X11455Y-25343D01*
G54D15*
X13204Y-18537D02*
X13190Y-18550D01*
X13150Y-18563D01*
X13124Y-18563D01*
X13084Y-18550D01*
X13057Y-18523D01*
X13044Y-18497D01*
X13030Y-18443D01*
X13030Y-18403D01*
X13044Y-18350D01*
X13057Y-18323D01*
X13084Y-18297D01*
X13124Y-18283D01*
X13150Y-18283D01*
X13190Y-18297D01*
X13204Y-18310D01*
X13444Y-18377D02*
X13444Y-18563D01*
X13377Y-18270D02*
X13310Y-18470D01*
X13484Y-18470D01*
X13394Y-14863D02*
X13394Y-14583D01*
X13460Y-14583D01*
X13500Y-14597D01*
X13527Y-14623D01*
X13540Y-14650D01*
X13554Y-14703D01*
X13554Y-14743D01*
X13540Y-14797D01*
X13527Y-14823D01*
X13500Y-14850D01*
X13460Y-14863D01*
X13394Y-14863D01*
X13820Y-14863D02*
X13660Y-14863D01*
X13740Y-14863D02*
X13740Y-14583D01*
X13714Y-14623D01*
X13687Y-14650D01*
X13660Y-14663D01*
X12954Y-22287D02*
X12940Y-22300D01*
X12900Y-22313D01*
X12874Y-22313D01*
X12834Y-22300D01*
X12807Y-22273D01*
X12794Y-22247D01*
X12780Y-22193D01*
X12780Y-22153D01*
X12794Y-22100D01*
X12807Y-22073D01*
X12834Y-22047D01*
X12874Y-22033D01*
X12900Y-22033D01*
X12940Y-22047D01*
X12954Y-22060D01*
X13220Y-22313D02*
X13060Y-22313D01*
X13140Y-22313D02*
X13140Y-22033D01*
X13114Y-22073D01*
X13087Y-22100D01*
X13060Y-22113D01*
G54D10*
X18454Y-24849D02*
X18440Y-24861D01*
X18400Y-24872D01*
X18374Y-24872D01*
X18334Y-24861D01*
X18307Y-24838D01*
X18294Y-24815D01*
X18280Y-24769D01*
X18280Y-24735D01*
X18294Y-24689D01*
X18307Y-24666D01*
X18334Y-24644D01*
X18374Y-24632D01*
X18400Y-24632D01*
X18440Y-24644D01*
X18454Y-24655D01*
X18560Y-24655D02*
X18574Y-24644D01*
X18600Y-24632D01*
X18667Y-24632D01*
X18694Y-24644D01*
X18707Y-24655D01*
X18720Y-24678D01*
X18720Y-24701D01*
X18707Y-24735D01*
X18547Y-24872D01*
X18720Y-24872D01*
X18454Y-23849D02*
X18440Y-23861D01*
X18400Y-23872D01*
X18374Y-23872D01*
X18334Y-23861D01*
X18307Y-23838D01*
X18294Y-23815D01*
X18280Y-23769D01*
X18280Y-23735D01*
X18294Y-23689D01*
X18307Y-23666D01*
X18334Y-23644D01*
X18374Y-23632D01*
X18400Y-23632D01*
X18440Y-23644D01*
X18454Y-23655D01*
X18547Y-23632D02*
X18720Y-23632D01*
X18627Y-23724D01*
X18667Y-23724D01*
X18694Y-23735D01*
X18707Y-23746D01*
X18720Y-23769D01*
X18720Y-23826D01*
X18707Y-23849D01*
X18694Y-23861D01*
X18667Y-23872D01*
X18587Y-23872D01*
X18560Y-23861D01*
X18547Y-23849D01*
G54D15*
X14454Y-16687D02*
X14440Y-16700D01*
X14400Y-16713D01*
X14374Y-16713D01*
X14334Y-16700D01*
X14307Y-16673D01*
X14294Y-16647D01*
X14280Y-16593D01*
X14280Y-16553D01*
X14294Y-16500D01*
X14307Y-16473D01*
X14334Y-16447D01*
X14374Y-16433D01*
X14400Y-16433D01*
X14440Y-16447D01*
X14454Y-16460D01*
X14707Y-16433D02*
X14574Y-16433D01*
X14560Y-16567D01*
X14574Y-16553D01*
X14600Y-16540D01*
X14667Y-16540D01*
X14694Y-16553D01*
X14707Y-16567D01*
X14720Y-16593D01*
X14720Y-16660D01*
X14707Y-16687D01*
X14694Y-16700D01*
X14667Y-16713D01*
X14600Y-16713D01*
X14574Y-16700D01*
X14560Y-16687D01*
X15704Y-18537D02*
X15690Y-18550D01*
X15650Y-18563D01*
X15624Y-18563D01*
X15584Y-18550D01*
X15557Y-18523D01*
X15544Y-18497D01*
X15530Y-18443D01*
X15530Y-18403D01*
X15544Y-18350D01*
X15557Y-18323D01*
X15584Y-18297D01*
X15624Y-18283D01*
X15650Y-18283D01*
X15690Y-18297D01*
X15704Y-18310D01*
X15944Y-18283D02*
X15890Y-18283D01*
X15864Y-18297D01*
X15850Y-18310D01*
X15824Y-18350D01*
X15810Y-18403D01*
X15810Y-18510D01*
X15824Y-18537D01*
X15837Y-18550D01*
X15864Y-18563D01*
X15917Y-18563D01*
X15944Y-18550D01*
X15957Y-18537D01*
X15970Y-18510D01*
X15970Y-18443D01*
X15957Y-18417D01*
X15944Y-18403D01*
X15917Y-18390D01*
X15864Y-18390D01*
X15837Y-18403D01*
X15824Y-18417D01*
X15810Y-18443D01*
X16954Y-16687D02*
X16940Y-16700D01*
X16900Y-16713D01*
X16874Y-16713D01*
X16834Y-16700D01*
X16807Y-16673D01*
X16794Y-16647D01*
X16780Y-16593D01*
X16780Y-16553D01*
X16794Y-16500D01*
X16807Y-16473D01*
X16834Y-16447D01*
X16874Y-16433D01*
X16900Y-16433D01*
X16940Y-16447D01*
X16954Y-16460D01*
X17047Y-16433D02*
X17234Y-16433D01*
X17114Y-16713D01*
X13954Y-22287D02*
X13940Y-22300D01*
X13900Y-22313D01*
X13874Y-22313D01*
X13834Y-22300D01*
X13807Y-22273D01*
X13794Y-22247D01*
X13780Y-22193D01*
X13780Y-22153D01*
X13794Y-22100D01*
X13807Y-22073D01*
X13834Y-22047D01*
X13874Y-22033D01*
X13900Y-22033D01*
X13940Y-22047D01*
X13954Y-22060D01*
X14114Y-22153D02*
X14087Y-22140D01*
X14074Y-22127D01*
X14060Y-22100D01*
X14060Y-22087D01*
X14074Y-22060D01*
X14087Y-22047D01*
X14114Y-22033D01*
X14167Y-22033D01*
X14194Y-22047D01*
X14207Y-22060D01*
X14220Y-22087D01*
X14220Y-22100D01*
X14207Y-22127D01*
X14194Y-22140D01*
X14167Y-22153D01*
X14114Y-22153D01*
X14087Y-22167D01*
X14074Y-22180D01*
X14060Y-22207D01*
X14060Y-22260D01*
X14074Y-22287D01*
X14087Y-22300D01*
X14114Y-22313D01*
X14167Y-22313D01*
X14194Y-22300D01*
X14207Y-22287D01*
X14220Y-22260D01*
X14220Y-22207D01*
X14207Y-22180D01*
X14194Y-22167D01*
X14167Y-22153D01*
X18204Y-18537D02*
X18190Y-18550D01*
X18150Y-18563D01*
X18124Y-18563D01*
X18084Y-18550D01*
X18057Y-18523D01*
X18044Y-18497D01*
X18030Y-18443D01*
X18030Y-18403D01*
X18044Y-18350D01*
X18057Y-18323D01*
X18084Y-18297D01*
X18124Y-18283D01*
X18150Y-18283D01*
X18190Y-18297D01*
X18204Y-18310D01*
X18337Y-18563D02*
X18390Y-18563D01*
X18417Y-18550D01*
X18430Y-18537D01*
X18457Y-18497D01*
X18470Y-18443D01*
X18470Y-18337D01*
X18457Y-18310D01*
X18444Y-18297D01*
X18417Y-18283D01*
X18364Y-18283D01*
X18337Y-18297D01*
X18324Y-18310D01*
X18310Y-18337D01*
X18310Y-18403D01*
X18324Y-18430D01*
X18337Y-18443D01*
X18364Y-18457D01*
X18417Y-18457D01*
X18444Y-18443D01*
X18457Y-18430D01*
X18470Y-18403D01*
X19320Y-16687D02*
X19306Y-16700D01*
X19266Y-16713D01*
X19240Y-16713D01*
X19200Y-16700D01*
X19173Y-16673D01*
X19160Y-16647D01*
X19146Y-16593D01*
X19146Y-16553D01*
X19160Y-16500D01*
X19173Y-16473D01*
X19200Y-16447D01*
X19240Y-16433D01*
X19266Y-16433D01*
X19306Y-16447D01*
X19320Y-16460D01*
X19586Y-16713D02*
X19426Y-16713D01*
X19506Y-16713D02*
X19506Y-16433D01*
X19480Y-16473D01*
X19453Y-16500D01*
X19426Y-16513D01*
X19760Y-16433D02*
X19787Y-16433D01*
X19813Y-16447D01*
X19827Y-16460D01*
X19840Y-16487D01*
X19853Y-16540D01*
X19853Y-16607D01*
X19840Y-16660D01*
X19827Y-16687D01*
X19813Y-16700D01*
X19787Y-16713D01*
X19760Y-16713D01*
X19733Y-16700D01*
X19720Y-16687D01*
X19707Y-16660D01*
X19693Y-16607D01*
X19693Y-16540D01*
X19707Y-16487D01*
X19720Y-16460D01*
X19733Y-16447D01*
X19760Y-16433D01*
X20570Y-18537D02*
X20556Y-18550D01*
X20516Y-18563D01*
X20490Y-18563D01*
X20450Y-18550D01*
X20423Y-18523D01*
X20410Y-18497D01*
X20396Y-18443D01*
X20396Y-18403D01*
X20410Y-18350D01*
X20423Y-18323D01*
X20450Y-18297D01*
X20490Y-18283D01*
X20516Y-18283D01*
X20556Y-18297D01*
X20570Y-18310D01*
X20836Y-18563D02*
X20676Y-18563D01*
X20756Y-18563D02*
X20756Y-18283D01*
X20730Y-18323D01*
X20703Y-18350D01*
X20676Y-18363D01*
X21103Y-18563D02*
X20943Y-18563D01*
X21023Y-18563D02*
X21023Y-18283D01*
X20997Y-18323D01*
X20970Y-18350D01*
X20943Y-18363D01*
X15820Y-24887D02*
X15806Y-24900D01*
X15766Y-24913D01*
X15740Y-24913D01*
X15700Y-24900D01*
X15673Y-24873D01*
X15660Y-24847D01*
X15646Y-24793D01*
X15646Y-24753D01*
X15660Y-24700D01*
X15673Y-24673D01*
X15700Y-24647D01*
X15740Y-24633D01*
X15766Y-24633D01*
X15806Y-24647D01*
X15820Y-24660D01*
X16086Y-24913D02*
X15926Y-24913D01*
X16006Y-24913D02*
X16006Y-24633D01*
X15980Y-24673D01*
X15953Y-24700D01*
X15926Y-24713D01*
X16193Y-24660D02*
X16207Y-24647D01*
X16233Y-24633D01*
X16300Y-24633D01*
X16327Y-24647D01*
X16340Y-24660D01*
X16353Y-24687D01*
X16353Y-24713D01*
X16340Y-24753D01*
X16180Y-24913D01*
X16353Y-24913D01*
X27670Y-15937D02*
X27656Y-15950D01*
X27616Y-15963D01*
X27590Y-15963D01*
X27550Y-15950D01*
X27523Y-15923D01*
X27510Y-15897D01*
X27496Y-15843D01*
X27496Y-15803D01*
X27510Y-15750D01*
X27523Y-15723D01*
X27550Y-15697D01*
X27590Y-15683D01*
X27616Y-15683D01*
X27656Y-15697D01*
X27670Y-15710D01*
X27936Y-15963D02*
X27776Y-15963D01*
X27856Y-15963D02*
X27856Y-15683D01*
X27830Y-15723D01*
X27803Y-15750D01*
X27776Y-15763D01*
X28177Y-15777D02*
X28177Y-15963D01*
X28110Y-15670D02*
X28043Y-15870D01*
X28217Y-15870D01*
X28770Y-15787D02*
X28756Y-15800D01*
X28716Y-15813D01*
X28690Y-15813D01*
X28650Y-15800D01*
X28623Y-15773D01*
X28610Y-15747D01*
X28596Y-15693D01*
X28596Y-15653D01*
X28610Y-15600D01*
X28623Y-15573D01*
X28650Y-15547D01*
X28690Y-15533D01*
X28716Y-15533D01*
X28756Y-15547D01*
X28770Y-15560D01*
X29036Y-15813D02*
X28876Y-15813D01*
X28956Y-15813D02*
X28956Y-15533D01*
X28930Y-15573D01*
X28903Y-15600D01*
X28876Y-15613D01*
X29290Y-15533D02*
X29157Y-15533D01*
X29143Y-15667D01*
X29157Y-15653D01*
X29183Y-15640D01*
X29250Y-15640D01*
X29277Y-15653D01*
X29290Y-15667D01*
X29303Y-15693D01*
X29303Y-15760D01*
X29290Y-15787D01*
X29277Y-15800D01*
X29250Y-15813D01*
X29183Y-15813D01*
X29157Y-15800D01*
X29143Y-15787D01*
X31270Y-16787D02*
X31256Y-16800D01*
X31216Y-16813D01*
X31190Y-16813D01*
X31150Y-16800D01*
X31123Y-16773D01*
X31110Y-16747D01*
X31096Y-16693D01*
X31096Y-16653D01*
X31110Y-16600D01*
X31123Y-16573D01*
X31150Y-16547D01*
X31190Y-16533D01*
X31216Y-16533D01*
X31256Y-16547D01*
X31270Y-16560D01*
X31536Y-16813D02*
X31376Y-16813D01*
X31456Y-16813D02*
X31456Y-16533D01*
X31430Y-16573D01*
X31403Y-16600D01*
X31376Y-16613D01*
X31777Y-16533D02*
X31723Y-16533D01*
X31697Y-16547D01*
X31683Y-16560D01*
X31657Y-16600D01*
X31643Y-16653D01*
X31643Y-16760D01*
X31657Y-16787D01*
X31670Y-16800D01*
X31697Y-16813D01*
X31750Y-16813D01*
X31777Y-16800D01*
X31790Y-16787D01*
X31803Y-16760D01*
X31803Y-16693D01*
X31790Y-16667D01*
X31777Y-16653D01*
X31750Y-16640D01*
X31697Y-16640D01*
X31670Y-16653D01*
X31657Y-16667D01*
X31643Y-16693D01*
X33220Y-15787D02*
X33206Y-15800D01*
X33166Y-15813D01*
X33140Y-15813D01*
X33100Y-15800D01*
X33073Y-15773D01*
X33060Y-15747D01*
X33046Y-15693D01*
X33046Y-15653D01*
X33060Y-15600D01*
X33073Y-15573D01*
X33100Y-15547D01*
X33140Y-15533D01*
X33166Y-15533D01*
X33206Y-15547D01*
X33220Y-15560D01*
X33486Y-15813D02*
X33326Y-15813D01*
X33406Y-15813D02*
X33406Y-15533D01*
X33380Y-15573D01*
X33353Y-15600D01*
X33326Y-15613D01*
X33580Y-15533D02*
X33767Y-15533D01*
X33647Y-15813D01*
X33470Y-18687D02*
X33456Y-18700D01*
X33416Y-18713D01*
X33390Y-18713D01*
X33350Y-18700D01*
X33323Y-18673D01*
X33310Y-18647D01*
X33296Y-18593D01*
X33296Y-18553D01*
X33310Y-18500D01*
X33323Y-18473D01*
X33350Y-18447D01*
X33390Y-18433D01*
X33416Y-18433D01*
X33456Y-18447D01*
X33470Y-18460D01*
X33736Y-18713D02*
X33576Y-18713D01*
X33656Y-18713D02*
X33656Y-18433D01*
X33630Y-18473D01*
X33603Y-18500D01*
X33576Y-18513D01*
X33897Y-18553D02*
X33870Y-18540D01*
X33857Y-18527D01*
X33843Y-18500D01*
X33843Y-18487D01*
X33857Y-18460D01*
X33870Y-18447D01*
X33897Y-18433D01*
X33950Y-18433D01*
X33977Y-18447D01*
X33990Y-18460D01*
X34003Y-18487D01*
X34003Y-18500D01*
X33990Y-18527D01*
X33977Y-18540D01*
X33950Y-18553D01*
X33897Y-18553D01*
X33870Y-18567D01*
X33857Y-18580D01*
X33843Y-18607D01*
X33843Y-18660D01*
X33857Y-18687D01*
X33870Y-18700D01*
X33897Y-18713D01*
X33950Y-18713D01*
X33977Y-18700D01*
X33990Y-18687D01*
X34003Y-18660D01*
X34003Y-18607D01*
X33990Y-18580D01*
X33977Y-18567D01*
X33950Y-18553D01*
X35420Y-18537D02*
X35406Y-18550D01*
X35366Y-18563D01*
X35340Y-18563D01*
X35300Y-18550D01*
X35273Y-18523D01*
X35260Y-18497D01*
X35246Y-18443D01*
X35246Y-18403D01*
X35260Y-18350D01*
X35273Y-18323D01*
X35300Y-18297D01*
X35340Y-18283D01*
X35366Y-18283D01*
X35406Y-18297D01*
X35420Y-18310D01*
X35686Y-18563D02*
X35526Y-18563D01*
X35606Y-18563D02*
X35606Y-18283D01*
X35580Y-18323D01*
X35553Y-18350D01*
X35526Y-18363D01*
X35820Y-18563D02*
X35873Y-18563D01*
X35900Y-18550D01*
X35913Y-18537D01*
X35940Y-18497D01*
X35953Y-18443D01*
X35953Y-18337D01*
X35940Y-18310D01*
X35927Y-18297D01*
X35900Y-18283D01*
X35847Y-18283D01*
X35820Y-18297D01*
X35807Y-18310D01*
X35793Y-18337D01*
X35793Y-18403D01*
X35807Y-18430D01*
X35820Y-18443D01*
X35847Y-18457D01*
X35900Y-18457D01*
X35927Y-18443D01*
X35940Y-18430D01*
X35953Y-18403D01*
X37920Y-19537D02*
X37906Y-19550D01*
X37866Y-19563D01*
X37840Y-19563D01*
X37800Y-19550D01*
X37773Y-19523D01*
X37760Y-19497D01*
X37746Y-19443D01*
X37746Y-19403D01*
X37760Y-19350D01*
X37773Y-19323D01*
X37800Y-19297D01*
X37840Y-19283D01*
X37866Y-19283D01*
X37906Y-19297D01*
X37920Y-19310D01*
X38026Y-19310D02*
X38040Y-19297D01*
X38066Y-19283D01*
X38133Y-19283D01*
X38160Y-19297D01*
X38173Y-19310D01*
X38186Y-19337D01*
X38186Y-19363D01*
X38173Y-19403D01*
X38013Y-19563D01*
X38186Y-19563D01*
X38360Y-19283D02*
X38387Y-19283D01*
X38413Y-19297D01*
X38427Y-19310D01*
X38440Y-19337D01*
X38453Y-19390D01*
X38453Y-19457D01*
X38440Y-19510D01*
X38427Y-19537D01*
X38413Y-19550D01*
X38387Y-19563D01*
X38360Y-19563D01*
X38333Y-19550D01*
X38320Y-19537D01*
X38307Y-19510D01*
X38293Y-19457D01*
X38293Y-19390D01*
X38307Y-19337D01*
X38320Y-19310D01*
X38333Y-19297D01*
X38360Y-19283D01*
X14367Y-24343D02*
X14367Y-24436D01*
X14513Y-24436D02*
X14233Y-24436D01*
X14233Y-24303D01*
X14513Y-24050D02*
X14513Y-24210D01*
X14513Y-24130D02*
X14233Y-24130D01*
X14273Y-24156D01*
X14300Y-24183D01*
X14313Y-24210D01*
X29113Y-23947D02*
X29113Y-24080D01*
X28833Y-24080D01*
X29113Y-23707D02*
X29113Y-23867D01*
X29113Y-23787D02*
X28833Y-23787D01*
X28873Y-23813D01*
X28900Y-23840D01*
X28913Y-23867D01*
X14453Y-18713D02*
X14320Y-18713D01*
X14320Y-18433D01*
X14533Y-18460D02*
X14547Y-18447D01*
X14573Y-18433D01*
X14640Y-18433D01*
X14667Y-18447D01*
X14680Y-18460D01*
X14693Y-18487D01*
X14693Y-18513D01*
X14680Y-18553D01*
X14520Y-18713D01*
X14693Y-18713D01*
X16953Y-18713D02*
X16820Y-18713D01*
X16820Y-18433D01*
X17020Y-18433D02*
X17193Y-18433D01*
X17100Y-18540D01*
X17140Y-18540D01*
X17167Y-18553D01*
X17180Y-18567D01*
X17193Y-18593D01*
X17193Y-18660D01*
X17180Y-18687D01*
X17167Y-18700D01*
X17140Y-18713D01*
X17060Y-18713D01*
X17033Y-18700D01*
X17020Y-18687D01*
X19453Y-18713D02*
X19320Y-18713D01*
X19320Y-18433D01*
X19667Y-18527D02*
X19667Y-18713D01*
X19600Y-18420D02*
X19533Y-18620D01*
X19707Y-18620D01*
X29263Y-21447D02*
X29263Y-21580D01*
X28983Y-21580D01*
X28983Y-21220D02*
X28983Y-21353D01*
X29117Y-21367D01*
X29103Y-21353D01*
X29090Y-21327D01*
X29090Y-21260D01*
X29103Y-21233D01*
X29117Y-21220D01*
X29143Y-21207D01*
X29210Y-21207D01*
X29237Y-21220D01*
X29250Y-21233D01*
X29263Y-21260D01*
X29263Y-21327D01*
X29250Y-21353D01*
X29237Y-21367D01*
X26953Y-15963D02*
X26820Y-15963D01*
X26820Y-15683D01*
X27167Y-15683D02*
X27113Y-15683D01*
X27087Y-15697D01*
X27073Y-15710D01*
X27047Y-15750D01*
X27033Y-15803D01*
X27033Y-15910D01*
X27047Y-15937D01*
X27060Y-15950D01*
X27087Y-15963D01*
X27140Y-15963D01*
X27167Y-15950D01*
X27180Y-15937D01*
X27193Y-15910D01*
X27193Y-15843D01*
X27180Y-15817D01*
X27167Y-15803D01*
X27140Y-15790D01*
X27087Y-15790D01*
X27060Y-15803D01*
X27047Y-15817D01*
X27033Y-15843D01*
X30303Y-15813D02*
X30170Y-15813D01*
X30170Y-15533D01*
X30370Y-15533D02*
X30557Y-15533D01*
X30437Y-15813D01*
X32253Y-16813D02*
X32120Y-16813D01*
X32120Y-16533D01*
X32387Y-16653D02*
X32360Y-16640D01*
X32347Y-16627D01*
X32333Y-16600D01*
X32333Y-16587D01*
X32347Y-16560D01*
X32360Y-16547D01*
X32387Y-16533D01*
X32440Y-16533D01*
X32467Y-16547D01*
X32480Y-16560D01*
X32493Y-16587D01*
X32493Y-16600D01*
X32480Y-16627D01*
X32467Y-16640D01*
X32440Y-16653D01*
X32387Y-16653D01*
X32360Y-16667D01*
X32347Y-16680D01*
X32333Y-16707D01*
X32333Y-16760D01*
X32347Y-16787D01*
X32360Y-16800D01*
X32387Y-16813D01*
X32440Y-16813D01*
X32467Y-16800D01*
X32480Y-16787D01*
X32493Y-16760D01*
X32493Y-16707D01*
X32480Y-16680D01*
X32467Y-16667D01*
X32440Y-16653D01*
X32503Y-18563D02*
X32370Y-18563D01*
X32370Y-18283D01*
X32610Y-18563D02*
X32663Y-18563D01*
X32690Y-18550D01*
X32703Y-18537D01*
X32730Y-18497D01*
X32743Y-18443D01*
X32743Y-18337D01*
X32730Y-18310D01*
X32717Y-18297D01*
X32690Y-18283D01*
X32637Y-18283D01*
X32610Y-18297D01*
X32597Y-18310D01*
X32583Y-18337D01*
X32583Y-18403D01*
X32597Y-18430D01*
X32610Y-18443D01*
X32637Y-18457D01*
X32690Y-18457D01*
X32717Y-18443D01*
X32730Y-18430D01*
X32743Y-18403D01*
X34320Y-18713D02*
X34187Y-18713D01*
X34187Y-18433D01*
X34560Y-18713D02*
X34400Y-18713D01*
X34480Y-18713D02*
X34480Y-18433D01*
X34454Y-18473D01*
X34427Y-18500D01*
X34400Y-18513D01*
X34734Y-18433D02*
X34761Y-18433D01*
X34787Y-18447D01*
X34801Y-18460D01*
X34814Y-18487D01*
X34827Y-18540D01*
X34827Y-18607D01*
X34814Y-18660D01*
X34801Y-18687D01*
X34787Y-18700D01*
X34761Y-18713D01*
X34734Y-18713D01*
X34707Y-18700D01*
X34694Y-18687D01*
X34681Y-18660D01*
X34667Y-18607D01*
X34667Y-18540D01*
X34681Y-18487D01*
X34694Y-18460D01*
X34707Y-18447D01*
X34734Y-18433D01*
X36820Y-18563D02*
X36687Y-18563D01*
X36687Y-18283D01*
X37060Y-18563D02*
X36900Y-18563D01*
X36980Y-18563D02*
X36980Y-18283D01*
X36954Y-18323D01*
X36927Y-18350D01*
X36900Y-18363D01*
X37327Y-18563D02*
X37167Y-18563D01*
X37247Y-18563D02*
X37247Y-18283D01*
X37221Y-18323D01*
X37194Y-18350D01*
X37167Y-18363D01*
X38770Y-19563D02*
X38637Y-19563D01*
X38637Y-19283D01*
X39010Y-19563D02*
X38850Y-19563D01*
X38930Y-19563D02*
X38930Y-19283D01*
X38904Y-19323D01*
X38877Y-19350D01*
X38850Y-19363D01*
X39117Y-19310D02*
X39131Y-19297D01*
X39157Y-19283D01*
X39224Y-19283D01*
X39251Y-19297D01*
X39264Y-19310D01*
X39277Y-19337D01*
X39277Y-19363D01*
X39264Y-19403D01*
X39104Y-19563D01*
X39277Y-19563D01*
X17204Y-22313D02*
X17110Y-22180D01*
X17044Y-22313D02*
X17044Y-22033D01*
X17150Y-22033D01*
X17177Y-22047D01*
X17190Y-22060D01*
X17204Y-22087D01*
X17204Y-22127D01*
X17190Y-22153D01*
X17177Y-22167D01*
X17150Y-22180D01*
X17044Y-22180D01*
X17457Y-22033D02*
X17324Y-22033D01*
X17310Y-22167D01*
X17324Y-22153D01*
X17350Y-22140D01*
X17417Y-22140D01*
X17444Y-22153D01*
X17457Y-22167D01*
X17470Y-22193D01*
X17470Y-22260D01*
X17457Y-22287D01*
X17444Y-22300D01*
X17417Y-22313D01*
X17350Y-22313D01*
X17324Y-22300D01*
X17310Y-22287D01*
G54D18*
X17086Y-23065D02*
X17086Y-22905D01*
X17124Y-22905D01*
X17147Y-22912D01*
X17162Y-22928D01*
X17170Y-22943D01*
X17178Y-22973D01*
X17178Y-22996D01*
X17170Y-23027D01*
X17162Y-23042D01*
X17147Y-23057D01*
X17124Y-23065D01*
X17086Y-23065D01*
X17246Y-23065D02*
X17246Y-22905D01*
X17338Y-23065D01*
X17338Y-22905D01*
X17414Y-23065D02*
X17414Y-22905D01*
G54D15*
X17204Y-25463D02*
X17110Y-25330D01*
X17044Y-25463D02*
X17044Y-25183D01*
X17150Y-25183D01*
X17177Y-25197D01*
X17190Y-25210D01*
X17204Y-25237D01*
X17204Y-25277D01*
X17190Y-25303D01*
X17177Y-25317D01*
X17150Y-25330D01*
X17044Y-25330D01*
X17444Y-25183D02*
X17390Y-25183D01*
X17364Y-25197D01*
X17350Y-25210D01*
X17324Y-25250D01*
X17310Y-25303D01*
X17310Y-25410D01*
X17324Y-25437D01*
X17337Y-25450D01*
X17364Y-25463D01*
X17417Y-25463D01*
X17444Y-25450D01*
X17457Y-25437D01*
X17470Y-25410D01*
X17470Y-25343D01*
X17457Y-25317D01*
X17444Y-25303D01*
X17417Y-25290D01*
X17364Y-25290D01*
X17337Y-25303D01*
X17324Y-25317D01*
X17310Y-25343D01*
G54D18*
X17086Y-24565D02*
X17086Y-24405D01*
X17124Y-24405D01*
X17147Y-24412D01*
X17162Y-24428D01*
X17170Y-24443D01*
X17178Y-24473D01*
X17178Y-24496D01*
X17170Y-24527D01*
X17162Y-24542D01*
X17147Y-24557D01*
X17124Y-24565D01*
X17086Y-24565D01*
X17246Y-24565D02*
X17246Y-24405D01*
X17338Y-24565D01*
X17338Y-24405D01*
X17414Y-24565D02*
X17414Y-24405D01*
G54D15*
X11954Y-24913D02*
X11860Y-24780D01*
X11794Y-24913D02*
X11794Y-24633D01*
X11900Y-24633D01*
X11927Y-24647D01*
X11940Y-24660D01*
X11954Y-24687D01*
X11954Y-24727D01*
X11940Y-24753D01*
X11927Y-24767D01*
X11900Y-24780D01*
X11794Y-24780D01*
X12047Y-24633D02*
X12234Y-24633D01*
X12114Y-24913D01*
G54D18*
X12065Y-24269D02*
X12065Y-24361D01*
X12065Y-24315D02*
X11905Y-24315D01*
X11928Y-24330D01*
X11943Y-24345D01*
X11950Y-24361D01*
X12065Y-24201D02*
X11905Y-24201D01*
X12004Y-24186D02*
X12065Y-24140D01*
X11958Y-24140D02*
X12019Y-24201D01*
G54D10*
X18320Y-22824D02*
X18306Y-22836D01*
X18266Y-22847D01*
X18240Y-22847D01*
X18200Y-22836D01*
X18173Y-22813D01*
X18160Y-22790D01*
X18146Y-22744D01*
X18146Y-22710D01*
X18160Y-22664D01*
X18173Y-22641D01*
X18200Y-22619D01*
X18240Y-22607D01*
X18266Y-22607D01*
X18306Y-22619D01*
X18320Y-22630D01*
X18586Y-22847D02*
X18426Y-22847D01*
X18506Y-22847D02*
X18506Y-22607D01*
X18480Y-22641D01*
X18453Y-22664D01*
X18426Y-22676D01*
X18680Y-22607D02*
X18853Y-22607D01*
X18760Y-22699D01*
X18800Y-22699D01*
X18827Y-22710D01*
X18840Y-22721D01*
X18853Y-22744D01*
X18853Y-22801D01*
X18840Y-22824D01*
X18827Y-22836D01*
X18800Y-22847D01*
X18720Y-22847D01*
X18693Y-22836D01*
X18680Y-22824D01*
G54D11*
X21810Y-17494D02*
X22069Y-17494D01*
X22099Y-17479D01*
X22114Y-17463D01*
X22130Y-17433D01*
X22130Y-17372D01*
X22114Y-17341D01*
X22099Y-17326D01*
X22069Y-17311D01*
X21810Y-17311D01*
X21810Y-17189D02*
X21810Y-16991D01*
X21931Y-17098D01*
X21931Y-17052D01*
X21947Y-17022D01*
X21962Y-17006D01*
X21992Y-16991D01*
X22069Y-16991D01*
X22099Y-17006D01*
X22114Y-17022D01*
X22130Y-17052D01*
X22130Y-17144D01*
X22114Y-17174D01*
X22099Y-17189D01*
X26038Y-17631D02*
X26038Y-17479D01*
X26130Y-17662D02*
X25810Y-17555D01*
X26130Y-17448D01*
X26130Y-17342D02*
X25810Y-17342D01*
X25810Y-17266D01*
X25825Y-17220D01*
X25855Y-17189D01*
X25886Y-17174D01*
X25947Y-17159D01*
X25992Y-17159D01*
X26053Y-17174D01*
X26084Y-17189D01*
X26114Y-17220D01*
X26130Y-17266D01*
X26130Y-17342D01*
X25962Y-17022D02*
X25962Y-16915D01*
X26130Y-16869D02*
X26130Y-17022D01*
X25810Y-17022D01*
X25810Y-16869D01*
G54D15*
X29237Y-22980D02*
X29250Y-22994D01*
X29263Y-23034D01*
X29263Y-23060D01*
X29250Y-23100D01*
X29223Y-23127D01*
X29197Y-23140D01*
X29143Y-23154D01*
X29103Y-23154D01*
X29050Y-23140D01*
X29023Y-23127D01*
X28997Y-23100D01*
X28983Y-23060D01*
X28983Y-23034D01*
X28997Y-22994D01*
X29010Y-22980D01*
X29010Y-22874D02*
X28997Y-22860D01*
X28983Y-22834D01*
X28983Y-22767D01*
X28997Y-22740D01*
X29010Y-22727D01*
X29037Y-22714D01*
X29063Y-22714D01*
X29103Y-22727D01*
X29263Y-22887D01*
X29263Y-22714D01*
X29010Y-22607D02*
X28997Y-22593D01*
X28983Y-22567D01*
X28983Y-22500D01*
X28997Y-22473D01*
X29010Y-22460D01*
X29037Y-22447D01*
X29063Y-22447D01*
X29103Y-22460D01*
X29263Y-22620D01*
X29263Y-22447D01*
X29113Y-19530D02*
X29113Y-19663D01*
X28833Y-19663D01*
X29113Y-19290D02*
X29113Y-19450D01*
X29113Y-19370D02*
X28833Y-19370D01*
X28873Y-19396D01*
X28900Y-19423D01*
X28913Y-19450D01*
X28833Y-19196D02*
X28833Y-19023D01*
X28940Y-19116D01*
X28940Y-19076D01*
X28953Y-19049D01*
X28967Y-19036D01*
X28993Y-19023D01*
X29060Y-19023D01*
X29087Y-19036D01*
X29100Y-19049D01*
X29113Y-19076D01*
X29113Y-19156D01*
X29100Y-19183D01*
X29087Y-19196D01*
X29087Y-20430D02*
X29100Y-20444D01*
X29113Y-20484D01*
X29113Y-20510D01*
X29100Y-20550D01*
X29073Y-20577D01*
X29047Y-20590D01*
X28993Y-20604D01*
X28953Y-20604D01*
X28900Y-20590D01*
X28873Y-20577D01*
X28847Y-20550D01*
X28833Y-20510D01*
X28833Y-20484D01*
X28847Y-20444D01*
X28860Y-20430D01*
X28860Y-20324D02*
X28847Y-20310D01*
X28833Y-20284D01*
X28833Y-20217D01*
X28847Y-20190D01*
X28860Y-20177D01*
X28887Y-20164D01*
X28913Y-20164D01*
X28953Y-20177D01*
X29113Y-20337D01*
X29113Y-20164D01*
X28833Y-20070D02*
X28833Y-19897D01*
X28940Y-19990D01*
X28940Y-19950D01*
X28953Y-19923D01*
X28967Y-19910D01*
X28993Y-19897D01*
X29060Y-19897D01*
X29087Y-19910D01*
X29100Y-19923D01*
X29113Y-19950D01*
X29113Y-20030D01*
X29100Y-20057D01*
X29087Y-20070D01*
X29087Y-25130D02*
X29100Y-25144D01*
X29113Y-25184D01*
X29113Y-25210D01*
X29100Y-25250D01*
X29073Y-25277D01*
X29047Y-25290D01*
X28993Y-25304D01*
X28953Y-25304D01*
X28900Y-25290D01*
X28873Y-25277D01*
X28847Y-25250D01*
X28833Y-25210D01*
X28833Y-25184D01*
X28847Y-25144D01*
X28860Y-25130D01*
X28860Y-25024D02*
X28847Y-25010D01*
X28833Y-24984D01*
X28833Y-24917D01*
X28847Y-24890D01*
X28860Y-24877D01*
X28887Y-24864D01*
X28913Y-24864D01*
X28953Y-24877D01*
X29113Y-25037D01*
X29113Y-24864D01*
X29113Y-24597D02*
X29113Y-24757D01*
X29113Y-24677D02*
X28833Y-24677D01*
X28873Y-24703D01*
X28900Y-24730D01*
X28913Y-24757D01*
G54D11*
X36264Y-25130D02*
X36264Y-24810D01*
X36340Y-24810D01*
X36386Y-24825D01*
X36417Y-24855D01*
X36432Y-24886D01*
X36447Y-24947D01*
X36447Y-24992D01*
X36432Y-25053D01*
X36417Y-25084D01*
X36386Y-25114D01*
X36340Y-25130D01*
X36264Y-25130D01*
X36721Y-24916D02*
X36721Y-25130D01*
X36645Y-24794D02*
X36569Y-25023D01*
X36767Y-25023D01*
G54D13*
X36048Y-26749D02*
X36181Y-26749D01*
X36048Y-26949D01*
X36181Y-26949D01*
X36257Y-26844D02*
X36323Y-26844D01*
X36352Y-26949D02*
X36257Y-26949D01*
X36257Y-26749D01*
X36352Y-26749D01*
X36438Y-26949D02*
X36438Y-26749D01*
X36552Y-26949D01*
X36552Y-26749D01*
X36648Y-26844D02*
X36714Y-26844D01*
X36743Y-26949D02*
X36648Y-26949D01*
X36648Y-26749D01*
X36743Y-26749D01*
X36943Y-26949D02*
X36876Y-26854D01*
X36829Y-26949D02*
X36829Y-26749D01*
X36905Y-26749D01*
X36924Y-26758D01*
X36933Y-26768D01*
X36943Y-26787D01*
X36943Y-26816D01*
X36933Y-26835D01*
X36924Y-26844D01*
X36905Y-26854D01*
X36829Y-26854D01*
G54D15*
X30171Y-26880D02*
X30171Y-26560D01*
X30354Y-26880D01*
X30354Y-26560D01*
X30552Y-26880D02*
X30521Y-26864D01*
X30506Y-26849D01*
X30491Y-26819D01*
X30491Y-26727D01*
X30506Y-26697D01*
X30521Y-26681D01*
X30552Y-26666D01*
X30598Y-26666D01*
X30628Y-26681D01*
X30643Y-26697D01*
X30659Y-26727D01*
X30659Y-26819D01*
X30643Y-26849D01*
X30628Y-26864D01*
X30598Y-26880D01*
X30552Y-26880D01*
X30796Y-26880D02*
X30796Y-26666D01*
X30796Y-26560D02*
X30781Y-26575D01*
X30796Y-26590D01*
X30811Y-26575D01*
X30796Y-26560D01*
X30796Y-26590D01*
X30933Y-26864D02*
X30963Y-26880D01*
X31024Y-26880D01*
X31055Y-26864D01*
X31070Y-26834D01*
X31070Y-26819D01*
X31055Y-26788D01*
X31024Y-26773D01*
X30979Y-26773D01*
X30948Y-26758D01*
X30933Y-26727D01*
X30933Y-26712D01*
X30948Y-26681D01*
X30979Y-26666D01*
X31024Y-26666D01*
X31055Y-26681D01*
X31329Y-26864D02*
X31299Y-26880D01*
X31238Y-26880D01*
X31207Y-26864D01*
X31192Y-26834D01*
X31192Y-26712D01*
X31207Y-26681D01*
X31238Y-26666D01*
X31299Y-26666D01*
X31329Y-26681D01*
X31344Y-26712D01*
X31344Y-26742D01*
X31192Y-26773D01*
X31466Y-26864D02*
X31512Y-26880D01*
X31588Y-26880D01*
X31618Y-26864D01*
X31634Y-26849D01*
X31649Y-26819D01*
X31649Y-26788D01*
X31634Y-26758D01*
X31618Y-26742D01*
X31588Y-26727D01*
X31527Y-26712D01*
X31496Y-26697D01*
X31481Y-26681D01*
X31466Y-26651D01*
X31466Y-26620D01*
X31481Y-26590D01*
X31496Y-26575D01*
X31527Y-26560D01*
X31603Y-26560D01*
X31649Y-26575D01*
X31832Y-26880D02*
X31801Y-26864D01*
X31786Y-26849D01*
X31771Y-26819D01*
X31771Y-26727D01*
X31786Y-26697D01*
X31801Y-26681D01*
X31832Y-26666D01*
X31878Y-26666D01*
X31908Y-26681D01*
X31923Y-26697D01*
X31939Y-26727D01*
X31939Y-26819D01*
X31923Y-26849D01*
X31908Y-26864D01*
X31878Y-26880D01*
X31832Y-26880D01*
X32213Y-26666D02*
X32213Y-26880D01*
X32076Y-26666D02*
X32076Y-26834D01*
X32091Y-26864D01*
X32122Y-26880D01*
X32168Y-26880D01*
X32198Y-26864D01*
X32213Y-26849D01*
X32366Y-26880D02*
X32366Y-26666D01*
X32366Y-26727D02*
X32381Y-26697D01*
X32397Y-26681D01*
X32427Y-26666D01*
X32458Y-26666D01*
X32701Y-26864D02*
X32671Y-26880D01*
X32610Y-26880D01*
X32579Y-26864D01*
X32564Y-26849D01*
X32549Y-26819D01*
X32549Y-26727D01*
X32564Y-26697D01*
X32579Y-26681D01*
X32610Y-26666D01*
X32671Y-26666D01*
X32701Y-26681D01*
X32960Y-26864D02*
X32930Y-26880D01*
X32869Y-26880D01*
X32838Y-26864D01*
X32823Y-26834D01*
X32823Y-26712D01*
X32838Y-26681D01*
X32869Y-26666D01*
X32930Y-26666D01*
X32960Y-26681D01*
X32975Y-26712D01*
X32975Y-26742D01*
X32823Y-26773D01*
X33036Y-26910D02*
X33280Y-26910D01*
X33356Y-26712D02*
X33463Y-26712D01*
X33509Y-26880D02*
X33356Y-26880D01*
X33356Y-26560D01*
X33509Y-26560D01*
X33646Y-26880D02*
X33646Y-26560D01*
X33829Y-26880D01*
X33829Y-26560D01*
X34187Y-27930D02*
X34200Y-27944D01*
X34213Y-27984D01*
X34213Y-28010D01*
X34200Y-28050D01*
X34173Y-28077D01*
X34147Y-28090D01*
X34093Y-28104D01*
X34053Y-28104D01*
X34000Y-28090D01*
X33973Y-28077D01*
X33947Y-28050D01*
X33933Y-28010D01*
X33933Y-27984D01*
X33947Y-27944D01*
X33960Y-27930D01*
X33960Y-27824D02*
X33947Y-27810D01*
X33933Y-27784D01*
X33933Y-27717D01*
X33947Y-27690D01*
X33960Y-27677D01*
X33987Y-27664D01*
X34013Y-27664D01*
X34053Y-27677D01*
X34213Y-27837D01*
X34213Y-27664D01*
X34027Y-27423D02*
X34213Y-27423D01*
X33920Y-27490D02*
X34120Y-27557D01*
X34120Y-27383D01*
G54D18*
X33276Y-27708D02*
X33276Y-27815D01*
X33238Y-27647D02*
X33199Y-27761D01*
X33299Y-27761D01*
X33359Y-27800D02*
X33367Y-27807D01*
X33359Y-27815D01*
X33351Y-27807D01*
X33359Y-27800D01*
X33359Y-27815D01*
X33420Y-27655D02*
X33527Y-27655D01*
X33458Y-27815D01*
X33656Y-27708D02*
X33656Y-27815D01*
X33587Y-27708D02*
X33587Y-27792D01*
X33595Y-27807D01*
X33610Y-27815D01*
X33633Y-27815D01*
X33648Y-27807D01*
X33656Y-27800D01*
X33785Y-27731D02*
X33732Y-27731D01*
X33732Y-27815D02*
X33732Y-27655D01*
X33808Y-27655D01*
G54D15*
X42070Y-25537D02*
X42056Y-25550D01*
X42016Y-25563D01*
X41990Y-25563D01*
X41950Y-25550D01*
X41923Y-25523D01*
X41910Y-25497D01*
X41896Y-25443D01*
X41896Y-25403D01*
X41910Y-25350D01*
X41923Y-25323D01*
X41950Y-25297D01*
X41990Y-25283D01*
X42016Y-25283D01*
X42056Y-25297D01*
X42070Y-25310D01*
X42176Y-25310D02*
X42190Y-25297D01*
X42216Y-25283D01*
X42283Y-25283D01*
X42310Y-25297D01*
X42323Y-25310D01*
X42336Y-25337D01*
X42336Y-25363D01*
X42323Y-25403D01*
X42163Y-25563D01*
X42336Y-25563D01*
X42470Y-25563D02*
X42523Y-25563D01*
X42550Y-25550D01*
X42563Y-25537D01*
X42590Y-25497D01*
X42603Y-25443D01*
X42603Y-25337D01*
X42590Y-25310D01*
X42577Y-25297D01*
X42550Y-25283D01*
X42497Y-25283D01*
X42470Y-25297D01*
X42457Y-25310D01*
X42443Y-25337D01*
X42443Y-25403D01*
X42457Y-25430D01*
X42470Y-25443D01*
X42497Y-25457D01*
X42550Y-25457D01*
X42577Y-25443D01*
X42590Y-25430D01*
X42603Y-25403D01*
G54D18*
X42155Y-26262D02*
X42155Y-26247D01*
X42162Y-26232D01*
X42170Y-26224D01*
X42185Y-26217D01*
X42216Y-26209D01*
X42254Y-26209D01*
X42284Y-26217D01*
X42300Y-26224D01*
X42307Y-26232D01*
X42315Y-26247D01*
X42315Y-26262D01*
X42307Y-26278D01*
X42300Y-26285D01*
X42284Y-26293D01*
X42254Y-26301D01*
X42216Y-26301D01*
X42185Y-26293D01*
X42170Y-26285D01*
X42162Y-26278D01*
X42155Y-26262D01*
X42300Y-26141D02*
X42307Y-26133D01*
X42315Y-26141D01*
X42307Y-26149D01*
X42300Y-26141D01*
X42315Y-26141D01*
X42315Y-25981D02*
X42315Y-26073D01*
X42315Y-26027D02*
X42155Y-26027D01*
X42178Y-26042D01*
X42193Y-26057D01*
X42200Y-26073D01*
X42208Y-25844D02*
X42315Y-25844D01*
X42208Y-25913D02*
X42292Y-25913D01*
X42307Y-25905D01*
X42315Y-25890D01*
X42315Y-25867D01*
X42307Y-25852D01*
X42300Y-25844D01*
X42231Y-25715D02*
X42231Y-25768D01*
X42315Y-25768D02*
X42155Y-25768D01*
X42155Y-25692D01*
G54D15*
X39070Y-28687D02*
X39056Y-28700D01*
X39016Y-28713D01*
X38990Y-28713D01*
X38950Y-28700D01*
X38923Y-28673D01*
X38910Y-28647D01*
X38896Y-28593D01*
X38896Y-28553D01*
X38910Y-28500D01*
X38923Y-28473D01*
X38950Y-28447D01*
X38990Y-28433D01*
X39016Y-28433D01*
X39056Y-28447D01*
X39070Y-28460D01*
X39163Y-28433D02*
X39336Y-28433D01*
X39243Y-28540D01*
X39283Y-28540D01*
X39310Y-28553D01*
X39323Y-28567D01*
X39336Y-28593D01*
X39336Y-28660D01*
X39323Y-28687D01*
X39310Y-28700D01*
X39283Y-28713D01*
X39203Y-28713D01*
X39176Y-28700D01*
X39163Y-28687D01*
X39603Y-28713D02*
X39443Y-28713D01*
X39523Y-28713D02*
X39523Y-28433D01*
X39497Y-28473D01*
X39470Y-28500D01*
X39443Y-28513D01*
G54D18*
X39026Y-27708D02*
X39026Y-27815D01*
X38988Y-27647D02*
X38949Y-27761D01*
X39049Y-27761D01*
X39109Y-27800D02*
X39117Y-27807D01*
X39109Y-27815D01*
X39101Y-27807D01*
X39109Y-27800D01*
X39109Y-27815D01*
X39170Y-27655D02*
X39277Y-27655D01*
X39208Y-27815D01*
X39406Y-27708D02*
X39406Y-27815D01*
X39337Y-27708D02*
X39337Y-27792D01*
X39345Y-27807D01*
X39360Y-27815D01*
X39383Y-27815D01*
X39398Y-27807D01*
X39406Y-27800D01*
X39535Y-27731D02*
X39482Y-27731D01*
X39482Y-27815D02*
X39482Y-27655D01*
X39558Y-27655D01*
G54D15*
X40437Y-26180D02*
X40450Y-26194D01*
X40463Y-26234D01*
X40463Y-26260D01*
X40450Y-26300D01*
X40423Y-26327D01*
X40397Y-26340D01*
X40343Y-26354D01*
X40303Y-26354D01*
X40250Y-26340D01*
X40223Y-26327D01*
X40197Y-26300D01*
X40183Y-26260D01*
X40183Y-26234D01*
X40197Y-26194D01*
X40210Y-26180D01*
X40210Y-26074D02*
X40197Y-26060D01*
X40183Y-26034D01*
X40183Y-25967D01*
X40197Y-25940D01*
X40210Y-25927D01*
X40237Y-25914D01*
X40263Y-25914D01*
X40303Y-25927D01*
X40463Y-26087D01*
X40463Y-25914D01*
X40183Y-25820D02*
X40183Y-25633D01*
X40463Y-25753D01*
G54D18*
X39405Y-26262D02*
X39405Y-26247D01*
X39412Y-26232D01*
X39420Y-26224D01*
X39435Y-26217D01*
X39466Y-26209D01*
X39504Y-26209D01*
X39534Y-26217D01*
X39550Y-26224D01*
X39557Y-26232D01*
X39565Y-26247D01*
X39565Y-26262D01*
X39557Y-26278D01*
X39550Y-26285D01*
X39534Y-26293D01*
X39504Y-26301D01*
X39466Y-26301D01*
X39435Y-26293D01*
X39420Y-26285D01*
X39412Y-26278D01*
X39405Y-26262D01*
X39550Y-26141D02*
X39557Y-26133D01*
X39565Y-26141D01*
X39557Y-26149D01*
X39550Y-26141D01*
X39565Y-26141D01*
X39565Y-25981D02*
X39565Y-26073D01*
X39565Y-26027D02*
X39405Y-26027D01*
X39428Y-26042D01*
X39443Y-26057D01*
X39450Y-26073D01*
X39458Y-25844D02*
X39565Y-25844D01*
X39458Y-25913D02*
X39542Y-25913D01*
X39557Y-25905D01*
X39565Y-25890D01*
X39565Y-25867D01*
X39557Y-25852D01*
X39550Y-25844D01*
X39481Y-25715D02*
X39481Y-25768D01*
X39565Y-25768D02*
X39405Y-25768D01*
X39405Y-25692D01*
G54D15*
X41570Y-28687D02*
X41556Y-28700D01*
X41516Y-28713D01*
X41490Y-28713D01*
X41450Y-28700D01*
X41423Y-28673D01*
X41410Y-28647D01*
X41396Y-28593D01*
X41396Y-28553D01*
X41410Y-28500D01*
X41423Y-28473D01*
X41450Y-28447D01*
X41490Y-28433D01*
X41516Y-28433D01*
X41556Y-28447D01*
X41570Y-28460D01*
X41676Y-28460D02*
X41690Y-28447D01*
X41716Y-28433D01*
X41783Y-28433D01*
X41810Y-28447D01*
X41823Y-28460D01*
X41836Y-28487D01*
X41836Y-28513D01*
X41823Y-28553D01*
X41663Y-28713D01*
X41836Y-28713D01*
X41997Y-28553D02*
X41970Y-28540D01*
X41957Y-28527D01*
X41943Y-28500D01*
X41943Y-28487D01*
X41957Y-28460D01*
X41970Y-28447D01*
X41997Y-28433D01*
X42050Y-28433D01*
X42077Y-28447D01*
X42090Y-28460D01*
X42103Y-28487D01*
X42103Y-28500D01*
X42090Y-28527D01*
X42077Y-28540D01*
X42050Y-28553D01*
X41997Y-28553D01*
X41970Y-28567D01*
X41957Y-28580D01*
X41943Y-28607D01*
X41943Y-28660D01*
X41957Y-28687D01*
X41970Y-28700D01*
X41997Y-28713D01*
X42050Y-28713D01*
X42077Y-28700D01*
X42090Y-28687D01*
X42103Y-28660D01*
X42103Y-28607D01*
X42090Y-28580D01*
X42077Y-28567D01*
X42050Y-28553D01*
G54D18*
X41427Y-27815D02*
X41335Y-27815D01*
X41381Y-27815D02*
X41381Y-27655D01*
X41366Y-27678D01*
X41351Y-27693D01*
X41335Y-27700D01*
X41526Y-27655D02*
X41541Y-27655D01*
X41556Y-27662D01*
X41564Y-27670D01*
X41571Y-27685D01*
X41579Y-27716D01*
X41579Y-27754D01*
X41571Y-27784D01*
X41564Y-27800D01*
X41556Y-27807D01*
X41541Y-27815D01*
X41526Y-27815D01*
X41510Y-27807D01*
X41503Y-27800D01*
X41495Y-27784D01*
X41487Y-27754D01*
X41487Y-27716D01*
X41495Y-27685D01*
X41503Y-27670D01*
X41510Y-27662D01*
X41526Y-27655D01*
X41678Y-27655D02*
X41693Y-27655D01*
X41708Y-27662D01*
X41716Y-27670D01*
X41723Y-27685D01*
X41731Y-27716D01*
X41731Y-27754D01*
X41723Y-27784D01*
X41716Y-27800D01*
X41708Y-27807D01*
X41693Y-27815D01*
X41678Y-27815D01*
X41662Y-27807D01*
X41655Y-27800D01*
X41647Y-27784D01*
X41639Y-27754D01*
X41639Y-27716D01*
X41647Y-27685D01*
X41655Y-27670D01*
X41662Y-27662D01*
X41678Y-27655D01*
X41830Y-27655D02*
X41845Y-27655D01*
X41860Y-27662D01*
X41868Y-27670D01*
X41875Y-27685D01*
X41883Y-27716D01*
X41883Y-27754D01*
X41875Y-27784D01*
X41868Y-27800D01*
X41860Y-27807D01*
X41845Y-27815D01*
X41830Y-27815D01*
X41814Y-27807D01*
X41807Y-27800D01*
X41799Y-27784D01*
X41791Y-27754D01*
X41791Y-27716D01*
X41799Y-27685D01*
X41807Y-27670D01*
X41814Y-27662D01*
X41830Y-27655D01*
X41951Y-27708D02*
X41951Y-27868D01*
X41951Y-27716D02*
X41966Y-27708D01*
X41997Y-27708D01*
X42012Y-27716D01*
X42020Y-27723D01*
X42027Y-27739D01*
X42027Y-27784D01*
X42020Y-27800D01*
X42012Y-27807D01*
X41997Y-27815D01*
X41966Y-27815D01*
X41951Y-27807D01*
X42149Y-27731D02*
X42096Y-27731D01*
X42096Y-27815D02*
X42096Y-27655D01*
X42172Y-27655D01*
G54D15*
X40820Y-27213D02*
X40687Y-27213D01*
X40687Y-26933D01*
X41060Y-27213D02*
X40900Y-27213D01*
X40980Y-27213D02*
X40980Y-26933D01*
X40954Y-26973D01*
X40927Y-27000D01*
X40900Y-27013D01*
X41314Y-26933D02*
X41181Y-26933D01*
X41167Y-27067D01*
X41181Y-27053D01*
X41207Y-27040D01*
X41274Y-27040D01*
X41301Y-27053D01*
X41314Y-27067D01*
X41327Y-27093D01*
X41327Y-27160D01*
X41314Y-27187D01*
X41301Y-27200D01*
X41274Y-27213D01*
X41207Y-27213D01*
X41181Y-27200D01*
X41167Y-27187D01*
G54D18*
X40738Y-26315D02*
X40646Y-26315D01*
X40692Y-26315D02*
X40692Y-26155D01*
X40677Y-26178D01*
X40662Y-26193D01*
X40646Y-26200D01*
X40837Y-26155D02*
X40852Y-26155D01*
X40867Y-26162D01*
X40875Y-26170D01*
X40882Y-26185D01*
X40890Y-26216D01*
X40890Y-26254D01*
X40882Y-26284D01*
X40875Y-26300D01*
X40867Y-26307D01*
X40852Y-26315D01*
X40837Y-26315D01*
X40821Y-26307D01*
X40814Y-26300D01*
X40806Y-26284D01*
X40798Y-26254D01*
X40798Y-26216D01*
X40806Y-26185D01*
X40814Y-26170D01*
X40821Y-26162D01*
X40837Y-26155D01*
X40989Y-26155D02*
X41004Y-26155D01*
X41019Y-26162D01*
X41027Y-26170D01*
X41034Y-26185D01*
X41042Y-26216D01*
X41042Y-26254D01*
X41034Y-26284D01*
X41027Y-26300D01*
X41019Y-26307D01*
X41004Y-26315D01*
X40989Y-26315D01*
X40973Y-26307D01*
X40966Y-26300D01*
X40958Y-26284D01*
X40950Y-26254D01*
X40950Y-26216D01*
X40958Y-26185D01*
X40966Y-26170D01*
X40973Y-26162D01*
X40989Y-26155D01*
X41110Y-26208D02*
X41110Y-26315D01*
X41110Y-26223D02*
X41118Y-26216D01*
X41133Y-26208D01*
X41156Y-26208D01*
X41171Y-26216D01*
X41179Y-26231D01*
X41179Y-26315D01*
X41255Y-26315D02*
X41255Y-26155D01*
X41255Y-26231D02*
X41347Y-26231D01*
X41347Y-26315D02*
X41347Y-26155D01*
G54D15*
X37170Y-24613D02*
X37076Y-24480D01*
X37010Y-24613D02*
X37010Y-24333D01*
X37116Y-24333D01*
X37143Y-24347D01*
X37156Y-24360D01*
X37170Y-24387D01*
X37170Y-24427D01*
X37156Y-24453D01*
X37143Y-24467D01*
X37116Y-24480D01*
X37010Y-24480D01*
X37436Y-24613D02*
X37276Y-24613D01*
X37356Y-24613D02*
X37356Y-24333D01*
X37330Y-24373D01*
X37303Y-24400D01*
X37276Y-24413D01*
X37703Y-24613D02*
X37543Y-24613D01*
X37623Y-24613D02*
X37623Y-24333D01*
X37597Y-24373D01*
X37570Y-24400D01*
X37543Y-24413D01*
G54D18*
X37813Y-23670D02*
X37821Y-23662D01*
X37836Y-23655D01*
X37874Y-23655D01*
X37890Y-23662D01*
X37897Y-23670D01*
X37905Y-23685D01*
X37905Y-23700D01*
X37897Y-23723D01*
X37806Y-23815D01*
X37905Y-23815D01*
X37973Y-23815D02*
X37973Y-23655D01*
X37988Y-23754D02*
X38034Y-23815D01*
X38034Y-23708D02*
X37973Y-23769D01*
X38179Y-23655D02*
X38103Y-23655D01*
X38095Y-23731D01*
X38103Y-23723D01*
X38118Y-23716D01*
X38156Y-23716D01*
X38172Y-23723D01*
X38179Y-23731D01*
X38187Y-23746D01*
X38187Y-23784D01*
X38179Y-23800D01*
X38172Y-23807D01*
X38156Y-23815D01*
X38118Y-23815D01*
X38103Y-23807D01*
X38095Y-23800D01*
G54D15*
X36687Y-23430D02*
X36700Y-23444D01*
X36713Y-23484D01*
X36713Y-23510D01*
X36700Y-23550D01*
X36673Y-23577D01*
X36647Y-23590D01*
X36593Y-23604D01*
X36553Y-23604D01*
X36500Y-23590D01*
X36473Y-23577D01*
X36447Y-23550D01*
X36433Y-23510D01*
X36433Y-23484D01*
X36447Y-23444D01*
X36460Y-23430D01*
X36460Y-23324D02*
X36447Y-23310D01*
X36433Y-23284D01*
X36433Y-23217D01*
X36447Y-23190D01*
X36460Y-23177D01*
X36487Y-23164D01*
X36513Y-23164D01*
X36553Y-23177D01*
X36713Y-23337D01*
X36713Y-23164D01*
X36433Y-22923D02*
X36433Y-22977D01*
X36447Y-23003D01*
X36460Y-23017D01*
X36500Y-23043D01*
X36553Y-23057D01*
X36660Y-23057D01*
X36687Y-23043D01*
X36700Y-23030D01*
X36713Y-23003D01*
X36713Y-22950D01*
X36700Y-22923D01*
X36687Y-22910D01*
X36660Y-22897D01*
X36593Y-22897D01*
X36567Y-22910D01*
X36553Y-22923D01*
X36540Y-22950D01*
X36540Y-23003D01*
X36553Y-23030D01*
X36567Y-23043D01*
X36593Y-23057D01*
G54D18*
X35776Y-23208D02*
X35776Y-23315D01*
X35738Y-23147D02*
X35699Y-23261D01*
X35799Y-23261D01*
X35859Y-23300D02*
X35867Y-23307D01*
X35859Y-23315D01*
X35851Y-23307D01*
X35859Y-23300D01*
X35859Y-23315D01*
X35920Y-23155D02*
X36027Y-23155D01*
X35958Y-23315D01*
X36156Y-23208D02*
X36156Y-23315D01*
X36087Y-23208D02*
X36087Y-23292D01*
X36095Y-23307D01*
X36110Y-23315D01*
X36133Y-23315D01*
X36148Y-23307D01*
X36156Y-23300D01*
X36285Y-23231D02*
X36232Y-23231D01*
X36232Y-23315D02*
X36232Y-23155D01*
X36308Y-23155D01*
G54D15*
X43320Y-27213D02*
X43187Y-27213D01*
X43187Y-26933D01*
X43560Y-27213D02*
X43400Y-27213D01*
X43480Y-27213D02*
X43480Y-26933D01*
X43454Y-26973D01*
X43427Y-27000D01*
X43400Y-27013D01*
X43801Y-26933D02*
X43747Y-26933D01*
X43721Y-26947D01*
X43707Y-26960D01*
X43681Y-27000D01*
X43667Y-27053D01*
X43667Y-27160D01*
X43681Y-27187D01*
X43694Y-27200D01*
X43721Y-27213D01*
X43774Y-27213D01*
X43801Y-27200D01*
X43814Y-27187D01*
X43827Y-27160D01*
X43827Y-27093D01*
X43814Y-27067D01*
X43801Y-27053D01*
X43774Y-27040D01*
X43721Y-27040D01*
X43694Y-27053D01*
X43681Y-27067D01*
X43667Y-27093D01*
G54D18*
X43238Y-26315D02*
X43146Y-26315D01*
X43192Y-26315D02*
X43192Y-26155D01*
X43177Y-26178D01*
X43162Y-26193D01*
X43146Y-26200D01*
X43337Y-26155D02*
X43352Y-26155D01*
X43367Y-26162D01*
X43375Y-26170D01*
X43382Y-26185D01*
X43390Y-26216D01*
X43390Y-26254D01*
X43382Y-26284D01*
X43375Y-26300D01*
X43367Y-26307D01*
X43352Y-26315D01*
X43337Y-26315D01*
X43321Y-26307D01*
X43314Y-26300D01*
X43306Y-26284D01*
X43298Y-26254D01*
X43298Y-26216D01*
X43306Y-26185D01*
X43314Y-26170D01*
X43321Y-26162D01*
X43337Y-26155D01*
X43489Y-26155D02*
X43504Y-26155D01*
X43519Y-26162D01*
X43527Y-26170D01*
X43534Y-26185D01*
X43542Y-26216D01*
X43542Y-26254D01*
X43534Y-26284D01*
X43527Y-26300D01*
X43519Y-26307D01*
X43504Y-26315D01*
X43489Y-26315D01*
X43473Y-26307D01*
X43466Y-26300D01*
X43458Y-26284D01*
X43450Y-26254D01*
X43450Y-26216D01*
X43458Y-26185D01*
X43466Y-26170D01*
X43473Y-26162D01*
X43489Y-26155D01*
X43610Y-26208D02*
X43610Y-26315D01*
X43610Y-26223D02*
X43618Y-26216D01*
X43633Y-26208D01*
X43656Y-26208D01*
X43671Y-26216D01*
X43679Y-26231D01*
X43679Y-26315D01*
X43755Y-26315D02*
X43755Y-26155D01*
X43755Y-26231D02*
X43847Y-26231D01*
X43847Y-26315D02*
X43847Y-26155D01*
G54D15*
X34187Y-24180D02*
X34200Y-24194D01*
X34213Y-24234D01*
X34213Y-24260D01*
X34200Y-24300D01*
X34173Y-24327D01*
X34147Y-24340D01*
X34093Y-24354D01*
X34053Y-24354D01*
X34000Y-24340D01*
X33973Y-24327D01*
X33947Y-24300D01*
X33933Y-24260D01*
X33933Y-24234D01*
X33947Y-24194D01*
X33960Y-24180D01*
X33960Y-24074D02*
X33947Y-24060D01*
X33933Y-24034D01*
X33933Y-23967D01*
X33947Y-23940D01*
X33960Y-23927D01*
X33987Y-23914D01*
X34013Y-23914D01*
X34053Y-23927D01*
X34213Y-24087D01*
X34213Y-23914D01*
X33933Y-23660D02*
X33933Y-23793D01*
X34067Y-23807D01*
X34053Y-23793D01*
X34040Y-23767D01*
X34040Y-23700D01*
X34053Y-23673D01*
X34067Y-23660D01*
X34093Y-23647D01*
X34160Y-23647D01*
X34187Y-23660D01*
X34200Y-23673D01*
X34213Y-23700D01*
X34213Y-23767D01*
X34200Y-23793D01*
X34187Y-23807D01*
G54D18*
X33315Y-24171D02*
X33315Y-24263D01*
X33315Y-24217D02*
X33155Y-24217D01*
X33178Y-24232D01*
X33193Y-24247D01*
X33200Y-24263D01*
X33155Y-24027D02*
X33155Y-24103D01*
X33231Y-24111D01*
X33223Y-24103D01*
X33216Y-24088D01*
X33216Y-24050D01*
X33223Y-24034D01*
X33231Y-24027D01*
X33246Y-24019D01*
X33284Y-24019D01*
X33300Y-24027D01*
X33307Y-24034D01*
X33315Y-24050D01*
X33315Y-24088D01*
X33307Y-24103D01*
X33300Y-24111D01*
X33208Y-23951D02*
X33368Y-23951D01*
X33216Y-23951D02*
X33208Y-23936D01*
X33208Y-23905D01*
X33216Y-23890D01*
X33223Y-23882D01*
X33239Y-23875D01*
X33284Y-23875D01*
X33300Y-23882D01*
X33307Y-23890D01*
X33315Y-23905D01*
X33315Y-23936D01*
X33307Y-23951D01*
X33231Y-23753D02*
X33231Y-23806D01*
X33315Y-23806D02*
X33155Y-23806D01*
X33155Y-23730D01*
G54D15*
X34704Y-22613D02*
X34610Y-22480D01*
X34544Y-22613D02*
X34544Y-22333D01*
X34650Y-22333D01*
X34677Y-22347D01*
X34690Y-22360D01*
X34704Y-22387D01*
X34704Y-22427D01*
X34690Y-22453D01*
X34677Y-22467D01*
X34650Y-22480D01*
X34544Y-22480D01*
X34864Y-22453D02*
X34837Y-22440D01*
X34824Y-22427D01*
X34810Y-22400D01*
X34810Y-22387D01*
X34824Y-22360D01*
X34837Y-22347D01*
X34864Y-22333D01*
X34917Y-22333D01*
X34944Y-22347D01*
X34957Y-22360D01*
X34970Y-22387D01*
X34970Y-22400D01*
X34957Y-22427D01*
X34944Y-22440D01*
X34917Y-22453D01*
X34864Y-22453D01*
X34837Y-22467D01*
X34824Y-22480D01*
X34810Y-22507D01*
X34810Y-22560D01*
X34824Y-22587D01*
X34837Y-22600D01*
X34864Y-22613D01*
X34917Y-22613D01*
X34944Y-22600D01*
X34957Y-22587D01*
X34970Y-22560D01*
X34970Y-22507D01*
X34957Y-22480D01*
X34944Y-22467D01*
X34917Y-22453D01*
G54D18*
X34708Y-23186D02*
X34815Y-23186D01*
X34647Y-23224D02*
X34761Y-23263D01*
X34761Y-23163D01*
X34655Y-23118D02*
X34655Y-23019D01*
X34716Y-23072D01*
X34716Y-23050D01*
X34723Y-23034D01*
X34731Y-23027D01*
X34746Y-23019D01*
X34784Y-23019D01*
X34800Y-23027D01*
X34807Y-23034D01*
X34815Y-23050D01*
X34815Y-23095D01*
X34807Y-23111D01*
X34800Y-23118D01*
X34670Y-22959D02*
X34662Y-22951D01*
X34655Y-22936D01*
X34655Y-22898D01*
X34662Y-22882D01*
X34670Y-22875D01*
X34685Y-22867D01*
X34700Y-22867D01*
X34723Y-22875D01*
X34815Y-22966D01*
X34815Y-22867D01*
X34815Y-22799D02*
X34655Y-22799D01*
X34754Y-22784D02*
X34815Y-22738D01*
X34708Y-22738D02*
X34769Y-22799D01*
G54D15*
X33204Y-22613D02*
X33110Y-22480D01*
X33044Y-22613D02*
X33044Y-22333D01*
X33150Y-22333D01*
X33177Y-22347D01*
X33190Y-22360D01*
X33204Y-22387D01*
X33204Y-22427D01*
X33190Y-22453D01*
X33177Y-22467D01*
X33150Y-22480D01*
X33044Y-22480D01*
X33337Y-22613D02*
X33390Y-22613D01*
X33417Y-22600D01*
X33430Y-22587D01*
X33457Y-22547D01*
X33470Y-22493D01*
X33470Y-22387D01*
X33457Y-22360D01*
X33444Y-22347D01*
X33417Y-22333D01*
X33364Y-22333D01*
X33337Y-22347D01*
X33324Y-22360D01*
X33310Y-22387D01*
X33310Y-22453D01*
X33324Y-22480D01*
X33337Y-22493D01*
X33364Y-22507D01*
X33417Y-22507D01*
X33444Y-22493D01*
X33457Y-22480D01*
X33470Y-22453D01*
G54D18*
X33208Y-23186D02*
X33315Y-23186D01*
X33147Y-23224D02*
X33261Y-23263D01*
X33261Y-23163D01*
X33315Y-23095D02*
X33315Y-23065D01*
X33307Y-23050D01*
X33300Y-23042D01*
X33277Y-23027D01*
X33246Y-23019D01*
X33185Y-23019D01*
X33170Y-23027D01*
X33162Y-23034D01*
X33155Y-23050D01*
X33155Y-23080D01*
X33162Y-23095D01*
X33170Y-23103D01*
X33185Y-23111D01*
X33223Y-23111D01*
X33239Y-23103D01*
X33246Y-23095D01*
X33254Y-23080D01*
X33254Y-23050D01*
X33246Y-23034D01*
X33239Y-23027D01*
X33223Y-23019D01*
X33315Y-22951D02*
X33155Y-22951D01*
X33254Y-22936D02*
X33315Y-22890D01*
X33208Y-22890D02*
X33269Y-22951D01*
X33315Y-22813D02*
X33315Y-22783D01*
X33307Y-22768D01*
X33300Y-22760D01*
X33277Y-22745D01*
X33246Y-22737D01*
X33185Y-22737D01*
X33170Y-22745D01*
X33162Y-22752D01*
X33155Y-22768D01*
X33155Y-22798D01*
X33162Y-22813D01*
X33170Y-22821D01*
X33185Y-22829D01*
X33223Y-22829D01*
X33239Y-22821D01*
X33246Y-22813D01*
X33254Y-22798D01*
X33254Y-22768D01*
X33246Y-22752D01*
X33239Y-22745D01*
X33223Y-22737D01*
G54D15*
X44320Y-26937D02*
X44306Y-26950D01*
X44266Y-26963D01*
X44240Y-26963D01*
X44200Y-26950D01*
X44173Y-26923D01*
X44160Y-26897D01*
X44146Y-26843D01*
X44146Y-26803D01*
X44160Y-26750D01*
X44173Y-26723D01*
X44200Y-26697D01*
X44240Y-26683D01*
X44266Y-26683D01*
X44306Y-26697D01*
X44320Y-26710D01*
X44413Y-26683D02*
X44586Y-26683D01*
X44493Y-26790D01*
X44533Y-26790D01*
X44560Y-26803D01*
X44573Y-26817D01*
X44586Y-26843D01*
X44586Y-26910D01*
X44573Y-26937D01*
X44560Y-26950D01*
X44533Y-26963D01*
X44453Y-26963D01*
X44426Y-26950D01*
X44413Y-26937D01*
X44840Y-26683D02*
X44707Y-26683D01*
X44693Y-26817D01*
X44707Y-26803D01*
X44733Y-26790D01*
X44800Y-26790D01*
X44827Y-26803D01*
X44840Y-26817D01*
X44853Y-26843D01*
X44853Y-26910D01*
X44840Y-26937D01*
X44827Y-26950D01*
X44800Y-26963D01*
X44733Y-26963D01*
X44707Y-26950D01*
X44693Y-26937D01*
G54D18*
X44238Y-25905D02*
X44253Y-25905D01*
X44268Y-25912D01*
X44276Y-25920D01*
X44283Y-25935D01*
X44291Y-25966D01*
X44291Y-26004D01*
X44283Y-26034D01*
X44276Y-26050D01*
X44268Y-26057D01*
X44253Y-26065D01*
X44238Y-26065D01*
X44222Y-26057D01*
X44215Y-26050D01*
X44207Y-26034D01*
X44199Y-26004D01*
X44199Y-25966D01*
X44207Y-25935D01*
X44215Y-25920D01*
X44222Y-25912D01*
X44238Y-25905D01*
X44359Y-26050D02*
X44367Y-26057D01*
X44359Y-26065D01*
X44351Y-26057D01*
X44359Y-26050D01*
X44359Y-26065D01*
X44519Y-26065D02*
X44427Y-26065D01*
X44473Y-26065D02*
X44473Y-25905D01*
X44458Y-25928D01*
X44443Y-25943D01*
X44427Y-25950D01*
X44656Y-25958D02*
X44656Y-26065D01*
X44587Y-25958D02*
X44587Y-26042D01*
X44595Y-26057D01*
X44610Y-26065D01*
X44633Y-26065D01*
X44648Y-26057D01*
X44656Y-26050D01*
X44785Y-25981D02*
X44732Y-25981D01*
X44732Y-26065D02*
X44732Y-25905D01*
X44808Y-25905D01*
G54D15*
X40070Y-28687D02*
X40056Y-28700D01*
X40016Y-28713D01*
X39990Y-28713D01*
X39950Y-28700D01*
X39923Y-28673D01*
X39910Y-28647D01*
X39896Y-28593D01*
X39896Y-28553D01*
X39910Y-28500D01*
X39923Y-28473D01*
X39950Y-28447D01*
X39990Y-28433D01*
X40016Y-28433D01*
X40056Y-28447D01*
X40070Y-28460D01*
X40163Y-28433D02*
X40336Y-28433D01*
X40243Y-28540D01*
X40283Y-28540D01*
X40310Y-28553D01*
X40323Y-28567D01*
X40336Y-28593D01*
X40336Y-28660D01*
X40323Y-28687D01*
X40310Y-28700D01*
X40283Y-28713D01*
X40203Y-28713D01*
X40176Y-28700D01*
X40163Y-28687D01*
X40577Y-28527D02*
X40577Y-28713D01*
X40510Y-28420D02*
X40443Y-28620D01*
X40617Y-28620D01*
G54D18*
X39988Y-27655D02*
X40003Y-27655D01*
X40018Y-27662D01*
X40026Y-27670D01*
X40033Y-27685D01*
X40041Y-27716D01*
X40041Y-27754D01*
X40033Y-27784D01*
X40026Y-27800D01*
X40018Y-27807D01*
X40003Y-27815D01*
X39988Y-27815D01*
X39972Y-27807D01*
X39965Y-27800D01*
X39957Y-27784D01*
X39949Y-27754D01*
X39949Y-27716D01*
X39957Y-27685D01*
X39965Y-27670D01*
X39972Y-27662D01*
X39988Y-27655D01*
X40109Y-27800D02*
X40117Y-27807D01*
X40109Y-27815D01*
X40101Y-27807D01*
X40109Y-27800D01*
X40109Y-27815D01*
X40269Y-27815D02*
X40177Y-27815D01*
X40223Y-27815D02*
X40223Y-27655D01*
X40208Y-27678D01*
X40193Y-27693D01*
X40177Y-27700D01*
X40406Y-27708D02*
X40406Y-27815D01*
X40337Y-27708D02*
X40337Y-27792D01*
X40345Y-27807D01*
X40360Y-27815D01*
X40383Y-27815D01*
X40398Y-27807D01*
X40406Y-27800D01*
X40535Y-27731D02*
X40482Y-27731D01*
X40482Y-27815D02*
X40482Y-27655D01*
X40558Y-27655D01*
G54D15*
X42570Y-28687D02*
X42556Y-28700D01*
X42516Y-28713D01*
X42490Y-28713D01*
X42450Y-28700D01*
X42423Y-28673D01*
X42410Y-28647D01*
X42396Y-28593D01*
X42396Y-28553D01*
X42410Y-28500D01*
X42423Y-28473D01*
X42450Y-28447D01*
X42490Y-28433D01*
X42516Y-28433D01*
X42556Y-28447D01*
X42570Y-28460D01*
X42663Y-28433D02*
X42836Y-28433D01*
X42743Y-28540D01*
X42783Y-28540D01*
X42810Y-28553D01*
X42823Y-28567D01*
X42836Y-28593D01*
X42836Y-28660D01*
X42823Y-28687D01*
X42810Y-28700D01*
X42783Y-28713D01*
X42703Y-28713D01*
X42676Y-28700D01*
X42663Y-28687D01*
X42943Y-28460D02*
X42957Y-28447D01*
X42983Y-28433D01*
X43050Y-28433D01*
X43077Y-28447D01*
X43090Y-28460D01*
X43103Y-28487D01*
X43103Y-28513D01*
X43090Y-28553D01*
X42930Y-28713D01*
X43103Y-28713D01*
G54D18*
X42427Y-27815D02*
X42335Y-27815D01*
X42381Y-27815D02*
X42381Y-27655D01*
X42366Y-27678D01*
X42351Y-27693D01*
X42335Y-27700D01*
X42526Y-27655D02*
X42541Y-27655D01*
X42556Y-27662D01*
X42564Y-27670D01*
X42571Y-27685D01*
X42579Y-27716D01*
X42579Y-27754D01*
X42571Y-27784D01*
X42564Y-27800D01*
X42556Y-27807D01*
X42541Y-27815D01*
X42526Y-27815D01*
X42510Y-27807D01*
X42503Y-27800D01*
X42495Y-27784D01*
X42487Y-27754D01*
X42487Y-27716D01*
X42495Y-27685D01*
X42503Y-27670D01*
X42510Y-27662D01*
X42526Y-27655D01*
X42678Y-27655D02*
X42693Y-27655D01*
X42708Y-27662D01*
X42716Y-27670D01*
X42723Y-27685D01*
X42731Y-27716D01*
X42731Y-27754D01*
X42723Y-27784D01*
X42716Y-27800D01*
X42708Y-27807D01*
X42693Y-27815D01*
X42678Y-27815D01*
X42662Y-27807D01*
X42655Y-27800D01*
X42647Y-27784D01*
X42639Y-27754D01*
X42639Y-27716D01*
X42647Y-27685D01*
X42655Y-27670D01*
X42662Y-27662D01*
X42678Y-27655D01*
X42830Y-27655D02*
X42845Y-27655D01*
X42860Y-27662D01*
X42868Y-27670D01*
X42875Y-27685D01*
X42883Y-27716D01*
X42883Y-27754D01*
X42875Y-27784D01*
X42868Y-27800D01*
X42860Y-27807D01*
X42845Y-27815D01*
X42830Y-27815D01*
X42814Y-27807D01*
X42807Y-27800D01*
X42799Y-27784D01*
X42791Y-27754D01*
X42791Y-27716D01*
X42799Y-27685D01*
X42807Y-27670D01*
X42814Y-27662D01*
X42830Y-27655D01*
X42951Y-27708D02*
X42951Y-27868D01*
X42951Y-27716D02*
X42966Y-27708D01*
X42997Y-27708D01*
X43012Y-27716D01*
X43020Y-27723D01*
X43027Y-27739D01*
X43027Y-27784D01*
X43020Y-27800D01*
X43012Y-27807D01*
X42997Y-27815D01*
X42966Y-27815D01*
X42951Y-27807D01*
X43149Y-27731D02*
X43096Y-27731D01*
X43096Y-27815D02*
X43096Y-27655D01*
X43172Y-27655D01*
G54D10*
X38319Y-27097D02*
X38182Y-27097D01*
X38250Y-27097D02*
X38250Y-26857D01*
X38227Y-26891D01*
X38205Y-26914D01*
X38182Y-26926D01*
G54D15*
X31820Y-26213D02*
X31726Y-26080D01*
X31660Y-26213D02*
X31660Y-25933D01*
X31766Y-25933D01*
X31793Y-25947D01*
X31806Y-25960D01*
X31820Y-25987D01*
X31820Y-26027D01*
X31806Y-26053D01*
X31793Y-26067D01*
X31766Y-26080D01*
X31660Y-26080D01*
X32086Y-26213D02*
X31926Y-26213D01*
X32006Y-26213D02*
X32006Y-25933D01*
X31980Y-25973D01*
X31953Y-26000D01*
X31926Y-26013D01*
X32327Y-26027D02*
X32327Y-26213D01*
X32260Y-25920D02*
X32193Y-26120D01*
X32367Y-26120D01*
G54D18*
X31981Y-25315D02*
X31889Y-25315D01*
X31935Y-25315D02*
X31935Y-25155D01*
X31920Y-25178D01*
X31905Y-25193D01*
X31889Y-25200D01*
X32049Y-25315D02*
X32049Y-25155D01*
X32064Y-25254D02*
X32110Y-25315D01*
X32110Y-25208D02*
X32049Y-25269D01*
G54D11*
X38894Y-23230D02*
X38787Y-23077D01*
X38711Y-23230D02*
X38711Y-22910D01*
X38833Y-22910D01*
X38864Y-22925D01*
X38879Y-22940D01*
X38894Y-22970D01*
X38894Y-23016D01*
X38879Y-23047D01*
X38864Y-23062D01*
X38833Y-23077D01*
X38711Y-23077D01*
X39199Y-23230D02*
X39016Y-23230D01*
X39107Y-23230D02*
X39107Y-22910D01*
X39077Y-22955D01*
X39046Y-22986D01*
X39016Y-23001D01*
X39397Y-22910D02*
X39428Y-22910D01*
X39458Y-22925D01*
X39473Y-22940D01*
X39489Y-22970D01*
X39504Y-23031D01*
X39504Y-23108D01*
X39489Y-23169D01*
X39473Y-23199D01*
X39458Y-23214D01*
X39428Y-23230D01*
X39397Y-23230D01*
X39367Y-23214D01*
X39351Y-23199D01*
X39336Y-23169D01*
X39321Y-23108D01*
X39321Y-23031D01*
X39336Y-22970D01*
X39351Y-22940D01*
X39367Y-22925D01*
X39397Y-22910D01*
X37147Y-22910D02*
X36994Y-22910D01*
X36979Y-23062D01*
X36994Y-23047D01*
X37025Y-23031D01*
X37101Y-23031D01*
X37131Y-23047D01*
X37147Y-23062D01*
X37162Y-23092D01*
X37162Y-23169D01*
X37147Y-23199D01*
X37131Y-23214D01*
X37101Y-23230D01*
X37025Y-23230D01*
X36994Y-23214D01*
X36979Y-23199D01*
X37299Y-23230D02*
X37299Y-22910D01*
X37330Y-23108D02*
X37421Y-23230D01*
X37421Y-23016D02*
X37299Y-23138D01*
G54D15*
X15320Y-11787D02*
X15306Y-11800D01*
X15266Y-11813D01*
X15240Y-11813D01*
X15200Y-11800D01*
X15173Y-11773D01*
X15160Y-11747D01*
X15146Y-11693D01*
X15146Y-11653D01*
X15160Y-11600D01*
X15173Y-11573D01*
X15200Y-11547D01*
X15240Y-11533D01*
X15266Y-11533D01*
X15306Y-11547D01*
X15320Y-11560D01*
X15413Y-11533D02*
X15586Y-11533D01*
X15493Y-11640D01*
X15533Y-11640D01*
X15560Y-11653D01*
X15573Y-11667D01*
X15586Y-11693D01*
X15586Y-11760D01*
X15573Y-11787D01*
X15560Y-11800D01*
X15533Y-11813D01*
X15453Y-11813D01*
X15426Y-11800D01*
X15413Y-11787D01*
X15680Y-11533D02*
X15853Y-11533D01*
X15760Y-11640D01*
X15800Y-11640D01*
X15827Y-11653D01*
X15840Y-11667D01*
X15853Y-11693D01*
X15853Y-11760D01*
X15840Y-11787D01*
X15827Y-11800D01*
X15800Y-11813D01*
X15720Y-11813D01*
X15693Y-11800D01*
X15680Y-11787D01*
X15320Y-15437D02*
X15306Y-15450D01*
X15266Y-15463D01*
X15240Y-15463D01*
X15200Y-15450D01*
X15173Y-15423D01*
X15160Y-15397D01*
X15146Y-15343D01*
X15146Y-15303D01*
X15160Y-15250D01*
X15173Y-15223D01*
X15200Y-15197D01*
X15240Y-15183D01*
X15266Y-15183D01*
X15306Y-15197D01*
X15320Y-15210D01*
X15413Y-15183D02*
X15586Y-15183D01*
X15493Y-15290D01*
X15533Y-15290D01*
X15560Y-15303D01*
X15573Y-15317D01*
X15586Y-15343D01*
X15586Y-15410D01*
X15573Y-15437D01*
X15560Y-15450D01*
X15533Y-15463D01*
X15453Y-15463D01*
X15426Y-15450D01*
X15413Y-15437D01*
X15827Y-15183D02*
X15773Y-15183D01*
X15747Y-15197D01*
X15733Y-15210D01*
X15707Y-15250D01*
X15693Y-15303D01*
X15693Y-15410D01*
X15707Y-15437D01*
X15720Y-15450D01*
X15747Y-15463D01*
X15800Y-15463D01*
X15827Y-15450D01*
X15840Y-15437D01*
X15853Y-15410D01*
X15853Y-15343D01*
X15840Y-15317D01*
X15827Y-15303D01*
X15800Y-15290D01*
X15747Y-15290D01*
X15720Y-15303D01*
X15707Y-15317D01*
X15693Y-15343D01*
X18320Y-14687D02*
X18306Y-14700D01*
X18266Y-14713D01*
X18240Y-14713D01*
X18200Y-14700D01*
X18173Y-14673D01*
X18160Y-14647D01*
X18146Y-14593D01*
X18146Y-14553D01*
X18160Y-14500D01*
X18173Y-14473D01*
X18200Y-14447D01*
X18240Y-14433D01*
X18266Y-14433D01*
X18306Y-14447D01*
X18320Y-14460D01*
X18413Y-14433D02*
X18586Y-14433D01*
X18493Y-14540D01*
X18533Y-14540D01*
X18560Y-14553D01*
X18573Y-14567D01*
X18586Y-14593D01*
X18586Y-14660D01*
X18573Y-14687D01*
X18560Y-14700D01*
X18533Y-14713D01*
X18453Y-14713D01*
X18426Y-14700D01*
X18413Y-14687D01*
X18680Y-14433D02*
X18867Y-14433D01*
X18747Y-14713D01*
X18320Y-12537D02*
X18306Y-12550D01*
X18266Y-12563D01*
X18240Y-12563D01*
X18200Y-12550D01*
X18173Y-12523D01*
X18160Y-12497D01*
X18146Y-12443D01*
X18146Y-12403D01*
X18160Y-12350D01*
X18173Y-12323D01*
X18200Y-12297D01*
X18240Y-12283D01*
X18266Y-12283D01*
X18306Y-12297D01*
X18320Y-12310D01*
X18413Y-12283D02*
X18586Y-12283D01*
X18493Y-12390D01*
X18533Y-12390D01*
X18560Y-12403D01*
X18573Y-12417D01*
X18586Y-12443D01*
X18586Y-12510D01*
X18573Y-12537D01*
X18560Y-12550D01*
X18533Y-12563D01*
X18453Y-12563D01*
X18426Y-12550D01*
X18413Y-12537D01*
X18747Y-12403D02*
X18720Y-12390D01*
X18707Y-12377D01*
X18693Y-12350D01*
X18693Y-12337D01*
X18707Y-12310D01*
X18720Y-12297D01*
X18747Y-12283D01*
X18800Y-12283D01*
X18827Y-12297D01*
X18840Y-12310D01*
X18853Y-12337D01*
X18853Y-12350D01*
X18840Y-12377D01*
X18827Y-12390D01*
X18800Y-12403D01*
X18747Y-12403D01*
X18720Y-12417D01*
X18707Y-12430D01*
X18693Y-12457D01*
X18693Y-12510D01*
X18707Y-12537D01*
X18720Y-12550D01*
X18747Y-12563D01*
X18800Y-12563D01*
X18827Y-12550D01*
X18840Y-12537D01*
X18853Y-12510D01*
X18853Y-12457D01*
X18840Y-12430D01*
X18827Y-12417D01*
X18800Y-12403D01*
X28920Y-12087D02*
X28906Y-12100D01*
X28866Y-12113D01*
X28840Y-12113D01*
X28800Y-12100D01*
X28773Y-12073D01*
X28760Y-12047D01*
X28746Y-11993D01*
X28746Y-11953D01*
X28760Y-11900D01*
X28773Y-11873D01*
X28800Y-11847D01*
X28840Y-11833D01*
X28866Y-11833D01*
X28906Y-11847D01*
X28920Y-11860D01*
X29013Y-11833D02*
X29186Y-11833D01*
X29093Y-11940D01*
X29133Y-11940D01*
X29160Y-11953D01*
X29173Y-11967D01*
X29186Y-11993D01*
X29186Y-12060D01*
X29173Y-12087D01*
X29160Y-12100D01*
X29133Y-12113D01*
X29053Y-12113D01*
X29026Y-12100D01*
X29013Y-12087D01*
X29320Y-12113D02*
X29373Y-12113D01*
X29400Y-12100D01*
X29413Y-12087D01*
X29440Y-12047D01*
X29453Y-11993D01*
X29453Y-11887D01*
X29440Y-11860D01*
X29427Y-11847D01*
X29400Y-11833D01*
X29347Y-11833D01*
X29320Y-11847D01*
X29307Y-11860D01*
X29293Y-11887D01*
X29293Y-11953D01*
X29307Y-11980D01*
X29320Y-11993D01*
X29347Y-12007D01*
X29400Y-12007D01*
X29427Y-11993D01*
X29440Y-11980D01*
X29453Y-11953D01*
X30220Y-12087D02*
X30206Y-12100D01*
X30166Y-12113D01*
X30140Y-12113D01*
X30100Y-12100D01*
X30073Y-12073D01*
X30060Y-12047D01*
X30046Y-11993D01*
X30046Y-11953D01*
X30060Y-11900D01*
X30073Y-11873D01*
X30100Y-11847D01*
X30140Y-11833D01*
X30166Y-11833D01*
X30206Y-11847D01*
X30220Y-11860D01*
X30460Y-11927D02*
X30460Y-12113D01*
X30393Y-11820D02*
X30326Y-12020D01*
X30500Y-12020D01*
X30660Y-11833D02*
X30687Y-11833D01*
X30713Y-11847D01*
X30727Y-11860D01*
X30740Y-11887D01*
X30753Y-11940D01*
X30753Y-12007D01*
X30740Y-12060D01*
X30727Y-12087D01*
X30713Y-12100D01*
X30687Y-12113D01*
X30660Y-12113D01*
X30633Y-12100D01*
X30620Y-12087D01*
X30607Y-12060D01*
X30593Y-12007D01*
X30593Y-11940D01*
X30607Y-11887D01*
X30620Y-11860D01*
X30633Y-11847D01*
X30660Y-11833D01*
X40570Y-17537D02*
X40556Y-17550D01*
X40516Y-17563D01*
X40490Y-17563D01*
X40450Y-17550D01*
X40423Y-17523D01*
X40410Y-17497D01*
X40396Y-17443D01*
X40396Y-17403D01*
X40410Y-17350D01*
X40423Y-17323D01*
X40450Y-17297D01*
X40490Y-17283D01*
X40516Y-17283D01*
X40556Y-17297D01*
X40570Y-17310D01*
X40810Y-17377D02*
X40810Y-17563D01*
X40743Y-17270D02*
X40676Y-17470D01*
X40850Y-17470D01*
X41103Y-17563D02*
X40943Y-17563D01*
X41023Y-17563D02*
X41023Y-17283D01*
X40997Y-17323D01*
X40970Y-17350D01*
X40943Y-17363D01*
X40570Y-19687D02*
X40556Y-19700D01*
X40516Y-19713D01*
X40490Y-19713D01*
X40450Y-19700D01*
X40423Y-19673D01*
X40410Y-19647D01*
X40396Y-19593D01*
X40396Y-19553D01*
X40410Y-19500D01*
X40423Y-19473D01*
X40450Y-19447D01*
X40490Y-19433D01*
X40516Y-19433D01*
X40556Y-19447D01*
X40570Y-19460D01*
X40810Y-19527D02*
X40810Y-19713D01*
X40743Y-19420D02*
X40676Y-19620D01*
X40850Y-19620D01*
X40943Y-19460D02*
X40957Y-19447D01*
X40983Y-19433D01*
X41050Y-19433D01*
X41077Y-19447D01*
X41090Y-19460D01*
X41103Y-19487D01*
X41103Y-19513D01*
X41090Y-19553D01*
X40930Y-19713D01*
X41103Y-19713D01*
X43570Y-16787D02*
X43556Y-16800D01*
X43516Y-16813D01*
X43490Y-16813D01*
X43450Y-16800D01*
X43423Y-16773D01*
X43410Y-16747D01*
X43396Y-16693D01*
X43396Y-16653D01*
X43410Y-16600D01*
X43423Y-16573D01*
X43450Y-16547D01*
X43490Y-16533D01*
X43516Y-16533D01*
X43556Y-16547D01*
X43570Y-16560D01*
X43810Y-16627D02*
X43810Y-16813D01*
X43743Y-16520D02*
X43676Y-16720D01*
X43850Y-16720D01*
X43930Y-16533D02*
X44103Y-16533D01*
X44010Y-16640D01*
X44050Y-16640D01*
X44077Y-16653D01*
X44090Y-16667D01*
X44103Y-16693D01*
X44103Y-16760D01*
X44090Y-16787D01*
X44077Y-16800D01*
X44050Y-16813D01*
X43970Y-16813D01*
X43943Y-16800D01*
X43930Y-16787D01*
X43570Y-20437D02*
X43556Y-20450D01*
X43516Y-20463D01*
X43490Y-20463D01*
X43450Y-20450D01*
X43423Y-20423D01*
X43410Y-20397D01*
X43396Y-20343D01*
X43396Y-20303D01*
X43410Y-20250D01*
X43423Y-20223D01*
X43450Y-20197D01*
X43490Y-20183D01*
X43516Y-20183D01*
X43556Y-20197D01*
X43570Y-20210D01*
X43810Y-20277D02*
X43810Y-20463D01*
X43743Y-20170D02*
X43676Y-20370D01*
X43850Y-20370D01*
X44077Y-20277D02*
X44077Y-20463D01*
X44010Y-20170D02*
X43943Y-20370D01*
X44117Y-20370D01*
X44070Y-19187D02*
X44056Y-19200D01*
X44016Y-19213D01*
X43990Y-19213D01*
X43950Y-19200D01*
X43923Y-19173D01*
X43910Y-19147D01*
X43896Y-19093D01*
X43896Y-19053D01*
X43910Y-19000D01*
X43923Y-18973D01*
X43950Y-18947D01*
X43990Y-18933D01*
X44016Y-18933D01*
X44056Y-18947D01*
X44070Y-18960D01*
X44310Y-19027D02*
X44310Y-19213D01*
X44243Y-18920D02*
X44176Y-19120D01*
X44350Y-19120D01*
X44590Y-18933D02*
X44457Y-18933D01*
X44443Y-19067D01*
X44457Y-19053D01*
X44483Y-19040D01*
X44550Y-19040D01*
X44577Y-19053D01*
X44590Y-19067D01*
X44603Y-19093D01*
X44603Y-19160D01*
X44590Y-19187D01*
X44577Y-19200D01*
X44550Y-19213D01*
X44483Y-19213D01*
X44457Y-19200D01*
X44443Y-19187D01*
X14820Y-13037D02*
X14806Y-13050D01*
X14766Y-13063D01*
X14740Y-13063D01*
X14700Y-13050D01*
X14673Y-13023D01*
X14660Y-12997D01*
X14646Y-12943D01*
X14646Y-12903D01*
X14660Y-12850D01*
X14673Y-12823D01*
X14700Y-12797D01*
X14740Y-12783D01*
X14766Y-12783D01*
X14806Y-12797D01*
X14820Y-12810D01*
X14913Y-12783D02*
X15086Y-12783D01*
X14993Y-12890D01*
X15033Y-12890D01*
X15060Y-12903D01*
X15073Y-12917D01*
X15086Y-12943D01*
X15086Y-13010D01*
X15073Y-13037D01*
X15060Y-13050D01*
X15033Y-13063D01*
X14953Y-13063D01*
X14926Y-13050D01*
X14913Y-13037D01*
X15260Y-12783D02*
X15287Y-12783D01*
X15313Y-12797D01*
X15327Y-12810D01*
X15340Y-12837D01*
X15353Y-12890D01*
X15353Y-12957D01*
X15340Y-13010D01*
X15327Y-13037D01*
X15313Y-13050D01*
X15287Y-13063D01*
X15260Y-13063D01*
X15233Y-13050D01*
X15220Y-13037D01*
X15207Y-13010D01*
X15193Y-12957D01*
X15193Y-12890D01*
X15207Y-12837D01*
X15220Y-12810D01*
X15233Y-12797D01*
X15260Y-12783D01*
G54D11*
X46610Y-13266D02*
X46838Y-13266D01*
X46884Y-13282D01*
X46914Y-13312D01*
X46930Y-13358D01*
X46930Y-13388D01*
X46930Y-13114D02*
X46610Y-13114D01*
X46610Y-12992D01*
X46625Y-12961D01*
X46640Y-12946D01*
X46670Y-12931D01*
X46716Y-12931D01*
X46747Y-12946D01*
X46762Y-12961D01*
X46777Y-12992D01*
X46777Y-13114D01*
X46640Y-12809D02*
X46625Y-12794D01*
X46610Y-12763D01*
X46610Y-12687D01*
X46625Y-12657D01*
X46640Y-12641D01*
X46670Y-12626D01*
X46701Y-12626D01*
X46747Y-12641D01*
X46930Y-12824D01*
X46930Y-12626D01*
G54D21*
X41520Y-14855D02*
X41320Y-14982D01*
X41520Y-15073D02*
X41100Y-15073D01*
X41100Y-14928D01*
X41120Y-14892D01*
X41140Y-14873D01*
X41180Y-14855D01*
X41240Y-14855D01*
X41280Y-14873D01*
X41300Y-14892D01*
X41320Y-14928D01*
X41320Y-15073D01*
X41300Y-14566D02*
X41300Y-14693D01*
X41520Y-14693D02*
X41100Y-14693D01*
X41100Y-14512D01*
X41560Y-14457D02*
X41560Y-14167D01*
X41520Y-14077D02*
X41100Y-14077D01*
X41100Y-13932D01*
X41120Y-13896D01*
X41140Y-13877D01*
X41180Y-13859D01*
X41240Y-13859D01*
X41280Y-13877D01*
X41300Y-13896D01*
X41320Y-13932D01*
X41320Y-14077D01*
X41520Y-13534D02*
X41300Y-13534D01*
X41260Y-13552D01*
X41240Y-13588D01*
X41240Y-13660D01*
X41260Y-13697D01*
X41500Y-13534D02*
X41520Y-13570D01*
X41520Y-13660D01*
X41500Y-13697D01*
X41460Y-13715D01*
X41420Y-13715D01*
X41380Y-13697D01*
X41360Y-13660D01*
X41360Y-13570D01*
X41340Y-13534D01*
X41240Y-13407D02*
X41240Y-13262D01*
X41100Y-13353D02*
X41460Y-13353D01*
X41500Y-13334D01*
X41520Y-13298D01*
X41520Y-13262D01*
X41520Y-13136D02*
X41100Y-13136D01*
X41520Y-12973D02*
X41300Y-12973D01*
X41260Y-12991D01*
X41240Y-13027D01*
X41240Y-13081D01*
X41260Y-13117D01*
X41280Y-13136D01*
X41560Y-12882D02*
X41560Y-12592D01*
X41500Y-12520D02*
X41520Y-12465D01*
X41520Y-12375D01*
X41500Y-12339D01*
X41480Y-12321D01*
X41440Y-12302D01*
X41400Y-12302D01*
X41360Y-12321D01*
X41340Y-12339D01*
X41320Y-12375D01*
X41300Y-12447D01*
X41280Y-12483D01*
X41260Y-12502D01*
X41220Y-12520D01*
X41180Y-12520D01*
X41140Y-12502D01*
X41120Y-12483D01*
X41100Y-12447D01*
X41100Y-12357D01*
X41120Y-12302D01*
X41500Y-11995D02*
X41520Y-12031D01*
X41520Y-12103D01*
X41500Y-12140D01*
X41460Y-12158D01*
X41300Y-12158D01*
X41260Y-12140D01*
X41240Y-12103D01*
X41240Y-12031D01*
X41260Y-11995D01*
X41300Y-11977D01*
X41340Y-11977D01*
X41380Y-12158D01*
X41520Y-11759D02*
X41500Y-11795D01*
X41460Y-11814D01*
X41100Y-11814D01*
X41500Y-11470D02*
X41520Y-11506D01*
X41520Y-11578D01*
X41500Y-11615D01*
X41460Y-11633D01*
X41300Y-11633D01*
X41260Y-11615D01*
X41240Y-11578D01*
X41240Y-11506D01*
X41260Y-11470D01*
X41300Y-11452D01*
X41340Y-11452D01*
X41380Y-11633D01*
X41500Y-11126D02*
X41520Y-11162D01*
X41520Y-11234D01*
X41500Y-11270D01*
X41480Y-11289D01*
X41440Y-11307D01*
X41320Y-11307D01*
X41280Y-11289D01*
X41260Y-11270D01*
X41240Y-11234D01*
X41240Y-11162D01*
X41260Y-11126D01*
X41240Y-11017D02*
X41240Y-10872D01*
X41100Y-10963D02*
X41460Y-10963D01*
X41500Y-10944D01*
X41520Y-10908D01*
X41520Y-10872D01*
G54D18*
X41086Y-16165D02*
X41086Y-16005D01*
X41124Y-16005D01*
X41147Y-16012D01*
X41162Y-16028D01*
X41170Y-16043D01*
X41178Y-16073D01*
X41178Y-16096D01*
X41170Y-16127D01*
X41162Y-16142D01*
X41147Y-16157D01*
X41124Y-16165D01*
X41086Y-16165D01*
X41246Y-16165D02*
X41246Y-16005D01*
X41338Y-16165D01*
X41338Y-16005D01*
X41414Y-16165D02*
X41414Y-16005D01*
X42336Y-16165D02*
X42336Y-16005D01*
X42374Y-16005D01*
X42397Y-16012D01*
X42412Y-16028D01*
X42420Y-16043D01*
X42428Y-16073D01*
X42428Y-16096D01*
X42420Y-16127D01*
X42412Y-16142D01*
X42397Y-16157D01*
X42374Y-16165D01*
X42336Y-16165D01*
X42496Y-16165D02*
X42496Y-16005D01*
X42588Y-16165D01*
X42588Y-16005D01*
X42664Y-16165D02*
X42664Y-16005D01*
G54D15*
X26154Y-26113D02*
X26060Y-25980D01*
X25994Y-26113D02*
X25994Y-25833D01*
X26100Y-25833D01*
X26127Y-25847D01*
X26140Y-25860D01*
X26154Y-25887D01*
X26154Y-25927D01*
X26140Y-25953D01*
X26127Y-25967D01*
X26100Y-25980D01*
X25994Y-25980D01*
X26260Y-25860D02*
X26274Y-25847D01*
X26300Y-25833D01*
X26367Y-25833D01*
X26394Y-25847D01*
X26407Y-25860D01*
X26420Y-25887D01*
X26420Y-25913D01*
X26407Y-25953D01*
X26247Y-26113D01*
X26420Y-26113D01*
X28504Y-25813D02*
X28410Y-25680D01*
X28344Y-25813D02*
X28344Y-25533D01*
X28450Y-25533D01*
X28477Y-25547D01*
X28490Y-25560D01*
X28504Y-25587D01*
X28504Y-25627D01*
X28490Y-25653D01*
X28477Y-25667D01*
X28450Y-25680D01*
X28344Y-25680D01*
X28744Y-25627D02*
X28744Y-25813D01*
X28677Y-25520D02*
X28610Y-25720D01*
X28784Y-25720D01*
X27304Y-26013D02*
X27210Y-25880D01*
X27144Y-26013D02*
X27144Y-25733D01*
X27250Y-25733D01*
X27277Y-25747D01*
X27290Y-25760D01*
X27304Y-25787D01*
X27304Y-25827D01*
X27290Y-25853D01*
X27277Y-25867D01*
X27250Y-25880D01*
X27144Y-25880D01*
X27397Y-25733D02*
X27570Y-25733D01*
X27477Y-25840D01*
X27517Y-25840D01*
X27544Y-25853D01*
X27557Y-25867D01*
X27570Y-25893D01*
X27570Y-25960D01*
X27557Y-25987D01*
X27544Y-26000D01*
X27517Y-26013D01*
X27437Y-26013D01*
X27410Y-26000D01*
X27397Y-25987D01*
X26687Y-24130D02*
X26700Y-24144D01*
X26713Y-24184D01*
X26713Y-24210D01*
X26700Y-24250D01*
X26673Y-24277D01*
X26647Y-24290D01*
X26593Y-24304D01*
X26553Y-24304D01*
X26500Y-24290D01*
X26473Y-24277D01*
X26447Y-24250D01*
X26433Y-24210D01*
X26433Y-24184D01*
X26447Y-24144D01*
X26460Y-24130D01*
X26527Y-23890D02*
X26713Y-23890D01*
X26420Y-23957D02*
X26620Y-24024D01*
X26620Y-23850D01*
X26433Y-23623D02*
X26433Y-23677D01*
X26447Y-23703D01*
X26460Y-23717D01*
X26500Y-23743D01*
X26553Y-23757D01*
X26660Y-23757D01*
X26687Y-23743D01*
X26700Y-23730D01*
X26713Y-23703D01*
X26713Y-23650D01*
X26700Y-23623D01*
X26687Y-23610D01*
X26660Y-23597D01*
X26593Y-23597D01*
X26567Y-23610D01*
X26553Y-23623D01*
X26540Y-23650D01*
X26540Y-23703D01*
X26553Y-23730D01*
X26567Y-23743D01*
X26593Y-23757D01*
M02*
