G04 (created by PCBNEW-RS274X (2011-12-28 BZR 3254)-stable) date 9/2/2012 2:21:17 PM*
G01*
G70*
G90*
%MOIN*%
G04 Gerber Fmt 3.4, Leading zero omitted, Abs format*
%FSLAX34Y34*%
G04 APERTURE LIST*
%ADD10C,0.006000*%
%ADD11R,0.050000X0.100000*%
%ADD12R,0.040000X0.018000*%
%ADD13C,0.040000*%
%ADD14R,0.070000X0.120000*%
%ADD15R,0.200000X0.120000*%
%ADD16C,0.065000*%
%ADD17R,0.040000X0.100000*%
%ADD18C,0.048000*%
%ADD19C,0.060000*%
%ADD20C,0.130000*%
%ADD21C,0.036000*%
%ADD22C,0.200000*%
%ADD23C,0.045000*%
%ADD24C,0.064000*%
%ADD25C,0.052000*%
%ADD26C,0.100000*%
%ADD27C,0.010000*%
%ADD28C,0.008000*%
%ADD29C,0.040000*%
%ADD30C,0.020000*%
%ADD31C,0.055000*%
%ADD32C,0.090000*%
%ADD33C,0.070000*%
%ADD34C,0.036000*%
G04 APERTURE END LIST*
G54D10*
G54D11*
X12000Y-12000D03*
G54D12*
X12350Y-15150D03*
G54D13*
X12600Y-15150D03*
X12600Y-11850D03*
G54D12*
X12350Y-11850D03*
G54D14*
X11900Y-15000D03*
X10600Y-15000D03*
X11900Y-12000D03*
X10600Y-12000D03*
G54D11*
X12000Y-15000D03*
G54D12*
X45650Y-16850D03*
G54D13*
X45400Y-16850D03*
G54D15*
X46750Y-17000D03*
X46750Y-20000D03*
G54D13*
X45400Y-20150D03*
G54D12*
X45650Y-20150D03*
X45650Y-24850D03*
G54D13*
X45400Y-24850D03*
G54D15*
X46750Y-25000D03*
X46750Y-28000D03*
G54D13*
X45400Y-28150D03*
G54D12*
X45650Y-28150D03*
G54D16*
X20500Y-27000D03*
X23500Y-27000D03*
X23500Y-24000D03*
X20500Y-24000D03*
X21500Y-27000D03*
X22500Y-27000D03*
X22500Y-24000D03*
X21500Y-24000D03*
G54D17*
X43500Y-24050D03*
X41000Y-24050D03*
G54D18*
X12713Y-27547D03*
X14287Y-27547D03*
G54D19*
X14000Y-25550D03*
X13000Y-25550D03*
X13000Y-26337D03*
X14000Y-26337D03*
G54D20*
X15862Y-27400D03*
X11138Y-27400D03*
G54D21*
X42250Y-20750D03*
X24000Y-13750D03*
X35750Y-19750D03*
X18750Y-18750D03*
X34250Y-18000D03*
X38750Y-20750D03*
X31300Y-14950D03*
X31875Y-14950D03*
X39100Y-17700D03*
X32450Y-14950D03*
X32750Y-20750D03*
X37950Y-17700D03*
X38525Y-17700D03*
X25150Y-25925D03*
X35500Y-13000D03*
X44000Y-20750D03*
X37500Y-14000D03*
X37000Y-20750D03*
X38500Y-15000D03*
X38500Y-19750D03*
X34675Y-20300D03*
X20000Y-15750D03*
X27300Y-20350D03*
X24900Y-24300D03*
X23000Y-23250D03*
X18300Y-25850D03*
X29050Y-27550D03*
X27800Y-23300D03*
X20000Y-19750D03*
X23000Y-18850D03*
X22000Y-25500D03*
X17000Y-18900D03*
X34075Y-20300D03*
X39750Y-19500D03*
X29400Y-19800D03*
X28950Y-18700D03*
X33475Y-20300D03*
X27250Y-25050D03*
X29750Y-15250D03*
X19500Y-18900D03*
X33500Y-18000D03*
X28750Y-17000D03*
X20450Y-16700D03*
X18500Y-15000D03*
X13750Y-18750D03*
X17750Y-18750D03*
X18550Y-16700D03*
X20250Y-15000D03*
X21750Y-18900D03*
X33250Y-13500D03*
X20250Y-18750D03*
X24000Y-18850D03*
X24750Y-17250D03*
X25500Y-17250D03*
X16500Y-15250D03*
X19250Y-15000D03*
X16050Y-16700D03*
X15450Y-16700D03*
X25750Y-18750D03*
G54D22*
X39000Y-12000D03*
G54D21*
X12950Y-16700D03*
X20500Y-25500D03*
X23500Y-19750D03*
X14000Y-13000D03*
X27500Y-17500D03*
X23500Y-25500D03*
X39500Y-16000D03*
X30250Y-17000D03*
X31000Y-13000D03*
X17950Y-16700D03*
G54D22*
X12000Y-20000D03*
G54D21*
X27600Y-18750D03*
X13550Y-16700D03*
X27900Y-25700D03*
X28500Y-15250D03*
X17500Y-16250D03*
X19000Y-16250D03*
X22500Y-17250D03*
X11750Y-16250D03*
X32500Y-13000D03*
X37000Y-19750D03*
X14000Y-19750D03*
X37000Y-18000D03*
X16000Y-19750D03*
X18000Y-19750D03*
X15250Y-18750D03*
X20000Y-14000D03*
X22250Y-15750D03*
X23500Y-15500D03*
X26750Y-25800D03*
X21500Y-16250D03*
X22250Y-18750D03*
X17550Y-13500D03*
X22000Y-18000D03*
X22000Y-19750D03*
X25500Y-19750D03*
X27800Y-21700D03*
X13500Y-22250D03*
X19050Y-22250D03*
X21050Y-16700D03*
X39750Y-18500D03*
X13500Y-22800D03*
X27250Y-23950D03*
X27250Y-23400D03*
X26200Y-27550D03*
X41750Y-19500D03*
X29850Y-19000D03*
X24850Y-25475D03*
X28400Y-18150D03*
X29250Y-26600D03*
X28500Y-27550D03*
X12500Y-22250D03*
X41750Y-17500D03*
X35250Y-20750D03*
X27800Y-22500D03*
X40500Y-20750D03*
X27250Y-24500D03*
X34000Y-13000D03*
X26750Y-27550D03*
X25650Y-27550D03*
X10500Y-25750D03*
X10500Y-24000D03*
X19400Y-22950D03*
X33000Y-14500D03*
X20750Y-22250D03*
X42500Y-19250D03*
X22750Y-22250D03*
X10500Y-22250D03*
X24750Y-23000D03*
X29250Y-20900D03*
X14500Y-18900D03*
X17750Y-24750D03*
X29250Y-22000D03*
X29250Y-24350D03*
X24750Y-22250D03*
X17750Y-25600D03*
X16750Y-25250D03*
X17750Y-23750D03*
X14950Y-23000D03*
X15500Y-25500D03*
X15250Y-24250D03*
X29250Y-25550D03*
X17850Y-22250D03*
X27950Y-27550D03*
X16250Y-18750D03*
X17750Y-15250D03*
X24000Y-17250D03*
X26650Y-18750D03*
X23250Y-17250D03*
X35750Y-18000D03*
X25900Y-16250D03*
X11500Y-10500D03*
X44650Y-16950D03*
X21000Y-23250D03*
X26400Y-17750D03*
X23250Y-14500D03*
X27800Y-20900D03*
X13750Y-15250D03*
X21250Y-18500D03*
X25000Y-15650D03*
X25000Y-27000D03*
X38500Y-28500D03*
X27350Y-27100D03*
X41000Y-28500D03*
X34000Y-28500D03*
G54D23*
X31250Y-28500D03*
G54D21*
X44000Y-27750D03*
X27300Y-19800D03*
X12500Y-10500D03*
X12250Y-18250D03*
X10500Y-16750D03*
X10500Y-16000D03*
X10500Y-18250D03*
X11750Y-17250D03*
X33000Y-28500D03*
X16500Y-16250D03*
G54D24*
X32500Y-27500D03*
X31500Y-27500D03*
G54D21*
X31250Y-25250D03*
X32000Y-28250D03*
X31250Y-22250D03*
X44650Y-17550D03*
X31250Y-26250D03*
X44650Y-20050D03*
X32500Y-19750D03*
X29250Y-23450D03*
X15700Y-14100D03*
X33500Y-24650D03*
X41750Y-13750D03*
X43550Y-19100D03*
X33250Y-12000D03*
X32500Y-23250D03*
X32000Y-22250D03*
X43500Y-28500D03*
X35900Y-28050D03*
X34750Y-12000D03*
X15700Y-12900D03*
X36300Y-22350D03*
X32750Y-22250D03*
X35700Y-22350D03*
X44500Y-28500D03*
X37100Y-28050D03*
G54D25*
X38250Y-24750D03*
X38250Y-22750D03*
X37250Y-23750D03*
X38750Y-23750D03*
G54D21*
X43400Y-25300D03*
X34000Y-22250D03*
X37250Y-22250D03*
X39250Y-22250D03*
X40900Y-25300D03*
X41000Y-22250D03*
X37500Y-26200D03*
X43500Y-22250D03*
X47500Y-22250D03*
X45500Y-22250D03*
X41700Y-18500D03*
X42250Y-23000D03*
X44500Y-23000D03*
X44650Y-19450D03*
X42250Y-26750D03*
X41500Y-15500D03*
X47500Y-23500D03*
X46500Y-23000D03*
X43550Y-17900D03*
X13250Y-13000D03*
X40250Y-23000D03*
X39500Y-25250D03*
X39750Y-26750D03*
X36250Y-24250D03*
X10500Y-10500D03*
X16750Y-14250D03*
X14600Y-11950D03*
X14600Y-12550D03*
X14600Y-14450D03*
X17500Y-12500D03*
X14600Y-15050D03*
X17500Y-14500D03*
X14500Y-10500D03*
X16500Y-10500D03*
X18500Y-10500D03*
X10500Y-11000D03*
X10500Y-19500D03*
X13500Y-10500D03*
X19500Y-12500D03*
X19500Y-13500D03*
X20250Y-12750D03*
X20500Y-13750D03*
X21750Y-12750D03*
X22500Y-13750D03*
X23250Y-12750D03*
X18500Y-12000D03*
X15000Y-16250D03*
X14000Y-16250D03*
X17500Y-11325D03*
X11500Y-18400D03*
X30950Y-11050D03*
X34750Y-12650D03*
X12650Y-11000D03*
X11000Y-18750D03*
X28750Y-11500D03*
X33750Y-11750D03*
G54D26*
X47250Y-12016D03*
X47250Y-13984D03*
X42250Y-11150D03*
X42250Y-13000D03*
X42250Y-14850D03*
G54D21*
X33750Y-17000D03*
X34250Y-16000D03*
X34750Y-16750D03*
X32750Y-18000D03*
X33000Y-17000D03*
X31500Y-18000D03*
X31500Y-18750D03*
X34750Y-17500D03*
X31750Y-19500D03*
X30250Y-18250D03*
X30500Y-19500D03*
X29500Y-17750D03*
X32000Y-17250D03*
X26950Y-17500D03*
X28050Y-17500D03*
X30750Y-20750D03*
X26450Y-17050D03*
X30750Y-15250D03*
X27500Y-15250D03*
X26500Y-15250D03*
X24750Y-14500D03*
X25750Y-14500D03*
X24000Y-15000D03*
X22000Y-14500D03*
X21500Y-13750D03*
X31750Y-13500D03*
X30250Y-13500D03*
X24750Y-12750D03*
X26250Y-12750D03*
X27500Y-13750D03*
X27750Y-12750D03*
X25500Y-13750D03*
X28750Y-13500D03*
X28500Y-14500D03*
X30000Y-14500D03*
X26500Y-13750D03*
X27000Y-14500D03*
X30750Y-14500D03*
X34000Y-14500D03*
X36000Y-14500D03*
X36750Y-13750D03*
X37750Y-14750D03*
X36000Y-13500D03*
X34750Y-13500D03*
X35000Y-14500D03*
X36750Y-15250D03*
X38750Y-15750D03*
X37750Y-16250D03*
X38500Y-17000D03*
X39750Y-16750D03*
X40500Y-17000D03*
X35500Y-15750D03*
X36500Y-16750D03*
X40500Y-10500D03*
X38500Y-10500D03*
X29500Y-13000D03*
X27000Y-12500D03*
X25500Y-12500D03*
X24000Y-12500D03*
X22500Y-12500D03*
X21000Y-12500D03*
X16725Y-12200D03*
X28300Y-13100D03*
X17500Y-10500D03*
X37000Y-16000D03*
X15500Y-10500D03*
X16300Y-11675D03*
X33500Y-15250D03*
X35500Y-17000D03*
X14050Y-12250D03*
X36000Y-15250D03*
X24500Y-19750D03*
X37750Y-17000D03*
X42700Y-17100D03*
X32550Y-11500D03*
X28750Y-10500D03*
X29750Y-10500D03*
X30750Y-10500D03*
X32500Y-10500D03*
X29750Y-12000D03*
X34500Y-10500D03*
X36500Y-10500D03*
X26750Y-10500D03*
X24750Y-10500D03*
X22750Y-10500D03*
X21000Y-10500D03*
X19750Y-10500D03*
X20250Y-12000D03*
X21750Y-12000D03*
X23250Y-12000D03*
X24750Y-12000D03*
X26250Y-12000D03*
X27500Y-12000D03*
X40500Y-15000D03*
X36500Y-13000D03*
X27300Y-19250D03*
X22750Y-15000D03*
X19450Y-11150D03*
X21000Y-14500D03*
X21250Y-15500D03*
X46000Y-12000D03*
X46000Y-14000D03*
X44000Y-11000D03*
X44000Y-15000D03*
X30000Y-20250D03*
X36250Y-20250D03*
X37750Y-20250D03*
X39500Y-20250D03*
X31750Y-20250D03*
X41500Y-20250D03*
X42750Y-20250D03*
X31000Y-17500D03*
X19000Y-26550D03*
X27300Y-21300D03*
X27300Y-22100D03*
X24900Y-23750D03*
X11900Y-17850D03*
G54D27*
X33750Y-11750D02*
X33600Y-11600D01*
X33000Y-11600D02*
X32700Y-11900D01*
X11150Y-18600D02*
X11000Y-18750D01*
X12650Y-10950D02*
X12650Y-11000D01*
X11450Y-10850D02*
X11150Y-11150D01*
X11150Y-11150D02*
X11150Y-18600D01*
X30400Y-11600D02*
X28850Y-11600D01*
X32700Y-11900D02*
X31000Y-11900D01*
X30700Y-11900D02*
X30400Y-11600D01*
X12250Y-10850D02*
X11450Y-10850D01*
X31000Y-11900D02*
X30700Y-11900D01*
X28850Y-11600D02*
X28750Y-11500D01*
X12250Y-10850D02*
X12550Y-10850D01*
X33600Y-11600D02*
X33000Y-11600D01*
X12550Y-10850D02*
X12650Y-10950D01*
X30750Y-11500D02*
X29750Y-10500D01*
X34100Y-12000D02*
X34000Y-12100D01*
G54D28*
X31000Y-27100D02*
X31000Y-28250D01*
X31600Y-25650D02*
X31600Y-26500D01*
G54D27*
X34100Y-11500D02*
X34100Y-12000D01*
X33250Y-12000D02*
X33250Y-12250D01*
X14000Y-23500D02*
X14500Y-23000D01*
G54D29*
X12250Y-19750D02*
X12000Y-20000D01*
G54D27*
X28350Y-11000D02*
X28350Y-11850D01*
G54D30*
X10918Y-15832D02*
X10500Y-16250D01*
G54D27*
X32550Y-11500D02*
X30750Y-11500D01*
X34500Y-10500D02*
X34500Y-10750D01*
G54D31*
X16300Y-26300D02*
X16950Y-26950D01*
G54D32*
X11894Y-12656D02*
X11894Y-14444D01*
G54D33*
X31850Y-28400D02*
X32000Y-28250D01*
G54D27*
X33250Y-12250D02*
X32500Y-13000D01*
G54D29*
X17000Y-23000D02*
X17750Y-23750D01*
G54D27*
X32950Y-11300D02*
X33900Y-11300D01*
X14163Y-26337D02*
X14500Y-26000D01*
X14500Y-26000D02*
X14500Y-25250D01*
X34500Y-10750D02*
X34500Y-11750D01*
X14000Y-24750D02*
X14000Y-23500D01*
G54D28*
X32000Y-26150D02*
X33500Y-24650D01*
X31000Y-28250D02*
X31250Y-28500D01*
G54D30*
X10500Y-16250D02*
X10500Y-16750D01*
G54D31*
X14450Y-26300D02*
X16300Y-26300D01*
G54D30*
X11472Y-10500D02*
X10918Y-11054D01*
G54D28*
X32000Y-28250D02*
X32000Y-26150D01*
G54D34*
X14250Y-23000D02*
X13500Y-22250D01*
G54D28*
X31250Y-25300D02*
X31600Y-25650D01*
X31600Y-26500D02*
X31000Y-27100D01*
G54D34*
X14950Y-23000D02*
X14500Y-23000D01*
G54D27*
X34000Y-12100D02*
X34000Y-13000D01*
G54D28*
X31250Y-25250D02*
X31250Y-25300D01*
G54D27*
X32550Y-11500D02*
X32750Y-11500D01*
G54D30*
X11500Y-10500D02*
X11472Y-10500D01*
G54D27*
X32750Y-11500D02*
X32950Y-11300D01*
G54D31*
X16950Y-26950D02*
X16950Y-27850D01*
G54D32*
X14050Y-12250D02*
X12300Y-12250D01*
G54D28*
X12250Y-19750D02*
X12000Y-20000D01*
G54D27*
X33900Y-11300D02*
X34100Y-11500D01*
G54D33*
X17500Y-28400D02*
X31850Y-28400D01*
G54D29*
X12250Y-18250D02*
X12250Y-19750D01*
G54D27*
X28750Y-10500D02*
X28750Y-10600D01*
G54D31*
X16950Y-27850D02*
X17500Y-28400D01*
G54D27*
X13837Y-26337D02*
X13500Y-26000D01*
G54D32*
X12300Y-12250D02*
X11894Y-12656D01*
G54D31*
X14000Y-26337D02*
X14413Y-26337D01*
G54D32*
X11894Y-14444D02*
X12600Y-15150D01*
G54D27*
X14000Y-26337D02*
X13837Y-26337D01*
X13500Y-26000D02*
X13500Y-22800D01*
X14500Y-25250D02*
X14000Y-24750D01*
X28350Y-11850D02*
X29500Y-13000D01*
X14000Y-26337D02*
X14163Y-26337D01*
G54D31*
X14413Y-26337D02*
X14450Y-26300D01*
G54D29*
X14950Y-23000D02*
X17000Y-23000D01*
G54D30*
X10918Y-11054D02*
X10918Y-15832D01*
G54D27*
X28750Y-10600D02*
X28350Y-11000D01*
X34500Y-11750D02*
X34750Y-12000D01*
G54D34*
X14500Y-23000D02*
X14250Y-23000D01*
G54D28*
X12550Y-11350D02*
X12222Y-11022D01*
X13050Y-11100D02*
X17275Y-11100D01*
X11522Y-11022D02*
X11322Y-11222D01*
X12222Y-11022D02*
X11522Y-11022D01*
X11322Y-11222D02*
X11322Y-17700D01*
X17275Y-11100D02*
X17500Y-11325D01*
X12800Y-11350D02*
X13050Y-11100D01*
X12700Y-11350D02*
X12800Y-11350D01*
X11322Y-18222D02*
X11500Y-18400D01*
X11322Y-17700D02*
X11322Y-18222D01*
X12700Y-11350D02*
X12550Y-11350D01*
G54D27*
X33300Y-11050D02*
X34000Y-11050D01*
X30950Y-11050D02*
X33300Y-11050D01*
X34318Y-12218D02*
X34750Y-12650D01*
X34000Y-11050D02*
X34318Y-11368D01*
X34318Y-11368D02*
X34318Y-12218D01*
G54D10*
G36*
X15960Y-28710D02*
X14460Y-28710D01*
X14460Y-25642D01*
X14460Y-25459D01*
X14390Y-25290D01*
X14261Y-25160D01*
X14092Y-25090D01*
X13909Y-25090D01*
X13740Y-25160D01*
X13610Y-25289D01*
X13540Y-25458D01*
X13540Y-25641D01*
X13610Y-25810D01*
X13739Y-25940D01*
X13908Y-26010D01*
X14091Y-26010D01*
X14260Y-25940D01*
X14390Y-25811D01*
X14460Y-25642D01*
X14460Y-28710D01*
X13460Y-28710D01*
X13460Y-26429D01*
X13460Y-26246D01*
X13390Y-26077D01*
X13261Y-25947D01*
X13252Y-25943D01*
X13260Y-25940D01*
X13390Y-25811D01*
X13460Y-25642D01*
X13460Y-25459D01*
X13390Y-25290D01*
X13261Y-25160D01*
X13092Y-25090D01*
X12909Y-25090D01*
X12740Y-25160D01*
X12610Y-25289D01*
X12540Y-25458D01*
X12540Y-25641D01*
X12610Y-25810D01*
X12739Y-25940D01*
X12747Y-25943D01*
X12740Y-25947D01*
X12610Y-26076D01*
X12540Y-26245D01*
X12540Y-26428D01*
X12610Y-26597D01*
X12739Y-26727D01*
X12908Y-26797D01*
X13091Y-26797D01*
X13260Y-26727D01*
X13390Y-26598D01*
X13460Y-26429D01*
X13460Y-28710D01*
X13112Y-28710D01*
X13112Y-27627D01*
X13112Y-27468D01*
X13051Y-27321D01*
X12939Y-27209D01*
X12793Y-27148D01*
X12634Y-27148D01*
X12487Y-27209D01*
X12375Y-27321D01*
X12314Y-27467D01*
X12314Y-27626D01*
X12375Y-27773D01*
X12487Y-27885D01*
X12633Y-27946D01*
X12792Y-27946D01*
X12939Y-27885D01*
X13051Y-27773D01*
X13112Y-27627D01*
X13112Y-28710D01*
X11947Y-28710D01*
X11947Y-27562D01*
X11947Y-27240D01*
X11824Y-26943D01*
X11597Y-26715D01*
X11300Y-26591D01*
X10978Y-26591D01*
X10681Y-26714D01*
X10453Y-26941D01*
X10329Y-27238D01*
X10329Y-27560D01*
X10452Y-27857D01*
X10679Y-28085D01*
X10976Y-28209D01*
X11298Y-28209D01*
X11595Y-28086D01*
X11823Y-27859D01*
X11947Y-27562D01*
X11947Y-28710D01*
X10290Y-28710D01*
X10290Y-22040D01*
X14460Y-22040D01*
X14460Y-25040D01*
X15960Y-25040D01*
X15960Y-26591D01*
X15702Y-26591D01*
X15405Y-26714D01*
X15177Y-26941D01*
X15053Y-27238D01*
X15053Y-27560D01*
X15176Y-27857D01*
X15403Y-28085D01*
X15700Y-28209D01*
X15960Y-28209D01*
X15960Y-28710D01*
X15960Y-28710D01*
G37*
G54D28*
X15960Y-28710D02*
X14460Y-28710D01*
X14460Y-25642D01*
X14460Y-25459D01*
X14390Y-25290D01*
X14261Y-25160D01*
X14092Y-25090D01*
X13909Y-25090D01*
X13740Y-25160D01*
X13610Y-25289D01*
X13540Y-25458D01*
X13540Y-25641D01*
X13610Y-25810D01*
X13739Y-25940D01*
X13908Y-26010D01*
X14091Y-26010D01*
X14260Y-25940D01*
X14390Y-25811D01*
X14460Y-25642D01*
X14460Y-28710D01*
X13460Y-28710D01*
X13460Y-26429D01*
X13460Y-26246D01*
X13390Y-26077D01*
X13261Y-25947D01*
X13252Y-25943D01*
X13260Y-25940D01*
X13390Y-25811D01*
X13460Y-25642D01*
X13460Y-25459D01*
X13390Y-25290D01*
X13261Y-25160D01*
X13092Y-25090D01*
X12909Y-25090D01*
X12740Y-25160D01*
X12610Y-25289D01*
X12540Y-25458D01*
X12540Y-25641D01*
X12610Y-25810D01*
X12739Y-25940D01*
X12747Y-25943D01*
X12740Y-25947D01*
X12610Y-26076D01*
X12540Y-26245D01*
X12540Y-26428D01*
X12610Y-26597D01*
X12739Y-26727D01*
X12908Y-26797D01*
X13091Y-26797D01*
X13260Y-26727D01*
X13390Y-26598D01*
X13460Y-26429D01*
X13460Y-28710D01*
X13112Y-28710D01*
X13112Y-27627D01*
X13112Y-27468D01*
X13051Y-27321D01*
X12939Y-27209D01*
X12793Y-27148D01*
X12634Y-27148D01*
X12487Y-27209D01*
X12375Y-27321D01*
X12314Y-27467D01*
X12314Y-27626D01*
X12375Y-27773D01*
X12487Y-27885D01*
X12633Y-27946D01*
X12792Y-27946D01*
X12939Y-27885D01*
X13051Y-27773D01*
X13112Y-27627D01*
X13112Y-28710D01*
X11947Y-28710D01*
X11947Y-27562D01*
X11947Y-27240D01*
X11824Y-26943D01*
X11597Y-26715D01*
X11300Y-26591D01*
X10978Y-26591D01*
X10681Y-26714D01*
X10453Y-26941D01*
X10329Y-27238D01*
X10329Y-27560D01*
X10452Y-27857D01*
X10679Y-28085D01*
X10976Y-28209D01*
X11298Y-28209D01*
X11595Y-28086D01*
X11823Y-27859D01*
X11947Y-27562D01*
X11947Y-28710D01*
X10290Y-28710D01*
X10290Y-22040D01*
X14460Y-22040D01*
X14460Y-25040D01*
X15960Y-25040D01*
X15960Y-26591D01*
X15702Y-26591D01*
X15405Y-26714D01*
X15177Y-26941D01*
X15053Y-27238D01*
X15053Y-27560D01*
X15176Y-27857D01*
X15403Y-28085D01*
X15700Y-28209D01*
X15960Y-28209D01*
X15960Y-28710D01*
G54D10*
G36*
X47700Y-28700D02*
X39180Y-28700D01*
X39180Y-23836D01*
X39180Y-23665D01*
X39115Y-23507D01*
X38994Y-23386D01*
X38836Y-23320D01*
X38680Y-23320D01*
X38680Y-22836D01*
X38680Y-22665D01*
X38615Y-22507D01*
X38494Y-22386D01*
X38336Y-22320D01*
X38165Y-22320D01*
X38007Y-22385D01*
X37886Y-22506D01*
X37820Y-22664D01*
X37820Y-22835D01*
X37885Y-22993D01*
X38006Y-23114D01*
X38164Y-23180D01*
X38335Y-23180D01*
X38493Y-23115D01*
X38614Y-22994D01*
X38680Y-22836D01*
X38680Y-23320D01*
X38665Y-23320D01*
X38507Y-23385D01*
X38386Y-23506D01*
X38320Y-23664D01*
X38320Y-23835D01*
X38385Y-23993D01*
X38506Y-24114D01*
X38664Y-24180D01*
X38835Y-24180D01*
X38993Y-24115D01*
X39114Y-23994D01*
X39180Y-23836D01*
X39180Y-28700D01*
X38680Y-28700D01*
X38680Y-24836D01*
X38680Y-24665D01*
X38615Y-24507D01*
X38494Y-24386D01*
X38336Y-24320D01*
X38165Y-24320D01*
X38007Y-24385D01*
X37886Y-24506D01*
X37820Y-24664D01*
X37820Y-24835D01*
X37885Y-24993D01*
X38006Y-25114D01*
X38164Y-25180D01*
X38335Y-25180D01*
X38493Y-25115D01*
X38614Y-24994D01*
X38680Y-24836D01*
X38680Y-28700D01*
X37680Y-28700D01*
X37680Y-23836D01*
X37680Y-23665D01*
X37615Y-23507D01*
X37494Y-23386D01*
X37336Y-23320D01*
X37165Y-23320D01*
X37007Y-23385D01*
X36886Y-23506D01*
X36820Y-23664D01*
X36820Y-23835D01*
X36885Y-23993D01*
X37006Y-24114D01*
X37164Y-24180D01*
X37335Y-24180D01*
X37493Y-24115D01*
X37614Y-23994D01*
X37680Y-23836D01*
X37680Y-28700D01*
X32989Y-28700D01*
X32989Y-27598D01*
X32989Y-27403D01*
X32915Y-27223D01*
X32777Y-27086D01*
X32598Y-27011D01*
X32403Y-27011D01*
X32223Y-27085D01*
X32086Y-27223D01*
X32011Y-27402D01*
X32011Y-27597D01*
X32085Y-27777D01*
X32223Y-27914D01*
X32402Y-27989D01*
X32597Y-27989D01*
X32777Y-27915D01*
X32914Y-27777D01*
X32989Y-27598D01*
X32989Y-28700D01*
X31050Y-28700D01*
X31050Y-27691D01*
X31085Y-27777D01*
X31223Y-27914D01*
X31402Y-27989D01*
X31597Y-27989D01*
X31777Y-27915D01*
X31914Y-27777D01*
X31989Y-27598D01*
X31989Y-27403D01*
X31915Y-27223D01*
X31777Y-27086D01*
X31598Y-27011D01*
X31403Y-27011D01*
X31223Y-27085D01*
X31086Y-27223D01*
X31050Y-27308D01*
X31050Y-22050D01*
X47700Y-22050D01*
X47700Y-25450D01*
X45700Y-25450D01*
X45700Y-27550D01*
X47700Y-27550D01*
X47700Y-28700D01*
X47700Y-28700D01*
G37*
G54D27*
X47700Y-28700D02*
X39180Y-28700D01*
X39180Y-23836D01*
X39180Y-23665D01*
X39115Y-23507D01*
X38994Y-23386D01*
X38836Y-23320D01*
X38680Y-23320D01*
X38680Y-22836D01*
X38680Y-22665D01*
X38615Y-22507D01*
X38494Y-22386D01*
X38336Y-22320D01*
X38165Y-22320D01*
X38007Y-22385D01*
X37886Y-22506D01*
X37820Y-22664D01*
X37820Y-22835D01*
X37885Y-22993D01*
X38006Y-23114D01*
X38164Y-23180D01*
X38335Y-23180D01*
X38493Y-23115D01*
X38614Y-22994D01*
X38680Y-22836D01*
X38680Y-23320D01*
X38665Y-23320D01*
X38507Y-23385D01*
X38386Y-23506D01*
X38320Y-23664D01*
X38320Y-23835D01*
X38385Y-23993D01*
X38506Y-24114D01*
X38664Y-24180D01*
X38835Y-24180D01*
X38993Y-24115D01*
X39114Y-23994D01*
X39180Y-23836D01*
X39180Y-28700D01*
X38680Y-28700D01*
X38680Y-24836D01*
X38680Y-24665D01*
X38615Y-24507D01*
X38494Y-24386D01*
X38336Y-24320D01*
X38165Y-24320D01*
X38007Y-24385D01*
X37886Y-24506D01*
X37820Y-24664D01*
X37820Y-24835D01*
X37885Y-24993D01*
X38006Y-25114D01*
X38164Y-25180D01*
X38335Y-25180D01*
X38493Y-25115D01*
X38614Y-24994D01*
X38680Y-24836D01*
X38680Y-28700D01*
X37680Y-28700D01*
X37680Y-23836D01*
X37680Y-23665D01*
X37615Y-23507D01*
X37494Y-23386D01*
X37336Y-23320D01*
X37165Y-23320D01*
X37007Y-23385D01*
X36886Y-23506D01*
X36820Y-23664D01*
X36820Y-23835D01*
X36885Y-23993D01*
X37006Y-24114D01*
X37164Y-24180D01*
X37335Y-24180D01*
X37493Y-24115D01*
X37614Y-23994D01*
X37680Y-23836D01*
X37680Y-28700D01*
X32989Y-28700D01*
X32989Y-27598D01*
X32989Y-27403D01*
X32915Y-27223D01*
X32777Y-27086D01*
X32598Y-27011D01*
X32403Y-27011D01*
X32223Y-27085D01*
X32086Y-27223D01*
X32011Y-27402D01*
X32011Y-27597D01*
X32085Y-27777D01*
X32223Y-27914D01*
X32402Y-27989D01*
X32597Y-27989D01*
X32777Y-27915D01*
X32914Y-27777D01*
X32989Y-27598D01*
X32989Y-28700D01*
X31050Y-28700D01*
X31050Y-27691D01*
X31085Y-27777D01*
X31223Y-27914D01*
X31402Y-27989D01*
X31597Y-27989D01*
X31777Y-27915D01*
X31914Y-27777D01*
X31989Y-27598D01*
X31989Y-27403D01*
X31915Y-27223D01*
X31777Y-27086D01*
X31598Y-27011D01*
X31403Y-27011D01*
X31223Y-27085D01*
X31086Y-27223D01*
X31050Y-27308D01*
X31050Y-22050D01*
X47700Y-22050D01*
X47700Y-25450D01*
X45700Y-25450D01*
X45700Y-27550D01*
X47700Y-27550D01*
X47700Y-28700D01*
G54D10*
G36*
X47710Y-20960D02*
X42870Y-20960D01*
X42870Y-14974D01*
X42870Y-14727D01*
X42870Y-13124D01*
X42870Y-12877D01*
X42776Y-12649D01*
X42601Y-12475D01*
X42374Y-12380D01*
X42127Y-12380D01*
X41899Y-12474D01*
X41725Y-12649D01*
X41630Y-12876D01*
X41630Y-13123D01*
X41724Y-13351D01*
X41899Y-13525D01*
X42126Y-13620D01*
X42373Y-13620D01*
X42601Y-13526D01*
X42775Y-13351D01*
X42870Y-13124D01*
X42870Y-14727D01*
X42776Y-14499D01*
X42601Y-14325D01*
X42374Y-14230D01*
X42127Y-14230D01*
X41899Y-14324D01*
X41725Y-14499D01*
X41630Y-14726D01*
X41630Y-14973D01*
X41724Y-15201D01*
X41899Y-15375D01*
X42126Y-15470D01*
X42373Y-15470D01*
X42601Y-15376D01*
X42775Y-15201D01*
X42870Y-14974D01*
X42870Y-20960D01*
X35049Y-20960D01*
X35049Y-12710D01*
X35049Y-12591D01*
X35004Y-12481D01*
X34920Y-12397D01*
X34810Y-12351D01*
X34691Y-12351D01*
X34488Y-12147D01*
X34488Y-11368D01*
X34487Y-11367D01*
X34475Y-11303D01*
X34474Y-11302D01*
X34462Y-11284D01*
X34438Y-11248D01*
X34438Y-11247D01*
X34120Y-10930D01*
X34065Y-10893D01*
X34000Y-10880D01*
X33300Y-10880D01*
X31203Y-10880D01*
X31120Y-10797D01*
X31010Y-10751D01*
X30891Y-10751D01*
X30781Y-10796D01*
X30697Y-10880D01*
X30651Y-10990D01*
X30651Y-11109D01*
X30696Y-11219D01*
X30780Y-11303D01*
X30890Y-11349D01*
X31009Y-11349D01*
X31119Y-11304D01*
X31203Y-11220D01*
X33300Y-11220D01*
X33929Y-11220D01*
X34148Y-11438D01*
X34148Y-12218D01*
X34161Y-12283D01*
X34198Y-12338D01*
X34451Y-12591D01*
X34451Y-12709D01*
X34496Y-12819D01*
X34580Y-12903D01*
X34690Y-12949D01*
X34809Y-12949D01*
X34919Y-12904D01*
X35003Y-12820D01*
X35049Y-12710D01*
X35049Y-20960D01*
X34049Y-20960D01*
X34049Y-11810D01*
X34049Y-11691D01*
X34004Y-11581D01*
X33920Y-11497D01*
X33810Y-11451D01*
X33691Y-11451D01*
X33682Y-11454D01*
X33665Y-11443D01*
X33600Y-11430D01*
X33000Y-11430D01*
X32935Y-11443D01*
X32880Y-11480D01*
X32630Y-11730D01*
X31000Y-11730D01*
X30770Y-11730D01*
X30520Y-11480D01*
X30465Y-11443D01*
X30400Y-11430D01*
X29044Y-11430D01*
X29004Y-11331D01*
X28920Y-11247D01*
X28810Y-11201D01*
X28691Y-11201D01*
X28581Y-11246D01*
X28497Y-11330D01*
X28451Y-11440D01*
X28451Y-11559D01*
X28496Y-11669D01*
X28580Y-11753D01*
X28690Y-11799D01*
X28809Y-11799D01*
X28879Y-11770D01*
X30330Y-11770D01*
X30580Y-12020D01*
X30635Y-12057D01*
X30700Y-12070D01*
X31000Y-12070D01*
X32700Y-12070D01*
X32765Y-12057D01*
X32820Y-12020D01*
X33070Y-11770D01*
X33451Y-11770D01*
X33451Y-11809D01*
X33496Y-11919D01*
X33580Y-12003D01*
X33690Y-12049D01*
X33809Y-12049D01*
X33919Y-12004D01*
X34003Y-11920D01*
X34049Y-11810D01*
X34049Y-20960D01*
X29460Y-20960D01*
X29460Y-27710D01*
X23944Y-27710D01*
X23944Y-24089D01*
X23944Y-23912D01*
X23877Y-23749D01*
X23752Y-23624D01*
X23589Y-23556D01*
X23412Y-23556D01*
X23249Y-23623D01*
X23124Y-23748D01*
X23056Y-23911D01*
X23056Y-24088D01*
X23123Y-24251D01*
X23248Y-24376D01*
X23411Y-24444D01*
X23588Y-24444D01*
X23751Y-24377D01*
X23876Y-24252D01*
X23944Y-24089D01*
X23944Y-27710D01*
X22944Y-27710D01*
X22944Y-27089D01*
X22944Y-26912D01*
X22944Y-24089D01*
X22944Y-23912D01*
X22877Y-23749D01*
X22752Y-23624D01*
X22589Y-23556D01*
X22412Y-23556D01*
X22249Y-23623D01*
X22124Y-23748D01*
X22056Y-23911D01*
X22056Y-24088D01*
X22123Y-24251D01*
X22248Y-24376D01*
X22411Y-24444D01*
X22588Y-24444D01*
X22751Y-24377D01*
X22876Y-24252D01*
X22944Y-24089D01*
X22944Y-26912D01*
X22877Y-26749D01*
X22752Y-26624D01*
X22589Y-26556D01*
X22412Y-26556D01*
X22249Y-26623D01*
X22124Y-26748D01*
X22056Y-26911D01*
X22056Y-27088D01*
X22123Y-27251D01*
X22248Y-27376D01*
X22411Y-27444D01*
X22588Y-27444D01*
X22751Y-27377D01*
X22876Y-27252D01*
X22944Y-27089D01*
X22944Y-27710D01*
X21944Y-27710D01*
X21944Y-27089D01*
X21944Y-26912D01*
X21944Y-24089D01*
X21944Y-23912D01*
X21877Y-23749D01*
X21752Y-23624D01*
X21589Y-23556D01*
X21412Y-23556D01*
X21249Y-23623D01*
X21124Y-23748D01*
X21056Y-23911D01*
X21056Y-24088D01*
X21123Y-24251D01*
X21248Y-24376D01*
X21411Y-24444D01*
X21588Y-24444D01*
X21751Y-24377D01*
X21876Y-24252D01*
X21944Y-24089D01*
X21944Y-26912D01*
X21877Y-26749D01*
X21752Y-26624D01*
X21589Y-26556D01*
X21412Y-26556D01*
X21249Y-26623D01*
X21124Y-26748D01*
X21056Y-26911D01*
X21056Y-27088D01*
X21123Y-27251D01*
X21248Y-27376D01*
X21411Y-27444D01*
X21588Y-27444D01*
X21751Y-27377D01*
X21876Y-27252D01*
X21944Y-27089D01*
X21944Y-27710D01*
X20944Y-27710D01*
X20944Y-27089D01*
X20944Y-26912D01*
X20944Y-24089D01*
X20944Y-23912D01*
X20877Y-23749D01*
X20752Y-23624D01*
X20589Y-23556D01*
X20412Y-23556D01*
X20249Y-23623D01*
X20124Y-23748D01*
X20056Y-23911D01*
X20056Y-24088D01*
X20123Y-24251D01*
X20248Y-24376D01*
X20411Y-24444D01*
X20588Y-24444D01*
X20751Y-24377D01*
X20876Y-24252D01*
X20944Y-24089D01*
X20944Y-26912D01*
X20877Y-26749D01*
X20752Y-26624D01*
X20589Y-26556D01*
X20412Y-26556D01*
X20249Y-26623D01*
X20124Y-26748D01*
X20056Y-26911D01*
X20056Y-27088D01*
X20123Y-27251D01*
X20248Y-27376D01*
X20411Y-27444D01*
X20588Y-27444D01*
X20751Y-27377D01*
X20876Y-27252D01*
X20944Y-27089D01*
X20944Y-27710D01*
X17790Y-27710D01*
X17790Y-25710D01*
X16540Y-25710D01*
X16540Y-24460D01*
X15040Y-24460D01*
X15040Y-22040D01*
X24960Y-22040D01*
X24960Y-23040D01*
X26540Y-23040D01*
X26540Y-19960D01*
X10290Y-19960D01*
X10290Y-14790D01*
X10980Y-14790D01*
X10980Y-18451D01*
X10941Y-18451D01*
X10831Y-18496D01*
X10747Y-18580D01*
X10701Y-18690D01*
X10701Y-18809D01*
X10746Y-18919D01*
X10830Y-19003D01*
X10940Y-19049D01*
X11059Y-19049D01*
X11169Y-19004D01*
X11253Y-18920D01*
X11299Y-18810D01*
X11299Y-18691D01*
X11295Y-18682D01*
X11307Y-18665D01*
X11312Y-18635D01*
X11330Y-18653D01*
X11440Y-18699D01*
X11559Y-18699D01*
X11669Y-18654D01*
X11753Y-18570D01*
X11799Y-18460D01*
X11799Y-18341D01*
X11754Y-18231D01*
X11670Y-18147D01*
X11560Y-18101D01*
X11482Y-18101D01*
X11482Y-17700D01*
X11482Y-14790D01*
X12290Y-14790D01*
X12290Y-12210D01*
X11482Y-12210D01*
X11482Y-11288D01*
X11588Y-11182D01*
X12155Y-11182D01*
X12436Y-11463D01*
X12437Y-11463D01*
X12471Y-11485D01*
X12488Y-11497D01*
X12489Y-11498D01*
X12549Y-11509D01*
X12550Y-11510D01*
X12700Y-11510D01*
X12800Y-11510D01*
X12861Y-11498D01*
X12862Y-11498D01*
X12913Y-11463D01*
X13116Y-11260D01*
X17203Y-11260D01*
X17201Y-11265D01*
X17201Y-11384D01*
X17246Y-11494D01*
X17330Y-11578D01*
X17440Y-11624D01*
X17559Y-11624D01*
X17669Y-11579D01*
X17753Y-11495D01*
X17799Y-11385D01*
X17799Y-11266D01*
X17754Y-11156D01*
X17670Y-11072D01*
X17560Y-11026D01*
X17441Y-11026D01*
X17431Y-11030D01*
X17388Y-10987D01*
X17337Y-10952D01*
X17275Y-10940D01*
X13050Y-10940D01*
X12989Y-10952D01*
X12971Y-10964D01*
X12949Y-10978D01*
X12949Y-10941D01*
X12904Y-10831D01*
X12820Y-10747D01*
X12710Y-10701D01*
X12626Y-10701D01*
X12615Y-10693D01*
X12550Y-10680D01*
X12250Y-10680D01*
X11450Y-10680D01*
X11385Y-10693D01*
X11330Y-10730D01*
X11030Y-11030D01*
X10993Y-11085D01*
X10980Y-11150D01*
X10980Y-12210D01*
X10290Y-12210D01*
X10290Y-10290D01*
X47710Y-10290D01*
X47710Y-17210D01*
X45710Y-17210D01*
X45710Y-19790D01*
X47710Y-19790D01*
X47710Y-20960D01*
X47710Y-20960D01*
G37*
G54D28*
X47710Y-20960D02*
X42870Y-20960D01*
X42870Y-14974D01*
X42870Y-14727D01*
X42870Y-13124D01*
X42870Y-12877D01*
X42776Y-12649D01*
X42601Y-12475D01*
X42374Y-12380D01*
X42127Y-12380D01*
X41899Y-12474D01*
X41725Y-12649D01*
X41630Y-12876D01*
X41630Y-13123D01*
X41724Y-13351D01*
X41899Y-13525D01*
X42126Y-13620D01*
X42373Y-13620D01*
X42601Y-13526D01*
X42775Y-13351D01*
X42870Y-13124D01*
X42870Y-14727D01*
X42776Y-14499D01*
X42601Y-14325D01*
X42374Y-14230D01*
X42127Y-14230D01*
X41899Y-14324D01*
X41725Y-14499D01*
X41630Y-14726D01*
X41630Y-14973D01*
X41724Y-15201D01*
X41899Y-15375D01*
X42126Y-15470D01*
X42373Y-15470D01*
X42601Y-15376D01*
X42775Y-15201D01*
X42870Y-14974D01*
X42870Y-20960D01*
X35049Y-20960D01*
X35049Y-12710D01*
X35049Y-12591D01*
X35004Y-12481D01*
X34920Y-12397D01*
X34810Y-12351D01*
X34691Y-12351D01*
X34488Y-12147D01*
X34488Y-11368D01*
X34487Y-11367D01*
X34475Y-11303D01*
X34474Y-11302D01*
X34462Y-11284D01*
X34438Y-11248D01*
X34438Y-11247D01*
X34120Y-10930D01*
X34065Y-10893D01*
X34000Y-10880D01*
X33300Y-10880D01*
X31203Y-10880D01*
X31120Y-10797D01*
X31010Y-10751D01*
X30891Y-10751D01*
X30781Y-10796D01*
X30697Y-10880D01*
X30651Y-10990D01*
X30651Y-11109D01*
X30696Y-11219D01*
X30780Y-11303D01*
X30890Y-11349D01*
X31009Y-11349D01*
X31119Y-11304D01*
X31203Y-11220D01*
X33300Y-11220D01*
X33929Y-11220D01*
X34148Y-11438D01*
X34148Y-12218D01*
X34161Y-12283D01*
X34198Y-12338D01*
X34451Y-12591D01*
X34451Y-12709D01*
X34496Y-12819D01*
X34580Y-12903D01*
X34690Y-12949D01*
X34809Y-12949D01*
X34919Y-12904D01*
X35003Y-12820D01*
X35049Y-12710D01*
X35049Y-20960D01*
X34049Y-20960D01*
X34049Y-11810D01*
X34049Y-11691D01*
X34004Y-11581D01*
X33920Y-11497D01*
X33810Y-11451D01*
X33691Y-11451D01*
X33682Y-11454D01*
X33665Y-11443D01*
X33600Y-11430D01*
X33000Y-11430D01*
X32935Y-11443D01*
X32880Y-11480D01*
X32630Y-11730D01*
X31000Y-11730D01*
X30770Y-11730D01*
X30520Y-11480D01*
X30465Y-11443D01*
X30400Y-11430D01*
X29044Y-11430D01*
X29004Y-11331D01*
X28920Y-11247D01*
X28810Y-11201D01*
X28691Y-11201D01*
X28581Y-11246D01*
X28497Y-11330D01*
X28451Y-11440D01*
X28451Y-11559D01*
X28496Y-11669D01*
X28580Y-11753D01*
X28690Y-11799D01*
X28809Y-11799D01*
X28879Y-11770D01*
X30330Y-11770D01*
X30580Y-12020D01*
X30635Y-12057D01*
X30700Y-12070D01*
X31000Y-12070D01*
X32700Y-12070D01*
X32765Y-12057D01*
X32820Y-12020D01*
X33070Y-11770D01*
X33451Y-11770D01*
X33451Y-11809D01*
X33496Y-11919D01*
X33580Y-12003D01*
X33690Y-12049D01*
X33809Y-12049D01*
X33919Y-12004D01*
X34003Y-11920D01*
X34049Y-11810D01*
X34049Y-20960D01*
X29460Y-20960D01*
X29460Y-27710D01*
X23944Y-27710D01*
X23944Y-24089D01*
X23944Y-23912D01*
X23877Y-23749D01*
X23752Y-23624D01*
X23589Y-23556D01*
X23412Y-23556D01*
X23249Y-23623D01*
X23124Y-23748D01*
X23056Y-23911D01*
X23056Y-24088D01*
X23123Y-24251D01*
X23248Y-24376D01*
X23411Y-24444D01*
X23588Y-24444D01*
X23751Y-24377D01*
X23876Y-24252D01*
X23944Y-24089D01*
X23944Y-27710D01*
X22944Y-27710D01*
X22944Y-27089D01*
X22944Y-26912D01*
X22944Y-24089D01*
X22944Y-23912D01*
X22877Y-23749D01*
X22752Y-23624D01*
X22589Y-23556D01*
X22412Y-23556D01*
X22249Y-23623D01*
X22124Y-23748D01*
X22056Y-23911D01*
X22056Y-24088D01*
X22123Y-24251D01*
X22248Y-24376D01*
X22411Y-24444D01*
X22588Y-24444D01*
X22751Y-24377D01*
X22876Y-24252D01*
X22944Y-24089D01*
X22944Y-26912D01*
X22877Y-26749D01*
X22752Y-26624D01*
X22589Y-26556D01*
X22412Y-26556D01*
X22249Y-26623D01*
X22124Y-26748D01*
X22056Y-26911D01*
X22056Y-27088D01*
X22123Y-27251D01*
X22248Y-27376D01*
X22411Y-27444D01*
X22588Y-27444D01*
X22751Y-27377D01*
X22876Y-27252D01*
X22944Y-27089D01*
X22944Y-27710D01*
X21944Y-27710D01*
X21944Y-27089D01*
X21944Y-26912D01*
X21944Y-24089D01*
X21944Y-23912D01*
X21877Y-23749D01*
X21752Y-23624D01*
X21589Y-23556D01*
X21412Y-23556D01*
X21249Y-23623D01*
X21124Y-23748D01*
X21056Y-23911D01*
X21056Y-24088D01*
X21123Y-24251D01*
X21248Y-24376D01*
X21411Y-24444D01*
X21588Y-24444D01*
X21751Y-24377D01*
X21876Y-24252D01*
X21944Y-24089D01*
X21944Y-26912D01*
X21877Y-26749D01*
X21752Y-26624D01*
X21589Y-26556D01*
X21412Y-26556D01*
X21249Y-26623D01*
X21124Y-26748D01*
X21056Y-26911D01*
X21056Y-27088D01*
X21123Y-27251D01*
X21248Y-27376D01*
X21411Y-27444D01*
X21588Y-27444D01*
X21751Y-27377D01*
X21876Y-27252D01*
X21944Y-27089D01*
X21944Y-27710D01*
X20944Y-27710D01*
X20944Y-27089D01*
X20944Y-26912D01*
X20944Y-24089D01*
X20944Y-23912D01*
X20877Y-23749D01*
X20752Y-23624D01*
X20589Y-23556D01*
X20412Y-23556D01*
X20249Y-23623D01*
X20124Y-23748D01*
X20056Y-23911D01*
X20056Y-24088D01*
X20123Y-24251D01*
X20248Y-24376D01*
X20411Y-24444D01*
X20588Y-24444D01*
X20751Y-24377D01*
X20876Y-24252D01*
X20944Y-24089D01*
X20944Y-26912D01*
X20877Y-26749D01*
X20752Y-26624D01*
X20589Y-26556D01*
X20412Y-26556D01*
X20249Y-26623D01*
X20124Y-26748D01*
X20056Y-26911D01*
X20056Y-27088D01*
X20123Y-27251D01*
X20248Y-27376D01*
X20411Y-27444D01*
X20588Y-27444D01*
X20751Y-27377D01*
X20876Y-27252D01*
X20944Y-27089D01*
X20944Y-27710D01*
X17790Y-27710D01*
X17790Y-25710D01*
X16540Y-25710D01*
X16540Y-24460D01*
X15040Y-24460D01*
X15040Y-22040D01*
X24960Y-22040D01*
X24960Y-23040D01*
X26540Y-23040D01*
X26540Y-19960D01*
X10290Y-19960D01*
X10290Y-14790D01*
X10980Y-14790D01*
X10980Y-18451D01*
X10941Y-18451D01*
X10831Y-18496D01*
X10747Y-18580D01*
X10701Y-18690D01*
X10701Y-18809D01*
X10746Y-18919D01*
X10830Y-19003D01*
X10940Y-19049D01*
X11059Y-19049D01*
X11169Y-19004D01*
X11253Y-18920D01*
X11299Y-18810D01*
X11299Y-18691D01*
X11295Y-18682D01*
X11307Y-18665D01*
X11312Y-18635D01*
X11330Y-18653D01*
X11440Y-18699D01*
X11559Y-18699D01*
X11669Y-18654D01*
X11753Y-18570D01*
X11799Y-18460D01*
X11799Y-18341D01*
X11754Y-18231D01*
X11670Y-18147D01*
X11560Y-18101D01*
X11482Y-18101D01*
X11482Y-17700D01*
X11482Y-14790D01*
X12290Y-14790D01*
X12290Y-12210D01*
X11482Y-12210D01*
X11482Y-11288D01*
X11588Y-11182D01*
X12155Y-11182D01*
X12436Y-11463D01*
X12437Y-11463D01*
X12471Y-11485D01*
X12488Y-11497D01*
X12489Y-11498D01*
X12549Y-11509D01*
X12550Y-11510D01*
X12700Y-11510D01*
X12800Y-11510D01*
X12861Y-11498D01*
X12862Y-11498D01*
X12913Y-11463D01*
X13116Y-11260D01*
X17203Y-11260D01*
X17201Y-11265D01*
X17201Y-11384D01*
X17246Y-11494D01*
X17330Y-11578D01*
X17440Y-11624D01*
X17559Y-11624D01*
X17669Y-11579D01*
X17753Y-11495D01*
X17799Y-11385D01*
X17799Y-11266D01*
X17754Y-11156D01*
X17670Y-11072D01*
X17560Y-11026D01*
X17441Y-11026D01*
X17431Y-11030D01*
X17388Y-10987D01*
X17337Y-10952D01*
X17275Y-10940D01*
X13050Y-10940D01*
X12989Y-10952D01*
X12971Y-10964D01*
X12949Y-10978D01*
X12949Y-10941D01*
X12904Y-10831D01*
X12820Y-10747D01*
X12710Y-10701D01*
X12626Y-10701D01*
X12615Y-10693D01*
X12550Y-10680D01*
X12250Y-10680D01*
X11450Y-10680D01*
X11385Y-10693D01*
X11330Y-10730D01*
X11030Y-11030D01*
X10993Y-11085D01*
X10980Y-11150D01*
X10980Y-12210D01*
X10290Y-12210D01*
X10290Y-10290D01*
X47710Y-10290D01*
X47710Y-17210D01*
X45710Y-17210D01*
X45710Y-19790D01*
X47710Y-19790D01*
X47710Y-20960D01*
M02*
